<svg version="1.1" xmlns="http://www.w3.org/2000/svg" xmlns:xlink="http://www.w3.org/1999/xlink" stroke-linecap="round" stroke-linejoin="round" stroke-width="0" fill-rule="evenodd" width="1.1043in" height="2.059in" viewBox="70.2 76.1 1104.3 2059" id="aRiCWAQZxsGZvwCEGUR_"><defs><circle cx="0" cy="0" r="4.9" id="aRiCWAQZxsGZvwCEGUR__pad-1"/><circle cx="0" cy="0" r="7.85" id="aRiCWAQZxsGZvwCEGUR__pad-2"/><circle cx="0" cy="0" r="9.85" id="aRiCWAQZxsGZvwCEGUR__pad-3"/><circle cx="0" cy="0" r="16" id="aRiCWAQZxsGZvwCEGUR__pad-4"/><circle cx="0" cy="0" r="29.55" id="aRiCWAQZxsGZvwCEGUR__pad-5"/></defs><g transform="translate(0,2211.2) scale(1,-1)" fill="currentColor" stroke="currentColor"><use xlink:href="#aRiCWAQZxsGZvwCEGUR__pad-1" x="77.1" y="179.4"/><use xlink:href="#aRiCWAQZxsGZvwCEGUR__pad-1" x="75.1" y="277.8"/><use xlink:href="#aRiCWAQZxsGZvwCEGUR__pad-1" x="77.1" y="376.3"/><use xlink:href="#aRiCWAQZxsGZvwCEGUR__pad-1" x="77.1" y="476.7"/><use xlink:href="#aRiCWAQZxsGZvwCEGUR__pad-1" x="77.1" y="579"/><use xlink:href="#aRiCWAQZxsGZvwCEGUR__pad-1" x="77.1" y="677.4"/><use xlink:href="#aRiCWAQZxsGZvwCEGUR__pad-1" x="75.1" y="777.8"/><use xlink:href="#aRiCWAQZxsGZvwCEGUR__pad-1" x="75.1" y="890"/><use xlink:href="#aRiCWAQZxsGZvwCEGUR__pad-1" x="75.1" y="978.6"/><use xlink:href="#aRiCWAQZxsGZvwCEGUR__pad-1" x="75.1" y="1079"/><use xlink:href="#aRiCWAQZxsGZvwCEGUR__pad-1" x="75.1" y="1179.4"/><use xlink:href="#aRiCWAQZxsGZvwCEGUR__pad-1" x="297.5" y="1077.1"/><use xlink:href="#aRiCWAQZxsGZvwCEGUR__pad-1" x="396.4" y="1065.2"/><use xlink:href="#aRiCWAQZxsGZvwCEGUR__pad-1" x="427.4" y="1065.2"/><use xlink:href="#aRiCWAQZxsGZvwCEGUR__pad-1" x="427.9" y="1097.2"/><use xlink:href="#aRiCWAQZxsGZvwCEGUR__pad-1" x="396" y="1096.7"/><use xlink:href="#aRiCWAQZxsGZvwCEGUR__pad-1" x="396.9" y="1002.3"/><use xlink:href="#aRiCWAQZxsGZvwCEGUR__pad-1" x="396.9" y="971.2"/><use xlink:href="#aRiCWAQZxsGZvwCEGUR__pad-1" x="396" y="939.3"/><use xlink:href="#aRiCWAQZxsGZvwCEGUR__pad-1" x="428.4" y="940.7"/><use xlink:href="#aRiCWAQZxsGZvwCEGUR__pad-1" x="459.4" y="939.8"/><use xlink:href="#aRiCWAQZxsGZvwCEGUR__pad-1" x="429.4" y="972.7"/><use xlink:href="#aRiCWAQZxsGZvwCEGUR__pad-1" x="427.4" y="1002.7"/><use xlink:href="#aRiCWAQZxsGZvwCEGUR__pad-1" x="458.9" y="1002.7"/><use xlink:href="#aRiCWAQZxsGZvwCEGUR__pad-1" x="521.9" y="1002.3"/><use xlink:href="#aRiCWAQZxsGZvwCEGUR__pad-1" x="521.9" y="970.8"/><use xlink:href="#aRiCWAQZxsGZvwCEGUR__pad-1" x="522.4" y="939.3"/><use xlink:href="#aRiCWAQZxsGZvwCEGUR__pad-1" x="553.4" y="1002.7"/><use xlink:href="#aRiCWAQZxsGZvwCEGUR__pad-1" x="521.9" y="1065.2"/><use xlink:href="#aRiCWAQZxsGZvwCEGUR__pad-1" x="522.4" y="1096.7"/><use xlink:href="#aRiCWAQZxsGZvwCEGUR__pad-1" x="557.4" y="1136.1"/><use xlink:href="#aRiCWAQZxsGZvwCEGUR__pad-1" x="596.7" y="1153.8"/><use xlink:href="#aRiCWAQZxsGZvwCEGUR__pad-1" x="600.7" y="1118.4"/><use xlink:href="#aRiCWAQZxsGZvwCEGUR__pad-1" x="604.6" y="1029.8"/><use xlink:href="#aRiCWAQZxsGZvwCEGUR__pad-1" x="608.6" y="976.2"/><use xlink:href="#aRiCWAQZxsGZvwCEGUR__pad-1" x="600.7" y="943.2"/><use xlink:href="#aRiCWAQZxsGZvwCEGUR__pad-1" x="610.5" y="917.6"/><use xlink:href="#aRiCWAQZxsGZvwCEGUR__pad-1" x="636.1" y="917.6"/><use xlink:href="#aRiCWAQZxsGZvwCEGUR__pad-1" x="588.9" y="903.8"/><use xlink:href="#aRiCWAQZxsGZvwCEGUR__pad-1" x="588.9" y="829"/><use xlink:href="#aRiCWAQZxsGZvwCEGUR__pad-1" x="598.7" y="695.2"/><use xlink:href="#aRiCWAQZxsGZvwCEGUR__pad-1" x="616.4" y="588.9"/><use xlink:href="#aRiCWAQZxsGZvwCEGUR__pad-1" x="581" y="579"/><use xlink:href="#aRiCWAQZxsGZvwCEGUR__pad-1" x="542.6" y="571.6"/><use xlink:href="#aRiCWAQZxsGZvwCEGUR__pad-1" x="470.8" y="539.7"/><use xlink:href="#aRiCWAQZxsGZvwCEGUR__pad-1" x="457" y="498.3"/><use xlink:href="#aRiCWAQZxsGZvwCEGUR__pad-1" x="502.3" y="431.4"/><use xlink:href="#aRiCWAQZxsGZvwCEGUR__pad-1" x="492.4" y="305.9"/><use xlink:href="#aRiCWAQZxsGZvwCEGUR__pad-1" x="423.5" y="586.9"/><use xlink:href="#aRiCWAQZxsGZvwCEGUR__pad-1" x="394" y="598.7"/><use xlink:href="#aRiCWAQZxsGZvwCEGUR__pad-1" x="381.2" y="696.6"/><use xlink:href="#aRiCWAQZxsGZvwCEGUR__pad-1" x="402.8" y="732.6"/><use xlink:href="#aRiCWAQZxsGZvwCEGUR__pad-1" x="424.5" y="700.6"/><use xlink:href="#aRiCWAQZxsGZvwCEGUR__pad-1" x="449.6" y="756.2"/><use xlink:href="#aRiCWAQZxsGZvwCEGUR__pad-1" x="447.1" y="799.5"/><use xlink:href="#aRiCWAQZxsGZvwCEGUR__pad-1" x="447.1" y="834.9"/><use xlink:href="#aRiCWAQZxsGZvwCEGUR__pad-1" x="411.7" y="882.2"/><use xlink:href="#aRiCWAQZxsGZvwCEGUR__pad-1" x="357.6" y="896.9"/><use xlink:href="#aRiCWAQZxsGZvwCEGUR__pad-1" x="382.2" y="777.8"/><use xlink:href="#aRiCWAQZxsGZvwCEGUR__pad-1" x="476.7" y="1144"/><use xlink:href="#aRiCWAQZxsGZvwCEGUR__pad-1" x="470.8" y="1208.9"/><use xlink:href="#aRiCWAQZxsGZvwCEGUR__pad-1" x="504.2" y="1218.8"/><use xlink:href="#aRiCWAQZxsGZvwCEGUR__pad-1" x="549.5" y="1228.6"/><use xlink:href="#aRiCWAQZxsGZvwCEGUR__pad-1" x="600.7" y="1230.6"/><use xlink:href="#aRiCWAQZxsGZvwCEGUR__pad-1" x="716.8" y="1380.2"/><use xlink:href="#aRiCWAQZxsGZvwCEGUR__pad-1" x="754.2" y="1179.4"/><use xlink:href="#aRiCWAQZxsGZvwCEGUR__pad-1" x="758.2" y="1081"/><use xlink:href="#aRiCWAQZxsGZvwCEGUR__pad-1" x="380.2" y="1271.4"/><use xlink:href="#aRiCWAQZxsGZvwCEGUR__pad-1" x="783.7" y="1984.5"/><use xlink:href="#aRiCWAQZxsGZvwCEGUR__pad-1" x="1063.3" y="2130.2"/><use xlink:href="#aRiCWAQZxsGZvwCEGUR__pad-1" x="1169.6" y="1342.8"/><use xlink:href="#aRiCWAQZxsGZvwCEGUR__pad-1" x="1169.6" y="1293.6"/><use xlink:href="#aRiCWAQZxsGZvwCEGUR__pad-1" x="1169.6" y="1244.4"/><use xlink:href="#aRiCWAQZxsGZvwCEGUR__pad-1" x="1169.6" y="1195.2"/><use xlink:href="#aRiCWAQZxsGZvwCEGUR__pad-1" x="163.7" y="81"/><use xlink:href="#aRiCWAQZxsGZvwCEGUR__pad-2" x="319.2" y="183.4"/><use xlink:href="#aRiCWAQZxsGZvwCEGUR__pad-2" x="500.3" y="208.9"/><use xlink:href="#aRiCWAQZxsGZvwCEGUR__pad-2" x="545.6" y="224.7"/><use xlink:href="#aRiCWAQZxsGZvwCEGUR__pad-2" x="518" y="279.8"/><use xlink:href="#aRiCWAQZxsGZvwCEGUR__pad-2" x="535.7" y="331"/><use xlink:href="#aRiCWAQZxsGZvwCEGUR__pad-2" x="575.1" y="437.3"/><use xlink:href="#aRiCWAQZxsGZvwCEGUR__pad-2" x="651.9" y="175.5"/><use xlink:href="#aRiCWAQZxsGZvwCEGUR__pad-2" x="624.3" y="817.2"/><use xlink:href="#aRiCWAQZxsGZvwCEGUR__pad-2" x="474.7" y="1051.5"/><use xlink:href="#aRiCWAQZxsGZvwCEGUR__pad-2" x="372.3" y="831"/><use xlink:href="#aRiCWAQZxsGZvwCEGUR__pad-2" x="323.1" y="1185.3"/><use xlink:href="#aRiCWAQZxsGZvwCEGUR__pad-2" x="466.8" y="1608.6"/><use xlink:href="#aRiCWAQZxsGZvwCEGUR__pad-2" x="539.7" y="1754.2"/><use xlink:href="#aRiCWAQZxsGZvwCEGUR__pad-2" x="598.7" y="2057.4"/><use xlink:href="#aRiCWAQZxsGZvwCEGUR__pad-2" x="352.6" y="2057.4"/><use xlink:href="#aRiCWAQZxsGZvwCEGUR__pad-2" x="978.6" y="2077.1"/><use xlink:href="#aRiCWAQZxsGZvwCEGUR__pad-2" x="1020" y="1675.5"/><use xlink:href="#aRiCWAQZxsGZvwCEGUR__pad-3" x="384.1" y="1775.9"/><use xlink:href="#aRiCWAQZxsGZvwCEGUR__pad-4" x="118" y="127.8"/><use xlink:href="#aRiCWAQZxsGZvwCEGUR__pad-4" x="118" y="227.8"/><use xlink:href="#aRiCWAQZxsGZvwCEGUR__pad-4" x="118" y="327.8"/><use xlink:href="#aRiCWAQZxsGZvwCEGUR__pad-4" x="118" y="427.8"/><use xlink:href="#aRiCWAQZxsGZvwCEGUR__pad-4" x="118" y="527.8"/><use xlink:href="#aRiCWAQZxsGZvwCEGUR__pad-4" x="118" y="627.8"/><use xlink:href="#aRiCWAQZxsGZvwCEGUR__pad-4" x="118" y="727.8"/><use xlink:href="#aRiCWAQZxsGZvwCEGUR__pad-4" x="118" y="827.8"/><use xlink:href="#aRiCWAQZxsGZvwCEGUR__pad-4" x="118" y="927.8"/><use xlink:href="#aRiCWAQZxsGZvwCEGUR__pad-4" x="118" y="1027.8"/><use xlink:href="#aRiCWAQZxsGZvwCEGUR__pad-4" x="118" y="1127.8"/><use xlink:href="#aRiCWAQZxsGZvwCEGUR__pad-4" x="118" y="1227.8"/><use xlink:href="#aRiCWAQZxsGZvwCEGUR__pad-4" x="118" y="1327.8"/><use xlink:href="#aRiCWAQZxsGZvwCEGUR__pad-4" x="118" y="1427.8"/><use xlink:href="#aRiCWAQZxsGZvwCEGUR__pad-4" x="118" y="1527.8"/><use xlink:href="#aRiCWAQZxsGZvwCEGUR__pad-4" x="118" y="1627.8"/><use xlink:href="#aRiCWAQZxsGZvwCEGUR__pad-4" x="118" y="1727.8"/><use xlink:href="#aRiCWAQZxsGZvwCEGUR__pad-4" x="118" y="1827.8"/><use xlink:href="#aRiCWAQZxsGZvwCEGUR__pad-4" x="118" y="1927.8"/><use xlink:href="#aRiCWAQZxsGZvwCEGUR__pad-4" x="118" y="2027.8"/><use xlink:href="#aRiCWAQZxsGZvwCEGUR__pad-4" x="718" y="2027.8"/><use xlink:href="#aRiCWAQZxsGZvwCEGUR__pad-4" x="718" y="1927.8"/><use xlink:href="#aRiCWAQZxsGZvwCEGUR__pad-4" x="718" y="1827.8"/><use xlink:href="#aRiCWAQZxsGZvwCEGUR__pad-4" x="718" y="1727.8"/><use xlink:href="#aRiCWAQZxsGZvwCEGUR__pad-4" x="718" y="1627.8"/><use xlink:href="#aRiCWAQZxsGZvwCEGUR__pad-4" x="718" y="1527.8"/><use xlink:href="#aRiCWAQZxsGZvwCEGUR__pad-4" x="718" y="1427.8"/><use xlink:href="#aRiCWAQZxsGZvwCEGUR__pad-4" x="718" y="1327.8"/><use xlink:href="#aRiCWAQZxsGZvwCEGUR__pad-4" x="718" y="1227.8"/><use xlink:href="#aRiCWAQZxsGZvwCEGUR__pad-4" x="718" y="1127.8"/><use xlink:href="#aRiCWAQZxsGZvwCEGUR__pad-4" x="718" y="1027.8"/><use xlink:href="#aRiCWAQZxsGZvwCEGUR__pad-4" x="718" y="927.8"/><use xlink:href="#aRiCWAQZxsGZvwCEGUR__pad-4" x="718" y="827.8"/><use xlink:href="#aRiCWAQZxsGZvwCEGUR__pad-4" x="718" y="727.8"/><use xlink:href="#aRiCWAQZxsGZvwCEGUR__pad-4" x="718" y="627.8"/><use xlink:href="#aRiCWAQZxsGZvwCEGUR__pad-4" x="718" y="527.8"/><use xlink:href="#aRiCWAQZxsGZvwCEGUR__pad-4" x="718" y="427.8"/><use xlink:href="#aRiCWAQZxsGZvwCEGUR__pad-4" x="718" y="327.8"/><use xlink:href="#aRiCWAQZxsGZvwCEGUR__pad-4" x="718" y="227.8"/><use xlink:href="#aRiCWAQZxsGZvwCEGUR__pad-4" x="718" y="127.8"/><use xlink:href="#aRiCWAQZxsGZvwCEGUR__pad-5" x="848.3" y="127.8"/><use xlink:href="#aRiCWAQZxsGZvwCEGUR__pad-5" x="848.3" y="227.8"/><use xlink:href="#aRiCWAQZxsGZvwCEGUR__pad-5" x="848.3" y="327.8"/><use xlink:href="#aRiCWAQZxsGZvwCEGUR__pad-5" x="848.3" y="427.8"/><use xlink:href="#aRiCWAQZxsGZvwCEGUR__pad-5" x="848.3" y="527.8"/><use xlink:href="#aRiCWAQZxsGZvwCEGUR__pad-5" x="848.3" y="627.8"/><use xlink:href="#aRiCWAQZxsGZvwCEGUR__pad-5" x="848.3" y="727.8"/><use xlink:href="#aRiCWAQZxsGZvwCEGUR__pad-5" x="848.3" y="827.8"/><use xlink:href="#aRiCWAQZxsGZvwCEGUR__pad-5" x="848.3" y="927.8"/><use xlink:href="#aRiCWAQZxsGZvwCEGUR__pad-5" x="848.3" y="1027.8"/><use xlink:href="#aRiCWAQZxsGZvwCEGUR__pad-5" x="848.3" y="1127.8"/><use xlink:href="#aRiCWAQZxsGZvwCEGUR__pad-5" x="848.3" y="1227.8"/><use xlink:href="#aRiCWAQZxsGZvwCEGUR__pad-5" x="848.3" y="1327.8"/><use xlink:href="#aRiCWAQZxsGZvwCEGUR__pad-5" x="848.3" y="1427.8"/><use xlink:href="#aRiCWAQZxsGZvwCEGUR__pad-5" x="848.3" y="1527.8"/><use xlink:href="#aRiCWAQZxsGZvwCEGUR__pad-5" x="848.3" y="1627.8"/><use xlink:href="#aRiCWAQZxsGZvwCEGUR__pad-5" x="848.3" y="1727.8"/><use xlink:href="#aRiCWAQZxsGZvwCEGUR__pad-5" x="848.3" y="1827.8"/><use xlink:href="#aRiCWAQZxsGZvwCEGUR__pad-5" x="848.3" y="1927.8"/><use xlink:href="#aRiCWAQZxsGZvwCEGUR__pad-5" x="848.3" y="2027.8"/><use xlink:href="#aRiCWAQZxsGZvwCEGUR__pad-5" x="248.3" y="2027.8"/><use xlink:href="#aRiCWAQZxsGZvwCEGUR__pad-5" x="248.3" y="1927.8"/><use xlink:href="#aRiCWAQZxsGZvwCEGUR__pad-5" x="248.3" y="1827.8"/><use xlink:href="#aRiCWAQZxsGZvwCEGUR__pad-5" x="248.3" y="1727.8"/><use xlink:href="#aRiCWAQZxsGZvwCEGUR__pad-5" x="248.3" y="1627.8"/><use xlink:href="#aRiCWAQZxsGZvwCEGUR__pad-5" x="248.3" y="1527.8"/><use xlink:href="#aRiCWAQZxsGZvwCEGUR__pad-5" x="248.3" y="1427.8"/><use xlink:href="#aRiCWAQZxsGZvwCEGUR__pad-5" x="248.3" y="1327.8"/><use xlink:href="#aRiCWAQZxsGZvwCEGUR__pad-5" x="248.3" y="1227.8"/><use xlink:href="#aRiCWAQZxsGZvwCEGUR__pad-5" x="248.3" y="1127.8"/><use xlink:href="#aRiCWAQZxsGZvwCEGUR__pad-5" x="248.3" y="1027.8"/><use xlink:href="#aRiCWAQZxsGZvwCEGUR__pad-5" x="248.3" y="927.8"/><use xlink:href="#aRiCWAQZxsGZvwCEGUR__pad-5" x="248.3" y="827.8"/><use xlink:href="#aRiCWAQZxsGZvwCEGUR__pad-5" x="248.3" y="727.8"/><use xlink:href="#aRiCWAQZxsGZvwCEGUR__pad-5" x="248.3" y="627.8"/><use xlink:href="#aRiCWAQZxsGZvwCEGUR__pad-5" x="248.3" y="527.8"/><use xlink:href="#aRiCWAQZxsGZvwCEGUR__pad-5" x="248.3" y="427.8"/><use xlink:href="#aRiCWAQZxsGZvwCEGUR__pad-5" x="248.3" y="327.8"/><use xlink:href="#aRiCWAQZxsGZvwCEGUR__pad-5" x="248.3" y="227.8"/><use xlink:href="#aRiCWAQZxsGZvwCEGUR__pad-5" x="248.3" y="127.8"/></g></svg>