<svg version="1.1" xmlns="http://www.w3.org/2000/svg" xmlns:xlink="http://www.w3.org/1999/xlink" stroke-linecap="round" stroke-linejoin="round" stroke-width="0" fill-rule="evenodd" width="1.2402in" height="2.1555in" viewBox="18 18 1240.2 2155.5" id="BxSHXbg_CMPmRRXuBgEQ"><defs><circle cx="0" cy="0" r="44.3" id="BxSHXbg_CMPmRRXuBgEQ_pad-11"/><circle cx="0" cy="0" r="24" id="BxSHXbg_CMPmRRXuBgEQ_pad-12"/><circle cx="0" cy="0" r="11.8" id="BxSHXbg_CMPmRRXuBgEQ_pad-14"/><circle cx="0" cy="0" r="8.85" id="BxSHXbg_CMPmRRXuBgEQ_pad-15"/><circle cx="0" cy="0" r="14.75" id="BxSHXbg_CMPmRRXuBgEQ_pad-17"/><circle cx="0" cy="0" r="9.85" id="BxSHXbg_CMPmRRXuBgEQ_pad-19"/></defs><g transform="translate(0,2191.5) scale(1,-1)" fill="currentColor" stroke="currentColor"><path d="M 18 18 18 2173.5 1258.2 2173.5 1258.2 1012.1 943.2 1012.1 943.2 18 18 18" fill="none" stroke-width="0"/><use xlink:href="#BxSHXbg_CMPmRRXuBgEQ_pad-11" x="248.3" y="127.8"/><use xlink:href="#BxSHXbg_CMPmRRXuBgEQ_pad-11" x="248.3" y="227.8"/><use xlink:href="#BxSHXbg_CMPmRRXuBgEQ_pad-11" x="248.3" y="327.8"/><use xlink:href="#BxSHXbg_CMPmRRXuBgEQ_pad-11" x="248.3" y="427.8"/><use xlink:href="#BxSHXbg_CMPmRRXuBgEQ_pad-11" x="248.3" y="527.8"/><use xlink:href="#BxSHXbg_CMPmRRXuBgEQ_pad-11" x="248.3" y="627.8"/><use xlink:href="#BxSHXbg_CMPmRRXuBgEQ_pad-11" x="248.3" y="727.8"/><use xlink:href="#BxSHXbg_CMPmRRXuBgEQ_pad-11" x="248.3" y="827.8"/><use xlink:href="#BxSHXbg_CMPmRRXuBgEQ_pad-11" x="248.3" y="927.8"/><use xlink:href="#BxSHXbg_CMPmRRXuBgEQ_pad-11" x="248.3" y="1027.8"/><use xlink:href="#BxSHXbg_CMPmRRXuBgEQ_pad-11" x="248.3" y="1127.8"/><use xlink:href="#BxSHXbg_CMPmRRXuBgEQ_pad-11" x="248.3" y="1227.8"/><use xlink:href="#BxSHXbg_CMPmRRXuBgEQ_pad-11" x="248.3" y="1327.8"/><use xlink:href="#BxSHXbg_CMPmRRXuBgEQ_pad-11" x="248.3" y="1427.8"/><use xlink:href="#BxSHXbg_CMPmRRXuBgEQ_pad-11" x="248.3" y="1527.8"/><use xlink:href="#BxSHXbg_CMPmRRXuBgEQ_pad-11" x="248.3" y="1627.8"/><use xlink:href="#BxSHXbg_CMPmRRXuBgEQ_pad-11" x="248.3" y="1727.8"/><use xlink:href="#BxSHXbg_CMPmRRXuBgEQ_pad-11" x="248.3" y="1827.8"/><use xlink:href="#BxSHXbg_CMPmRRXuBgEQ_pad-11" x="248.3" y="1927.8"/><use xlink:href="#BxSHXbg_CMPmRRXuBgEQ_pad-11" x="248.3" y="2027.8"/><use xlink:href="#BxSHXbg_CMPmRRXuBgEQ_pad-11" x="848.3" y="2027.8"/><use xlink:href="#BxSHXbg_CMPmRRXuBgEQ_pad-11" x="848.3" y="1927.8"/><use xlink:href="#BxSHXbg_CMPmRRXuBgEQ_pad-11" x="848.3" y="1827.8"/><use xlink:href="#BxSHXbg_CMPmRRXuBgEQ_pad-11" x="848.3" y="1727.8"/><use xlink:href="#BxSHXbg_CMPmRRXuBgEQ_pad-11" x="848.3" y="1627.8"/><use xlink:href="#BxSHXbg_CMPmRRXuBgEQ_pad-11" x="848.3" y="1527.8"/><use xlink:href="#BxSHXbg_CMPmRRXuBgEQ_pad-11" x="848.3" y="1427.8"/><use xlink:href="#BxSHXbg_CMPmRRXuBgEQ_pad-11" x="848.3" y="1327.8"/><use xlink:href="#BxSHXbg_CMPmRRXuBgEQ_pad-11" x="848.3" y="1227.8"/><use xlink:href="#BxSHXbg_CMPmRRXuBgEQ_pad-11" x="848.3" y="1127.8"/><use xlink:href="#BxSHXbg_CMPmRRXuBgEQ_pad-11" x="848.3" y="1027.8"/><use xlink:href="#BxSHXbg_CMPmRRXuBgEQ_pad-11" x="848.3" y="927.8"/><use xlink:href="#BxSHXbg_CMPmRRXuBgEQ_pad-11" x="848.3" y="827.8"/><use xlink:href="#BxSHXbg_CMPmRRXuBgEQ_pad-11" x="848.3" y="727.8"/><use xlink:href="#BxSHXbg_CMPmRRXuBgEQ_pad-11" x="848.3" y="627.8"/><use xlink:href="#BxSHXbg_CMPmRRXuBgEQ_pad-11" x="848.3" y="527.8"/><use xlink:href="#BxSHXbg_CMPmRRXuBgEQ_pad-11" x="848.3" y="427.8"/><use xlink:href="#BxSHXbg_CMPmRRXuBgEQ_pad-11" x="848.3" y="327.8"/><use xlink:href="#BxSHXbg_CMPmRRXuBgEQ_pad-11" x="848.3" y="227.8"/><use xlink:href="#BxSHXbg_CMPmRRXuBgEQ_pad-11" x="848.3" y="127.8"/><use xlink:href="#BxSHXbg_CMPmRRXuBgEQ_pad-12" x="718" y="127.8"/><use xlink:href="#BxSHXbg_CMPmRRXuBgEQ_pad-12" x="718" y="227.8"/><use xlink:href="#BxSHXbg_CMPmRRXuBgEQ_pad-12" x="718" y="327.8"/><use xlink:href="#BxSHXbg_CMPmRRXuBgEQ_pad-12" x="718" y="427.8"/><use xlink:href="#BxSHXbg_CMPmRRXuBgEQ_pad-12" x="718" y="527.8"/><use xlink:href="#BxSHXbg_CMPmRRXuBgEQ_pad-12" x="718" y="627.8"/><use xlink:href="#BxSHXbg_CMPmRRXuBgEQ_pad-12" x="718" y="727.8"/><use xlink:href="#BxSHXbg_CMPmRRXuBgEQ_pad-12" x="718" y="827.8"/><use xlink:href="#BxSHXbg_CMPmRRXuBgEQ_pad-12" x="718" y="927.8"/><use xlink:href="#BxSHXbg_CMPmRRXuBgEQ_pad-12" x="718" y="1027.8"/><use xlink:href="#BxSHXbg_CMPmRRXuBgEQ_pad-12" x="718" y="1127.8"/><use xlink:href="#BxSHXbg_CMPmRRXuBgEQ_pad-12" x="718" y="1227.8"/><use xlink:href="#BxSHXbg_CMPmRRXuBgEQ_pad-12" x="718" y="1327.8"/><use xlink:href="#BxSHXbg_CMPmRRXuBgEQ_pad-12" x="718" y="1427.8"/><use xlink:href="#BxSHXbg_CMPmRRXuBgEQ_pad-12" x="718" y="1527.8"/><use xlink:href="#BxSHXbg_CMPmRRXuBgEQ_pad-12" x="718" y="1627.8"/><use xlink:href="#BxSHXbg_CMPmRRXuBgEQ_pad-12" x="718" y="1727.8"/><use xlink:href="#BxSHXbg_CMPmRRXuBgEQ_pad-12" x="718" y="1827.8"/><use xlink:href="#BxSHXbg_CMPmRRXuBgEQ_pad-12" x="718" y="1927.8"/><use xlink:href="#BxSHXbg_CMPmRRXuBgEQ_pad-12" x="718" y="2027.8"/><use xlink:href="#BxSHXbg_CMPmRRXuBgEQ_pad-12" x="118" y="2027.8"/><use xlink:href="#BxSHXbg_CMPmRRXuBgEQ_pad-12" x="118" y="1927.8"/><use xlink:href="#BxSHXbg_CMPmRRXuBgEQ_pad-12" x="118" y="1827.8"/><use xlink:href="#BxSHXbg_CMPmRRXuBgEQ_pad-12" x="118" y="1727.8"/><use xlink:href="#BxSHXbg_CMPmRRXuBgEQ_pad-12" x="118" y="1627.8"/><use xlink:href="#BxSHXbg_CMPmRRXuBgEQ_pad-12" x="118" y="1527.8"/><use xlink:href="#BxSHXbg_CMPmRRXuBgEQ_pad-12" x="118" y="1427.8"/><use xlink:href="#BxSHXbg_CMPmRRXuBgEQ_pad-12" x="118" y="1327.8"/><use xlink:href="#BxSHXbg_CMPmRRXuBgEQ_pad-12" x="118" y="1227.8"/><use xlink:href="#BxSHXbg_CMPmRRXuBgEQ_pad-12" x="118" y="1127.8"/><use xlink:href="#BxSHXbg_CMPmRRXuBgEQ_pad-12" x="118" y="1027.8"/><use xlink:href="#BxSHXbg_CMPmRRXuBgEQ_pad-12" x="118" y="927.8"/><use xlink:href="#BxSHXbg_CMPmRRXuBgEQ_pad-12" x="118" y="827.8"/><use xlink:href="#BxSHXbg_CMPmRRXuBgEQ_pad-12" x="118" y="727.8"/><use xlink:href="#BxSHXbg_CMPmRRXuBgEQ_pad-12" x="118" y="627.8"/><use xlink:href="#BxSHXbg_CMPmRRXuBgEQ_pad-12" x="118" y="527.8"/><use xlink:href="#BxSHXbg_CMPmRRXuBgEQ_pad-12" x="118" y="427.8"/><use xlink:href="#BxSHXbg_CMPmRRXuBgEQ_pad-12" x="118" y="327.8"/><use xlink:href="#BxSHXbg_CMPmRRXuBgEQ_pad-12" x="118" y="227.8"/><use xlink:href="#BxSHXbg_CMPmRRXuBgEQ_pad-12" x="118" y="127.8"/><path d="M 96.4 97.3 37.8 97.3 M 37.8 113.1 84.1 113.1 M 86.7 106.9 97.1 96.5 110.7 90.9 125.3 90.9 138.9 96.5 149.3 106.9 154.9 120.5 154.9 135.2 149.3 148.8 138.9 159.1 125.3 164.8 110.7 164.8 97.1 159.1 86.7 148.8 81.1 135.2 81.1 120.5 86.7 106.9 M 81.1 129 37.8 129 M 37.8 144.8 85.1 144.8 M 100.7 160.7 37.8 160.7 M 37.8 176.5 216.3 176.5 M 215.9 176.3 219.5 177.8 215.9 179.3 199.8 195.4 191.1 216.5 191.1 239.2 199.8 260.3 215.9 276.3 219.5 277.8 215.9 279.3 199.8 295.4 191.1 316.5 191.1 339.2 199.8 360.3 215.9 376.3 219.5 377.8 215.9 379.3 199.8 395.4 191.1 416.5 191.1 439.2 199.8 460.3 215.9 476.3 219.5 477.8 215.9 479.3 199.8 495.4 191.1 516.5 191.1 539.2 199.8 560.3 215.9 576.3 219.5 577.8 215.9 579.3 199.8 595.4 191.1 616.5 191.1 639.2 199.8 660.3 215.9 676.3 219.5 677.8 215.9 679.3 199.8 695.4 191.1 716.5 191.1 739.2 199.8 760.3 215.9 776.3 219.5 777.8 215.9 779.3 199.8 795.4 191.1 816.5 191.1 839.2 199.8 860.3 215.9 876.3 219.5 877.8 215.9 879.3 199.8 895.4 191.1 916.5 191.1 939.2 199.8 960.3 215.9 976.3 219.5 977.8 215.9 979.3 199.8 995.4 191.1 1016.5 191.1 1039.2 199.8 1060.3 215.9 1076.3 219.5 1077.8 215.9 1079.3 199.8 1095.4 191.1 1116.5 191.1 1139.2 199.8 1160.3 215.9 1176.3 219.5 1177.8 215.9 1179.3 199.8 1195.4 191.1 1216.5 191.1 1239.2 199.8 1260.3 215.9 1276.3 219.5 1277.8 215.9 1279.3 199.8 1295.4 191.1 1316.5 191.1 1339.2 199.8 1360.3 215.9 1376.3 219.5 1377.8 215.9 1379.3 199.8 1395.4 191.1 1416.5 191.1 1439.2 199.8 1460.3 215.9 1476.3 219.5 1477.8 215.9 1479.3 199.8 1495.4 191.1 1516.5 191.1 1539.2 199.8 1560.3 214.8 1575.2 207.7 1580.3 200.8 1587.3 195 1595.2 190.6 1603.9 187.6 1613.3 186.3 1621.1 241.6 1621.1 241.6 1634.6 186.3 1634.6 187.6 1642.4 190.6 1651.8 195 1660.5 200.8 1668.4 207.7 1675.4 214.8 1680.5 199.8 1695.4 191.1 1716.5 191.1 1739.2 199.8 1760.3 215.9 1776.3 219.5 1777.8 215.9 1779.3 199.8 1795.4 191.1 1816.5 191.1 1839.2 199.8 1860.3 215.9 1876.3 219.5 1877.8 215.9 1879.3 199.8 1895.4 191.1 1916.5 191.1 1939.2 199.8 1960.3 214.8 1975.2 207.7 1980.3 200.8 1987.3 195 1995.2 190.6 2003.9 187.6 2013.3 186.3 2021.1 241.6 2021.1 241.6 2034.6 241.6 2089.8 233.7 2088.6 224.4 2085.6 215.7 2081.1 207.7 2075.4 200.8 2068.4 195 2060.5 190.6 2051.8 187.6 2042.4 186.3 2034.6 241.6 2034.6 255.1 2034.6 310.3 2034.6 309.1 2042.4 306 2051.8 301.6 2060.5 295.8 2068.4 288.9 2075.4 281 2081.1 272.2 2085.6 262.9 2088.6 255.1 2089.8 255.1 2034.6 255.1 2021.1 310.3 2021.1 309.1 2013.3 306 2003.9 301.6 1995.2 295.8 1987.3 288.9 1980.3 281.9 1975.2 296.8 1960.3 305.5 1939.2 305.5 1916.5 296.8 1895.4 280.7 1879.3 277.1 1877.8 280.7 1876.3 296.8 1860.3 305.5 1839.2 305.5 1816.5 296.8 1795.4 280.7 1779.3 277.1 1777.8 280.7 1776.3 296.8 1760.3 305.5 1739.2 305.5 1716.5 296.8 1695.4 281.9 1680.5 288.9 1675.4 295.8 1668.4 301.6 1660.5 306 1651.8 309.1 1642.4 310.1 1635.9 310.1 1674.8 309.6 1681.8 310.1 1682.5 310.1 1683.3 315.1 1688.3 321.9 1696.3 321.9 1697.1 326.9 1702.1 331.6 1707.5 332.4 1707.6 333 1708.2 340.1 1708.2 347.2 1708.7 347.8 1708.2 441.3 1708.2 444 1710.9 444 2094.6 442.9 2096.1 444 2102.2 444 2108.5 445.2 2109.8 445.5 2111.5 450.6 2115.2 455 2119.6 456.8 2119.6 464.4 2125 468.8 2129.4 470.6 2129.4 472 2130.5 478.2 2129.4 590.8 2129.4 591.9 2128.4 608.1 2128.4 609.1 2127.4 621.4 2127.4 622.4 2126.4 991.2 2126.4 993.2 2128 1007.1 2126.5 1012.6 2119.6 1014 2119.6 1025.1 2108.5 1025.1 2051.5 1014 2040.4 1002.2 2028.6 995.6 2028.6 995.6 1681.2 999 1689.5 1006 1696.4 1015 1700.2 1024.9 1700.2 1034 1696.4 1040.9 1689.5 1044.4 1681.2 1044.4 2118.3 1041.5 2121.2 1041.5 2139.2 1054.3 2152 1072.3 2152 1085.1 2139.2 1085.1 2121.2 1082.2 2118.3 1082.2 1364.4 1084.9 1361.7 1157.7 1361.7 1160.6 1364.6 1178.6 1364.6 1191.4 1351.8 1191.4 1333.8 1178.6 1321 1160.6 1321 1157.7 1323.9 1069.2 1323.9 1044.4 1348.7 1044.4 1669.7 1040.9 1661.5 1034 1654.5 1024.9 1650.7 1015 1650.7 1006 1654.5 999 1661.5 995.6 1669.7 995.6 1315.2 998.3 1312.5 1157.7 1312.5 1160.6 1315.4 1178.6 1315.4 1191.4 1302.6 1191.4 1284.6 1178.6 1271.8 1160.6 1271.8 1157.7 1274.7 982.6 1274.7 972 1285.3 972 1266 974.7 1263.3 1157.7 1263.3 1160.6 1266.2 1178.6 1266.2 1191.4 1253.4 1191.4 1235.4 1178.6 1222.6 1238.3 1222.6 M 1238.3 1206.8 1188.8 1206.8 M 1191.4 1204.2 1178.6 1216.9 1160.6 1216.9 1157.7 1214.1 954.3 1214.1 948.3 1219.4 948.3 1236.1 959 1225.5 1157.7 1225.5 1160.6 1222.6 1178.6 1222.6 M 1191.4 1238.5 1238.3 1238.5 M 1238.3 1254.3 1190.5 1254.3 M 1191.4 1286 1238.3 1286 M 1238.3 1270.2 972 1270.2 M 948.3 1222.6 1160.5 1222.6 M 1157.7 1176.2 1160.6 1173.4 1178.6 1173.4 1191.4 1186.1 1191.4 1204.2 M 1191.4 1190.9 1238.3 1190.9 M 1238.3 1175.1 1180.3 1175.1 M 1158.9 1175.1 882 1175.1 M 880.7 1176.3 877.1 1177.8 880.7 1179.3 896.8 1195.4 905.5 1216.5 905.5 1239.2 896.8 1260.3 880.7 1276.3 877.1 1277.8 880.7 1279.3 896.8 1295.4 905.5 1316.5 905.5 1339.2 896.8 1360.3 880.7 1376.3 877.1 1377.8 880.7 1379.3 896.8 1395.4 905.5 1416.5 905.5 1439.2 896.8 1460.3 881.9 1475.2 888.9 1480.3 895.8 1487.3 901.6 1495.2 906 1503.9 909.1 1513.3 910.3 1521.1 855.1 1521.1 855.1 1534.6 910.3 1534.6 909.1 1542.4 906 1551.8 901.6 1560.5 895.8 1568.4 888.9 1575.4 885.5 1577.8 888.9 1580.3 895.8 1587.3 901.6 1595.2 906 1603.9 909.1 1613.3 910.3 1621.1 855.1 1621.1 855.1 1634.6 910.3 1634.6 909.1 1642.4 906 1651.8 901.6 1660.5 895.8 1668.4 888.9 1675.4 881.9 1680.5 896.8 1695.4 905.5 1716.5 905.5 1739.2 896.8 1760.3 880.7 1776.3 877.1 1777.8 880.7 1779.3 896.8 1795.4 905.5 1816.5 905.5 1839.2 896.8 1860.3 880.7 1876.3 877.1 1877.8 880.7 1879.3 896.8 1895.4 905.5 1916.5 905.5 1939.2 896.8 1960.3 880.7 1976.3 877.1 1977.8 880.7 1979.3 896.8 1995.4 905.5 2016.5 905.5 2039.2 896.8 2060.3 890 2067.1 909.6 2067.1 910.5 2066.2 910.5 1218.1 910.1 1217.6 910.5 1210.4 910.5 1203.1 911 1202.6 911 1202 916.4 1197.1 921.6 1192 922.2 1192 934.1 1181.4 939.3 1176.2 939.9 1176.2 940.4 1175.8 947.7 1176.2 1157.7 1176.2 M 1238.3 1159.2 897.3 1159.2 M 896.8 1160.3 880.7 1176.3 M 892.3 1190.9 923.5 1190.9 M 910.5 1206.8 901.5 1206.8 M 905.5 1222.6 910.5 1222.6 M 910.5 1238.5 905.5 1238.5 M 910.5 1254.3 899.3 1254.3 M 910.5 1270.2 886.9 1270.2 M 887.4 1286 910.5 1286 M 910.5 1301.9 899.5 1301.9 M 905.5 1317.7 910.5 1317.7 M 910.5 1333.6 905.5 1333.6 M 901.3 1349.4 910.5 1349.4 M 910.5 1365.3 891.8 1365.3 M 882.5 1381.1 910.5 1381.1 M 910.5 1397 897.4 1397 M 904 1412.8 910.5 1412.8 M 910.5 1428.7 905.5 1428.7 M 903.3 1444.5 910.5 1444.5 M 910.5 1460.4 896.7 1460.4 M 883.2 1476.2 910.5 1476.2 M 910.5 1492.1 899.3 1492.1 M 907.3 1507.9 910.5 1507.9 M 910.5 1523.8 855.1 1523.8 M 855.1 1534.6 841.6 1534.6 841.6 1589.8 841.6 1621.1 855.1 1621.1 855.1 1534.6 M 855.1 1539.6 841.6 1539.6 M 841.6 1555.5 855.1 1555.5 M 855.1 1571.3 841.6 1571.3 M 841.6 1587.2 855.1 1587.2 M 855.1 1603 841.6 1603 M 841.6 1618.9 855.1 1618.9 M 895.7 1587.2 910.5 1587.2 M 910.5 1603 905.6 1603 M 910 1618.9 910.5 1618.9 M 910.3 1634.7 910.5 1634.7 M 910.5 1650.6 906.4 1650.6 M 910.5 1666.4 897.3 1666.4 M 910.5 1682.3 883.6 1682.3 M 897.9 1698.1 910.5 1698.1 M 910.5 1714 904.5 1714 M 905.5 1729.8 910.5 1729.8 M 910.5 1745.7 902.9 1745.7 M 895.6 1761.5 910.5 1761.5 M 910.5 1777.4 878.3 1777.4 M 894.6 1793.2 910.5 1793.2 M 910.5 1809.1 902.5 1809.1 M 905.5 1824.9 910.5 1824.9 M 910.5 1840.8 904.9 1840.8 M 910.5 1856.6 898.3 1856.6 M 910.5 1872.5 884.6 1872.5 M 889.7 1888.3 910.5 1888.3 M 910.5 1904.2 900.4 1904.2 M 905.5 1920 910.5 1920 M 910.5 1935.9 905.5 1935.9 M 910.5 1951.7 900.4 1951.7 M 910.5 1967.6 889.5 1967.6 M 884.8 1983.4 910.5 1983.4 M 910.5 1999.3 898.4 1999.3 M 905 2015.1 910.5 2015.1 M 910.5 2031 905.5 2031 M 902.4 2046.8 910.5 2046.8 M 910.5 2062.7 894.4 2062.7 M 806.6 2067.1 799.8 2060.3 791.1 2039.2 791.1 2016.5 796.1 2004.4 793.2 2007.3 774.3 2007.3 761 1994 761 1975.1 764.8 1971.3 764.8 1201 763.6 1202.2 744.8 1202.2 731.5 1188.8 731.5 1170 744.8 1156.7 763.6 1156.7 764.8 1157.8 764.8 1102.8 749.1 1102.8 736.4 1090 736.4 1072 749.1 1059.2 764.8 1059.2 764.8 903.8 750.3 889.3 619.4 889.3 611.6 902.4 611.6 913.3 604.5 920.4 610.1 920.4 613.9 924.3 614.3 924.3 614.3 908.6 627.1 895.8 645.1 895.8 657.9 908.6 657.9 926.6 654.1 930.5 659 935.4 670.8 947.2 670.8 2067.1 806.6 2067.1 M 802.2 2062.7 730.4 2062.7 M 725.3 2064.8 738.9 2059.1 749.3 2048.8 754.9 2035.2 754.9 2020.5 749.3 2006.9 738.9 1996.5 725.3 1990.9 710.7 1990.9 697.1 1996.5 686.7 2006.9 681.1 2020.5 681.1 2035.2 686.7 2048.8 697.1 2059.1 710.7 2064.8 725.3 2064.8 M 705.6 2062.7 670.8 2062.7 M 670.8 2046.8 685.9 2046.8 M 681.1 2031 670.8 2031 M 670.8 2015.1 683.3 2015.1 M 694.4 1999.3 670.8 1999.3 M 670.8 1983.4 761 1983.4 M 764.8 1967.6 670.8 1967.6 M 670.8 1951.7 689.6 1951.7 M 686.7 1948.8 697.1 1959.1 710.7 1964.8 725.3 1964.8 738.9 1959.1 749.3 1948.8 754.9 1935.2 754.9 1920.5 749.3 1906.9 738.9 1896.5 725.3 1890.9 710.7 1890.9 697.1 1896.5 686.7 1906.9 681.1 1920.5 681.1 1935.2 686.7 1948.8 M 681.4 1935.9 670.8 1935.9 M 670.8 1920 681.3 1920 M 689.5 1904.2 670.8 1904.2 M 670.8 1888.3 764.8 1888.3 M 764.8 1872.5 670.8 1872.5 M 670.8 1856.6 694.5 1856.6 M 697.1 1859.1 686.7 1848.8 681.1 1835.2 681.1 1820.5 686.7 1806.9 697.1 1796.5 710.7 1790.9 725.3 1790.9 738.9 1796.5 749.3 1806.9 754.9 1820.5 754.9 1835.2 749.3 1848.8 738.9 1859.1 725.3 1864.8 710.7 1864.8 697.1 1859.1 M 683.4 1840.8 670.8 1840.8 M 670.8 1824.9 681.1 1824.9 M 685.8 1809.1 670.8 1809.1 M 670.8 1793.2 705.1 1793.2 M 710.7 1764.8 697.1 1759.1 686.7 1748.8 681.1 1735.2 681.1 1720.5 686.7 1706.9 697.1 1696.5 710.7 1690.9 725.3 1690.9 738.9 1696.5 749.3 1706.9 754.9 1720.5 754.9 1735.2 749.3 1748.8 738.9 1759.1 725.3 1764.8 710.7 1764.8 M 702.8 1761.5 670.8 1761.5 M 670.8 1745.7 685.4 1745.7 M 681.1 1729.8 670.8 1729.8 M 670.8 1714 683.8 1714 M 695.5 1698.1 670.8 1698.1 M 670.8 1682.3 764.8 1682.3 M 764.8 1698.1 740.5 1698.1 M 752.2 1714 764.8 1714 M 764.8 1729.8 754.9 1729.8 M 750.6 1745.7 764.8 1745.7 M 764.8 1761.5 733.2 1761.5 M 730.9 1793.2 764.8 1793.2 M 764.8 1777.4 670.8 1777.4 M 611.3 1777.4 481.8 1777.4 M 481.8 1793.2 611.3 1793.2 M 611.3 1809.1 481.8 1809.1 M 481.8 1824.9 611.3 1824.9 M 611.3 1840.8 481.8 1840.8 M 481.8 1856.6 611.3 1856.6 M 611.3 1872.5 481.8 1872.5 M 481.8 1888.3 611.3 1888.3 M 611.3 1904.2 481.8 1904.2 M 481.8 1920 611.3 1920 M 611.3 1935.9 481.8 1935.9 M 481.8 1951.7 611.3 1951.7 M 611.3 1967.6 481.8 1967.6 M 481.8 1983.4 611.3 1983.4 M 611.3 1999.3 481.8 1999.3 M 481.8 2015.1 611.3 2015.1 M 611.3 2031 481.8 2031 M 481.8 2046.8 611.3 2046.8 M 611.3 2062.7 481.8 2062.7 M 481.8 2078.5 611.3 2078.5 M 611.3 2092.8 611.3 1170.1 605.8 1175.6 587.7 1175.6 575 1162.8 575 1149.3 566.4 1157.9 549.4 1157.9 556.7 1164.4 557.3 1164.4 562.5 1169.6 567.9 1174.4 568 1175.1 568.4 1175.5 568.4 1182.8 568.8 1190.1 568.4 1190.6 568.4 1216.8 571.3 1219.6 571.3 1237.7 558.5 1250.4 540.5 1250.4 527.7 1237.7 527.7 1219.6 530.6 1216.8 530.6 1191.8 515.2 1178.2 514.6 1178.2 509.4 1173 504 1168.2 504 1167.5 503.5 1167.1 503.5 1159.8 503.1 1152.5 503.5 1152 503.5 1108.6 500.6 1105.8 500.6 1087.7 507.1 1081.2 500.2 1074.3 500.2 1056.2 512.9 1043.5 531 1043.5 543.7 1056.2 543.7 1074.3 537.2 1080.7 544.2 1087.7 544.2 1105.8 541.4 1108.6 541.4 1121.3 548.3 1114.3 566.4 1114.3 578.9 1126.8 578.9 1109.4 591.7 1096.6 609.7 1096.6 611.3 1098.2 611.3 1051.6 595.6 1051.6 582.8 1038.8 582.8 1020.8 585 1018.6 568.4 1018.6 562.5 1024.5 544.4 1024.5 537.4 1017.6 531 1024 512.9 1024 510.2 1021.3 470.9 1021.6 468 1024.5 449.9 1024.5 443.2 1017.8 436.5 1024.5 418.4 1024.5 405.7 1011.8 405.7 993.7 412.6 986.7 412.4 986.5 406 993 391.3 993 391.3 1043.5 405.5 1043.5 411.9 1049.9 418.4 1043.5 436.5 1043.5 449.2 1056.2 449.2 1058.1 459.5 1066 460.9 1066 465.5 1070.7 470.8 1074.7 471 1076.1 472 1077.1 472 1083.7 472.8 1090.3 472 1091.4 472 1116.4 458.2 1130.2 447.1 1141.3 369.6 1141.3 369.6 1199.7 369.9 1200 369.6 1207.4 369.6 1214.8 369.2 1215.2 369.2 1215.7 363.7 1220.7 358.5 1225.9 358 1225.9 347.9 1235 347.9 1668.5 349.5 1670.3 456.9 1670.3 468 1681.4 481.8 1695.2 481.8 2090.9 482.7 2091.6 590.8 2091.6 591.9 2092.7 608.1 2092.7 609.1 2093.7 612.2 2093.7 611.3 2092.8 M 741.6 1999.3 766.3 1999.3 M 752.7 2015.1 791.7 2015.1 M 791.1 2031 754.9 2031 M 750.1 2046.8 794.2 2046.8 M 764.8 1951.7 746.4 1951.7 M 754.6 1935.9 764.8 1935.9 M 764.8 1920 754.7 1920 M 746.5 1904.2 764.8 1904.2 M 764.8 1856.6 741.5 1856.6 M 752.6 1840.8 764.8 1840.8 M 764.8 1824.9 754.9 1824.9 M 750.2 1809.1 764.8 1809.1 M 764.8 1666.4 734.8 1666.4 M 734.1 1666.8 727.8 1668.8 721.3 1669.8 718 1669.8 718 1627.8 718 1585.8 721.3 1585.8 727.8 1586.9 734.1 1588.9 740 1591.9 745.4 1595.8 750 1600.5 753.9 1605.8 756.9 1611.7 759 1618 760 1624.5 760 1627.8 718 1627.8 718 1627.8 718 1585.8 714.7 1585.8 708.2 1586.9 701.9 1588.9 696 1591.9 690.6 1595.8 686 1600.5 682.1 1605.8 679.1 1611.7 677 1618 676 1624.5 676 1627.8 718 1627.8 718 1627.8 718 1627.8 760 1627.8 760 1631.1 759 1637.7 756.9 1644 753.9 1649.9 750 1655.2 745.4 1659.9 740 1663.8 734.1 1666.8 M 718 1666.4 718 1666.4 M 718 1669.8 714.7 1669.8 708.2 1668.8 701.9 1666.8 696 1663.8 690.6 1659.9 686 1655.2 682.1 1649.9 679.1 1644 677 1637.7 676 1631.1 676 1627.8 718 1627.8 718 1669.8 M 718 1650.6 718 1650.6 M 718 1634.7 718 1634.7 M 718 1627.8 718 1627.8 M 718 1618.9 718 1618.9 M 718 1603 718 1603 M 718 1587.2 718 1587.2 M 728.7 1587.2 764.8 1587.2 M 764.8 1603 751.9 1603 M 759.1 1618.9 764.8 1618.9 M 764.8 1634.7 759.4 1634.7 M 764.8 1650.6 753.4 1650.6 M 707.3 1587.2 670.8 1587.2 M 670.8 1603 684.1 1603 M 676.9 1618.9 670.8 1618.9 M 670.8 1634.7 676.6 1634.7 M 670.8 1650.6 682.6 1650.6 M 670.8 1666.4 701.2 1666.4 M 714.7 1569.8 708.2 1568.8 701.9 1566.8 696 1563.8 690.6 1559.9 686 1555.2 682.1 1549.9 679.1 1544 677 1537.7 676 1531.1 676 1527.8 676 1524.5 677 1518 679.1 1511.7 682.1 1505.8 686 1500.5 690.6 1495.8 696 1491.9 701.9 1488.9 708.2 1486.9 714.7 1485.8 718 1485.8 721.3 1485.8 727.8 1486.9 734.1 1488.9 740 1491.9 745.4 1495.8 750 1500.5 753.9 1505.8 756.9 1511.7 759 1518 760 1524.5 760 1527.8 718 1527.8 718 1485.8 718 1527.8 718 1527.8 718 1527.8 676 1527.8 718 1527.8 718 1527.8 760 1527.8 760 1531.1 759 1537.7 756.9 1544 753.9 1549.9 750 1555.2 745.4 1559.9 740 1563.8 734.1 1566.8 727.8 1568.8 721.3 1569.8 718 1569.8 718 1527.8 718 1569.8 714.7 1569.8 M 718 1555.5 718 1555.5 M 718 1539.6 718 1539.6 M 718 1527.8 718 1527.8 M 718 1523.8 718 1523.8 M 718 1507.9 718 1507.9 M 718 1492.1 718 1492.1 M 740.2 1492.1 764.8 1492.1 M 764.8 1507.9 755 1507.9 M 759.9 1523.8 764.8 1523.8 M 764.8 1539.6 758.3 1539.6 M 764.8 1555.5 749.8 1555.5 M 764.8 1571.3 670.8 1571.3 M 670.8 1555.5 686.2 1555.5 M 677.7 1539.6 670.8 1539.6 M 670.8 1523.8 676.1 1523.8 M 681 1507.9 670.8 1507.9 M 670.8 1492.1 695.8 1492.1 M 670.8 1476.2 764.8 1476.2 M 764.8 1460.4 736 1460.4 M 738.9 1459.1 725.3 1464.8 710.7 1464.8 697.1 1459.1 686.7 1448.8 681.1 1435.2 681.1 1420.5 686.7 1406.9 697.1 1396.5 710.7 1390.9 725.3 1390.9 738.9 1396.5 749.3 1406.9 754.9 1420.5 754.9 1435.2 749.3 1448.8 738.9 1459.1 M 751.1 1444.5 764.8 1444.5 M 764.8 1428.7 754.9 1428.7 M 751.7 1412.8 764.8 1412.8 M 764.8 1397 739.3 1397 M 725.3 1364.8 710.7 1364.8 697.1 1359.1 686.7 1348.8 681.1 1335.2 681.1 1320.5 686.7 1306.9 697.1 1296.5 710.7 1290.9 725.3 1290.9 738.9 1296.5 749.3 1306.9 754.9 1320.5 754.9 1335.2 749.3 1348.8 738.9 1359.1 725.3 1364.8 M 748.7 1349.4 764.8 1349.4 M 764.8 1333.6 754.9 1333.6 M 753.8 1317.7 764.8 1317.7 M 764.8 1301.9 744.2 1301.9 M 764.8 1286 670.8 1286 M 670.8 1270.2 764.8 1270.2 M 764.8 1254.3 743.8 1254.3 M 738.9 1259.1 749.3 1248.8 754.9 1235.2 754.9 1220.5 749.3 1206.9 738.9 1196.5 725.3 1190.9 710.7 1190.9 697.1 1196.5 686.7 1206.9 681.1 1220.5 681.1 1235.2 686.7 1248.8 697.1 1259.1 710.7 1264.8 725.3 1264.8 738.9 1259.1 M 753.6 1238.5 764.8 1238.5 M 764.8 1222.6 754.9 1222.6 M 749.1 1206.8 764.8 1206.8 M 733.5 1190.9 670.8 1190.9 M 670.8 1175.1 731.5 1175.1 M 725.3 1164.8 738.9 1159.1 749.3 1148.8 754.9 1135.2 754.9 1120.5 749.3 1106.9 738.9 1096.5 725.3 1090.9 710.7 1090.9 697.1 1096.5 686.7 1106.9 681.1 1120.5 681.1 1135.2 686.7 1148.8 697.1 1159.1 710.7 1164.8 725.3 1164.8 M 738.8 1159.2 742.2 1159.2 M 751.5 1143.4 764.8 1143.4 M 764.8 1127.5 754.9 1127.5 M 751.3 1111.7 764.8 1111.7 M 742.2 1095.8 737.1 1095.8 M 736.4 1080 670.8 1080 M 670.8 1095.8 698.9 1095.8 M 684.7 1111.7 670.8 1111.7 M 670.8 1127.5 681.1 1127.5 M 684.5 1143.4 670.8 1143.4 M 670.8 1159.2 697.2 1159.2 M 686.9 1206.8 670.8 1206.8 M 670.8 1222.6 681.1 1222.6 M 682.4 1238.5 670.8 1238.5 M 670.8 1254.3 692.2 1254.3 M 691.8 1301.9 670.8 1301.9 M 670.8 1317.7 682.2 1317.7 M 681.1 1333.6 670.8 1333.6 M 670.8 1349.4 687.3 1349.4 M 670.8 1365.3 764.8 1365.3 M 764.8 1381.1 670.8 1381.1 M 670.8 1397 696.7 1397 M 684.3 1412.8 670.8 1412.8 M 670.8 1428.7 681.1 1428.7 M 684.9 1444.5 670.8 1444.5 M 670.8 1460.4 700 1460.4 M 611.3 1460.4 347.9 1460.4 M 347.9 1476.2 611.3 1476.2 M 611.3 1492.1 347.9 1492.1 M 347.9 1507.9 611.3 1507.9 M 611.3 1523.8 347.9 1523.8 M 347.9 1539.6 611.3 1539.6 M 611.3 1555.5 347.9 1555.5 M 347.9 1571.3 611.3 1571.3 M 611.3 1587.2 347.9 1587.2 M 347.9 1603 611.3 1603 M 611.3 1618.9 347.9 1618.9 M 347.9 1634.7 611.3 1634.7 M 611.3 1650.6 347.9 1650.6 M 347.9 1666.4 611.3 1666.4 M 611.3 1682.3 468.9 1682.3 M 481.8 1698.1 611.3 1698.1 M 611.3 1714 481.8 1714 M 481.8 1729.8 611.3 1729.8 M 611.3 1745.7 481.8 1745.7 M 481.8 1761.5 611.3 1761.5 M 444 1761.5 408.2 1761.5 M 407.6 1760.2 411.8 1770.4 411.8 1781.4 407.6 1791.6 399.8 1799.3 389.6 1803.6 378.6 1803.6 368.5 1799.3 360.7 1791.6 356.5 1781.4 356.5 1770.4 360.7 1760.2 368.5 1752.4 378.6 1748.2 389.6 1748.2 399.8 1752.4 407.6 1760.2 M 411.8 1777.4 444 1777.4 M 444 1793.2 406 1793.2 M 444 1809.1 302.5 1809.1 M 305.5 1824.9 444 1824.9 M 444 1840.8 304.9 1840.8 M 298.3 1856.6 444 1856.6 M 444 1872.5 284.6 1872.5 M 289.7 1888.3 444 1888.3 M 444 1904.2 300.4 1904.2 M 305.5 1920 444 1920 M 444 1935.9 305.5 1935.9 M 300.4 1951.7 444 1951.7 M 444 1967.6 289.5 1967.6 M 292 1983.4 444 1983.4 M 444 1999.3 303.7 1999.3 M 309.4 2015.1 444 2015.1 M 444 2031 255.1 2031 M 241.6 2031 160 2031 M 160 2031.1 159 2037.7 156.9 2044 153.9 2049.9 150 2055.2 145.4 2059.9 140 2063.8 134.1 2066.8 127.8 2068.8 121.3 2069.8 118 2069.8 118 2027.8 118 1985.8 121.3 1985.8 127.8 1986.9 134.1 1988.9 140 1991.9 145.4 1995.8 150 2000.5 153.9 2005.8 156.9 2011.7 159 2018 160 2024.5 160 2027.8 118 2027.8 118 2027.8 118 1985.8 114.7 1985.8 108.2 1986.9 101.9 1988.9 96 1991.9 90.6 1995.8 86 2000.5 82.1 2005.8 79.1 2011.7 77 2018 76 2024.5 76 2027.8 118 2027.8 118 2027.8 118 2027.8 160 2027.8 160 2031.1 M 158 2015.1 187.3 2015.1 M 193 1999.3 148.8 1999.3 M 138.9 1959.1 125.3 1964.8 110.7 1964.8 97.1 1959.1 86.7 1948.8 81.1 1935.2 81.1 1920.5 86.7 1906.9 97.1 1896.5 110.7 1890.9 125.3 1890.9 138.9 1896.5 149.3 1906.9 154.9 1920.5 154.9 1935.2 149.3 1948.8 138.9 1959.1 M 146.4 1951.7 196.3 1951.7 M 191.1 1935.9 154.6 1935.9 M 154.7 1920 191.1 1920 M 196.2 1904.2 146.5 1904.2 M 125.3 1864.8 110.7 1864.8 97.1 1859.1 86.7 1848.8 81.1 1835.2 81.1 1820.5 86.7 1806.9 97.1 1796.5 110.7 1790.9 125.3 1790.9 138.9 1796.5 149.3 1806.9 154.9 1820.5 154.9 1835.2 149.3 1848.8 138.9 1859.1 125.3 1864.8 M 141.5 1856.6 198.3 1856.6 M 191.7 1840.8 152.6 1840.8 M 154.9 1824.9 191.1 1824.9 M 194.2 1809.1 150.2 1809.1 M 130.9 1793.2 202 1793.2 M 201.1 1761.5 133.2 1761.5 M 138.9 1759.1 125.3 1764.8 110.7 1764.8 97.1 1759.1 86.7 1748.8 81.1 1735.2 81.1 1720.5 86.7 1706.9 97.1 1696.5 110.7 1690.9 125.3 1690.9 138.9 1696.5 149.3 1706.9 154.9 1720.5 154.9 1735.2 149.3 1748.8 138.9 1759.1 M 150.6 1745.7 193.8 1745.7 M 191.1 1729.8 154.9 1729.8 M 152.2 1714 192.1 1714 M 198.7 1698.1 140.5 1698.1 M 127.8 1668.8 121.3 1669.8 118 1669.8 118 1627.8 118 1585.8 121.3 1585.8 127.8 1586.9 134.1 1588.9 140 1591.9 145.4 1595.8 150 1600.5 153.9 1605.8 156.9 1611.7 159 1618 160 1624.5 160 1627.8 118 1627.8 118 1627.8 118 1585.8 114.7 1585.8 108.2 1586.9 101.9 1588.9 96 1591.9 90.6 1595.8 86 1600.5 82.1 1605.8 79.1 1611.7 77 1618 76 1624.5 76 1627.8 118 1627.8 118 1627.8 118 1627.8 160 1627.8 160 1631.1 159 1637.7 156.9 1644 153.9 1649.9 150 1655.2 145.4 1659.9 140 1663.8 134.1 1666.8 127.8 1668.8 M 134.8 1666.4 199.3 1666.4 M 190.2 1650.6 153.4 1650.6 M 159.4 1634.7 186.3 1634.7 M 186.7 1618.9 159.1 1618.9 M 151.9 1603 191.1 1603 M 200.9 1587.2 128.7 1587.2 M 118 1587.2 118 1587.2 M 107.3 1587.2 37.8 1587.2 M 37.8 1603 84.1 1603 M 76.9 1618.9 37.8 1618.9 M 37.8 1634.7 76.6 1634.7 M 77 1637.7 76 1631.1 76 1627.8 118 1627.8 118 1669.8 114.7 1669.8 108.2 1668.8 101.9 1666.8 96 1663.8 90.6 1659.9 86 1655.2 82.1 1649.9 79.1 1644 77 1637.7 M 82.6 1650.6 37.8 1650.6 M 37.8 1666.4 101.2 1666.4 M 118 1666.4 118 1666.4 M 118 1650.6 118 1650.6 M 118 1634.7 118 1634.7 M 118 1627.8 118 1627.8 M 118 1618.9 118 1618.9 M 118 1603 118 1603 M 110.7 1564.8 97.1 1559.1 86.7 1548.8 81.1 1535.2 81.1 1520.5 86.7 1506.9 97.1 1496.5 110.7 1490.9 125.3 1490.9 138.9 1496.5 149.3 1506.9 154.9 1520.5 154.9 1535.2 149.3 1548.8 138.9 1559.1 125.3 1564.8 110.7 1564.8 M 93.4 1555.5 37.8 1555.5 M 37.8 1571.3 210.9 1571.3 M 197.8 1555.5 142.6 1555.5 M 153.1 1539.6 191.3 1539.6 M 191.1 1523.8 154.9 1523.8 M 149.7 1507.9 194.6 1507.9 M 203.2 1492.1 128.1 1492.1 M 107.9 1492.1 37.8 1492.1 M 37.8 1507.9 86.3 1507.9 M 81.1 1523.8 37.8 1523.8 M 37.8 1539.6 82.9 1539.6 M 37.8 1476.2 215.8 1476.2 M 199.9 1460.4 136 1460.4 M 138.9 1459.1 125.3 1464.8 110.7 1464.8 97.1 1459.1 86.7 1448.8 81.1 1435.2 81.1 1420.5 86.7 1406.9 97.1 1396.5 110.7 1390.9 125.3 1390.9 138.9 1396.5 149.3 1406.9 154.9 1420.5 154.9 1435.2 149.3 1448.8 138.9 1459.1 M 151.1 1444.5 193.3 1444.5 M 191.1 1428.7 154.9 1428.7 M 151.7 1412.8 192.6 1412.8 M 199.2 1397 139.3 1397 M 125.3 1364.8 110.7 1364.8 97.1 1359.1 86.7 1348.8 81.1 1335.2 81.1 1320.5 86.7 1306.9 97.1 1296.5 110.7 1290.9 125.3 1290.9 138.9 1296.5 149.3 1306.9 154.9 1320.5 154.9 1335.2 149.3 1348.8 138.9 1359.1 125.3 1364.8 M 148.7 1349.4 195.3 1349.4 M 191.1 1333.6 154.9 1333.6 M 153.8 1317.7 191.1 1317.7 M 197.2 1301.9 144.2 1301.9 M 125.3 1264.8 110.7 1264.8 97.1 1259.1 86.7 1248.8 81.1 1235.2 81.1 1220.5 86.7 1206.9 97.1 1196.5 110.7 1190.9 125.3 1190.9 138.9 1196.5 149.3 1206.9 154.9 1220.5 154.9 1235.2 149.3 1248.8 138.9 1259.1 125.3 1264.8 M 143.8 1254.3 197.3 1254.3 M 191.1 1238.5 153.6 1238.5 M 154.9 1222.6 191.1 1222.6 M 195.1 1206.8 149.1 1206.8 M 125.3 1164.8 110.7 1164.8 97.1 1159.1 86.7 1148.8 81.1 1135.2 81.1 1120.5 86.7 1106.9 97.1 1096.5 110.7 1090.9 125.3 1090.9 138.9 1096.5 149.3 1106.9 154.9 1120.5 154.9 1135.2 149.3 1148.8 138.9 1159.1 125.3 1164.8 M 138.8 1159.2 199.4 1159.2 M 192.8 1143.4 151.5 1143.4 M 154.9 1127.5 191.1 1127.5 M 193.1 1111.7 151.3 1111.7 M 137.1 1095.8 199.7 1095.8 M 215.3 1080 37.8 1080 M 37.8 1095.8 98.9 1095.8 M 84.7 1111.7 37.8 1111.7 M 37.8 1127.5 81.1 1127.5 M 84.5 1143.4 37.8 1143.4 M 37.8 1159.2 97.2 1159.2 M 86.9 1206.8 37.8 1206.8 M 37.8 1222.6 81.1 1222.6 M 82.4 1238.5 37.8 1238.5 M 37.8 1254.3 92.2 1254.3 M 91.8 1301.9 37.8 1301.9 M 37.8 1317.7 82.2 1317.7 M 81.1 1333.6 37.8 1333.6 M 37.8 1349.4 87.3 1349.4 M 96.7 1397 37.8 1397 M 37.8 1412.8 84.3 1412.8 M 81.1 1428.7 37.8 1428.7 M 37.8 1444.5 84.9 1444.5 M 100 1460.4 37.8 1460.4 M 37.8 1381.1 214.1 1381.1 M 204.8 1365.3 37.8 1365.3 M 37.8 1286 209.2 1286 M 209.7 1270.2 37.8 1270.2 M 37.8 1190.9 204.3 1190.9 M 214.6 1175.1 37.8 1175.1 M 37.8 1064.1 109.1 1064.1 M 110.7 1064.8 97.1 1059.1 86.7 1048.8 81.1 1035.2 81.1 1020.5 86.7 1006.9 97.1 996.5 110.7 990.9 125.3 990.9 138.9 996.5 149.3 1006.9 154.9 1020.5 154.9 1035.2 149.3 1048.8 138.9 1059.1 125.3 1064.8 110.7 1064.8 M 126.9 1064.1 203.7 1064.1 M 194.8 1048.3 149.5 1048.3 M 154.9 1032.4 191.1 1032.4 M 191.1 1016.6 153.3 1016.6 M 143.1 1000.7 197.6 1000.7 M 210.4 984.9 37.8 984.9 M 37.8 1000.7 92.9 1000.7 M 82.7 1016.6 37.8 1016.6 M 37.8 1032.4 81.1 1032.4 M 86.5 1048.3 37.8 1048.3 M 37.8 969 208.6 969 M 196.9 953.2 144.9 953.2 M 149.3 948.8 138.9 959.1 125.3 964.8 110.7 964.8 97.1 959.1 86.7 948.8 81.1 935.2 81.1 920.5 86.7 906.9 97.1 896.5 110.7 890.9 125.3 890.9 138.9 896.5 149.3 906.9 154.9 920.5 154.9 935.2 149.3 948.8 M 154 937.3 191.1 937.3 M 191.1 921.5 154.9 921.5 M 148 905.6 195.6 905.6 M 205.5 889.8 37.8 889.8 M 37.8 905.6 88 905.6 M 81.1 921.5 37.8 921.5 M 37.8 937.3 82 937.3 M 91.1 953.2 37.8 953.2 M 37.8 873.9 213.5 873.9 M 198.9 858.1 140 858.1 M 138.9 859.1 125.3 864.8 110.7 864.8 97.1 859.1 86.7 848.8 81.1 835.2 81.1 820.5 86.7 806.9 97.1 796.5 110.7 790.9 125.3 790.9 138.9 796.5 149.3 806.9 154.9 820.5 154.9 835.2 149.3 848.8 138.9 859.1 M 152 842.2 192.3 842.2 M 191.1 826.4 154.9 826.4 M 150.8 810.5 193.6 810.5 M 200.6 794.7 134.3 794.7 M 125.3 764.8 110.7 764.8 97.1 759.1 86.7 748.8 81.1 735.2 81.1 720.5 86.7 706.9 97.1 696.5 110.7 690.9 125.3 690.9 138.9 696.5 149.3 706.9 154.9 720.5 154.9 735.2 149.3 748.8 138.9 759.1 125.3 764.8 M 129.7 763 202.5 763 M 194.4 747.1 150 747.1 M 154.9 731.3 191.1 731.3 M 191.5 715.4 152.8 715.4 M 141.9 699.6 198.1 699.6 M 211.5 683.7 37.8 683.7 M 37.8 667.9 207.4 667.9 M 196.4 652 146.1 652 M 149.3 648.8 138.9 659.1 125.3 664.8 110.7 664.8 97.1 659.1 86.7 648.8 81.1 635.2 81.1 620.5 86.7 606.9 97.1 596.5 110.7 590.9 125.3 590.9 138.9 596.5 149.3 606.9 154.9 620.5 154.9 635.2 149.3 648.8 M 154.5 636.2 191.1 636.2 M 191.1 620.3 154.8 620.3 M 146.8 604.5 196.1 604.5 M 206.6 588.6 37.8 588.6 M 37.8 572.8 212.3 572.8 M 198.4 556.9 141.2 556.9 M 138.9 559.1 125.3 564.8 110.7 564.8 97.1 559.1 86.7 548.8 81.1 535.2 81.1 520.5 86.7 506.9 97.1 496.5 110.7 490.9 125.3 490.9 138.9 496.5 149.3 506.9 154.9 520.5 154.9 535.2 149.3 548.8 138.9 559.1 M 152.5 541.1 191.9 541.1 M 191.1 525.2 154.9 525.2 M 150.3 509.4 194 509.4 M 201.7 493.5 131.6 493.5 M 125.3 464.8 110.7 464.8 97.1 459.1 86.7 448.8 81.1 435.2 81.1 420.5 86.7 406.9 97.1 396.5 110.7 390.9 125.3 390.9 138.9 396.5 149.3 406.9 154.9 420.5 154.9 435.2 149.3 448.8 138.9 459.1 125.3 464.8 M 132.5 461.8 201.4 461.8 M 193.9 446 150.5 446 M 154.9 430.1 191.1 430.1 M 192 414.3 152.3 414.3 M 140.8 398.4 198.6 398.4 M 212.7 382.6 37.8 382.6 M 37.8 398.4 95.2 398.4 M 83.7 414.3 37.8 414.3 M 37.8 430.1 81.1 430.1 M 85.5 446 37.8 446 M 37.8 461.8 103.5 461.8 M 104.4 493.5 37.8 493.5 M 37.8 477.7 219.1 477.7 M 277.1 477.8 280.7 479.3 296.8 495.4 305.5 516.5 305.5 539.2 296.8 560.3 280.7 576.3 277.1 577.8 280.7 579.3 296.8 595.4 305.5 616.5 305.5 639.2 296.8 660.3 280.7 676.3 277.1 677.8 280.7 679.3 296.8 695.4 305.5 716.5 305.5 739.2 296.8 760.3 280.7 776.3 277.1 777.8 280.7 779.3 296.8 795.4 305.5 816.5 305.5 839.2 296.8 860.3 280.7 876.3 277.1 877.8 280.7 879.3 296.8 895.4 305.5 916.5 305.5 939.2 296.8 960.3 280.7 976.3 277.1 977.8 280.7 979.3 296.8 995.4 305.5 1016.5 305.5 1039.2 298.9 1055.3 306.5 1055.3 319.3 1068 319.3 1086.1 306.5 1098.8 298.2 1098.8 305.5 1116.5 305.5 1139.2 296.8 1160.3 280.7 1176.3 277.1 1177.8 280.7 1179.3 296.8 1195.4 305.5 1216.5 305.5 1239.2 296.8 1260.3 280.7 1276.3 277.1 1277.8 280.7 1279.3 296.8 1295.4 305.5 1316.5 305.5 1339.2 296.8 1360.3 280.7 1376.3 277.1 1377.8 280.7 1379.3 296.8 1395.4 305.5 1416.5 305.5 1439.2 296.8 1460.3 280.7 1476.3 277.1 1477.8 280.7 1479.3 296.8 1495.4 305.5 1516.5 305.5 1539.2 296.8 1560.3 281.9 1575.2 288.9 1580.3 295.8 1587.3 301.6 1595.2 306 1603.9 309.1 1613.3 310.1 1619.8 310.1 1234 309.8 1233.6 310.1 1226.2 310.1 1218.8 310.5 1218.5 310.5 1217.9 316 1213 318.9 1210.1 318.2 1210.1 309.1 1206.3 302.2 1199.3 298.4 1190.2 298.4 1180.4 302.2 1171.3 309.1 1164.4 318.2 1160.6 328 1160.6 331.8 1162.1 331.8 904.6 331.5 897.1 331.8 896.9 331.8 896.5 334.8 893.4 334.8 889.9 331.9 890.6 329.7 889.3 327.1 889.3 323.2 885.4 319.8 883.4 317.2 883.4 313.4 879.5 308.6 876.6 308 874.1 306.2 872.3 306.2 866.8 304.8 861.4 306.2 859.2 306.2 394 317.2 382.9 342.8 357.3 602.7 357.3 618.5 341.5 638.1 320.4 638.1 320 643.3 314.7 648.4 309.2 648.8 309.2 649.1 308.9 656.6 308.9 664.1 308.6 664.4 308.9 685.9 308.9 686.7 306.9 697.1 296.5 710.7 290.9 725.3 290.9 738.9 296.5 749.3 306.9 754.9 320.5 754.9 335.2 749.3 348.8 738.9 359.1 725.3 364.8 710.7 364.8 697.1 359.1 686.7 348.8 685.9 346.8 665.2 346.8 651.1 362 651.1 362.5 645.8 367.7 640.7 373.2 640.3 373.2 629.4 384.1 618.4 395.2 358.5 395.2 344 409.7 344 851.4 405.3 851.4 405.2 849.7 405.6 849.3 405.6 755.3 393.4 755.3 380.1 742 380.1 723.1 384.8 718.4 372.2 718.4 359.4 705.7 359.4 687.6 372.2 674.9 390.2 674.9 403 687.6 403 691.3 415.5 678.8 433.5 678.8 446.3 691.6 446.3 709.6 443.4 712.5 443.4 733.4 455.8 733.4 455.8 626.3 461.7 620.4 472.8 609.3 606.1 609.3 594.6 597.9 594.6 596.2 590 600.8 572 600.8 559.2 588 559.2 585.8 551.6 593.4 533.6 593.4 520.8 580.7 520.8 562.6 533.6 549.9 551.6 549.9 564.4 562.6 564.4 564.8 572 557.2 590 557.2 602.8 570 602.8 571.7 607.4 567.1 625.4 567.1 638.2 579.8 638.2 597.9 626.8 609.3 685.7 609.3 686.7 606.9 697.1 596.5 710.7 590.9 725.3 590.9 738.9 596.5 749.3 606.9 754.9 620.5 754.9 635.2 749.3 648.8 738.9 659.1 725.3 664.8 710.7 664.8 697.1 659.1 686.7 648.8 686 647.2 493.6 647.2 493.6 855 493.9 855.3 493.6 862.8 493.6 870.3 493.4 870.6 493.3 871 487.9 876.1 482.5 881.4 482.2 881.4 478.4 885 478.4 927.9 481.2 930.7 481.2 948.8 468.5 961.5 450.4 961.5 444.4 955.5 443.7 956.2 451.2 963.7 451.2 981 468 981 470.7 983.7 503.9 983.5 500.2 979.8 500.2 961.7 507.1 954.8 500.6 948.3 500.6 930.2 513.4 917.5 531.5 917.5 536.5 922.5 536.5 748.4 536.4 740.7 536.5 740.6 536.5 740.5 541.9 735 556.2 720.4 556.2 720.3 561.6 714.8 567 709.3 567.2 709.3 567.2 709.2 575 709.2 581.9 709.1 576.9 704.2 576.9 686.1 589.7 673.4 607.7 673.4 620.5 686.1 620.5 704.2 615.5 709.2 685.8 709.2 686.7 706.9 697.1 696.5 710.7 690.9 725.3 690.9 738.9 696.5 749.3 706.9 754.9 720.5 754.9 735.2 749.3 748.8 738.9 759.1 725.3 764.8 710.7 764.8 697.1 759.1 686.7 748.8 686 747.1 583 747.1 M 583.1 747.1 574.3 756 574.3 812.8 579.8 807.2 597.9 807.2 610.6 820 610.6 838 597.9 850.8 579.8 850.8 574.3 845.3 574.3 886.2 579.4 881.1 580.3 881.1 589.6 865.2 589.6 862.5 593.5 858.7 596.2 854 598.8 853.3 600.7 851.4 606.1 851.4 611.4 850.1 613.7 851.4 689.4 851.4 686.7 848.8 681.1 835.2 681.1 820.5 686.7 806.9 697.1 796.5 710.7 790.9 725.3 790.9 738.9 796.5 749.3 806.9 754.9 820.5 754.9 835.2 749.3 848.8 746.6 851.4 766 851.4 777.1 862.5 802.7 888.1 802.7 892.6 815.9 879.3 819.5 877.8 815.9 876.3 799.8 860.3 791.1 839.2 791.1 816.5 799.8 795.4 815.9 779.3 819.5 777.8 815.9 776.3 799.8 760.3 791.1 739.2 791.1 716.5 799.8 695.4 815.9 679.3 819.5 677.8 815.9 676.3 799.8 660.3 791.1 639.2 791.1 616.5 799.8 595.4 815.9 579.3 819.5 577.8 815.9 576.3 799.8 560.3 791.1 539.2 791.1 516.5 799.8 495.4 815.9 479.3 819.5 477.8 815.9 476.3 799.8 460.3 791.1 439.2 791.1 416.5 799.8 395.4 815.9 379.3 819.5 377.8 815.9 376.3 799.8 360.3 791.1 339.2 791.1 316.5 799.8 295.4 815.9 279.3 819.5 277.8 815.9 276.3 799.8 260.3 791.1 239.2 791.1 216.5 799.8 195.4 814.8 180.5 807.7 175.4 800.8 168.4 795 160.5 790.6 151.8 787.6 142.4 786.3 134.6 841.6 134.6 841.6 121.1 855.1 121.1 855.1 134.6 910.3 134.6 909.1 142.4 906 151.8 901.6 160.5 895.8 168.4 888.9 175.4 881.9 180.5 896.8 195.4 905.5 216.5 905.5 239.2 896.8 260.3 880.7 276.3 877.1 277.8 880.7 279.3 896.8 295.4 905.5 316.5 905.5 339.2 896.8 360.3 880.7 376.3 877.1 377.8 880.7 379.3 896.8 395.4 905.5 416.5 905.5 439.2 896.8 460.3 880.7 476.3 877.1 477.8 880.7 479.3 896.8 495.4 905.5 516.5 905.5 539.2 896.8 560.3 880.7 576.3 877.1 577.8 880.7 579.3 896.8 595.4 905.5 616.5 905.5 639.2 896.8 660.3 880.7 676.3 877.1 677.8 880.7 679.3 896.8 695.4 905.5 716.5 905.5 739.2 896.8 760.3 880.7 776.3 877.1 777.8 880.7 779.3 896.8 795.4 905.5 816.5 905.5 839.2 896.8 860.3 880.7 876.3 877.1 877.8 880.7 879.3 896.8 895.4 905.5 916.5 905.5 939.2 896.8 960.3 880.7 976.3 877.1 977.8 880.7 979.3 896.8 995.4 905.5 1016.5 905.5 1039.2 896.8 1060.3 880.7 1076.3 877.1 1077.8 880.7 1079.3 896.8 1095.4 905.5 1116.5 905.5 1139.2 896.8 1160.3 M 903.8 1143.4 1238.3 1143.4 M 1238.3 1127.5 905.5 1127.5 M 903.5 1111.7 1238.3 1111.7 M 1238.3 1095.8 897 1095.8 M 881.3 1080 1238.3 1080 M 1238.3 1064.1 893 1064.1 M 901.8 1048.3 1238.3 1048.3 M 1238.3 1032.4 905.5 1032.4 M 905.5 1016.6 923.4 1016.6 M 923.4 1020.3 923.4 37.8 37.8 37.8 37.8 2153.7 1238.3 2153.7 1238.3 1031.9 935 1031.9 923.4 1020.3 M 923.4 1000.7 899 1000.7 M 886.2 984.9 923.4 984.9 M 923.4 969 888.1 969 M 899.8 953.2 923.4 953.2 M 923.4 937.3 905.5 937.3 M 905.5 921.5 923.4 921.5 M 923.4 905.6 901 905.6 M 891.1 889.8 923.4 889.8 M 923.4 873.9 883.2 873.9 M 897.7 858.1 923.4 858.1 M 923.4 842.2 904.3 842.2 M 905.5 826.4 923.4 826.4 M 923.4 810.5 903.1 810.5 M 896 794.7 923.4 794.7 M 923.4 778.8 879.4 778.8 M 894.1 763 923.4 763 M 923.4 747.1 902.3 747.1 M 905.5 731.3 923.4 731.3 M 923.4 715.4 905.1 715.4 M 898.5 699.6 923.4 699.6 M 923.4 683.7 885.1 683.7 M 889.2 667.9 923.4 667.9 M 923.4 652 900.2 652 M 905.5 636.2 923.4 636.2 M 923.4 620.3 905.5 620.3 M 900.6 604.5 923.4 604.5 M 923.4 588.6 890 588.6 M 884.3 572.8 923.4 572.8 M 923.4 556.9 898.2 556.9 M 904.8 541.1 923.4 541.1 M 923.4 525.2 905.5 525.2 M 902.6 509.4 923.4 509.4 M 923.4 493.5 894.9 493.5 M 895.3 461.8 923.4 461.8 M 923.4 446 902.7 446 M 905.5 430.1 923.4 430.1 M 923.4 414.3 904.6 414.3 M 898 398.4 923.4 398.4 M 923.4 382.6 883.9 382.6 M 890.4 366.7 923.4 366.7 M 923.4 350.9 900.7 350.9 M 905.5 335 923.4 335 M 923.4 319.2 905.5 319.2 M 900.1 303.3 923.4 303.3 M 923.4 287.5 888.8 287.5 M 885.5 271.6 923.4 271.6 M 923.4 255.8 898.7 255.8 M 905.2 239.9 923.4 239.9 M 923.4 224.1 905.5 224.1 M 902.1 208.2 923.4 208.2 M 923.4 192.4 893.7 192.4 M 887.3 176.5 923.4 176.5 M 923.4 160.7 901.5 160.7 M 908.3 144.8 923.4 144.8 M 923.4 129 855.1 129 M 855.1 121.1 910.3 121.1 909.1 113.3 906 103.9 901.6 95.2 895.8 87.3 888.9 80.3 881 74.6 872.2 70.1 862.9 67.1 855.1 65.8 855.1 121.1 M 855.1 113.1 841.6 113.1 M 841.6 121.1 841.6 65.8 833.7 67.1 824.4 70.1 815.7 74.6 807.7 80.3 800.8 87.3 795 95.2 790.6 103.9 787.6 113.3 786.3 121.1 841.6 121.1 M 841.6 129 760 129 M 760 127.8 760 131.1 759 137.7 756.9 144 753.9 149.9 750 155.2 745.4 159.9 740 163.8 734.1 166.8 727.8 168.8 721.3 169.8 718 169.8 718 127.8 718 85.8 721.3 85.8 727.8 86.9 734.1 88.9 740 91.9 745.4 95.8 750 100.5 753.9 105.8 756.9 111.7 759 118 760 124.5 760 127.8 718 127.8 718 127.8 718 85.8 714.7 85.8 708.2 86.9 701.9 88.9 696 91.9 690.6 95.8 686 100.5 682.1 105.8 679.1 111.7 677 118 676 124.5 676 127.8 718 127.8 718 127.8 718 127.8 760 127.8 M 757.4 113.1 787.6 113.1 M 794 97.3 746.8 97.3 M 718 97.3 718 97.3 M 718 113.1 718 113.1 M 718 127.8 676 127.8 676 131.1 677 137.7 679.1 144 682.1 149.9 686 155.2 690.6 159.9 696 163.8 701.9 166.8 708.2 168.8 714.7 169.8 718 169.8 718 127.8 718 127.8 M 718 129 718 129 M 718 144.8 718 144.8 M 718 160.7 718 160.7 M 710.7 190.9 725.3 190.9 738.9 196.5 749.3 206.9 754.9 220.5 754.9 235.2 749.3 248.8 738.9 259.1 725.3 264.8 710.7 264.8 697.1 259.1 686.7 248.8 681.1 235.2 681.1 220.5 686.7 206.9 697.1 196.5 710.7 190.9 M 707.2 192.4 670 192.4 M 672.8 189.5 665.9 196.4 656.8 200.2 646.9 200.2 637.8 196.4 630.9 189.5 627.1 180.4 627.1 170.6 630.9 161.5 637.8 154.5 646.9 150.7 656.8 150.7 665.9 154.5 672.8 161.5 676.6 170.6 676.6 180.4 672.8 189.5 M 676.6 176.5 809.3 176.5 M 802.9 192.4 728.8 192.4 M 749.8 208.2 794.5 208.2 M 791.1 224.1 754.9 224.1 M 753 239.9 791.4 239.9 M 797.9 255.8 742.3 255.8 M 745.7 303.3 796.6 303.3 M 791.1 319.2 754.4 319.2 M 754.9 335 791.1 335 M 795.9 350.9 747.2 350.9 M 725.3 390.9 738.9 396.5 749.3 406.9 754.9 420.5 754.9 435.2 749.3 448.8 738.9 459.1 725.3 464.8 710.7 464.8 697.1 459.1 686.7 448.8 681.1 435.2 681.1 420.5 686.7 406.9 697.1 396.5 710.7 390.9 725.3 390.9 M 740.8 398.4 798.6 398.4 M 792 414.3 752.3 414.3 M 754.9 430.1 791.1 430.1 M 793.9 446 750.5 446 M 732.5 461.8 801.4 461.8 M 819.1 477.7 467.1 477.7 M 466 476.5 478.8 489.3 478.8 507.3 468.2 517.9 479.8 517.9 492.5 530.6 492.5 548.7 479.8 561.4 461.7 561.4 449 548.7 449 530.6 459.5 520.1 448 520.1 445.1 517.2 410.9 517.2 410.9 568.7 414.5 565.1 432.5 565.1 445.3 577.9 445.3 595.9 432.5 608.7 414.8 608.7 403 620.5 385 620.5 372.2 607.7 372.2 589.7 373.1 588.8 373.1 496.4 384.2 485.3 390.1 479.4 445.1 479.4 448 476.5 466 476.5 M 446.8 477.7 344 477.7 M 344 493.5 376 493.5 M 373.1 509.4 344 509.4 M 344 525.2 373.1 525.2 M 373.1 541.1 344 541.1 M 344 556.9 373.1 556.9 M 373.1 572.8 344 572.8 M 344 588.6 373.1 588.6 M 372.2 604.5 344 604.5 M 344 620.3 384.8 620.3 M 403.2 620.3 461.8 620.3 M 455.8 636.2 344 636.2 M 344 652 455.8 652 M 455.8 667.9 344 667.9 M 344 683.7 363.3 683.7 M 359.4 699.6 344 699.6 M 344 715.4 369.1 715.4 M 380.1 731.3 344 731.3 M 344 747.1 385.2 747.1 M 391.2 756.1 404 768.8 404 786.9 391.2 799.6 373.2 799.6 360.4 786.9 360.4 768.8 373.2 756.1 391.2 756.1 M 398.1 763 405.6 763 M 404 778.8 405.6 778.8 M 405.6 794.7 396.2 794.7 M 405.6 810.5 344 810.5 M 344 794.7 368.2 794.7 M 360.4 778.8 344 778.8 M 344 763 366.3 763 M 344 826.4 405.6 826.4 M 405.6 842.2 344 842.2 M 330.5 889.8 291.1 889.8 M 283.2 873.9 307.8 873.9 M 306.2 858.1 297.7 858.1 M 304.3 842.2 306.2 842.2 M 305.5 826.4 306.2 826.4 M 306.2 810.5 303.1 810.5 M 306.2 794.7 296 794.7 M 306.2 778.8 279.4 778.8 M 294.1 763 306.2 763 M 306.2 747.1 302.3 747.1 M 305.5 731.3 306.2 731.3 M 305.1 715.4 306.2 715.4 M 306.2 699.6 298.5 699.6 M 306.2 683.7 285.1 683.7 M 289.2 667.9 306.2 667.9 M 306.2 652 300.2 652 M 305.5 636.2 306.2 636.2 M 305.5 620.3 306.2 620.3 M 306.2 604.5 300.6 604.5 M 306.2 588.6 290 588.6 M 284.3 572.8 306.2 572.8 M 306.2 556.9 298.2 556.9 M 304.8 541.1 306.2 541.1 M 305.5 525.2 306.2 525.2 M 306.2 509.4 302.6 509.4 M 306.2 493.5 294.9 493.5 M 306.2 477.7 277.6 477.7 M 277.1 477.8 280.7 476.3 296.8 460.3 305.5 439.2 305.5 416.5 296.8 395.4 280.7 379.3 277.1 377.8 280.7 376.3 296.8 360.3 305.5 339.2 305.5 316.5 296.8 295.4 280.7 279.3 277.1 277.8 280.7 276.3 296.8 260.3 305.5 239.2 305.5 216.5 296.8 195.4 280.7 179.3 277.1 177.8 280.7 176.3 296.8 160.3 305.5 139.2 305.5 116.5 296.8 95.4 280.7 79.3 259.7 70.6 236.9 70.6 215.9 79.3 199.8 95.4 191.1 116.5 191.1 139.2 199.8 160.3 215.9 176.3 M 202.9 192.4 128.8 192.4 M 125.3 190.9 138.9 196.5 149.3 206.9 154.9 220.5 154.9 235.2 149.3 248.8 138.9 259.1 125.3 264.8 110.7 264.8 97.1 259.1 86.7 248.8 81.1 235.2 81.1 220.5 86.7 206.9 97.1 196.5 110.7 190.9 125.3 190.9 M 135.3 160.7 200.2 160.7 M 193.4 144.8 150.9 144.8 M 154.9 129 191.1 129 M 192.5 113.1 151.9 113.1 M 139.6 97.3 199.1 97.3 M 213.8 81.4 37.8 81.4 M 37.8 65.6 923.4 65.6 M 923.4 81.4 890 81.4 M 902.6 97.3 923.4 97.3 M 923.4 113.1 909 113.1 M 923.4 49.7 37.8 49.7 M 37.8 192.4 107.2 192.4 M 86.2 208.2 37.8 208.2 M 37.8 224.1 81.1 224.1 M 83 239.9 37.8 239.9 M 37.8 255.8 93.7 255.8 M 110.7 290.9 97.1 296.5 86.7 306.9 81.1 320.5 81.1 335.2 86.7 348.8 97.1 359.1 110.7 364.8 125.3 364.8 138.9 359.1 149.3 348.8 154.9 335.2 154.9 320.5 149.3 306.9 138.9 296.5 125.3 290.9 110.7 290.9 M 90.3 303.3 37.8 303.3 M 37.8 287.5 207.8 287.5 M 211.2 271.6 37.8 271.6 M 37.8 319.2 81.6 319.2 M 81.1 335 37.8 335 M 37.8 350.9 88.8 350.9 M 37.8 366.7 206.3 366.7 M 195.9 350.9 147.2 350.9 M 154.9 335 191.1 335 M 191.1 319.2 154.4 319.2 M 145.7 303.3 196.6 303.3 M 197.9 255.8 142.3 255.8 M 153 239.9 191.4 239.9 M 191.1 224.1 154.9 224.1 M 149.8 208.2 194.5 208.2 M 280.3 176.5 295 176.5 M 294.3 178.4 298.1 169.2 305.1 162.2 314.2 158.4 324.1 158.4 333.3 162.2 355.1 184 505.2 184 514.4 187.8 521.4 194.8 525.2 204 525.2 210.1 531.5 203.7 540.6 200 550.5 200 559.6 203.7 566.5 210.7 570.3 219.8 570.3 229.6 566.5 238.7 559.6 245.7 550.5 249.4 540.6 249.4 531.5 245.7 524.6 238.7 520.8 229.6 520.8 223.6 514.4 230.1 505.2 233.9 339.8 233.9 330.7 230.1 298.1 197.5 294.3 188.3 294.3 178.4 M 293.7 192.4 295.9 192.4 M 302.1 208.2 308.8 208.2 M 305.5 224.1 324.6 224.1 M 305.2 239.9 525.8 239.9 M 522.9 255.1 513.1 255.1 504 258.8 497 265.8 493.3 274.9 493.3 284.7 497 293.8 504 300.8 513.1 304.5 522.9 304.5 532 300.8 539 293.8 542.7 284.7 542.7 274.9 539 265.8 532 258.8 522.9 255.1 M 524.5 255.8 693.7 255.8 M 683 239.9 565.3 239.9 M 570.3 224.1 681.1 224.1 M 686.2 208.2 564 208.2 M 527.1 208.2 525.2 208.2 M 520.8 224.1 520.4 224.1 M 511.5 255.8 298.7 255.8 M 285.5 271.6 494.6 271.6 M 494.4 287.5 288.8 287.5 M 300.1 303.3 510.1 303.3 M 521.7 310 530.8 306.3 540.6 306.3 549.7 310 556.7 317 560.4 326.1 560.4 335.9 556.7 345 549.7 352 540.6 355.7 530.8 355.7 521.7 352 514.7 345 511 335.9 511 326.1 514.7 317 521.7 310 M 525.9 303.3 690.3 303.3 M 688.8 350.9 661.5 350.9 M 646.8 366.7 806.3 366.7 M 812.7 382.6 631 382.6 M 609.2 350.9 550.8 350.9 M 560.4 335 624.6 335 M 638.9 319.2 557.6 319.2 M 541.6 287.5 807.8 287.5 M 811.2 271.6 541.4 271.6 M 513.9 319.2 305.5 319.2 M 305.5 335 511 335 M 520.6 350.9 300.7 350.9 M 290.4 366.7 333.5 366.7 M 317.6 382.6 283.9 382.6 M 298 398.4 306.2 398.4 M 304.6 414.3 306.2 414.3 M 305.5 430.1 306.2 430.1 M 306.2 446 302.7 446 M 306.2 461.8 295.3 461.8 M 344 461.8 703.5 461.8 M 710.7 490.9 697.1 496.5 686.7 506.9 681.1 520.5 681.1 535.2 686.7 548.8 697.1 559.1 710.7 564.8 725.3 564.8 738.9 559.1 749.3 548.8 754.9 535.2 754.9 520.5 749.3 506.9 738.9 496.5 725.3 490.9 710.7 490.9 M 704.4 493.5 478.8 493.5 M 476.7 509.4 685.7 509.4 M 681.1 525.2 487.1 525.2 M 492.5 541.1 683.5 541.1 M 694.8 556.9 558.7 556.9 M 556.4 588.6 559.8 588.6 M 528.8 588.6 445.3 588.6 M 440.2 572.8 520.8 572.8 M 526.5 556.9 484.3 556.9 M 457.2 556.9 410.9 556.9 M 410.9 541.1 449 541.1 M 454.4 525.2 410.9 525.2 M 436.8 604.5 601.2 604.5 M 631.6 604.5 689.2 604.5 M 689.9 652 493.6 652 M 493.6 667.9 807.4 667.9 M 811.5 683.7 618 683.7 M 620.5 699.6 694.1 699.6 M 741.9 699.6 798.1 699.6 M 791.5 715.4 752.8 715.4 M 754.9 731.3 791.1 731.3 M 794.4 747.1 750 747.1 M 729.7 763 802.5 763 M 817.2 778.8 574.3 778.8 M 574.3 763 706.3 763 M 686 747.1 583.1 747.1 M 561.1 715.4 493.6 715.4 M 493.6 699.6 576.9 699.6 M 579.4 683.7 493.6 683.7 M 493.6 731.3 545.6 731.3 M 536.5 747.1 493.6 747.1 M 493.6 763 536.5 763 M 536.5 778.8 493.6 778.8 M 493.6 794.7 536.5 794.7 M 536.5 810.5 493.6 810.5 M 493.6 826.4 536.5 826.4 M 536.5 842.2 493.6 842.2 M 493.8 858.1 536.5 858.1 M 536.5 873.9 490.2 873.9 M 478.4 889.8 536.5 889.8 M 536.5 905.6 478.4 905.6 M 478.4 921.5 509.4 921.5 M 500.6 937.3 481.2 937.3 M 476.8 953.2 505.5 953.2 M 500.2 969 451.2 969 M 405.7 1000.7 391.3 1000.7 M 391.3 1016.6 410.5 1016.6 M 410.3 1048.3 413.6 1048.3 M 391.3 1032.4 582.8 1032.4 M 592.3 1048.3 535.7 1048.3 M 543.7 1064.1 611.3 1064.1 M 611.3 1080 538 1080 M 544.2 1095.8 611.3 1095.8 M 578.9 1111.7 541.4 1111.7 M 550.8 1159.2 575 1159.2 M 568 1175.1 587.2 1175.1 M 606.3 1175.1 611.3 1175.1 M 611.3 1190.9 568.4 1190.9 M 568.4 1206.8 611.3 1206.8 M 611.3 1222.6 571.3 1222.6 M 570.5 1238.5 611.3 1238.5 M 611.3 1254.3 393.9 1254.3 M 389.2 1249.7 402 1262.4 402 1280.5 389.2 1293.2 371.2 1293.2 358.4 1280.5 358.4 1262.4 371.2 1249.7 389.2 1249.7 M 366.5 1254.3 347.9 1254.3 M 347.9 1238.5 493.1 1238.5 M 495.2 1240.6 482.6 1227.9 479.8 1230.7 461.7 1230.7 449 1218 449 1199.9 461.7 1187.2 479.8 1187.2 492.4 1199.8 495.2 1197 513.2 1197 526 1209.8 526 1227.8 513.2 1240.6 495.2 1240.6 M 515.4 1238.5 528.5 1238.5 M 527.7 1222.6 526 1222.6 M 523 1206.8 530.6 1206.8 M 529.5 1190.9 483.5 1190.9 M 486.1 1166.7 467.2 1166.7 453.9 1153.4 453.9 1134.6 467.2 1121.2 486.1 1121.2 499.4 1134.6 499.4 1153.4 486.1 1166.7 M 493.6 1159.2 503.5 1159.2 M 503.5 1143.4 499.4 1143.4 M 503.5 1127.5 492.4 1127.5 M 503.5 1111.7 472 1111.7 M 472 1095.8 500.6 1095.8 M 505.8 1080 472 1080 M 457 1064.1 500.2 1064.1 M 508.1 1048.3 441.3 1048.3 M 460.8 1127.5 461 1127.5 M 453.9 1143.4 369.6 1143.4 M 369.6 1159.2 459.7 1159.2 M 458 1190.9 369.6 1190.9 M 369.6 1175.1 511.5 1175.1 M 449 1206.8 369.6 1206.8 M 361.8 1222.6 453.6 1222.6 M 402 1270.2 611.3 1270.2 M 611.3 1286 396.4 1286 M 364 1286 347.9 1286 M 347.9 1270.2 358.4 1270.2 M 347.9 1301.9 611.3 1301.9 M 611.3 1317.7 347.9 1317.7 M 347.9 1333.6 611.3 1333.6 M 611.3 1349.4 347.9 1349.4 M 347.9 1365.3 611.3 1365.3 M 611.3 1381.1 347.9 1381.1 M 347.9 1397 611.3 1397 M 611.3 1412.8 347.9 1412.8 M 347.9 1428.7 611.3 1428.7 M 611.3 1444.5 347.9 1444.5 M 310.1 1444.5 303.3 1444.5 M 305.5 1428.7 310.1 1428.7 M 310.1 1412.8 304 1412.8 M 310.1 1397 297.4 1397 M 310.1 1381.1 282.5 1381.1 M 291.8 1365.3 310.1 1365.3 M 310.1 1349.4 301.3 1349.4 M 305.5 1333.6 310.1 1333.6 M 310.1 1317.7 305.5 1317.7 M 310.1 1301.9 299.5 1301.9 M 310.1 1286 287.4 1286 M 286.9 1270.2 310.1 1270.2 M 310.1 1254.3 299.3 1254.3 M 305.5 1238.5 310.1 1238.5 M 310.1 1222.6 305.5 1222.6 M 301.5 1206.8 310.2 1206.8 M 298.7 1190.9 292.3 1190.9 M 300.6 1175.1 282 1175.1 M 297.3 1159.2 331.8 1159.2 M 331.8 1143.4 303.8 1143.4 M 305.5 1127.5 331.8 1127.5 M 331.8 1111.7 303.5 1111.7 M 309.6 1095.8 331.8 1095.8 M 331.8 1080 319.3 1080 M 315.4 1064.1 331.8 1064.1 M 331.8 1048.3 301.8 1048.3 M 305.5 1032.4 331.8 1032.4 M 331.8 1016.6 305.5 1016.6 M 299 1000.7 331.8 1000.7 M 331.8 984.9 286.2 984.9 M 288.1 969 331.8 969 M 331.8 953.2 299.8 953.2 M 305.5 937.3 331.8 937.3 M 331.8 921.5 305.5 921.5 M 301 905.6 331.8 905.6 M 217.2 778.8 37.8 778.8 M 37.8 763 106.3 763 M 86 747.1 37.8 747.1 M 37.8 731.3 81.1 731.3 M 83.2 715.4 37.8 715.4 M 37.8 699.6 94.1 699.6 M 89.9 652 37.8 652 M 37.8 636.2 81.5 636.2 M 81.2 620.3 37.8 620.3 M 37.8 604.5 89.2 604.5 M 94.8 556.9 37.8 556.9 M 37.8 541.1 83.5 541.1 M 81.1 525.2 37.8 525.2 M 37.8 509.4 85.7 509.4 M 101.7 794.7 37.8 794.7 M 37.8 810.5 85.2 810.5 M 81.1 826.4 37.8 826.4 M 37.8 842.2 84 842.2 M 96 858.1 37.8 858.1 M 344 446 486 446 M 480.5 440.4 480.5 422.4 493.2 409.6 511.3 409.6 524 422.4 524 440.4 511.3 453.2 493.2 453.2 480.5 440.4 M 480.5 430.1 344 430.1 M 344 414.3 488.6 414.3 M 515.9 414.3 683.7 414.3 M 681.1 430.1 524 430.1 M 518.5 446 685.5 446 M 695.2 398.4 355.3 398.4 M 347.6 176.5 627.1 176.5 M 631.7 160.7 329.5 160.7 M 308.9 160.7 296.4 160.7 M 303.2 144.8 679.5 144.8 M 676 129 305.5 129 M 304.1 113.1 678.6 113.1 M 689.2 97.3 297.6 97.3 M 282.8 81.4 806.7 81.4 M 841.6 81.4 855.1 81.4 M 855.1 97.3 841.6 97.3 M 788.3 144.8 756.5 144.8 M 744.3 160.7 795.2 160.7 M 691.7 160.7 672 160.7 M 633.8 192.4 518.9 192.4 M 731.6 493.5 801.7 493.5 M 794 509.4 750.3 509.4 M 754.9 525.2 791.1 525.2 M 791.9 541.1 752.5 541.1 M 741.2 556.9 798.4 556.9 M 812.3 572.8 631.1 572.8 M 638.2 588.6 806.6 588.6 M 796.1 604.5 746.8 604.5 M 754.8 620.3 791.1 620.3 M 791.1 636.2 754.5 636.2 M 746.1 652 796.4 652 M 800.6 794.7 734.3 794.7 M 750.8 810.5 793.6 810.5 M 791.1 826.4 754.9 826.4 M 752 842.2 792.3 842.2 M 798.9 858.1 772.6 858.1 M 788.5 873.9 813.5 873.9 M 805.5 889.8 802.7 889.8 M 764.8 905.6 748 905.6 M 749.3 906.9 754.9 920.5 754.9 935.2 749.3 948.8 738.9 959.1 725.3 964.8 710.7 964.8 697.1 959.1 686.7 948.8 681.1 935.2 681.1 920.5 686.7 906.9 697.1 896.5 710.7 890.9 725.3 890.9 738.9 896.5 749.3 906.9 M 754.9 921.5 764.8 921.5 M 764.8 937.3 754 937.3 M 744.9 953.2 764.8 953.2 M 764.8 969 670.8 969 M 670.8 953.2 691.1 953.2 M 682 937.3 660.9 937.3 M 657.9 921.5 681.1 921.5 M 688 905.6 654.9 905.6 M 617.3 905.6 611.6 905.6 M 611.1 921.5 614.3 921.5 M 619.1 889.8 750.8 889.8 M 764.8 984.9 670.8 984.9 M 670.8 1000.7 692.9 1000.7 M 697.1 996.5 710.7 990.9 725.3 990.9 738.9 996.5 749.3 1006.9 754.9 1020.5 754.9 1035.2 749.3 1048.8 738.9 1059.1 725.3 1064.8 710.7 1064.8 697.1 1059.1 686.7 1048.8 681.1 1035.2 681.1 1020.5 686.7 1006.9 697.1 996.5 M 682.7 1016.6 670.8 1016.6 M 670.8 1032.4 681.1 1032.4 M 686.5 1048.3 670.8 1048.3 M 670.8 1064.1 709.1 1064.1 M 726.9 1064.1 744.2 1064.1 M 749.5 1048.3 764.8 1048.3 M 764.8 1032.4 754.9 1032.4 M 753.3 1016.6 764.8 1016.6 M 764.8 1000.7 743.1 1000.7 M 684 842.2 606.5 842.2 M 610.6 826.4 681.1 826.4 M 685.2 810.5 601.1 810.5 M 576.6 810.5 574.3 810.5 M 574.3 794.7 701.7 794.7 M 593.8 858.1 574.3 858.1 M 574.3 873.9 584.5 873.9 M 536.5 921.5 535.4 921.5 M 455.8 731.3 443.4 731.3 M 443.4 715.4 455.8 715.4 M 455.8 699.6 446.3 699.6 M 438.4 683.7 455.8 683.7 M 410.6 683.7 399 683.7 M 877.6 477.7 923.4 477.7 M 1191.4 1301.9 1238.3 1301.9 M 1238.3 1317.7 995.6 1317.7 M 995.6 1333.6 1059.5 1333.6 M 1044.4 1349.4 995.6 1349.4 M 995.6 1365.3 1044.4 1365.3 M 1044.4 1381.1 995.6 1381.1 M 995.6 1397 1044.4 1397 M 1044.4 1412.8 995.6 1412.8 M 995.6 1428.7 1044.4 1428.7 M 1044.4 1444.5 995.6 1444.5 M 995.6 1460.4 1044.4 1460.4 M 1044.4 1476.2 995.6 1476.2 M 995.6 1492.1 1044.4 1492.1 M 1044.4 1507.9 995.6 1507.9 M 995.6 1523.8 1044.4 1523.8 M 1044.4 1539.6 995.6 1539.6 M 995.6 1555.5 1044.4 1555.5 M 1044.4 1571.3 995.6 1571.3 M 995.6 1587.2 1044.4 1587.2 M 1044.4 1603 995.6 1603 M 995.6 1618.9 1044.4 1618.9 M 1044.4 1634.7 995.6 1634.7 M 995.6 1650.6 1044.4 1650.6 M 1043 1666.4 1044.4 1666.4 M 1043.9 1682.3 1044.4 1682.3 M 1044.4 1698.1 1030 1698.1 M 1044.4 1714 995.6 1714 M 995.6 1729.8 1044.4 1729.8 M 1044.4 1745.7 995.6 1745.7 M 995.6 1761.5 1044.4 1761.5 M 1044.4 1777.4 995.6 1777.4 M 995.6 1793.2 1044.4 1793.2 M 1044.4 1809.1 995.6 1809.1 M 995.6 1824.9 1044.4 1824.9 M 1044.4 1840.8 995.6 1840.8 M 995.6 1856.6 1044.4 1856.6 M 1044.4 1872.5 995.6 1872.5 M 995.6 1888.3 1044.4 1888.3 M 1044.4 1904.2 995.6 1904.2 M 995.6 1920 1044.4 1920 M 1044.4 1935.9 995.6 1935.9 M 995.6 1951.7 1044.4 1951.7 M 1044.4 1967.6 995.6 1967.6 M 995.6 1983.4 1044.4 1983.4 M 1044.4 1999.3 995.6 1999.3 M 995.6 2015.1 1044.4 2015.1 M 1044.4 2031 1004.6 2031 M 1020.4 2046.8 1044.4 2046.8 M 1044.4 2062.7 1025.1 2062.7 M 1025.1 2078.5 1044.4 2078.5 M 1044.4 2094.4 1025.1 2094.4 M 1023.4 2110.2 1044.4 2110.2 M 1041.5 2126.1 1007.5 2126.1 M 1044.2 2141.9 37.8 2141.9 M 37.8 2126.1 465.4 2126.1 M 445.3 2110.2 37.8 2110.2 M 37.8 2094.4 444 2094.4 M 444 2078.5 284.6 2078.5 M 300 2062.7 444 2062.7 M 444 2046.8 307.7 2046.8 M 255.1 2046.8 241.6 2046.8 M 241.6 2062.7 255.1 2062.7 M 255.1 2078.5 241.6 2078.5 M 212.1 2078.5 37.8 2078.5 M 37.8 2062.7 94.5 2062.7 M 96 2063.8 90.6 2059.9 86 2055.2 82.1 2049.9 79.1 2044 77 2037.7 76 2031.1 76 2027.8 118 2027.8 118 2069.8 114.7 2069.8 108.2 2068.8 101.9 2066.8 96 2063.8 M 118 2062.7 118 2062.7 M 118 2046.8 118 2046.8 M 118 2031 118 2031 M 118 2027.8 118 2027.8 M 118 2015.1 118 2015.1 M 118 1999.3 118 1999.3 M 87.2 1999.3 37.8 1999.3 M 37.8 2015.1 78 2015.1 M 76 2031 37.8 2031 M 37.8 2046.8 80.5 2046.8 M 37.8 1983.4 204.7 1983.4 M 207.1 1967.6 37.8 1967.6 M 37.8 1951.7 89.6 1951.7 M 81.4 1935.9 37.8 1935.9 M 37.8 1920 81.3 1920 M 89.5 1904.2 37.8 1904.2 M 37.8 1888.3 206.9 1888.3 M 212 1872.5 37.8 1872.5 M 37.8 1856.6 94.5 1856.6 M 83.4 1840.8 37.8 1840.8 M 37.8 1824.9 81.1 1824.9 M 85.8 1809.1 37.8 1809.1 M 37.8 1793.2 105.1 1793.2 M 102.8 1761.5 37.8 1761.5 M 37.8 1745.7 85.4 1745.7 M 81.1 1729.8 37.8 1729.8 M 37.8 1714 83.8 1714 M 95.5 1698.1 37.8 1698.1 M 37.8 1682.3 213 1682.3 M 283.6 1682.3 309.9 1682.3 M 310.1 1666.4 297.3 1666.4 M 306.4 1650.6 310.1 1650.6 M 310 1618.9 310.1 1618.9 M 310.1 1603 305.6 1603 M 310.1 1587.2 295.7 1587.2 M 285.8 1571.3 310.1 1571.3 M 310.1 1555.5 298.8 1555.5 M 305.4 1539.6 310.1 1539.6 M 310.1 1523.8 305.5 1523.8 M 302 1507.9 310.1 1507.9 M 310.1 1492.1 293.4 1492.1 M 280.9 1476.2 310.1 1476.2 M 310.1 1460.4 296.7 1460.4 M 297.9 1698.1 322.9 1698.1 M 304.5 1714 444 1714 M 444 1729.8 305.5 1729.8 M 302.9 1745.7 444 1745.7 M 360.1 1761.5 295.6 1761.5 M 278.3 1777.4 356.5 1777.4 M 362.3 1793.2 294.6 1793.2 M 218.3 1777.4 37.8 1777.4 M 155.5 2046.8 189 2046.8 M 196.6 2062.7 141.5 2062.7 M 892.9 1571.3 910.5 1571.3 M 910.5 1555.5 904.2 1555.5 M 909.5 1539.6 910.5 1539.6 M 995.6 1666.4 997 1666.4 M 995.6 1682.3 996 1682.3 M 995.6 1698.1 1010 1698.1 M 1082.2 1698.1 1238.3 1698.1 M 1238.3 1682.3 1082.2 1682.3 M 1082.2 1666.4 1238.3 1666.4 M 1238.3 1650.6 1082.2 1650.6 M 1082.2 1634.7 1238.3 1634.7 M 1238.3 1618.9 1082.2 1618.9 M 1082.2 1603 1238.3 1603 M 1238.3 1587.2 1082.2 1587.2 M 1082.2 1571.3 1238.3 1571.3 M 1238.3 1555.5 1082.2 1555.5 M 1082.2 1539.6 1238.3 1539.6 M 1238.3 1523.8 1082.2 1523.8 M 1082.2 1507.9 1238.3 1507.9 M 1238.3 1492.1 1082.2 1492.1 M 1082.2 1476.2 1238.3 1476.2 M 1238.3 1460.4 1082.2 1460.4 M 1082.2 1444.5 1238.3 1444.5 M 1238.3 1428.7 1082.2 1428.7 M 1082.2 1412.8 1238.3 1412.8 M 1238.3 1397 1082.2 1397 M 1082.2 1381.1 1238.3 1381.1 M 1238.3 1365.3 1082.2 1365.3 M 1191.4 1349.4 1238.3 1349.4 M 1238.3 1333.6 1191.1 1333.6 M 1238.3 1714 1082.2 1714 M 1082.2 1729.8 1238.3 1729.8 M 1238.3 1745.7 1082.2 1745.7 M 1082.2 1761.5 1238.3 1761.5 M 1238.3 1777.4 1082.2 1777.4 M 1082.2 1793.2 1238.3 1793.2 M 1238.3 1809.1 1082.2 1809.1 M 1082.2 1824.9 1238.3 1824.9 M 1238.3 1840.8 1082.2 1840.8 M 1082.2 1856.6 1238.3 1856.6 M 1238.3 1872.5 1082.2 1872.5 M 1082.2 1888.3 1238.3 1888.3 M 1238.3 1904.2 1082.2 1904.2 M 1082.2 1920 1238.3 1920 M 1238.3 1935.9 1082.2 1935.9 M 1082.2 1951.7 1238.3 1951.7 M 1238.3 1967.6 1082.2 1967.6 M 1082.2 1983.4 1238.3 1983.4 M 1238.3 1999.3 1082.2 1999.3 M 1082.2 2015.1 1238.3 2015.1 M 1238.3 2031 1082.2 2031 M 1082.2 2046.8 1238.3 2046.8 M 1238.3 2062.7 1082.2 2062.7 M 1082.2 2078.5 1238.3 2078.5 M 1238.3 2094.4 1082.2 2094.4 M 1082.2 2110.2 1238.3 2110.2 M 1238.3 2126.1 1085.1 2126.1 M 1082.4 2141.9 1238.3 2141.9" fill="none" stroke-width="16"/><use xlink:href="#BxSHXbg_CMPmRRXuBgEQ_pad-14" x="978.6" y="2077.1"/><use xlink:href="#BxSHXbg_CMPmRRXuBgEQ_pad-14" x="1020" y="1675.5"/><use xlink:href="#BxSHXbg_CMPmRRXuBgEQ_pad-14" x="598.7" y="2057.4"/><use xlink:href="#BxSHXbg_CMPmRRXuBgEQ_pad-14" x="539.7" y="1754.2"/><use xlink:href="#BxSHXbg_CMPmRRXuBgEQ_pad-14" x="466.8" y="1608.6"/><use xlink:href="#BxSHXbg_CMPmRRXuBgEQ_pad-14" x="323.1" y="1185.3"/><use xlink:href="#BxSHXbg_CMPmRRXuBgEQ_pad-14" x="474.7" y="1051.5"/><use xlink:href="#BxSHXbg_CMPmRRXuBgEQ_pad-14" x="372.3" y="831"/><use xlink:href="#BxSHXbg_CMPmRRXuBgEQ_pad-14" x="575.1" y="437.3"/><use xlink:href="#BxSHXbg_CMPmRRXuBgEQ_pad-14" x="535.7" y="331"/><use xlink:href="#BxSHXbg_CMPmRRXuBgEQ_pad-14" x="518" y="279.8"/><use xlink:href="#BxSHXbg_CMPmRRXuBgEQ_pad-14" x="545.6" y="224.7"/><use xlink:href="#BxSHXbg_CMPmRRXuBgEQ_pad-14" x="500.3" y="208.9"/><use xlink:href="#BxSHXbg_CMPmRRXuBgEQ_pad-14" x="651.9" y="175.5"/><use xlink:href="#BxSHXbg_CMPmRRXuBgEQ_pad-14" x="319.2" y="183.4"/><use xlink:href="#BxSHXbg_CMPmRRXuBgEQ_pad-14" x="624.3" y="817.2"/><use xlink:href="#BxSHXbg_CMPmRRXuBgEQ_pad-14" x="352.6" y="2057.4"/><use xlink:href="#BxSHXbg_CMPmRRXuBgEQ_pad-15" x="716.8" y="1380.2"/><use xlink:href="#BxSHXbg_CMPmRRXuBgEQ_pad-15" x="600.7" y="1230.6"/><use xlink:href="#BxSHXbg_CMPmRRXuBgEQ_pad-15" x="549.5" y="1228.6"/><use xlink:href="#BxSHXbg_CMPmRRXuBgEQ_pad-15" x="504.2" y="1218.8"/><use xlink:href="#BxSHXbg_CMPmRRXuBgEQ_pad-15" x="470.8" y="1208.9"/><use xlink:href="#BxSHXbg_CMPmRRXuBgEQ_pad-15" x="427.9" y="1097.2"/><use xlink:href="#BxSHXbg_CMPmRRXuBgEQ_pad-15" x="396" y="1096.7"/><use xlink:href="#BxSHXbg_CMPmRRXuBgEQ_pad-15" x="396.4" y="1065.2"/><use xlink:href="#BxSHXbg_CMPmRRXuBgEQ_pad-15" x="427.4" y="1065.2"/><use xlink:href="#BxSHXbg_CMPmRRXuBgEQ_pad-15" x="427.4" y="1002.7"/><use xlink:href="#BxSHXbg_CMPmRRXuBgEQ_pad-15" x="429.4" y="972.7"/><use xlink:href="#BxSHXbg_CMPmRRXuBgEQ_pad-15" x="428.4" y="940.7"/><use xlink:href="#BxSHXbg_CMPmRRXuBgEQ_pad-15" x="459.4" y="939.8"/><use xlink:href="#BxSHXbg_CMPmRRXuBgEQ_pad-15" x="458.9" y="1002.7"/><use xlink:href="#BxSHXbg_CMPmRRXuBgEQ_pad-15" x="396.9" y="1002.3"/><use xlink:href="#BxSHXbg_CMPmRRXuBgEQ_pad-15" x="396.9" y="971.2"/><use xlink:href="#BxSHXbg_CMPmRRXuBgEQ_pad-15" x="396" y="939.3"/><use xlink:href="#BxSHXbg_CMPmRRXuBgEQ_pad-15" x="447.1" y="834.9"/><use xlink:href="#BxSHXbg_CMPmRRXuBgEQ_pad-15" x="447.1" y="799.5"/><use xlink:href="#BxSHXbg_CMPmRRXuBgEQ_pad-15" x="382.2" y="777.8"/><use xlink:href="#BxSHXbg_CMPmRRXuBgEQ_pad-15" x="381.2" y="696.6"/><use xlink:href="#BxSHXbg_CMPmRRXuBgEQ_pad-15" x="424.5" y="700.6"/><use xlink:href="#BxSHXbg_CMPmRRXuBgEQ_pad-15" x="394" y="598.7"/><use xlink:href="#BxSHXbg_CMPmRRXuBgEQ_pad-15" x="423.5" y="586.9"/><use xlink:href="#BxSHXbg_CMPmRRXuBgEQ_pad-15" x="470.8" y="539.7"/><use xlink:href="#BxSHXbg_CMPmRRXuBgEQ_pad-15" x="457" y="498.3"/><use xlink:href="#BxSHXbg_CMPmRRXuBgEQ_pad-15" x="502.3" y="431.4"/><use xlink:href="#BxSHXbg_CMPmRRXuBgEQ_pad-15" x="492.4" y="305.9"/><use xlink:href="#BxSHXbg_CMPmRRXuBgEQ_pad-15" x="542.6" y="571.6"/><use xlink:href="#BxSHXbg_CMPmRRXuBgEQ_pad-15" x="581" y="579"/><use xlink:href="#BxSHXbg_CMPmRRXuBgEQ_pad-15" x="616.4" y="588.9"/><use xlink:href="#BxSHXbg_CMPmRRXuBgEQ_pad-15" x="598.7" y="695.2"/><use xlink:href="#BxSHXbg_CMPmRRXuBgEQ_pad-15" x="588.9" y="829"/><use xlink:href="#BxSHXbg_CMPmRRXuBgEQ_pad-15" x="610.5" y="917.6"/><use xlink:href="#BxSHXbg_CMPmRRXuBgEQ_pad-15" x="636.1" y="917.6"/><use xlink:href="#BxSHXbg_CMPmRRXuBgEQ_pad-15" x="604.6" y="1029.8"/><use xlink:href="#BxSHXbg_CMPmRRXuBgEQ_pad-15" x="553.4" y="1002.7"/><use xlink:href="#BxSHXbg_CMPmRRXuBgEQ_pad-15" x="521.9" y="1002.3"/><use xlink:href="#BxSHXbg_CMPmRRXuBgEQ_pad-15" x="521.9" y="970.8"/><use xlink:href="#BxSHXbg_CMPmRRXuBgEQ_pad-15" x="522.4" y="939.3"/><use xlink:href="#BxSHXbg_CMPmRRXuBgEQ_pad-15" x="521.9" y="1065.2"/><use xlink:href="#BxSHXbg_CMPmRRXuBgEQ_pad-15" x="522.4" y="1096.7"/><use xlink:href="#BxSHXbg_CMPmRRXuBgEQ_pad-15" x="557.4" y="1136.1"/><use xlink:href="#BxSHXbg_CMPmRRXuBgEQ_pad-15" x="596.7" y="1153.8"/><use xlink:href="#BxSHXbg_CMPmRRXuBgEQ_pad-15" x="600.7" y="1118.4"/><use xlink:href="#BxSHXbg_CMPmRRXuBgEQ_pad-15" x="758.2" y="1081"/><use xlink:href="#BxSHXbg_CMPmRRXuBgEQ_pad-15" x="380.2" y="1271.4"/><use xlink:href="#BxSHXbg_CMPmRRXuBgEQ_pad-15" x="297.5" y="1077.1"/><use xlink:href="#BxSHXbg_CMPmRRXuBgEQ_pad-15" x="75.1" y="1079"/><use xlink:href="#BxSHXbg_CMPmRRXuBgEQ_pad-15" x="75.1" y="1179.4"/><use xlink:href="#BxSHXbg_CMPmRRXuBgEQ_pad-15" x="75.1" y="978.6"/><use xlink:href="#BxSHXbg_CMPmRRXuBgEQ_pad-15" x="75.1" y="890"/><use xlink:href="#BxSHXbg_CMPmRRXuBgEQ_pad-15" x="75.1" y="777.8"/><use xlink:href="#BxSHXbg_CMPmRRXuBgEQ_pad-15" x="77.1" y="677.4"/><use xlink:href="#BxSHXbg_CMPmRRXuBgEQ_pad-15" x="77.1" y="579"/><use xlink:href="#BxSHXbg_CMPmRRXuBgEQ_pad-15" x="77.1" y="476.7"/><use xlink:href="#BxSHXbg_CMPmRRXuBgEQ_pad-15" x="77.1" y="376.3"/><use xlink:href="#BxSHXbg_CMPmRRXuBgEQ_pad-15" x="75.1" y="277.8"/><use xlink:href="#BxSHXbg_CMPmRRXuBgEQ_pad-15" x="77.1" y="179.4"/><use xlink:href="#BxSHXbg_CMPmRRXuBgEQ_pad-15" x="163.7" y="81"/><use xlink:href="#BxSHXbg_CMPmRRXuBgEQ_pad-15" x="1169.6" y="1195.2"/><use xlink:href="#BxSHXbg_CMPmRRXuBgEQ_pad-15" x="1169.6" y="1244.4"/><use xlink:href="#BxSHXbg_CMPmRRXuBgEQ_pad-15" x="1169.6" y="1293.6"/><use xlink:href="#BxSHXbg_CMPmRRXuBgEQ_pad-15" x="1169.6" y="1342.8"/><use xlink:href="#BxSHXbg_CMPmRRXuBgEQ_pad-15" x="1063.3" y="2130.2"/><path d="M 1063.3 2130.2 1063.3 1356.6 1077.1 1342.8 1169.6 1342.8 M 1169.6 1293.6 990.4 1293.6 976.7 1307.4 976.7 2047.5 994.4 2047.5 1006.2 2059.3 1006.2 2100.7 M 953 2083 953 1258.2 966.8 1244.4 1169.6 1244.4 M 1169.6 1195.2 947.1 1195.2 929.4 1210.9 929.4 2071.1 M 783.7 1984.5 783.7 896 758.2 870.4 608.6 870.4 588.9 903.8 M 600.7 943.2 640 943.2 651.9 955 651.9 2075.1 M 630.2 2084.9 630.2 1013.6 622.3 1002.7 M 555.4 968.8 555.4 748.3 575.1 728.1 717.7 728.1 718 727.8 M 717.6 628.2 718 627.8 M 717.6 628.2 480.6 628.2 474.7 634.1 474.7 862.5 459.4 876.8 459.4 939.8 M 435.3 901.9 435.3 866.4 424.5 856.6 424.5 700.6 M 394 598.7 392 596.7 392 504.2 397.9 498.3 457 498.3 M 350.7 376.3 325.1 401.9 325.1 864.5 334.9 870.4 399.9 870.4 411.7 882.2 M 423.5 909.7 435.3 901.9 M 423.5 909.7 376.3 909.7 372.3 913.7 372.3 1122.3 439.3 1122.3 453 1108.6 453 1084.9 427.4 1065.2 M 415.6 1023.9 445.2 1023.9 474.7 1051.5 M 458.9 1002.7 521.9 1002.3 M 521.9 970.8 553.4 970.8 555.4 968.8 M 522.4 1096.7 522.4 1159.2 549.5 1183.4 549.5 1228.6 M 415.6 1023.9 396.9 1003.2 396.9 1002.3 M 350.7 904.3 357.6 896.9 M 350.7 904.3 350.7 1207 329 1226.7 329 1675.5 340.8 1689.3 449.1 1689.3 462.9 1703 462.9 2100.7 476.7 2110.5 583 2110.5 M 610.5 376.3 350.7 376.3 M 610.5 376.3 632.2 354.6 657 327.8 718 327.8" fill="none" stroke-width="12"/><use xlink:href="#BxSHXbg_CMPmRRXuBgEQ_pad-17" x="384.1" y="1775.9"/><path d="M 344.8 208.9 319.2 183.4 M 344.8 208.9 500.3 208.9" fill="none" stroke-width="24"/><use xlink:href="#BxSHXbg_CMPmRRXuBgEQ_pad-19" x="402.8" y="732.6"/><use xlink:href="#BxSHXbg_CMPmRRXuBgEQ_pad-19" x="449.6" y="756.2"/><use xlink:href="#BxSHXbg_CMPmRRXuBgEQ_pad-19" x="411.7" y="882.2"/><use xlink:href="#BxSHXbg_CMPmRRXuBgEQ_pad-19" x="357.6" y="896.9"/><use xlink:href="#BxSHXbg_CMPmRRXuBgEQ_pad-19" x="476.7" y="1144"/><use xlink:href="#BxSHXbg_CMPmRRXuBgEQ_pad-19" x="600.7" y="943.2"/><use xlink:href="#BxSHXbg_CMPmRRXuBgEQ_pad-19" x="608.6" y="976.2"/><use xlink:href="#BxSHXbg_CMPmRRXuBgEQ_pad-19" x="588.9" y="903.8"/><use xlink:href="#BxSHXbg_CMPmRRXuBgEQ_pad-19" x="754.2" y="1179.4"/><use xlink:href="#BxSHXbg_CMPmRRXuBgEQ_pad-19" x="783.7" y="1984.5"/><path d="M 657.8 2083 651.9 2075.1 M 630.2 2084.9 640 2096.7 M 614.5 2110.5 600.7 2110.5 M 917.6 2083 929.4 2071.1 M 953 2083 937.3 2096.7 M 998.3 2110.5 1006.2 2100.7" fill="none" stroke-width="7.9"/><path d="M 998.3 2110.5 614.5 2110.5 M 640 2096.7 937.3 2096.7 M 917.6 2083 657.8 2083 M 622.3 1002.7 553.4 1002.7" fill="none" stroke-width="5.9"/><path d="M 583 2110.5 600.7 2110.5" fill="none" stroke-width="9.8"/></g></svg>