<svg version="1.1" xmlns="http://www.w3.org/2000/svg" xmlns:xlink="http://www.w3.org/1999/xlink" stroke-linecap="round" stroke-linejoin="round" stroke-width="0" fill-rule="evenodd" width="1.2402in" height="2.1555in" viewBox="18 18 1240.2 2155.5" id="SWNXAbnzwU4bLBG4rvhH"><defs><circle cx="0" cy="0" r="11.85" id="SWNXAbnzwU4bLBG4rvhH_pad-16"/><rect x="-5.9" y="-17.2" width="11.8" height="34.4" id="SWNXAbnzwU4bLBG4rvhH_pad-17"/><rect x="-12.8" y="-27.55" width="25.6" height="55.1" id="SWNXAbnzwU4bLBG4rvhH_pad-19"/><rect x="-9.85" y="-31.5" width="19.7" height="63" id="SWNXAbnzwU4bLBG4rvhH_pad-21"/><rect x="-25" y="-25" width="50" height="50" id="SWNXAbnzwU4bLBG4rvhH_pad-22"/></defs><g transform="translate(0,2191.5) scale(1,-1)" fill="currentColor" stroke="currentColor"><path d="M 18 18 18 2173.5 1258.2 2173.5 1258.2 1012.1 943.2 1012.1 943.2 18 18 18" fill="none" stroke-width="0"/><path d="M 1020.7 1110.3 1013.8 1117.2 1013.8 1130.8 1020.7 1137.7 1027.5 1137.7 1034.4 1130.8 1034.4 1110.3 1020.7 1110.3 M 1034.4 1110.3 1048 1124 1054.9 1137.7 M 1043.2 1502.1 1056.8 1515.7 1015.8 1515.7 M 1015.8 1502.1 1015.8 1529.4" fill="none" stroke-width="9"/><path d="M 1015.7 1457.4 999.5 1457.4 994.1 1452 994.1 1441.2 999.5 1435.8 1015.7 1435.8 M 1015.7 1425 1015.7 1457.4 M 1030.3 1457.4 1030.3 1435.8 1041.1 1425 1051.9 1435.8 1051.9 1457.4 M 1046.5 1408.2 1035.7 1408.2 1030.3 1402.8 M 1030.3 1392 1041.1 1392 M 1030.3 1392 1030.3 1381.2 1035.7 1375.8 1046.5 1375.8 1051.9 1381.2 1051.9 1402.8 1046.5 1408.2 M 1015.7 1408.2 1015.7 1375.8 M 1012.2 1359 1017.6 1353.6 1017.6 1332 1012.2 1326.6 1001.4 1326.6 996 1332 M 981.4 1326.6 981.4 1359 M 996 1353.6 1001.4 1359 1012.2 1359 M 994.1 1375.8 994.1 1408.2 M 979.4 1408.2 963.2 1408.2 957.8 1402.8 957.8 1381.2 963.2 1375.8 979.4 1375.8 979.4 1408.2 M 979.4 1425 957.8 1425 M 943.1 1425 943.1 1457.4 921.5 1457.4 M 932.3 1441.2 943.1 1441.2 M 957.8 1457.4 979.4 1457.4 979.4 1425 M 994.1 1425 1004.9 1435.8 M 1015.7 1408.2 994.1 1375.8 M 976 1342.8 959.8 1326.6 M 965.2 1311.8 959.8 1306.4 959.8 1284.8 965.2 1279.4 976 1279.4 981.4 1284.8 981.4 1306.4 976 1311.8 965.2 1311.8 M 981.4 1337.4 959.8 1359 M 1001.4 1311.8 996 1306.4 996 1284.8 1001.4 1279.4 1017.6 1279.4 1017.6 1311.8 1001.4 1311.8 M 1032.3 1311.8 1053.9 1311.8 M 1043.1 1311.8 1043.1 1279.4 M 1045 1262.6 1045 1230.2 M 1045 1213.3 1045 1180.9 M 1019.6 1180.9 1019.6 1213.3 1008.8 1202.5 998 1213.3 998 1180.9 M 983.3 1186.3 977.9 1180.9 967.1 1180.9 961.7 1186.3 961.7 1191.7 967.1 1197.1 977.9 1197.1 983.3 1202.5 983.3 1207.9 977.9 1213.3 967.1 1213.3 961.7 1207.9 M 972.5 1230.2 983.3 1230.2 M 977.9 1230.2 977.9 1262.6 M 983.3 1262.6 972.5 1262.6 M 998 1257.2 998 1235.6 1003.4 1230.2 1019.6 1230.2 1019.6 1262.6 1003.4 1262.6 998 1257.2 M 1034.2 1262.6 1055.8 1262.6 M 1055.8 1213.3 1034.2 1213.3 M 1043.1 1326.6 1043.1 1359 M 1053.9 1359 1032.3 1359 M 979.4 1441.2 968.6 1441.2 M 962.7 1653.7 940.7 1653.7 M 951.7 1653.7 951.7 1686.7 962.7 1675.7 M 977.6 1670.2 983.1 1664.7 999.6 1664.7 M 999.6 1653.7 999.6 1686.7 983.1 1686.7 977.6 1681.2 977.6 1670.2 M 988.6 1664.7 977.6 1653.7 M 1179.5 1737.8 1201.5 1737.8 1179.5 1759.9 1179.5 1765.4 1185 1770.9 1196 1770.9 1201.5 1765.4 M 1216.3 1770.9 1238.4 1737.8 M 1216.3 1737.8 1238.4 1770.9 M 1236.6 1074 1214.6 1041 M 1199.7 1041 1177.7 1041 M 1188.7 1041 1188.7 1074 1199.7 1063 M 1214.6 1074 1236.6 1041 M 611.4 1176.9 605.9 1171.4 594.9 1171.4 589.4 1176.9 589.4 1204.4 M 574.6 1198.9 569 1204.4 558 1204.4 552.5 1198.9 552.5 1193.4 574.6 1171.4 552.5 1171.4 M 611.4 1176.9 611.4 1204.4 M 598.2 1507.7 576.2 1507.7 570.7 1513.2 570.7 1524.2 576.2 1529.7 M 587.2 1544.6 587.2 1566.6 M 570.7 1561.1 603.7 1561.1 587.2 1544.6 M 598.2 1529.7 603.7 1524.2 603.7 1513.2 598.2 1507.7 M 604.7 1817.6 582.7 1817.6 577.2 1823.1 577.2 1834.1 582.7 1839.6 M 582.7 1854.4 577.2 1859.9 577.2 1870.9 582.7 1876.4 588.2 1876.4 593.7 1870.9 593.7 1865.4 M 593.7 1870.9 599.2 1876.4 604.7 1876.4 610.2 1870.9 610.2 1859.9 604.7 1854.4 M 604.7 1839.6 610.2 1834.1 610.2 1823.1 604.7 1817.6 M 604.1 1934.5 582.1 1934.5 576.6 1940 576.6 1951 582.1 1956.5 M 576.6 1971.3 576.6 1993.3 M 576.6 1982.3 609.6 1982.3 598.6 1971.3 M 604.1 1956.5 609.6 1951 609.6 1940 604.1 1934.5 M 606.8 2092.4 617.8 2092.4 623.3 2097.9 M 612.3 2108.9 606.8 2108.9 601.3 2103.4 601.3 2097.9 606.8 2092.4 M 606.8 2108.9 601.3 2114.4 601.3 2119.9 606.8 2125.4 617.8 2125.4 623.3 2119.9 M 638.2 2125.4 660.2 2092.4 M 638.2 2092.4 660.2 2125.4 M 360.2 1418.5 365.7 1413 365.7 1402 360.2 1396.5 M 360.2 1381.7 365.7 1376.2 365.7 1365.2 360.2 1359.6 338.2 1359.6 332.7 1365.2 332.7 1376.2 338.2 1381.7 M 332.7 1396.5 332.7 1418.5 M 332.7 1396.5 354.7 1418.5 360.2 1418.5 M 526.9 707.9 521.4 702.4 521.4 696.9 526.9 691.4 521.4 685.9 521.4 680.4 526.9 674.8 537.9 674.8 543.4 680.4 M 558.2 680.4 563.7 674.8 574.7 674.8 580.2 680.4 580.2 707.9 M 558.2 707.9 558.2 680.4 M 543.4 702.4 537.9 707.9 526.9 707.9 M 526.9 691.4 532.4 691.4" fill="none" stroke-width="7"/><path d="M 1124.1 2054 1124.1 2064.3 1127.5 2067.7 1134.4 2067.7 1137.8 2064.3 M 1137.8 2074.6 1137.8 2054 M 1147.6 2054 1157.9 2054 1161.4 2057.4 1161.4 2064.3 1157.9 2067.7 1147.6 2067.7 M 1146.1 2092.4 1149.6 2095.8 1149.6 2102.7 1146.1 2106.1 1139.3 2106.1 1135.8 2102.7 1135.8 2095.8 1139.3 2092.4 1146.1 2092.4 M 1159.4 2095.8 1159.4 2102.7 1162.8 2106.1 1173.1 2106.1 M 1173.1 2113 1173.1 2092.4 1162.8 2092.4 1159.4 2095.8 M 1173.6 2071.1 1173.6 2057.4 1170.2 2054 M 1170.2 2067.7 1177.1 2067.7 M 1189.3 2067.7 1189.3 2054 M 1185.9 2054 1192.8 2054 M 1202.6 2057.4 1202.6 2067.7 M 1192.8 2067.7 1189.3 2067.7 M 1189.3 2074.6 1189.3 2078 M 1192.8 2092.4 1192.8 2106.1 M 1192.8 2099.2 1185.9 2106.1 1182.5 2106.1 M 1202.6 2106.1 1202.6 2092.4 1212.9 2092.4 1216.3 2095.8 1216.3 2106.1 M 1226.2 2113 1239.9 2113 M 1233 2113 1233 2092.4 M 1229.6 2074.6 1236.5 2074.6 1239.9 2071.1 1239.9 2067.7 1236.5 2064.3 1229.6 2064.3 1226.2 2060.8 1226.2 2057.4 1229.6 2054 1236.5 2054 1239.9 2057.4 M 1226.2 2071.1 1229.6 2074.6 M 1216.3 2067.7 1216.3 2057.4 1212.9 2054 1209.5 2057.4 1206 2054 1202.6 2057.4 M 1202.6 2130.7 1216.3 2144.5 M 1226.2 2151.3 1239.9 2151.3 1239.9 2130.7 1226.2 2130.7 M 1216.3 2130.7 1202.6 2144.5 M 1192.8 2144.5 1185.9 2144.5 M 1189.3 2147.9 1189.3 2134.2 1185.9 2130.7 M 1177.1 2134.2 1177.1 2141 1173.6 2144.5 1166.8 2144.5 1163.3 2141 1163.3 2137.6 1177.1 2137.6 M 1177.1 2134.2 1173.6 2130.7 1166.8 2130.7 M 1153.5 2130.7 1153.5 2144.5 M 1153.5 2137.6 1146.6 2144.5 1143.2 2144.5 M 1133.9 2144.5 1123.6 2144.5 1120.1 2141 1120.1 2130.7 M 1110.3 2134.2 1106.9 2137.6 1096.6 2137.6 M 1096.6 2141 1096.6 2130.7 1106.9 2130.7 1110.3 2134.2 M 1106.9 2144.5 1100 2144.5 1096.6 2141 M 1086.7 2130.7 1079.9 2130.7 M 1083.3 2130.7 1083.3 2151.3 1086.7 2151.3 M 1133.9 2144.5 1133.9 2130.7 M 1233 2141 1239.9 2141 M 229.6 2144.5 222.7 2130.7 215.8 2144.5 M 206 2141 202.6 2144.5 195.7 2144.5 192.3 2141 192.3 2137.6 206 2137.6 M 206 2134.2 206 2141 M 206 2134.2 202.6 2130.7 195.7 2130.7 M 182.4 2130.7 182.4 2144.5 M 175.6 2144.5 182.4 2137.6 M 175.6 2144.5 172.1 2144.5 M 162.8 2141 159.4 2144.5 149.1 2144.5 M 152.5 2137.6 159.4 2137.6 162.8 2141 M 162.8 2130.7 152.5 2130.7 149.1 2134.2 152.5 2137.6 M 139.2 2130.7 132.4 2130.7 M 135.8 2130.7 135.8 2144.5 139.2 2144.5 M 135.8 2151.3 135.8 2154.8 M 123.5 2141 123.5 2134.2 120.1 2130.7 113.2 2130.7 109.8 2134.2 109.8 2141 113.2 2144.5 120.1 2144.5 123.5 2141 M 100 2144.5 89.7 2144.5 86.2 2141 86.2 2130.7 M 100 2130.7 100 2144.5 M 52.8 2147.9 49.4 2151.3 42.5 2151.3 39.1 2147.9 39.1 2144.5 52.8 2130.7 39.1 2130.7" fill="none" stroke-width="5"/><path d="M 173 2077.8 173 77.8 663 77.8 663 2077.8 468 2077.8 467.8 2073.4 467.2 2069.1 466.3 2064.9 465 2060.7 463.3 2056.7 461.3 2052.8 459 2049.1 456.3 2045.7 453.4 2042.4 450.1 2039.5 446.7 2036.8 443 2034.5 439.1 2032.5 435.1 2030.8 430.9 2029.5 426.7 2028.6 422.4 2028 418 2027.8 413.6 2028 409.3 2028.6 405.1 2029.5 400.9 2030.8 396.9 2032.5 393 2034.5 389.3 2036.8 385.9 2039.5 382.6 2042.4 379.7 2045.7 377 2049.1 374.7 2052.8 372.7 2056.7 371 2060.7 369.7 2064.9 368.8 2069.1 368.2 2073.4 368 2077.8 173 2077.8 M 429.4 1730.9 507.4 1730.9 M 507.4 1723.9 429.4 1723.9 429.4 1645.9 507.4 1645.9 507.4 1723.9 M 507.4 1638.9 429.4 1638.9 M 1003.4 1639.1 1035.7 1639.1 M 1035.7 1589.1 1003.4 1589.1 M 1076.8 1530.2 1076.8 1469.2 M 1076.8 1530.2 1242.8 1530.2 1242.8 1106.2 1076.8 1106.2 1076.8 1530.2 1125.8 1530.2 M 1235.8 1530.2 1242.8 1530.2 1242.8 1106.2 1235.8 1106.2 M 1125.8 1106.2 1076.8 1106.2 1076.8 1167.2 M 1076.8 1805.2 1242.8 1805.2 1242.8 2032.2 1076.8 2032.2 1076.8 1805.2 1125.8 1805.2 M 1076.8 1805.2 1076.8 1865.2 M 1076.8 1971.2 1076.8 2032.2 1125.8 2032.2 M 1235.8 2032.2 1242.8 2032.2 1242.8 1805.2 1235.8 1805.2" fill="none" stroke-width="6"/><path d="M 612.9 1156.2 612.9 880.6 581.4 880.6 612.9 912.1 612.9 880.6 337.3 880.6 337.3 1156.2 612.9 1156.2 M 612.9 905.1 605.8 905.1 M 612.9 897.2 598 897.2 M 590.1 889.4 612.9 889.4 M 612.9 881.5 582.3 881.5 M 633.9 618.6 323.3 618.6 323.3 158.4 453.2 158.4 504 158.4 633.9 158.4 633.9 618.6 M 504 158.3 504.1 161.4 503.7 164.5 503 167.6 502 170.5 500.6 173.3 498.8 175.8 496.8 178.2 494.5 180.3 491.9 182 489.2 183.5 486.3 184.6 483.2 185.4 480.2 185.8 477 185.8 474 185.4 470.9 184.6 468 183.5 465.3 182 462.7 180.3 460.4 178.2 458.4 175.8 456.6 173.3 455.2 170.5 454.2 167.6 453.5 164.5 453.1 161.4 453.2 158.3" fill="none" stroke-width="8"/><use xlink:href="#SWNXAbnzwU4bLBG4rvhH_pad-16" x="608.6" y="193.6"/><use xlink:href="#SWNXAbnzwU4bLBG4rvhH_pad-17" x="619.4" y="138"/><use xlink:href="#SWNXAbnzwU4bLBG4rvhH_pad-17" x="597.7" y="138"/><use xlink:href="#SWNXAbnzwU4bLBG4rvhH_pad-17" x="576.1" y="138"/><use xlink:href="#SWNXAbnzwU4bLBG4rvhH_pad-17" x="554.4" y="138"/><use xlink:href="#SWNXAbnzwU4bLBG4rvhH_pad-17" x="532.8" y="138"/><use xlink:href="#SWNXAbnzwU4bLBG4rvhH_pad-17" x="511.1" y="138"/><use xlink:href="#SWNXAbnzwU4bLBG4rvhH_pad-17" x="489.5" y="138"/><use xlink:href="#SWNXAbnzwU4bLBG4rvhH_pad-17" x="467.8" y="138"/><use xlink:href="#SWNXAbnzwU4bLBG4rvhH_pad-17" x="446.1" y="138"/><use xlink:href="#SWNXAbnzwU4bLBG4rvhH_pad-17" x="424.5" y="138"/><use xlink:href="#SWNXAbnzwU4bLBG4rvhH_pad-17" x="402.8" y="138"/><use xlink:href="#SWNXAbnzwU4bLBG4rvhH_pad-17" x="381.2" y="138"/><use xlink:href="#SWNXAbnzwU4bLBG4rvhH_pad-17" x="359.5" y="138"/><use xlink:href="#SWNXAbnzwU4bLBG4rvhH_pad-17" x="337.9" y="138"/><use xlink:href="#SWNXAbnzwU4bLBG4rvhH_pad-17" x="337.9" y="639"/><use xlink:href="#SWNXAbnzwU4bLBG4rvhH_pad-17" x="359.5" y="639"/><use xlink:href="#SWNXAbnzwU4bLBG4rvhH_pad-17" x="381.2" y="639"/><use xlink:href="#SWNXAbnzwU4bLBG4rvhH_pad-17" x="402.8" y="639"/><use xlink:href="#SWNXAbnzwU4bLBG4rvhH_pad-17" x="424.5" y="639"/><use xlink:href="#SWNXAbnzwU4bLBG4rvhH_pad-17" x="446.1" y="639"/><use xlink:href="#SWNXAbnzwU4bLBG4rvhH_pad-17" x="467.8" y="639"/><use xlink:href="#SWNXAbnzwU4bLBG4rvhH_pad-17" x="489.5" y="639"/><use xlink:href="#SWNXAbnzwU4bLBG4rvhH_pad-17" x="511.1" y="639"/><use xlink:href="#SWNXAbnzwU4bLBG4rvhH_pad-17" x="532.8" y="639"/><use xlink:href="#SWNXAbnzwU4bLBG4rvhH_pad-17" x="554.4" y="639"/><use xlink:href="#SWNXAbnzwU4bLBG4rvhH_pad-17" x="576.1" y="639"/><use xlink:href="#SWNXAbnzwU4bLBG4rvhH_pad-17" x="597.7" y="639"/><use xlink:href="#SWNXAbnzwU4bLBG4rvhH_pad-17" x="619.4" y="639"/><path d="M 552.4 1710.9 552.2 1712.2 551.7 1713.4 550.9 1714.4 549.9 1715.2 548.7 1715.7 547.4 1715.9 546.1 1715.7 544.9 1715.2 543.9 1714.4 543.1 1713.4 542.6 1712.2 542.4 1710.9 542.6 1709.6 543.1 1708.4 543.9 1707.4 544.9 1706.6 546.1 1706.1 547.4 1705.9 548.7 1706.1 549.9 1706.6 550.9 1707.4 551.7 1708.4 552.2 1709.6 552.4 1710.9" fill="none" stroke-width="10"/><use xlink:href="#SWNXAbnzwU4bLBG4rvhH_pad-19" x="990.4" y="1614"/><use xlink:href="#SWNXAbnzwU4bLBG4rvhH_pad-19" x="1048.4" y="1614"/><path d="M 533.9 1816.8 413.9 1816.8 M 413.9 1875.9 533.9 1875.9 M 533.2 1942 413.1 1942 M 413.1 2001.1 533.2 2001.1 M 526.1 1565.2 406 1565.2 M 406 1506.2 526.1 1506.2 M 528.4 1424.3 408.4 1424.3 M 408.4 1365.2 528.4 1365.2" fill="none" stroke-width="4"/><use xlink:href="#SWNXAbnzwU4bLBG4rvhH_pad-21" x="521.5" y="1394.8"/><use xlink:href="#SWNXAbnzwU4bLBG4rvhH_pad-21" x="519.2" y="1535.7"/><use xlink:href="#SWNXAbnzwU4bLBG4rvhH_pad-21" x="412.9" y="1535.7"/><use xlink:href="#SWNXAbnzwU4bLBG4rvhH_pad-21" x="415.2" y="1394.8"/><use xlink:href="#SWNXAbnzwU4bLBG4rvhH_pad-21" x="420.8" y="1846.3"/><use xlink:href="#SWNXAbnzwU4bLBG4rvhH_pad-21" x="420" y="1971.5"/><use xlink:href="#SWNXAbnzwU4bLBG4rvhH_pad-21" x="526.3" y="1971.5"/><use xlink:href="#SWNXAbnzwU4bLBG4rvhH_pad-21" x="527.1" y="1846.3"/><use xlink:href="#SWNXAbnzwU4bLBG4rvhH_pad-22" x="1090.8" y="1516.2"/></g></svg>