<svg version="1.1" xmlns="http://www.w3.org/2000/svg" xmlns:xlink="http://www.w3.org/1999/xlink" stroke-linecap="round" stroke-linejoin="round" stroke-width="0" fill-rule="evenodd" width="1.2402in" height="2.1555in" viewBox="18 18 1240.2 2155.5" id="c8cp95Reft-nGNAbsgg6"><defs><circle cx="0" cy="0" r="44.3" id="c8cp95Reft-nGNAbsgg6_pad-11"/><circle cx="0" cy="0" r="24" id="c8cp95Reft-nGNAbsgg6_pad-12"/><circle cx="0" cy="0" r="11.8" id="c8cp95Reft-nGNAbsgg6_pad-13"/><circle cx="0" cy="0" r="8.85" id="c8cp95Reft-nGNAbsgg6_pad-14"/><circle cx="0" cy="0" r="14.75" id="c8cp95Reft-nGNAbsgg6_pad-16"/><circle cx="0" cy="0" r="9.85" id="c8cp95Reft-nGNAbsgg6_pad-18"/></defs><g transform="translate(0,2191.5) scale(1,-1)" fill="currentColor" stroke="currentColor"><path d="M 18 18 18 2173.5 1258.2 2173.5 1258.2 1012.1 943.2 1012.1 943.2 18 18 18" fill="none" stroke-width="0"/><use xlink:href="#c8cp95Reft-nGNAbsgg6_pad-11" x="248.3" y="127.8"/><use xlink:href="#c8cp95Reft-nGNAbsgg6_pad-11" x="248.3" y="227.8"/><use xlink:href="#c8cp95Reft-nGNAbsgg6_pad-11" x="248.3" y="327.8"/><use xlink:href="#c8cp95Reft-nGNAbsgg6_pad-11" x="248.3" y="427.8"/><use xlink:href="#c8cp95Reft-nGNAbsgg6_pad-11" x="248.3" y="527.8"/><use xlink:href="#c8cp95Reft-nGNAbsgg6_pad-11" x="248.3" y="627.8"/><use xlink:href="#c8cp95Reft-nGNAbsgg6_pad-11" x="248.3" y="727.8"/><use xlink:href="#c8cp95Reft-nGNAbsgg6_pad-11" x="248.3" y="827.8"/><use xlink:href="#c8cp95Reft-nGNAbsgg6_pad-11" x="248.3" y="927.8"/><use xlink:href="#c8cp95Reft-nGNAbsgg6_pad-11" x="248.3" y="1027.8"/><use xlink:href="#c8cp95Reft-nGNAbsgg6_pad-11" x="248.3" y="1127.8"/><use xlink:href="#c8cp95Reft-nGNAbsgg6_pad-11" x="248.3" y="1227.8"/><use xlink:href="#c8cp95Reft-nGNAbsgg6_pad-11" x="248.3" y="1327.8"/><use xlink:href="#c8cp95Reft-nGNAbsgg6_pad-11" x="248.3" y="1427.8"/><use xlink:href="#c8cp95Reft-nGNAbsgg6_pad-11" x="248.3" y="1527.8"/><use xlink:href="#c8cp95Reft-nGNAbsgg6_pad-11" x="248.3" y="1627.8"/><use xlink:href="#c8cp95Reft-nGNAbsgg6_pad-11" x="248.3" y="1727.8"/><use xlink:href="#c8cp95Reft-nGNAbsgg6_pad-11" x="248.3" y="1827.8"/><use xlink:href="#c8cp95Reft-nGNAbsgg6_pad-11" x="248.3" y="1927.8"/><use xlink:href="#c8cp95Reft-nGNAbsgg6_pad-11" x="248.3" y="2027.8"/><use xlink:href="#c8cp95Reft-nGNAbsgg6_pad-11" x="848.3" y="2027.8"/><use xlink:href="#c8cp95Reft-nGNAbsgg6_pad-11" x="848.3" y="1927.8"/><use xlink:href="#c8cp95Reft-nGNAbsgg6_pad-11" x="848.3" y="1827.8"/><use xlink:href="#c8cp95Reft-nGNAbsgg6_pad-11" x="848.3" y="1727.8"/><use xlink:href="#c8cp95Reft-nGNAbsgg6_pad-11" x="848.3" y="1627.8"/><use xlink:href="#c8cp95Reft-nGNAbsgg6_pad-11" x="848.3" y="1527.8"/><use xlink:href="#c8cp95Reft-nGNAbsgg6_pad-11" x="848.3" y="1427.8"/><use xlink:href="#c8cp95Reft-nGNAbsgg6_pad-11" x="848.3" y="1327.8"/><use xlink:href="#c8cp95Reft-nGNAbsgg6_pad-11" x="848.3" y="1227.8"/><use xlink:href="#c8cp95Reft-nGNAbsgg6_pad-11" x="848.3" y="1127.8"/><use xlink:href="#c8cp95Reft-nGNAbsgg6_pad-11" x="848.3" y="1027.8"/><use xlink:href="#c8cp95Reft-nGNAbsgg6_pad-11" x="848.3" y="927.8"/><use xlink:href="#c8cp95Reft-nGNAbsgg6_pad-11" x="848.3" y="827.8"/><use xlink:href="#c8cp95Reft-nGNAbsgg6_pad-11" x="848.3" y="727.8"/><use xlink:href="#c8cp95Reft-nGNAbsgg6_pad-11" x="848.3" y="627.8"/><use xlink:href="#c8cp95Reft-nGNAbsgg6_pad-11" x="848.3" y="527.8"/><use xlink:href="#c8cp95Reft-nGNAbsgg6_pad-11" x="848.3" y="427.8"/><use xlink:href="#c8cp95Reft-nGNAbsgg6_pad-11" x="848.3" y="327.8"/><use xlink:href="#c8cp95Reft-nGNAbsgg6_pad-11" x="848.3" y="227.8"/><use xlink:href="#c8cp95Reft-nGNAbsgg6_pad-11" x="848.3" y="127.8"/><use xlink:href="#c8cp95Reft-nGNAbsgg6_pad-12" x="718" y="127.8"/><use xlink:href="#c8cp95Reft-nGNAbsgg6_pad-12" x="718" y="227.8"/><use xlink:href="#c8cp95Reft-nGNAbsgg6_pad-12" x="718" y="327.8"/><use xlink:href="#c8cp95Reft-nGNAbsgg6_pad-12" x="718" y="427.8"/><use xlink:href="#c8cp95Reft-nGNAbsgg6_pad-12" x="718" y="527.8"/><use xlink:href="#c8cp95Reft-nGNAbsgg6_pad-12" x="718" y="627.8"/><use xlink:href="#c8cp95Reft-nGNAbsgg6_pad-12" x="718" y="727.8"/><use xlink:href="#c8cp95Reft-nGNAbsgg6_pad-12" x="718" y="827.8"/><use xlink:href="#c8cp95Reft-nGNAbsgg6_pad-12" x="718" y="927.8"/><use xlink:href="#c8cp95Reft-nGNAbsgg6_pad-12" x="718" y="1027.8"/><use xlink:href="#c8cp95Reft-nGNAbsgg6_pad-12" x="718" y="1127.8"/><use xlink:href="#c8cp95Reft-nGNAbsgg6_pad-12" x="718" y="1227.8"/><use xlink:href="#c8cp95Reft-nGNAbsgg6_pad-12" x="718" y="1327.8"/><use xlink:href="#c8cp95Reft-nGNAbsgg6_pad-12" x="718" y="1427.8"/><use xlink:href="#c8cp95Reft-nGNAbsgg6_pad-12" x="718" y="1527.8"/><use xlink:href="#c8cp95Reft-nGNAbsgg6_pad-12" x="718" y="1627.8"/><use xlink:href="#c8cp95Reft-nGNAbsgg6_pad-12" x="718" y="1727.8"/><use xlink:href="#c8cp95Reft-nGNAbsgg6_pad-12" x="718" y="1827.8"/><use xlink:href="#c8cp95Reft-nGNAbsgg6_pad-12" x="718" y="1927.8"/><use xlink:href="#c8cp95Reft-nGNAbsgg6_pad-12" x="718" y="2027.8"/><use xlink:href="#c8cp95Reft-nGNAbsgg6_pad-12" x="118" y="2027.8"/><use xlink:href="#c8cp95Reft-nGNAbsgg6_pad-12" x="118" y="1927.8"/><use xlink:href="#c8cp95Reft-nGNAbsgg6_pad-12" x="118" y="1827.8"/><use xlink:href="#c8cp95Reft-nGNAbsgg6_pad-12" x="118" y="1727.8"/><use xlink:href="#c8cp95Reft-nGNAbsgg6_pad-12" x="118" y="1627.8"/><use xlink:href="#c8cp95Reft-nGNAbsgg6_pad-12" x="118" y="1527.8"/><use xlink:href="#c8cp95Reft-nGNAbsgg6_pad-12" x="118" y="1427.8"/><use xlink:href="#c8cp95Reft-nGNAbsgg6_pad-12" x="118" y="1327.8"/><use xlink:href="#c8cp95Reft-nGNAbsgg6_pad-12" x="118" y="1227.8"/><use xlink:href="#c8cp95Reft-nGNAbsgg6_pad-12" x="118" y="1127.8"/><use xlink:href="#c8cp95Reft-nGNAbsgg6_pad-12" x="118" y="1027.8"/><use xlink:href="#c8cp95Reft-nGNAbsgg6_pad-12" x="118" y="927.8"/><use xlink:href="#c8cp95Reft-nGNAbsgg6_pad-12" x="118" y="827.8"/><use xlink:href="#c8cp95Reft-nGNAbsgg6_pad-12" x="118" y="727.8"/><use xlink:href="#c8cp95Reft-nGNAbsgg6_pad-12" x="118" y="627.8"/><use xlink:href="#c8cp95Reft-nGNAbsgg6_pad-12" x="118" y="527.8"/><use xlink:href="#c8cp95Reft-nGNAbsgg6_pad-12" x="118" y="427.8"/><use xlink:href="#c8cp95Reft-nGNAbsgg6_pad-12" x="118" y="327.8"/><use xlink:href="#c8cp95Reft-nGNAbsgg6_pad-12" x="118" y="227.8"/><use xlink:href="#c8cp95Reft-nGNAbsgg6_pad-12" x="118" y="127.8"/><use xlink:href="#c8cp95Reft-nGNAbsgg6_pad-13" x="319.2" y="183.4"/><use xlink:href="#c8cp95Reft-nGNAbsgg6_pad-13" x="500.3" y="208.9"/><use xlink:href="#c8cp95Reft-nGNAbsgg6_pad-13" x="545.6" y="224.7"/><use xlink:href="#c8cp95Reft-nGNAbsgg6_pad-13" x="518" y="279.8"/><use xlink:href="#c8cp95Reft-nGNAbsgg6_pad-13" x="535.7" y="331"/><use xlink:href="#c8cp95Reft-nGNAbsgg6_pad-13" x="575.1" y="437.3"/><use xlink:href="#c8cp95Reft-nGNAbsgg6_pad-13" x="651.9" y="175.5"/><use xlink:href="#c8cp95Reft-nGNAbsgg6_pad-13" x="624.3" y="817.2"/><use xlink:href="#c8cp95Reft-nGNAbsgg6_pad-13" x="474.7" y="1051.5"/><use xlink:href="#c8cp95Reft-nGNAbsgg6_pad-13" x="372.3" y="831"/><use xlink:href="#c8cp95Reft-nGNAbsgg6_pad-13" x="323.1" y="1185.3"/><use xlink:href="#c8cp95Reft-nGNAbsgg6_pad-13" x="466.8" y="1608.6"/><use xlink:href="#c8cp95Reft-nGNAbsgg6_pad-13" x="539.7" y="1754.2"/><use xlink:href="#c8cp95Reft-nGNAbsgg6_pad-13" x="598.7" y="2057.4"/><use xlink:href="#c8cp95Reft-nGNAbsgg6_pad-13" x="352.6" y="2057.4"/><use xlink:href="#c8cp95Reft-nGNAbsgg6_pad-13" x="978.6" y="2077.1"/><use xlink:href="#c8cp95Reft-nGNAbsgg6_pad-13" x="1020" y="1675.5"/><use xlink:href="#c8cp95Reft-nGNAbsgg6_pad-14" x="1169.6" y="1342.8"/><use xlink:href="#c8cp95Reft-nGNAbsgg6_pad-14" x="1169.6" y="1293.6"/><use xlink:href="#c8cp95Reft-nGNAbsgg6_pad-14" x="1169.6" y="1244.4"/><use xlink:href="#c8cp95Reft-nGNAbsgg6_pad-14" x="1169.6" y="1195.2"/><use xlink:href="#c8cp95Reft-nGNAbsgg6_pad-14" x="758.2" y="1081"/><use xlink:href="#c8cp95Reft-nGNAbsgg6_pad-14" x="636.1" y="915.6"/><use xlink:href="#c8cp95Reft-nGNAbsgg6_pad-14" x="588.9" y="829"/><use xlink:href="#c8cp95Reft-nGNAbsgg6_pad-14" x="522.4" y="939.3"/><use xlink:href="#c8cp95Reft-nGNAbsgg6_pad-14" x="521.9" y="970.8"/><use xlink:href="#c8cp95Reft-nGNAbsgg6_pad-14" x="521.9" y="1002.3"/><use xlink:href="#c8cp95Reft-nGNAbsgg6_pad-14" x="553.4" y="1002.7"/><use xlink:href="#c8cp95Reft-nGNAbsgg6_pad-14" x="521.9" y="1065.2"/><use xlink:href="#c8cp95Reft-nGNAbsgg6_pad-14" x="522.4" y="1096.7"/><use xlink:href="#c8cp95Reft-nGNAbsgg6_pad-14" x="557.4" y="1136.1"/><use xlink:href="#c8cp95Reft-nGNAbsgg6_pad-14" x="596.7" y="1153.8"/><use xlink:href="#c8cp95Reft-nGNAbsgg6_pad-14" x="600.7" y="1118.4"/><use xlink:href="#c8cp95Reft-nGNAbsgg6_pad-14" x="604.6" y="1029.8"/><use xlink:href="#c8cp95Reft-nGNAbsgg6_pad-14" x="504.2" y="1218.8"/><use xlink:href="#c8cp95Reft-nGNAbsgg6_pad-14" x="470.8" y="1208.9"/><use xlink:href="#c8cp95Reft-nGNAbsgg6_pad-14" x="427.9" y="1097.2"/><use xlink:href="#c8cp95Reft-nGNAbsgg6_pad-14" x="396" y="1096.7"/><use xlink:href="#c8cp95Reft-nGNAbsgg6_pad-14" x="396.4" y="1065.2"/><use xlink:href="#c8cp95Reft-nGNAbsgg6_pad-14" x="427.4" y="1065.2"/><use xlink:href="#c8cp95Reft-nGNAbsgg6_pad-14" x="427.4" y="1002.7"/><use xlink:href="#c8cp95Reft-nGNAbsgg6_pad-14" x="429.4" y="972.7"/><use xlink:href="#c8cp95Reft-nGNAbsgg6_pad-14" x="428.4" y="940.7"/><use xlink:href="#c8cp95Reft-nGNAbsgg6_pad-14" x="459.4" y="939.8"/><use xlink:href="#c8cp95Reft-nGNAbsgg6_pad-14" x="458.9" y="1002.7"/><use xlink:href="#c8cp95Reft-nGNAbsgg6_pad-14" x="396.9" y="1002.3"/><use xlink:href="#c8cp95Reft-nGNAbsgg6_pad-14" x="396.9" y="971.2"/><use xlink:href="#c8cp95Reft-nGNAbsgg6_pad-14" x="396" y="939.3"/><use xlink:href="#c8cp95Reft-nGNAbsgg6_pad-14" x="447.1" y="834.9"/><use xlink:href="#c8cp95Reft-nGNAbsgg6_pad-14" x="447.1" y="799.5"/><use xlink:href="#c8cp95Reft-nGNAbsgg6_pad-14" x="382.2" y="777.8"/><use xlink:href="#c8cp95Reft-nGNAbsgg6_pad-14" x="381.2" y="696.6"/><use xlink:href="#c8cp95Reft-nGNAbsgg6_pad-14" x="424.5" y="700.6"/><use xlink:href="#c8cp95Reft-nGNAbsgg6_pad-14" x="394" y="598.7"/><use xlink:href="#c8cp95Reft-nGNAbsgg6_pad-14" x="423.5" y="586.9"/><use xlink:href="#c8cp95Reft-nGNAbsgg6_pad-14" x="470.8" y="539.7"/><use xlink:href="#c8cp95Reft-nGNAbsgg6_pad-14" x="457" y="498.3"/><use xlink:href="#c8cp95Reft-nGNAbsgg6_pad-14" x="502.3" y="431.4"/><use xlink:href="#c8cp95Reft-nGNAbsgg6_pad-14" x="542.6" y="571.6"/><use xlink:href="#c8cp95Reft-nGNAbsgg6_pad-14" x="581" y="579"/><use xlink:href="#c8cp95Reft-nGNAbsgg6_pad-14" x="616.4" y="588.9"/><use xlink:href="#c8cp95Reft-nGNAbsgg6_pad-14" x="598.7" y="695.2"/><use xlink:href="#c8cp95Reft-nGNAbsgg6_pad-14" x="297.5" y="1077.1"/><use xlink:href="#c8cp95Reft-nGNAbsgg6_pad-14" x="380.2" y="1271.4"/><use xlink:href="#c8cp95Reft-nGNAbsgg6_pad-14" x="549.5" y="1228.6"/><use xlink:href="#c8cp95Reft-nGNAbsgg6_pad-14" x="716.8" y="1380.2"/><use xlink:href="#c8cp95Reft-nGNAbsgg6_pad-14" x="1063.3" y="2130.2"/><use xlink:href="#c8cp95Reft-nGNAbsgg6_pad-14" x="75.1" y="1179.4"/><use xlink:href="#c8cp95Reft-nGNAbsgg6_pad-14" x="75.1" y="1079"/><use xlink:href="#c8cp95Reft-nGNAbsgg6_pad-14" x="75.1" y="978.6"/><use xlink:href="#c8cp95Reft-nGNAbsgg6_pad-14" x="75.1" y="890"/><use xlink:href="#c8cp95Reft-nGNAbsgg6_pad-14" x="75.1" y="777.8"/><use xlink:href="#c8cp95Reft-nGNAbsgg6_pad-14" x="77.1" y="677.4"/><use xlink:href="#c8cp95Reft-nGNAbsgg6_pad-14" x="77.1" y="579"/><use xlink:href="#c8cp95Reft-nGNAbsgg6_pad-14" x="77.1" y="476.7"/><use xlink:href="#c8cp95Reft-nGNAbsgg6_pad-14" x="77.1" y="376.3"/><use xlink:href="#c8cp95Reft-nGNAbsgg6_pad-14" x="75.1" y="277.8"/><use xlink:href="#c8cp95Reft-nGNAbsgg6_pad-14" x="77.1" y="179.4"/><use xlink:href="#c8cp95Reft-nGNAbsgg6_pad-14" x="163.7" y="81"/><path d="M 185.4 81.4 213.8 81.4 M 215.9 79.3 236.9 70.6 259.7 70.6 280.7 79.3 296.8 95.4 305.5 116.5 305.5 139.2 296.8 160.3 280.7 176.3 277.1 177.8 280.7 179.3 296.8 195.4 305.5 216.5 305.5 239.2 296.8 260.3 280.7 276.3 277.1 277.8 280.7 279.3 296.8 295.4 305.5 316.5 305.5 339.2 296.8 360.3 280.7 376.3 277.1 377.8 280.7 379.3 296.8 395.4 305.5 416.5 305.5 439.2 296.8 460.3 280.7 476.3 277.1 477.8 280.7 479.3 296.8 495.4 305.5 516.5 305.5 539.2 296.8 560.3 280.7 576.3 277.1 577.8 280.7 579.3 296.8 595.4 305.5 616.5 305.5 639.2 296.8 660.3 280.7 676.3 277.1 677.8 280.7 679.3 296.8 695.4 305.5 716.5 305.5 718.6 312.2 712.8 317.2 707.7 318 707.7 318.5 707.3 325.7 707.7 337.7 707.7 337.7 671.6 348.7 660.5 358.6 650.7 375.1 650.7 375.1 610.6 372.2 607.7 372.2 589.7 385 576.9 402.7 576.9 404.3 575.3 401 574.3 396 574.3 393.8 572.2 390.9 571.3 388.5 566.8 384.9 563.2 384.9 560.2 383.5 557.5 384.9 552.6 384.9 85.8 384.2 84.9 384.9 78.1 384.9 71.2 385.7 70.4 385.8 69.3 391.1 65 396 60.1 397.1 60.1 412.8 47.3 417.6 42.4 418.7 42.4 419.6 41.7 426.4 42.4 873.6 42.4 874.5 41.6 881.3 42.4 888 42.4 888.9 43.2 890.1 43.4 894.3 48.7 899.1 53.5 899.1 54.7 923.4 85 923.4 37.8 37.8 37.8 37.8 2153.7 1238.3 2153.7 1238.3 1031.9 935 1031.9 930.6 1027.5 930.6 1029.8 924.7 1035.7 913.6 1046.8 902.4 1046.8 896.8 1060.3 880.7 1076.3 877.1 1077.8 880.7 1079.3 896.8 1095.4 905.5 1116.5 905.5 1139.2 896.8 1160.3 880.7 1176.3 877.1 1177.8 880.7 1179.3 896.8 1195.4 905.5 1216.5 905.5 1239.2 896.8 1260.3 880.7 1276.3 877.1 1277.8 880.7 1279.3 896.8 1295.4 905.5 1316.5 905.5 1339.2 896.8 1360.3 880.7 1376.3 877.1 1377.8 880.7 1379.3 896.8 1395.4 905.5 1416.5 905.5 1439.2 896.8 1460.3 880.7 1476.3 877.1 1477.8 880.7 1479.3 896.8 1495.4 905.5 1516.5 905.5 1539.2 896.8 1560.3 880.7 1576.3 877.1 1577.8 880.7 1579.3 896.8 1595.4 905.5 1616.5 905.5 1639.2 896.8 1660.3 880.7 1676.3 877.1 1677.8 880.7 1679.3 896.8 1695.4 905.5 1716.5 905.5 1739.2 896.8 1760.3 880.7 1776.3 877.1 1777.8 880.7 1779.3 896.8 1795.4 905.5 1816.5 905.5 1839.2 896.8 1860.3 880.7 1876.3 877.1 1877.8 880.7 1879.3 896.8 1895.4 905.5 1916.5 905.5 1939.2 896.8 1960.3 880.7 1976.3 877.1 1977.8 880.7 1979.3 896.8 1995.4 905.5 2016.5 905.5 2039.2 896.8 2060.3 880.7 2076.3 859.7 2085.1 836.9 2085.1 815.9 2076.3 799.8 2060.3 792.8 2043.4 792.8 2111.3 1051.4 2111.3 1054.3 2108.4 1072.3 2108.4 1085.1 2121.2 1085.1 2139.2 1072.3 2152 1054.3 2152 1051.4 2149.1 784.8 2149.1 778 2149.9 777.1 2149.1 775.9 2149.1 771.1 2144.3 767.3 2141.3 766.1 2141.3 761.3 2136.5 756 2132.2 755.8 2131 755 2130.2 755 2123.4 754.2 2116.6 755 2115.7 755 1999.9 754 1993.7 755 1992.3 755 1990.5 759.4 1986 761 1983.9 761 1975.1 774.3 1961.8 793.2 1961.8 806.5 1975.1 806.5 1988.7 815.9 1979.3 819.5 1977.8 815.9 1976.3 799.8 1960.3 791.1 1939.2 791.1 1916.5 799.8 1895.4 815.9 1879.3 819.5 1877.8 815.9 1876.3 799.8 1860.3 791.1 1839.2 791.1 1816.5 799.8 1795.4 815.9 1779.3 819.5 1777.8 815.9 1776.3 799.8 1760.3 791.1 1739.2 791.1 1716.5 799.8 1695.4 815.9 1679.3 819.5 1677.8 815.9 1676.3 799.8 1660.3 791.1 1639.2 791.1 1616.5 799.8 1595.4 815.9 1579.3 819.5 1577.8 815.9 1576.3 799.8 1560.3 791.1 1539.2 791.1 1516.5 798.8 1497.8 793.2 1497.6 739.9 1497.6 749.3 1506.9 754.9 1520.5 754.9 1535.2 749.3 1548.8 738.9 1559.1 725.3 1564.8 710.7 1564.8 697.1 1559.1 686.7 1548.8 681.1 1535.2 681.1 1520.5 686.7 1506.9 696.1 1497.6 495.1 1497.6 494.2 1498.3 487.4 1497.6 480.6 1497.6 479.8 1496.7 478.6 1496.6 474.4 1491.3 469.6 1486.5 469.6 1485.3 458.6 1471.6 453.8 1466.8 453.8 1465.6 453.1 1464.6 453.8 1457.9 453.8 1222.8 449 1218 449 1199.9 461.7 1187.2 479.8 1187.2 492.4 1199.8 495.2 1197 513.2 1197 526 1209.8 526 1227.8 513.2 1240.6 495.2 1240.6 491.6 1237 491.6 1452.3 497.6 1459.7 698.5 1459.7 697.1 1459.1 686.7 1448.8 681.1 1435.2 681.1 1420.5 686.7 1406.9 697.1 1396.5 700.8 1395 695 1389.2 695 1371.2 704.2 1362.1 697.1 1359.1 686.7 1348.8 681.1 1335.2 681.1 1320.5 686.7 1306.9 696.9 1296.8 683.3 1296.8 677.4 1297.9 675.7 1296.8 673.5 1296.8 669.3 1292.5 657.9 1285 655.8 1285 651.6 1280.7 646.7 1277.4 646.2 1275.4 644.7 1273.9 644.7 1267.9 643.6 1262.1 644.7 1260.3 644.7 1210 643.2 1208.2 559.8 1208.2 571.3 1219.6 571.3 1237.7 558.5 1250.4 540.5 1250.4 527.7 1237.7 527.7 1219.6 540.5 1206.9 558 1206.9 548.3 1197.1 499.4 1148.2 499.4 1153.4 486.1 1166.7 467.2 1166.7 463.4 1163 462.4 1162.9 455 1162.9 454.7 1162.5 454.2 1162.5 449.2 1157 444 1151.8 444 1151.3 434.8 1141.3 338.9 1141.3 325.1 1127.5 314 1116.4 314 1093.2 311.3 1096 309.4 1096 306.5 1098.8 298.2 1098.8 305.5 1116.5 305.5 1139.2 296.8 1160.3 280.7 1176.3 277.1 1177.8 280.7 1179.3 296.8 1195.4 305.5 1216.5 305.5 1239.2 296.8 1260.3 281.9 1275.2 288.9 1280.3 295.8 1287.3 301.6 1295.2 306 1303.9 309.1 1313.3 310.3 1321.1 255.1 1321.1 255.1 1334.6 310.3 1334.6 309.1 1342.4 306 1351.8 301.6 1360.5 295.8 1368.4 288.9 1375.4 281.9 1380.5 296.8 1395.4 305.5 1416.5 305.5 1439.2 296.8 1460.3 280.7 1476.3 277.1 1477.8 280.7 1479.3 296.8 1495.4 305.5 1516.5 305.5 1539.2 296.8 1560.3 280.7 1576.3 277.1 1577.8 280.7 1579.3 296.8 1595.4 305.5 1616.5 305.5 1639.2 296.8 1660.3 280.7 1676.3 277.1 1677.8 280.7 1679.3 296.8 1695.4 305.5 1716.5 305.5 1739.2 296.8 1760.3 280.7 1776.3 277.1 1777.8 280.7 1779.3 296.8 1795.4 305.5 1816.5 305.5 1839.2 296.8 1860.3 280.7 1876.3 277.1 1877.8 280.7 1879.3 296.8 1895.4 305.5 1916.5 305.5 1939.2 296.8 1960.3 280.7 1976.3 277.1 1977.8 280.7 1979.3 296.8 1995.4 305.5 2016.5 305.5 2039.2 296.8 2060.3 280.7 2076.3 259.7 2085.1 236.9 2085.1 215.9 2076.3 199.8 2060.3 191.1 2039.2 191.1 2016.5 199.8 1995.4 215.9 1979.3 219.5 1977.8 215.9 1976.3 199.8 1960.3 191.1 1939.2 191.1 1916.5 199.8 1895.4 215.9 1879.3 219.5 1877.8 215.9 1876.3 199.8 1860.3 191.1 1839.2 191.1 1816.5 199.8 1795.4 215.9 1779.3 219.5 1777.8 215.9 1776.3 199.8 1760.3 191.1 1739.2 191.1 1716.5 199.8 1695.4 215.9 1679.3 219.5 1677.8 215.9 1676.3 199.8 1660.3 191.1 1639.2 191.1 1616.5 199.8 1595.4 215.9 1579.3 219.5 1577.8 215.9 1576.3 199.8 1560.3 191.1 1539.2 191.1 1516.5 199.8 1495.4 215.9 1479.3 219.5 1477.8 215.9 1476.3 199.8 1460.3 191.1 1439.2 191.1 1416.5 199.8 1395.4 214.8 1380.5 207.7 1375.4 200.8 1368.4 195 1360.5 190.6 1351.8 187.6 1342.4 186.3 1334.6 241.6 1334.6 241.6 1321.1 186.3 1321.1 187.6 1313.3 190.6 1303.9 195 1295.2 200.8 1287.3 207.7 1280.3 214.8 1275.2 199.8 1260.3 191.1 1239.2 191.1 1216.5 199.8 1195.4 215.9 1179.3 219.5 1177.8 215.9 1176.3 199.8 1160.3 191.1 1139.2 191.1 1116.5 199.8 1095.4 215.9 1079.3 219.5 1077.8 215.9 1076.3 199.8 1060.3 191.1 1039.2 191.1 1016.5 199.8 995.4 215.9 979.3 219.5 977.8 215.9 976.3 199.8 960.3 191.1 939.2 191.1 916.5 199.8 895.4 215.9 879.3 219.5 877.8 215.9 876.3 199.8 860.3 191.1 839.2 191.1 816.5 199.8 795.4 215.9 779.3 219.5 777.8 215.9 776.3 199.8 760.3 191.1 739.2 191.1 716.5 199.8 695.4 215.9 679.3 219.5 677.8 215.9 676.3 199.8 660.3 191.1 639.2 191.1 616.5 199.8 595.4 215.9 579.3 219.5 577.8 215.9 576.3 199.8 560.3 191.1 539.2 191.1 516.5 199.8 495.4 215.9 479.3 219.5 477.8 215.9 476.3 199.8 460.3 191.1 439.2 191.1 416.5 199.8 395.4 215.9 379.3 219.5 377.8 215.9 376.3 199.8 360.3 191.1 339.2 191.1 316.5 199.8 295.4 215.9 279.3 219.5 277.8 215.9 276.3 199.8 260.3 191.1 239.2 191.1 216.5 199.8 195.4 215.9 179.3 219.5 177.8 215.9 176.3 199.8 160.3 191.1 139.2 191.1 116.5 199.8 95.4 215.9 79.3 M 199.1 97.3 178.2 97.3 M 172.7 102.8 185.4 90 185.4 72 172.7 59.2 154.6 59.2 141.9 72 141.9 90 154.6 102.8 172.7 102.8 M 192.5 113.1 151.9 113.1 M 149.3 106.9 154.9 120.5 154.9 135.2 149.3 148.8 138.9 159.1 125.3 164.8 110.7 164.8 97.1 159.1 86.7 148.8 81.1 135.2 81.1 120.5 86.7 106.9 97.1 96.5 110.7 90.9 125.3 90.9 138.9 96.5 149.3 106.9 M 149.1 97.3 139.6 97.3 M 141.9 81.4 37.8 81.4 M 37.8 65.6 148.3 65.6 M 179 65.6 390.4 65.6 M 384.6 81.4 282.8 81.4 M 297.6 97.3 384.9 97.3 M 384.9 113.1 304.1 113.1 M 305.5 129 384.9 129 M 384.9 144.8 303.2 144.8 M 296.4 160.7 384.9 160.7 M 384.9 176.5 280.3 176.5 M 293.7 192.4 384.9 192.4 M 384.9 208.2 302.1 208.2 M 305.5 224.1 384.9 224.1 M 384.9 239.9 305.2 239.9 M 298.7 255.8 384.9 255.8 M 384.9 271.6 285.5 271.6 M 288.8 287.5 384.9 287.5 M 384.9 303.3 300.1 303.3 M 305.5 319.2 384.9 319.2 M 384.9 335 305.5 335 M 300.7 350.9 384.9 350.9 M 384.9 366.7 290.4 366.7 M 283.9 382.6 384.9 382.6 M 384.9 398.4 298 398.4 M 304.6 414.3 384.9 414.3 M 384.9 430.1 305.5 430.1 M 302.7 446 384.9 446 M 384.9 461.8 295.3 461.8 M 277.6 477.7 384.9 477.7 M 384.9 493.5 294.9 493.5 M 302.6 509.4 384.9 509.4 M 384.9 525.2 305.5 525.2 M 304.8 541.1 384.9 541.1 M 383.6 556.9 298.2 556.9 M 284.3 572.8 394.4 572.8 M 414.8 608.7 412.9 610.6 412.9 656 414.1 657.7 412.9 663.6 412.9 669.5 411.4 671 411 673.1 406 676.4 401.8 680.6 399.7 680.6 397.5 682.1 403 687.6 403 691.3 415.5 678.8 433.5 678.8 446.3 691.6 446.3 709.6 433.5 722.4 424.8 722.4 425.6 723.1 425.6 737.3 436.3 737.3 440.2 733.4 451.8 733.4 451.8 551.5 449 548.7 449 530.6 459.5 520.1 448 520.1 435.2 507.3 435.2 489.3 438.1 486.4 438.1 388.1 449.1 377 460.9 365.2 551.5 365.2 552.2 364.5 552.2 349.5 549.7 352 540.6 355.7 530.8 355.7 521.7 352 514.7 345 511 335.9 511 326.1 514.7 317 521.7 310 530.8 306.3 540.6 306.3 549.7 310 552.2 312.5 552.2 248.7 550.5 249.4 540.6 249.4 531.5 245.7 524.6 238.7 520.8 229.6 520.8 219.8 524.6 210.7 531.5 203.7 540.6 200 550.5 200 552.2 200.7 552.2 197.2 563.3 186.1 569.2 180.2 611.3 180.2 611.3 175.5 622.4 164.4 630.2 156.6 635.8 156.6 637.8 154.5 646.9 150.7 656.8 150.7 665.9 154.5 672.8 161.5 676.6 170.6 676.6 180.4 672.8 189.5 665.9 196.4 656.8 200.2 649.1 200.2 649.1 201 643.2 206.9 632.1 218 590.1 218 590.1 380.2 578.3 392 567.2 403.1 476.6 403.1 475.9 403.8 475.9 486.4 477.4 488 477.4 429.5 480.5 426.4 480.5 422.4 493.2 409.6 511.3 409.6 524 422.4 524 440.4 515.3 449.2 515.3 537.3 520.2 532.3 525.5 526.8 525.7 526.8 525.9 526.6 533.5 526.6 541.2 526.5 541.4 526.6 656.6 526.6 656.6 484.6 670.3 470.8 681.4 459.7 698.5 459.7 697.1 459.1 686.7 448.8 681.1 435.2 681.1 420.5 686.7 406.9 697.1 396.5 710.7 390.9 725.3 390.9 738.9 396.5 749.3 406.9 754.9 420.5 754.9 435.2 749.3 448.8 738.9 459.1 737.5 459.7 763.2 459.7 764.8 457.9 764.8 434.3 764.1 427.4 764.8 426.6 764.8 425.5 769.3 421.1 769.3 420.1 774.1 415.2 778.5 409.9 779.6 409.8 780.3 409 787.2 409 794.1 408.3 794.4 408.6 799.8 395.4 815.9 379.3 819.5 377.8 815.9 376.3 799.8 360.3 791.1 339.2 791.1 316.5 799.8 295.4 815.9 279.3 819.5 277.8 815.9 276.3 799.8 260.3 791.1 239.2 791.1 216.5 799.8 195.4 815.9 179.3 819.5 177.8 815.9 176.3 799.8 160.3 791.1 139.2 791.1 116.5 799.8 95.4 815 80.2 432.2 80.2 422.7 88 422.7 541.3 426.3 542.4 431.3 542.4 433.5 544.6 436.5 545.4 438.9 549.9 442.4 553.5 442.4 556.5 443.9 559.2 442.4 564.1 442.4 575 445.3 577.9 445.3 595.9 432.5 608.7 414.8 608.7 M 412.9 620.3 451.8 620.3 M 451.8 604.5 436.8 604.5 M 445.3 588.6 451.8 588.6 M 451.8 572.8 442.4 572.8 M 442.6 556.9 451.8 556.9 M 449 541.1 422.7 541.1 M 422.7 525.2 454.4 525.2 M 437.2 509.4 422.7 509.4 M 422.7 493.5 435.2 493.5 M 438.1 477.7 422.7 477.7 M 422.7 461.8 438.1 461.8 M 438.1 446 422.7 446 M 422.7 430.1 438.1 430.1 M 438.1 414.3 422.7 414.3 M 422.7 398.4 438.1 398.4 M 443.6 382.6 422.7 382.6 M 422.7 366.7 459.5 366.7 M 475.9 414.3 488.6 414.3 M 477.4 430.1 475.9 430.1 M 475.9 446 477.4 446 M 475.9 461.8 477.4 461.8 M 475.9 477.7 477.4 477.7 M 515.3 477.7 663.5 477.7 M 656.6 493.5 515.3 493.5 M 515.3 509.4 656.6 509.4 M 656.6 525.2 515.3 525.2 M 515.3 461.8 569.6 461.8 M 570.2 462 561.1 458.3 554.1 451.3 550.4 442.2 550.4 432.4 554.1 423.3 561.1 416.3 570.2 412.6 580 412.6 589.1 416.3 596.1 423.3 599.8 432.4 599.8 442.2 596.1 451.3 589.1 458.3 580 462 570.2 462 M 580.5 461.8 679.3 461.8 M 685.5 446 598.3 446 M 598.9 430.1 681.1 430.1 M 683.7 414.3 584.1 414.3 M 571.8 398.4 695.2 398.4 M 710.7 364.8 697.1 359.1 686.7 348.8 681.1 335.2 681.1 320.5 686.7 306.9 697.1 296.5 710.7 290.9 725.3 290.9 738.9 296.5 749.3 306.9 754.9 320.5 754.9 335.2 749.3 348.8 738.9 359.1 725.3 364.8 710.7 364.8 M 688.8 350.9 590.1 350.9 M 590.1 366.7 806.3 366.7 M 812.7 382.6 587.7 382.6 M 566.1 414.3 515.9 414.3 M 524 430.1 551.3 430.1 M 551.9 446 518.5 446 M 520.6 350.9 422.7 350.9 M 422.7 335 511 335 M 513.9 319.2 422.7 319.2 M 422.7 303.3 510.1 303.3 M 513.1 304.5 504 300.8 497 293.8 493.3 284.7 493.3 274.9 497 265.8 504 258.8 513.1 255.1 522.9 255.1 532 258.8 539 265.8 542.7 274.9 542.7 284.7 539 293.8 532 300.8 522.9 304.5 513.1 304.5 M 525.9 303.3 552.2 303.3 M 552.2 287.5 541.6 287.5 M 541.4 271.6 552.2 271.6 M 552.2 255.8 524.5 255.8 M 511.5 255.8 422.7 255.8 M 422.7 271.6 494.6 271.6 M 494.4 287.5 422.7 287.5 M 422.7 239.9 525.8 239.9 M 520.8 224.1 422.7 224.1 M 422.7 208.2 527.1 208.2 M 557 192.4 422.7 192.4 M 422.7 176.5 611.3 176.5 M 626.2 160.7 422.7 160.7 M 422.7 144.8 685.1 144.8 M 686.7 148.8 681.1 135.2 681.1 120.5 686.7 106.9 697.1 96.5 710.7 90.9 725.3 90.9 738.9 96.5 749.3 106.9 754.9 120.5 754.9 135.2 749.3 148.8 738.9 159.1 725.3 164.8 710.7 164.8 697.1 159.1 686.7 148.8 M 700.7 160.7 672 160.7 M 676.6 176.5 816.3 176.5 M 802.9 192.4 728.8 192.4 M 725.3 190.9 738.9 196.5 749.3 206.9 754.9 220.5 754.9 235.2 749.3 248.8 738.9 259.1 725.3 264.8 710.7 264.8 697.1 259.1 686.7 248.8 681.1 235.2 681.1 220.5 686.7 206.9 697.1 196.5 710.7 190.9 725.3 190.9 M 707.2 192.4 670 192.4 M 686.2 208.2 642 208.2 M 681.1 224.1 590.1 224.1 M 590.1 239.9 683 239.9 M 693.7 255.8 590.1 255.8 M 590.1 271.6 811.2 271.6 M 807.8 287.5 590.1 287.5 M 590.1 303.3 690.3 303.3 M 681.6 319.2 590.1 319.2 M 590.1 335 681.1 335 M 740.8 398.4 798.6 398.4 M 774.9 414.3 752.3 414.3 M 754.9 430.1 764.4 430.1 M 764.8 446 750.5 446 M 747.2 350.9 795.9 350.9 M 791.1 335 754.9 335 M 754.4 319.2 791.1 319.2 M 796.6 303.3 745.7 303.3 M 742.3 255.8 797.9 255.8 M 791.4 239.9 753 239.9 M 754.9 224.1 791.1 224.1 M 794.5 208.2 749.8 208.2 M 735.3 160.7 800.2 160.7 M 793.4 144.8 750.9 144.8 M 754.9 129 791.1 129 M 792.5 113.1 751.9 113.1 M 739.6 97.3 799.1 97.3 M 813.8 81.4 430.8 81.4 M 422.7 97.3 696.4 97.3 M 684.1 113.1 422.7 113.1 M 422.7 129 681.1 129 M 552.2 350.9 550.8 350.9 M 373.3 588.6 290 588.6 M 300.6 604.5 372.2 604.5 M 375.1 620.3 305.5 620.3 M 305.5 636.2 375.1 636.2 M 357.2 652 300.2 652 M 289.2 667.9 341.4 667.9 M 337.7 683.7 285.1 683.7 M 298.5 699.6 337.7 699.6 M 309.2 715.4 305.1 715.4 M 217.2 778.8 96.9 778.8 M 96.9 786.9 84.1 799.6 66.1 799.6 53.3 786.9 53.3 768.8 66.1 756.1 84.1 756.1 96.9 768.8 96.9 786.9 M 101.7 794.7 89.1 794.7 M 97.1 796.5 86.7 806.9 81.1 820.5 81.1 835.2 86.7 848.8 97.1 859.1 110.7 864.8 125.3 864.8 138.9 859.1 149.3 848.8 154.9 835.2 154.9 820.5 149.3 806.9 138.9 796.5 125.3 790.9 110.7 790.9 97.1 796.5 M 85.2 810.5 37.8 810.5 M 37.8 794.7 61.1 794.7 M 53.3 778.8 37.8 778.8 M 37.8 763 59.2 763 M 86.7 748.8 81.1 735.2 81.1 720.5 86.7 706.9 97.1 696.5 110.7 690.9 125.3 690.9 138.9 696.5 149.3 706.9 154.9 720.5 154.9 735.2 149.3 748.8 138.9 759.1 125.3 764.8 110.7 764.8 97.1 759.1 86.7 748.8 M 86 747.1 37.8 747.1 M 37.8 731.3 81.1 731.3 M 83.2 715.4 37.8 715.4 M 37.8 699.6 94.1 699.6 M 86.1 699.2 68 699.2 55.3 686.5 55.3 668.4 68 655.7 86.1 655.7 98.8 668.4 98.8 686.5 86.1 699.2 M 98.8 683.7 211.5 683.7 M 207.4 667.9 98.3 667.9 M 97.1 659.1 86.7 648.8 81.1 635.2 81.1 620.5 86.7 606.9 97.1 596.5 110.7 590.9 125.3 590.9 138.9 596.5 149.3 606.9 154.9 620.5 154.9 635.2 149.3 648.8 138.9 659.1 125.3 664.8 110.7 664.8 97.1 659.1 M 89.9 652 37.8 652 M 37.8 636.2 81.5 636.2 M 81.2 620.3 37.8 620.3 M 37.8 604.5 89.2 604.5 M 86.1 600.8 68 600.8 55.3 588 55.3 570 68 557.2 86.1 557.2 98.8 570 98.8 588 86.1 600.8 M 98.3 588.6 206.6 588.6 M 212.3 572.8 98.8 572.8 M 97.1 559.1 86.7 548.8 81.1 535.2 81.1 520.5 86.7 506.9 97.1 496.5 110.7 490.9 125.3 490.9 138.9 496.5 149.3 506.9 154.9 520.5 154.9 535.2 149.3 548.8 138.9 559.1 125.3 564.8 110.7 564.8 97.1 559.1 M 94.8 556.9 37.8 556.9 M 37.8 541.1 83.5 541.1 M 81.1 525.2 37.8 525.2 M 37.8 509.4 85.7 509.4 M 86.1 498.4 68 498.4 55.3 485.7 55.3 467.6 68 454.9 86.1 454.9 98.8 467.6 98.8 485.7 86.1 498.4 M 91 493.5 104.4 493.5 M 98.8 477.7 219.1 477.7 M 201.7 493.5 131.6 493.5 M 125.3 464.8 110.7 464.8 97.1 459.1 86.7 448.8 81.1 435.2 81.1 420.5 86.7 406.9 97.1 396.5 110.7 390.9 125.3 390.9 138.9 396.5 149.3 406.9 154.9 420.5 154.9 435.2 149.3 448.8 138.9 459.1 125.3 464.8 M 132.5 461.8 201.4 461.8 M 193.9 446 150.5 446 M 154.9 430.1 191.1 430.1 M 192 414.3 152.3 414.3 M 140.8 398.4 198.6 398.4 M 212.7 382.6 98.8 382.6 M 98.8 385.3 86.1 398 68 398 55.3 385.3 55.3 367.2 68 354.5 86.1 354.5 98.8 367.2 98.8 385.3 M 95.2 398.4 37.8 398.4 M 37.8 382.6 55.3 382.6 M 55.8 366.7 37.8 366.7 M 37.8 350.9 88.8 350.9 M 86.7 348.8 81.1 335.2 81.1 320.5 86.7 306.9 97.1 296.5 110.7 290.9 125.3 290.9 138.9 296.5 149.3 306.9 154.9 320.5 154.9 335.2 149.3 348.8 138.9 359.1 125.3 364.8 110.7 364.8 97.1 359.1 86.7 348.8 M 81.1 335 37.8 335 M 37.8 319.2 81.6 319.2 M 90.3 303.3 37.8 303.3 M 37.8 287.5 53.9 287.5 M 53.3 286.9 53.3 268.8 66.1 256.1 84.1 256.1 96.9 268.8 96.9 286.9 84.1 299.6 66.1 299.6 53.3 286.9 M 53.3 271.6 37.8 271.6 M 37.8 255.8 93.7 255.8 M 97.1 259.1 86.7 248.8 81.1 235.2 81.1 220.5 86.7 206.9 97.1 196.5 110.7 190.9 125.3 190.9 138.9 196.5 149.3 206.9 154.9 220.5 154.9 235.2 149.3 248.8 138.9 259.1 125.3 264.8 110.7 264.8 97.1 259.1 M 96.9 271.6 211.2 271.6 M 207.8 287.5 96.3 287.5 M 83 239.9 37.8 239.9 M 37.8 224.1 81.1 224.1 M 86.2 208.2 37.8 208.2 M 37.8 192.4 59.2 192.4 M 55.3 188.4 55.3 170.4 68 157.6 86.1 157.6 98.8 170.4 98.8 188.4 86.1 201.2 68 201.2 55.3 188.4 M 55.3 176.5 37.8 176.5 M 37.8 160.7 65 160.7 M 89.1 160.7 100.7 160.7 M 98.8 176.5 216.3 176.5 M 202.9 192.4 128.8 192.4 M 135.3 160.7 200.2 160.7 M 193.4 144.8 150.9 144.8 M 154.9 129 191.1 129 M 194.5 208.2 149.8 208.2 M 154.9 224.1 191.1 224.1 M 191.4 239.9 153 239.9 M 142.3 255.8 197.9 255.8 M 196.6 303.3 145.7 303.3 M 154.4 319.2 191.1 319.2 M 191.1 335 154.9 335 M 147.2 350.9 195.9 350.9 M 206.3 366.7 98.3 366.7 M 83.7 414.3 37.8 414.3 M 37.8 430.1 81.1 430.1 M 85.5 446 37.8 446 M 37.8 461.8 61.1 461.8 M 55.3 477.7 37.8 477.7 M 37.8 493.5 63.1 493.5 M 93 461.8 103.5 461.8 M 150.3 509.4 194 509.4 M 191.1 525.2 154.9 525.2 M 152.5 541.1 191.9 541.1 M 198.4 556.9 141.2 556.9 M 146.8 604.5 196.1 604.5 M 191.1 620.3 154.8 620.3 M 154.5 636.2 191.1 636.2 M 196.4 652 146.1 652 M 141.9 699.6 198.1 699.6 M 191.5 715.4 152.8 715.4 M 154.9 731.3 191.1 731.3 M 194.4 747.1 150 747.1 M 129.7 763 202.5 763 M 200.6 794.7 134.3 794.7 M 150.8 810.5 193.6 810.5 M 191.1 826.4 154.9 826.4 M 152 842.2 192.3 842.2 M 198.9 858.1 140 858.1 M 125.3 890.9 138.9 896.5 149.3 906.9 154.9 920.5 154.9 935.2 149.3 948.8 138.9 959.1 125.3 964.8 110.7 964.8 97.1 959.1 86.7 948.8 81.1 935.2 81.1 920.5 85.1 910.9 84.1 911.8 66.1 911.8 53.3 899.1 53.3 881 66.1 868.3 84.1 868.3 96.9 881 96.9 896.8 97.1 896.5 110.7 890.9 125.3 890.9 M 148 905.6 195.6 905.6 M 191.1 921.5 154.9 921.5 M 154 937.3 191.1 937.3 M 196.9 953.2 144.9 953.2 M 125.3 990.9 110.7 990.9 97.1 996.5 86.7 1006.9 81.1 1020.5 81.1 1035.2 86.7 1048.8 97.1 1059.1 110.7 1064.8 125.3 1064.8 138.9 1059.1 149.3 1048.8 154.9 1035.2 154.9 1020.5 149.3 1006.9 138.9 996.5 125.3 990.9 M 143.1 1000.7 197.6 1000.7 M 191.1 1016.6 153.3 1016.6 M 154.9 1032.4 191.1 1032.4 M 194.8 1048.3 149.5 1048.3 M 126.9 1064.1 203.7 1064.1 M 215.3 1080 96.9 1080 M 96.9 1088 84.1 1100.8 66.1 1100.8 53.3 1088 53.3 1070 66.1 1057.2 84.1 1057.2 96.9 1070 96.9 1088 M 98.9 1095.8 89.1 1095.8 M 97.1 1096.5 86.7 1106.9 81.1 1120.5 81.1 1135.2 86.7 1148.8 97.1 1159.1 110.7 1164.8 125.3 1164.8 138.9 1159.1 149.3 1148.8 154.9 1135.2 154.9 1120.5 149.3 1106.9 138.9 1096.5 125.3 1090.9 110.7 1090.9 97.1 1096.5 M 84.7 1111.7 37.8 1111.7 M 37.8 1127.5 81.1 1127.5 M 84.5 1143.4 37.8 1143.4 M 37.8 1159.2 64.5 1159.2 M 66.1 1157.6 84.1 1157.6 96.9 1170.4 96.9 1188.4 84.1 1201.2 66.1 1201.2 53.3 1188.4 53.3 1170.4 66.1 1157.6 M 53.3 1175.1 37.8 1175.1 M 37.8 1190.9 55.8 1190.9 M 86.7 1206.9 81.1 1220.5 81.1 1235.2 86.7 1248.8 97.1 1259.1 110.7 1264.8 125.3 1264.8 138.9 1259.1 149.3 1248.8 154.9 1235.2 154.9 1220.5 149.3 1206.9 138.9 1196.5 125.3 1190.9 110.7 1190.9 97.1 1196.5 86.7 1206.9 M 86.9 1206.8 37.8 1206.8 M 37.8 1222.6 81.1 1222.6 M 82.4 1238.5 37.8 1238.5 M 37.8 1254.3 92.2 1254.3 M 101.9 1288.9 108.2 1286.9 114.7 1285.8 118 1285.8 121.3 1285.8 127.8 1286.9 134.1 1288.9 140 1291.9 145.4 1295.8 150 1300.5 153.9 1305.8 156.9 1311.7 159 1318 160 1324.5 160 1327.8 118 1327.8 118 1285.8 118 1327.8 118 1327.8 118 1327.8 76 1327.8 76 1324.5 77 1318 79.1 1311.7 82.1 1305.8 86 1300.5 90.6 1295.8 96 1291.9 101.9 1288.9 M 113.7 1286 37.8 1286 M 37.8 1270.2 209.7 1270.2 M 202.1 1286 122.3 1286 M 118 1286 118 1286 M 118 1301.9 118 1301.9 M 118 1317.7 118 1317.7 M 118 1327.8 118 1327.8 160 1327.8 160 1331.1 159 1337.7 156.9 1344 153.9 1349.9 150 1355.2 145.4 1359.9 140 1363.8 134.1 1366.8 127.8 1368.8 121.3 1369.8 118 1369.8 118 1327.8 76 1327.8 76 1331.1 77 1337.7 79.1 1344 82.1 1349.9 86 1355.2 90.6 1359.9 96 1363.8 101.9 1366.8 108.2 1368.8 114.7 1369.8 118 1369.8 118 1327.8 118 1327.8 M 118 1333.6 118 1333.6 M 118 1349.4 118 1349.4 M 118 1365.3 118 1365.3 M 98.9 1365.3 37.8 1365.3 M 37.8 1381.1 214.1 1381.1 M 199.2 1397 139.3 1397 M 138.9 1396.5 149.3 1406.9 154.9 1420.5 154.9 1435.2 149.3 1448.8 138.9 1459.1 125.3 1464.8 110.7 1464.8 97.1 1459.1 86.7 1448.8 81.1 1435.2 81.1 1420.5 86.7 1406.9 97.1 1396.5 110.7 1390.9 125.3 1390.9 138.9 1396.5 M 151.7 1412.8 192.6 1412.8 M 191.1 1428.7 154.9 1428.7 M 151.1 1444.5 193.3 1444.5 M 199.9 1460.4 136 1460.4 M 125.3 1490.9 110.7 1490.9 97.1 1496.5 86.7 1506.9 81.1 1520.5 81.1 1535.2 86.7 1548.8 97.1 1559.1 110.7 1564.8 125.3 1564.8 138.9 1559.1 149.3 1548.8 154.9 1535.2 154.9 1520.5 149.3 1506.9 138.9 1496.5 125.3 1490.9 M 128.1 1492.1 203.2 1492.1 M 194.6 1507.9 149.7 1507.9 M 154.9 1523.8 191.1 1523.8 M 191.3 1539.6 153.1 1539.6 M 142.6 1555.5 197.8 1555.5 M 210.9 1571.3 37.8 1571.3 M 37.8 1555.5 93.4 1555.5 M 82.9 1539.6 37.8 1539.6 M 37.8 1523.8 81.1 1523.8 M 86.3 1507.9 37.8 1507.9 M 37.8 1492.1 107.9 1492.1 M 100 1460.4 37.8 1460.4 M 37.8 1476.2 215.8 1476.2 M 280.9 1476.2 462.3 1476.2 M 453.5 1460.4 296.7 1460.4 M 303.3 1444.5 453.8 1444.5 M 453.8 1428.7 305.5 1428.7 M 304 1412.8 453.8 1412.8 M 453.8 1397 297.4 1397 M 298.1 1365.3 453.8 1365.3 M 453.8 1381.1 282.5 1381.1 M 306.8 1349.4 453.8 1349.4 M 453.8 1333.6 255.1 1333.6 M 241.6 1333.6 159.6 1333.6 M 158.9 1317.7 186.9 1317.7 M 191.6 1301.9 151 1301.9 M 154.2 1349.4 189.8 1349.4 M 198.5 1365.3 137.1 1365.3 M 96.7 1397 37.8 1397 M 37.8 1412.8 84.3 1412.8 M 81.1 1428.7 37.8 1428.7 M 37.8 1444.5 84.9 1444.5 M 81.8 1349.4 37.8 1349.4 M 37.8 1333.6 76.4 1333.6 M 77.1 1317.7 37.8 1317.7 M 37.8 1301.9 85 1301.9 M 143.8 1254.3 197.3 1254.3 M 191.1 1238.5 153.6 1238.5 M 154.9 1222.6 191.1 1222.6 M 195.1 1206.8 149.1 1206.8 M 138.8 1159.2 199.4 1159.2 M 192.8 1143.4 151.5 1143.4 M 154.9 1127.5 191.1 1127.5 M 193.1 1111.7 151.3 1111.7 M 137.1 1095.8 199.7 1095.8 M 214.6 1175.1 96.9 1175.1 M 97.2 1159.2 85.7 1159.2 M 94.4 1190.9 204.3 1190.9 M 282 1175.1 300.6 1175.1 M 302.2 1171.3 309.1 1164.4 318.2 1160.6 328 1160.6 337.1 1164.4 344.1 1171.3 347.9 1180.4 347.9 1190.2 344.1 1199.3 337.1 1206.3 328 1210.1 318.2 1210.1 309.1 1206.3 302.2 1199.3 298.4 1190.2 298.4 1180.4 302.2 1171.3 M 297.3 1159.2 451.1 1159.2 M 436.7 1143.4 303.8 1143.4 M 305.5 1127.5 325.2 1127.5 M 314 1111.7 303.5 1111.7 M 311.4 1095.8 314 1095.8 M 345.6 1175.1 526.2 1175.1 M 510.4 1159.2 493.6 1159.2 M 483.5 1190.9 542.1 1190.9 M 557.9 1206.8 523 1206.8 M 526 1222.6 527.7 1222.6 M 528.5 1238.5 515.4 1238.5 M 493.1 1238.5 491.6 1238.5 M 491.6 1254.3 644.7 1254.3 M 644.7 1238.5 570.5 1238.5 M 571.3 1222.6 644.7 1222.6 M 644.7 1270.2 491.6 1270.2 M 491.6 1286 659.5 1286 M 682.2 1317.7 491.6 1317.7 M 491.6 1301.9 691.8 1301.9 M 681.1 1333.6 491.6 1333.6 M 491.6 1349.4 687.3 1349.4 M 701 1365.3 491.6 1365.3 M 491.6 1381.1 695 1381.1 M 696.7 1397 491.6 1397 M 491.6 1412.8 684.3 1412.8 M 681.1 1428.7 491.6 1428.7 M 491.6 1444.5 684.9 1444.5 M 686.3 1507.9 302 1507.9 M 305.5 1523.8 681.1 1523.8 M 682.9 1539.6 305.4 1539.6 M 298.8 1555.5 693.4 1555.5 M 710.7 1590.9 697.1 1596.5 686.7 1606.9 681.1 1620.5 681.1 1635.2 686.7 1648.8 697.1 1659.1 710.7 1664.8 725.3 1664.8 738.9 1659.1 749.3 1648.8 754.9 1635.2 754.9 1620.5 749.3 1606.9 738.9 1596.5 725.3 1590.9 710.7 1590.9 M 690.6 1603 491.3 1603 M 491.6 1603.6 487.8 1594.5 480.8 1587.6 471.7 1583.8 461.9 1583.8 452.8 1587.6 445.9 1594.5 442.1 1603.6 442.1 1613.5 445.9 1622.6 452.8 1629.5 461.9 1633.3 471.7 1633.3 480.8 1629.5 487.8 1622.6 491.6 1613.5 491.6 1603.6 M 489.3 1618.9 681.8 1618.9 M 681.1 1634.7 305.5 1634.7 M 305.5 1618.9 444.3 1618.9 M 442.3 1603 300 1603 M 288.5 1587.2 453.9 1587.2 M 479.8 1587.2 808.1 1587.2 M 810.9 1571.3 285.8 1571.3 M 293.4 1492.1 475 1492.1 M 453.8 1317.7 309.8 1317.7 M 305 1301.9 453.8 1301.9 M 453.8 1286 396.4 1286 M 402 1280.5 389.2 1293.2 371.2 1293.2 358.4 1280.5 358.4 1262.4 371.2 1249.7 389.2 1249.7 402 1262.4 402 1280.5 M 402 1270.2 453.8 1270.2 M 453.8 1254.3 393.9 1254.3 M 366.5 1254.3 299.3 1254.3 M 305.5 1238.5 453.8 1238.5 M 453.6 1222.6 305.5 1222.6 M 301.5 1206.8 310.2 1206.8 M 298.7 1190.9 292.3 1190.9 M 336 1206.8 449 1206.8 M 458 1190.9 347.6 1190.9 M 358.4 1270.2 286.9 1270.2 M 294.6 1286 364 1286 M 210.4 984.9 96.9 984.9 M 96.9 987.7 96.9 969.6 84.1 956.9 66.1 956.9 53.3 969.6 53.3 987.7 66.1 1000.4 84.1 1000.4 96.9 987.7 M 92.9 1000.7 37.8 1000.7 M 37.8 984.9 53.3 984.9 M 53.9 969 37.8 969 M 37.8 953.2 91.1 953.2 M 96.3 969 208.6 969 M 205.5 889.8 96.9 889.8 M 89.7 873.9 213.5 873.9 M 96 858.1 37.8 858.1 M 37.8 873.9 60.4 873.9 M 53.3 889.8 37.8 889.8 M 37.8 905.6 59.8 905.6 M 81.1 921.5 37.8 921.5 M 37.8 937.3 82 937.3 M 82.7 1016.6 37.8 1016.6 M 37.8 1032.4 81.1 1032.4 M 86.5 1048.3 37.8 1048.3 M 37.8 1064.1 59.2 1064.1 M 53.3 1080 37.8 1080 M 37.8 1095.8 61.1 1095.8 M 91 1064.1 109.1 1064.1 M 84 842.2 37.8 842.2 M 37.8 826.4 81.1 826.4 M 91 763 106.3 763 M 55.3 683.7 37.8 683.7 M 37.8 667.9 55.9 667.9 M 55.8 588.6 37.8 588.6 M 37.8 572.8 55.3 572.8 M 94.9 192.4 107.2 192.4 M 85.1 144.8 37.8 144.8 M 37.8 129 81.1 129 M 84.1 113.1 37.8 113.1 M 37.8 97.3 96.4 97.3 M 37.8 49.7 409.8 49.7 M 412.9 636.2 451.8 636.2 M 451.8 652 412.9 652 M 412.9 667.9 451.8 667.9 M 451.8 683.7 438.4 683.7 M 446.3 699.6 451.8 699.6 M 451.8 715.4 440.5 715.4 M 451.8 731.3 425.6 731.3 M 410.6 683.7 399 683.7 M 881.3 1080 1238.3 1080 M 1238.3 1095.8 897 1095.8 M 903.5 1111.7 1238.3 1111.7 M 1238.3 1127.5 905.5 1127.5 M 903.8 1143.4 1238.3 1143.4 M 1238.3 1159.2 897.3 1159.2 M 882 1175.1 1158.9 1175.1 M 1160.6 1173.4 1178.6 1173.4 1191.4 1186.1 1191.4 1204.2 1178.6 1216.9 1160.6 1216.9 1147.8 1204.2 1147.8 1186.1 1160.6 1173.4 M 1147.8 1190.9 892.3 1190.9 M 901.5 1206.8 1150.4 1206.8 M 1160.6 1222.6 1178.6 1222.6 1238.3 1222.6 M 1238.3 1206.8 1188.8 1206.8 M 1191.4 1190.9 1238.3 1190.9 M 1238.3 1175.1 1180.3 1175.1 M 1178.6 1222.6 1191.4 1235.4 1191.4 1253.4 1178.6 1266.2 1160.6 1266.2 1147.8 1253.4 1147.8 1235.4 1160.6 1222.6 M 1160.5 1222.6 905.5 1222.6 M 905.5 1238.5 1147.8 1238.5 M 1148.7 1254.3 899.3 1254.3 M 886.9 1270.2 1238.3 1270.2 M 1238.3 1286 1191.4 1286 M 1191.4 1284.6 1178.6 1271.8 1160.6 1271.8 1147.8 1284.6 1147.8 1302.6 1160.6 1315.4 1178.6 1315.4 1191.4 1302.6 1191.4 1284.6 M 1191.4 1301.9 1238.3 1301.9 M 1238.3 1317.7 905.5 1317.7 M 905.5 1333.6 1148 1333.6 M 1147.8 1333.8 1160.6 1321 1178.6 1321 1191.4 1333.8 1191.4 1351.8 1178.6 1364.6 1160.6 1364.6 1147.8 1351.8 1147.8 1333.8 M 1147.8 1349.4 901.3 1349.4 M 891.8 1365.3 1238.3 1365.3 M 1238.3 1381.1 882.5 1381.1 M 897.4 1397 1238.3 1397 M 1238.3 1412.8 904 1412.8 M 905.5 1428.7 1238.3 1428.7 M 1238.3 1444.5 903.3 1444.5 M 896.7 1460.4 1238.3 1460.4 M 1238.3 1476.2 880.9 1476.2 M 893.4 1492.1 1238.3 1492.1 M 1238.3 1507.9 902 1507.9 M 905.5 1523.8 1238.3 1523.8 M 1238.3 1539.6 905.4 1539.6 M 898.8 1555.5 1238.3 1555.5 M 1238.3 1571.3 885.8 1571.3 M 888.5 1587.2 1238.3 1587.2 M 1238.3 1603 900 1603 M 905.5 1618.9 1238.3 1618.9 M 1238.3 1634.7 905.5 1634.7 M 900.8 1650.6 1238.3 1650.6 M 1238.3 1666.4 1043 1666.4 M 1044.7 1670.6 1040.9 1661.5 1034 1654.5 1024.9 1650.7 1015 1650.7 1006 1654.5 999 1661.5 995.2 1670.6 995.2 1680.4 999 1689.5 1006 1696.4 1015 1700.2 1024.9 1700.2 1034 1696.4 1040.9 1689.5 1044.7 1680.4 1044.7 1670.6 M 1043.9 1682.3 1238.3 1682.3 M 1238.3 1698.1 1030 1698.1 M 1010 1698.1 897.9 1698.1 M 904.5 1714 1238.3 1714 M 1238.3 1729.8 905.5 1729.8 M 902.9 1745.7 1238.3 1745.7 M 1238.3 1761.5 895.6 1761.5 M 894.6 1793.2 1238.3 1793.2 M 1238.3 1777.4 878.3 1777.4 M 902.5 1809.1 1238.3 1809.1 M 1238.3 1824.9 905.5 1824.9 M 904.9 1840.8 1238.3 1840.8 M 1238.3 1856.6 898.3 1856.6 M 884.6 1872.5 1238.3 1872.5 M 1238.3 1888.3 889.7 1888.3 M 900.4 1904.2 1238.3 1904.2 M 1238.3 1920 905.5 1920 M 905.5 1935.9 1238.3 1935.9 M 1238.3 1951.7 900.4 1951.7 M 889.5 1967.6 1238.3 1967.6 M 1238.3 1983.4 884.8 1983.4 M 898.4 1999.3 1238.3 1999.3 M 1238.3 2015.1 905 2015.1 M 905.5 2031 1238.3 2031 M 1238.3 2046.8 902.4 2046.8 M 894.4 2062.7 958.1 2062.7 M 957.7 2063 964.6 2056.1 973.7 2052.3 983.5 2052.3 992.6 2056.1 999.6 2063 1003.4 2072.1 1003.4 2082 999.6 2091.1 992.6 2098 983.5 2101.8 973.7 2101.8 964.6 2098 957.7 2091.1 953.9 2082 953.9 2072.1 957.7 2063 M 953.9 2078.5 875.5 2078.5 M 821.1 2078.5 792.8 2078.5 M 792.8 2062.7 802.2 2062.7 M 794.2 2046.8 792.8 2046.8 M 792.8 2094.4 961 2094.4 M 996.3 2094.4 1238.3 2094.4 M 1238.3 2110.2 1074.1 2110.2 M 1085.1 2126.1 1238.3 2126.1 M 1238.3 2141.9 1082.4 2141.9 M 1052.5 2110.2 792.8 2110.2 M 768.1 2141.9 37.8 2141.9 M 37.8 2126.1 755 2126.1 M 755 2110.2 37.8 2110.2 M 37.8 2094.4 755 2094.4 M 755 2078.5 612.3 2078.5 M 612.7 2078.3 603.6 2082.1 593.8 2082.1 584.7 2078.3 577.7 2071.4 574 2062.3 574 2052.5 577.7 2043.4 584.7 2036.4 593.8 2032.6 603.6 2032.6 612.7 2036.4 619.7 2043.4 623.4 2052.5 623.4 2062.3 619.7 2071.4 612.7 2078.3 M 623.3 2062.7 705.6 2062.7 M 710.7 2064.8 697.1 2059.1 686.7 2048.8 681.1 2035.2 681.1 2020.5 686.7 2006.9 697.1 1996.5 710.7 1990.9 725.3 1990.9 738.9 1996.5 749.3 2006.9 754.9 2020.5 754.9 2035.2 749.3 2048.8 738.9 2059.1 725.3 2064.8 710.7 2064.8 M 730.4 2062.7 755 2062.7 M 755 2046.8 750.1 2046.8 M 754.9 2031 755 2031 M 755 2015.1 752.7 2015.1 M 754.9 1999.3 741.6 1999.3 M 761 1983.4 284.8 1983.4 M 289.5 1967.6 768.5 1967.6 M 749.3 1948.8 738.9 1959.1 725.3 1964.8 710.7 1964.8 697.1 1959.1 686.7 1948.8 681.1 1935.2 681.1 1920.5 686.7 1906.9 697.1 1896.5 710.7 1890.9 725.3 1890.9 738.9 1896.5 749.3 1906.9 754.9 1920.5 754.9 1935.2 749.3 1948.8 M 746.4 1951.7 796.3 1951.7 M 799 1967.6 807.1 1967.6 M 806.5 1983.4 811.8 1983.4 M 791.1 1935.9 754.6 1935.9 M 754.7 1920 791.1 1920 M 796.2 1904.2 746.5 1904.2 M 725.3 1864.8 738.9 1859.1 749.3 1848.8 754.9 1835.2 754.9 1820.5 749.3 1806.9 738.9 1796.5 725.3 1790.9 710.7 1790.9 697.1 1796.5 686.7 1806.9 681.1 1820.5 681.1 1835.2 686.7 1848.8 697.1 1859.1 710.7 1864.8 725.3 1864.8 M 741.5 1856.6 798.3 1856.6 M 791.7 1840.8 752.6 1840.8 M 754.9 1824.9 791.1 1824.9 M 794.2 1809.1 750.2 1809.1 M 730.9 1793.2 802 1793.2 M 818.3 1777.4 548.4 1777.4 M 544.6 1779 534.7 1779 525.6 1775.2 518.7 1768.2 514.9 1759.1 514.9 1749.3 518.7 1740.2 525.6 1733.3 534.7 1729.5 544.6 1729.5 553.7 1733.3 560.6 1740.2 564.4 1749.3 564.4 1759.1 560.6 1768.2 553.7 1775.2 544.6 1779 M 530.9 1777.4 278.3 1777.4 M 294.6 1793.2 705.1 1793.2 M 710.7 1764.8 697.1 1759.1 686.7 1748.8 681.1 1735.2 681.1 1720.5 686.7 1706.9 697.1 1696.5 710.7 1690.9 725.3 1690.9 738.9 1696.5 749.3 1706.9 754.9 1720.5 754.9 1735.2 749.3 1748.8 738.9 1759.1 725.3 1764.8 710.7 1764.8 M 702.8 1761.5 563.4 1761.5 M 562.9 1745.7 685.4 1745.7 M 681.1 1729.8 545.3 1729.8 M 534 1729.8 305.5 1729.8 M 304.5 1714 683.8 1714 M 695.5 1698.1 297.9 1698.1 M 290.7 1666.4 806 1666.4 M 813 1682.3 283.6 1682.3 M 300.8 1650.6 688.5 1650.6 M 740.5 1698.1 798.7 1698.1 M 792.1 1714 752.2 1714 M 754.9 1729.8 791.1 1729.8 M 793.8 1745.7 750.6 1745.7 M 733.2 1761.5 801.1 1761.5 M 795.8 1650.6 747.5 1650.6 M 754.9 1634.7 791.1 1634.7 M 791.1 1618.9 754.2 1618.9 M 745.4 1603 796.7 1603 M 797.8 1555.5 742.6 1555.5 M 753.1 1539.6 791.3 1539.6 M 791.1 1523.8 754.9 1523.8 M 749.7 1507.9 794.6 1507.9 M 890.7 1666.4 997 1666.4 M 996 1682.3 883.6 1682.3 M 812 1872.5 284.6 1872.5 M 289.7 1888.3 806.9 1888.3 M 694.5 1856.6 298.3 1856.6 M 304.9 1840.8 683.4 1840.8 M 681.1 1824.9 305.5 1824.9 M 302.5 1809.1 685.8 1809.1 M 689.5 1904.2 300.4 1904.2 M 305.5 1920 681.3 1920 M 681.4 1935.9 305.5 1935.9 M 300.4 1951.7 689.6 1951.7 M 694.4 1999.3 298.4 1999.3 M 305 2015.1 683.3 2015.1 M 681.1 2031 305.5 2031 M 302.4 2046.8 330.3 2046.8 M 331.7 2043.4 338.6 2036.4 347.7 2032.6 357.6 2032.6 366.7 2036.4 373.6 2043.4 377.4 2052.5 377.4 2062.3 373.6 2071.4 366.7 2078.3 357.6 2082.1 347.7 2082.1 338.6 2078.3 331.7 2071.4 327.9 2062.3 327.9 2052.5 331.7 2043.4 M 328.1 2062.7 294.4 2062.7 M 275.5 2078.5 339 2078.5 M 366.3 2078.5 585.1 2078.5 M 574.1 2062.7 377.2 2062.7 M 375 2046.8 576.3 2046.8 M 621.1 2046.8 685.9 2046.8 M 515.9 1761.5 295.6 1761.5 M 302.9 1745.7 516.4 1745.7 M 218.3 1777.4 37.8 1777.4 M 37.8 1793.2 105.1 1793.2 M 110.7 1790.9 97.1 1796.5 86.7 1806.9 81.1 1820.5 81.1 1835.2 86.7 1848.8 97.1 1859.1 110.7 1864.8 125.3 1864.8 138.9 1859.1 149.3 1848.8 154.9 1835.2 154.9 1820.5 149.3 1806.9 138.9 1796.5 125.3 1790.9 110.7 1790.9 M 130.9 1793.2 202 1793.2 M 194.2 1809.1 150.2 1809.1 M 154.9 1824.9 191.1 1824.9 M 191.7 1840.8 152.6 1840.8 M 141.5 1856.6 198.3 1856.6 M 212 1872.5 37.8 1872.5 M 37.8 1888.3 206.9 1888.3 M 196.2 1904.2 146.5 1904.2 M 149.3 1906.9 138.9 1896.5 125.3 1890.9 110.7 1890.9 97.1 1896.5 86.7 1906.9 81.1 1920.5 81.1 1935.2 86.7 1948.8 97.1 1959.1 110.7 1964.8 125.3 1964.8 138.9 1959.1 149.3 1948.8 154.9 1935.2 154.9 1920.5 149.3 1906.9 M 154.7 1920 191.1 1920 M 191.1 1935.9 154.6 1935.9 M 146.4 1951.7 196.3 1951.7 M 207.1 1967.6 37.8 1967.6 M 37.8 1983.4 211.8 1983.4 M 198.2 1999.3 141.6 1999.3 M 138.9 1996.5 149.3 2006.9 154.9 2020.5 154.9 2035.2 149.3 2048.8 138.9 2059.1 125.3 2064.8 110.7 2064.8 97.1 2059.1 86.7 2048.8 81.1 2035.2 81.1 2020.5 86.7 2006.9 97.1 1996.5 110.7 1990.9 125.3 1990.9 138.9 1996.5 M 152.7 2015.1 191.7 2015.1 M 191.1 2031 154.9 2031 M 150.1 2046.8 194.2 2046.8 M 202.2 2062.7 130.4 2062.7 M 105.6 2062.7 37.8 2062.7 M 37.8 2078.5 221.1 2078.5 M 85.9 2046.8 37.8 2046.8 M 37.8 2031 81.1 2031 M 83.3 2015.1 37.8 2015.1 M 37.8 1999.3 94.4 1999.3 M 89.6 1951.7 37.8 1951.7 M 37.8 1935.9 81.4 1935.9 M 81.3 1920 37.8 1920 M 37.8 1904.2 89.5 1904.2 M 94.5 1856.6 37.8 1856.6 M 37.8 1840.8 83.4 1840.8 M 81.1 1824.9 37.8 1824.9 M 37.8 1809.1 85.8 1809.1 M 102.8 1761.5 37.8 1761.5 M 37.8 1745.7 85.4 1745.7 M 86.7 1748.8 81.1 1735.2 81.1 1720.5 86.7 1706.9 97.1 1696.5 110.7 1690.9 125.3 1690.9 138.9 1696.5 149.3 1706.9 154.9 1720.5 154.9 1735.2 149.3 1748.8 138.9 1759.1 125.3 1764.8 110.7 1764.8 97.1 1759.1 86.7 1748.8 M 81.1 1729.8 37.8 1729.8 M 37.8 1714 83.8 1714 M 95.5 1698.1 37.8 1698.1 M 37.8 1682.3 213 1682.3 M 206 1666.4 37.8 1666.4 M 37.8 1650.6 88.5 1650.6 M 86.7 1648.8 81.1 1635.2 81.1 1620.5 86.7 1606.9 97.1 1596.5 110.7 1590.9 125.3 1590.9 138.9 1596.5 149.3 1606.9 154.9 1620.5 154.9 1635.2 149.3 1648.8 138.9 1659.1 125.3 1664.8 110.7 1664.8 97.1 1659.1 86.7 1648.8 M 81.1 1634.7 37.8 1634.7 M 37.8 1618.9 81.8 1618.9 M 90.6 1603 37.8 1603 M 37.8 1587.2 208.1 1587.2 M 196.7 1603 145.4 1603 M 154.2 1618.9 191.1 1618.9 M 191.1 1634.7 154.9 1634.7 M 147.5 1650.6 195.8 1650.6 M 198.7 1698.1 140.5 1698.1 M 152.2 1714 192.1 1714 M 191.1 1729.8 154.9 1729.8 M 150.6 1745.7 193.8 1745.7 M 201.1 1761.5 133.2 1761.5 M 887.4 1286 1147.8 1286 M 1147.8 1301.9 899.5 1301.9 M 893 1064.1 1238.3 1064.1 M 1238.3 1048.3 901.8 1048.3 M 928 1032.4 1238.3 1032.4 M 1238.3 1238.5 1191.4 1238.5 M 1190.5 1254.3 1238.3 1254.3 M 1238.3 1333.6 1191.1 1333.6 M 1191.4 1349.4 1238.3 1349.4 M 1238.3 2062.7 999.2 2062.7 M 1003.4 2078.5 1238.3 2078.5 M 923.4 81.4 920.5 81.4 M 923.4 65.6 907.8 65.6 M 895.4 49.7 923.4 49.7" fill="none" stroke-width="16"/><use xlink:href="#c8cp95Reft-nGNAbsgg6_pad-16" x="384.1" y="1775.9"/><path d="M 488.5 1478.6 793.6 1478.6 848.3 1427.8 M 798.3 1277.8 848.3 1227.8 M 798.3 1277.8 681.4 1277.8 663.7 1266 663.7 1203 651.9 1189.3 567.2 1189.3 480.6 1102.6 427.4 1065.2 M 451.1 1035.7 458.9 1027.8 458.9 1002.7 M 451.1 1035.7 354.6 1035.7 354.6 1086.9 364.5 1096.7 396 1096.7 M 443.2 1122.3 346.7 1122.3 333 1108.6 333 766 342.8 756.2 449.6 756.2 M 447.1 799.5 425.5 799.5 417.6 807.4 417.6 848.7 423.5 854.6 427.4 854.6 444.2 871.8 444.2 923.5 M 396 939.3 390 939.3 384.1 933.4 384.1 862.5 396 850.7 396 797.5 382.2 777.8 M 350.7 726.7 356.6 716.8 356.6 679.4 366.4 669.6 382.2 669.6 394 661.7 394 598.7 M 423.5 586.9 423.5 561.3 403.8 555.4 403.8 79 425.5 61.3 880.2 61.3 911.7 100.7 911.7 1021.9 905.8 1027.8 848.3 1027.8 M 783.7 966.8 770 980.6 659.7 980.6 653.8 974.7 653.8 929.4 640 915.6 636.1 915.6 M 581 996.3 586.9 1000.3 604.6 1020 604.6 1029.8 M 581 996.3 577.1 992.4 577.1 988.5 567.2 978.6 567.2 941.2 561.3 935.3 561.3 748.3 569.2 738.5 569.2 590.8 581 579 M 533.7 545.6 665.6 545.6 675.5 535.7 675.5 492.4 689.3 478.6 771.9 478.6 783.7 464.9 783.7 433.4 788.2 427.9 848.2 427.9 848.3 427.8 M 848.3 527.8 799.5 527.8 783.7 541.6 783.7 966.8 M 522.4 939.3 522.4 557.4 533.7 545.6 M 470.8 539.7 470.8 829 447.1 834.9 M 396.9 971.2 362 971.2 354.6 980.6 354.6 1035.7 M 309.3 1071.1 303.4 1077.1 297.5 1077.1 M 309.3 1071.1 309.3 740.4 325.1 726.7 350.7 726.7 M 457 498.3 457 396 468.8 384.1 559.3 384.1 571.1 372.3 571.1 205 577.1 199.1 624.3 199.1 630.2 193.2 630.2 183.4 638.1 175.5 651.9 175.5 M 502.3 431.4 496.3 437.3 496.3 1006.2 508.2 1023.9 508.2 1061.3 512.1 1065.2 521.9 1065.2 M 476.7 1144 462.9 1144 443.2 1122.3 M 470.8 1208.9 470.8 1210.9 472.7 1212.9 472.7 1458.9 488.5 1478.6 M 783.7 1984.5 773.9 1998.3 773.9 2122.3 783.7 2130.2 1063.3 2130.2" fill="none" stroke-width="12"/><use xlink:href="#c8cp95Reft-nGNAbsgg6_pad-18" x="783.7" y="1984.5"/><use xlink:href="#c8cp95Reft-nGNAbsgg6_pad-18" x="754.2" y="1179.4"/><use xlink:href="#c8cp95Reft-nGNAbsgg6_pad-18" x="608.6" y="976.2"/><use xlink:href="#c8cp95Reft-nGNAbsgg6_pad-18" x="600.7" y="943.2"/><use xlink:href="#c8cp95Reft-nGNAbsgg6_pad-18" x="588.9" y="903.8"/><use xlink:href="#c8cp95Reft-nGNAbsgg6_pad-18" x="449.6" y="756.2"/><use xlink:href="#c8cp95Reft-nGNAbsgg6_pad-18" x="402.8" y="732.6"/><use xlink:href="#c8cp95Reft-nGNAbsgg6_pad-18" x="411.7" y="882.2"/><use xlink:href="#c8cp95Reft-nGNAbsgg6_pad-18" x="357.6" y="896.9"/><use xlink:href="#c8cp95Reft-nGNAbsgg6_pad-18" x="476.7" y="1144"/><path d="M 429.4 972.7 429.4 972.2 444.2 958.9" fill="none" stroke-width="5.9"/><path d="M 444.2 958.9 474.7 958.9 480.6 953 480.6 929.4 474.7 923.5 444.2 923.5" fill="none" stroke-width="4.9"/></g></svg>