<svg version="1.1" xmlns="http://www.w3.org/2000/svg" xmlns:xlink="http://www.w3.org/1999/xlink" stroke-linecap="round" stroke-linejoin="round" stroke-width="0" fill-rule="evenodd" width="1.2402in" height="2.1555in" viewBox="18 18 1240.2 2155.5" id="gFZBqKLQ2cA5ZvIsGFDV"><defs><polygon points="44.29991,18.34962 18.34962,44.29991 -18.34962,44.29991 -44.29991,18.34962 -44.29991,-18.34962 -18.34962,-44.29991 18.34962,-44.29991 44.29991,-18.34962" id="gFZBqKLQ2cA5ZvIsGFDV_pad-11"/><rect x="-33.45" y="-33.45" width="66.9" height="66.9" id="gFZBqKLQ2cA5ZvIsGFDV_pad-13"/><rect x="-50.2" y="-19.7" width="100.4" height="39.4" id="gFZBqKLQ2cA5ZvIsGFDV_pad-14"/><circle cx="0" cy="0" r="11.8" id="gFZBqKLQ2cA5ZvIsGFDV_pad-15"/><circle cx="0" cy="0" r="14.75" id="gFZBqKLQ2cA5ZvIsGFDV_pad-16"/></defs><g transform="translate(0,2191.5) scale(1,-1)" fill="currentColor" stroke="currentColor"><path d="M 18 18 18 2173.5 1258.2 2173.5 1258.2 1012.1 943.2 1012.1 943.2 18 18 18" fill="none" stroke-width="0"/><use xlink:href="#gFZBqKLQ2cA5ZvIsGFDV_pad-11" x="248.3" y="127.8"/><use xlink:href="#gFZBqKLQ2cA5ZvIsGFDV_pad-11" x="248.3" y="227.8"/><use xlink:href="#gFZBqKLQ2cA5ZvIsGFDV_pad-11" x="248.3" y="327.8"/><use xlink:href="#gFZBqKLQ2cA5ZvIsGFDV_pad-11" x="248.3" y="427.8"/><use xlink:href="#gFZBqKLQ2cA5ZvIsGFDV_pad-11" x="248.3" y="527.8"/><use xlink:href="#gFZBqKLQ2cA5ZvIsGFDV_pad-11" x="248.3" y="627.8"/><use xlink:href="#gFZBqKLQ2cA5ZvIsGFDV_pad-11" x="248.3" y="727.8"/><use xlink:href="#gFZBqKLQ2cA5ZvIsGFDV_pad-11" x="248.3" y="827.8"/><use xlink:href="#gFZBqKLQ2cA5ZvIsGFDV_pad-11" x="248.3" y="927.8"/><use xlink:href="#gFZBqKLQ2cA5ZvIsGFDV_pad-11" x="248.3" y="1027.8"/><use xlink:href="#gFZBqKLQ2cA5ZvIsGFDV_pad-11" x="248.3" y="1127.8"/><use xlink:href="#gFZBqKLQ2cA5ZvIsGFDV_pad-11" x="248.3" y="1227.8"/><use xlink:href="#gFZBqKLQ2cA5ZvIsGFDV_pad-11" x="248.3" y="1327.8"/><use xlink:href="#gFZBqKLQ2cA5ZvIsGFDV_pad-11" x="248.3" y="1427.8"/><use xlink:href="#gFZBqKLQ2cA5ZvIsGFDV_pad-11" x="248.3" y="1527.8"/><use xlink:href="#gFZBqKLQ2cA5ZvIsGFDV_pad-11" x="248.3" y="1627.8"/><use xlink:href="#gFZBqKLQ2cA5ZvIsGFDV_pad-11" x="248.3" y="1727.8"/><use xlink:href="#gFZBqKLQ2cA5ZvIsGFDV_pad-11" x="248.3" y="1827.8"/><use xlink:href="#gFZBqKLQ2cA5ZvIsGFDV_pad-11" x="248.3" y="1927.8"/><use xlink:href="#gFZBqKLQ2cA5ZvIsGFDV_pad-11" x="248.3" y="2027.8"/><use xlink:href="#gFZBqKLQ2cA5ZvIsGFDV_pad-11" x="848.3" y="2027.8"/><use xlink:href="#gFZBqKLQ2cA5ZvIsGFDV_pad-11" x="848.3" y="1927.8"/><use xlink:href="#gFZBqKLQ2cA5ZvIsGFDV_pad-11" x="848.3" y="1827.8"/><use xlink:href="#gFZBqKLQ2cA5ZvIsGFDV_pad-11" x="848.3" y="1727.8"/><use xlink:href="#gFZBqKLQ2cA5ZvIsGFDV_pad-11" x="848.3" y="1627.8"/><use xlink:href="#gFZBqKLQ2cA5ZvIsGFDV_pad-11" x="848.3" y="1527.8"/><use xlink:href="#gFZBqKLQ2cA5ZvIsGFDV_pad-11" x="848.3" y="1427.8"/><use xlink:href="#gFZBqKLQ2cA5ZvIsGFDV_pad-11" x="848.3" y="1327.8"/><use xlink:href="#gFZBqKLQ2cA5ZvIsGFDV_pad-11" x="848.3" y="1227.8"/><use xlink:href="#gFZBqKLQ2cA5ZvIsGFDV_pad-11" x="848.3" y="1127.8"/><use xlink:href="#gFZBqKLQ2cA5ZvIsGFDV_pad-11" x="848.3" y="1027.8"/><use xlink:href="#gFZBqKLQ2cA5ZvIsGFDV_pad-11" x="848.3" y="927.8"/><use xlink:href="#gFZBqKLQ2cA5ZvIsGFDV_pad-11" x="848.3" y="827.8"/><use xlink:href="#gFZBqKLQ2cA5ZvIsGFDV_pad-11" x="848.3" y="727.8"/><use xlink:href="#gFZBqKLQ2cA5ZvIsGFDV_pad-11" x="848.3" y="627.8"/><use xlink:href="#gFZBqKLQ2cA5ZvIsGFDV_pad-11" x="848.3" y="527.8"/><use xlink:href="#gFZBqKLQ2cA5ZvIsGFDV_pad-11" x="848.3" y="427.8"/><use xlink:href="#gFZBqKLQ2cA5ZvIsGFDV_pad-11" x="848.3" y="327.8"/><use xlink:href="#gFZBqKLQ2cA5ZvIsGFDV_pad-11" x="848.3" y="227.8"/><use xlink:href="#gFZBqKLQ2cA5ZvIsGFDV_pad-11" x="848.3" y="127.8"/><path d="M 742 127.8 694 127.8 M 694 227.8 742 227.8 M 742 327.8 694 327.8 M 694 427.8 742 427.8 M 742 527.8 694 527.8 M 694 627.8 742 627.8 M 742 727.8 694 727.8 M 694 827.8 742 827.8 M 742 927.8 694 927.8 M 694 1027.8 742 1027.8 M 742 1127.8 694 1127.8 M 694 1227.8 742 1227.8 M 742 1327.8 694 1327.8 M 694 1427.8 742 1427.8 M 742 1527.8 694 1527.8 M 694 1627.8 742 1627.8 M 742 1727.8 694 1727.8 M 694 1827.8 742 1827.8 M 742 1927.8 694 1927.8 M 694 2027.8 742 2027.8 M 142 2027.8 94 2027.8 M 94 1927.8 142 1927.8 M 142 1827.8 94 1827.8 M 94 1727.8 142 1727.8 M 142 1627.8 94 1627.8 M 94 1527.8 142 1527.8 M 142 1427.8 94 1427.8 M 94 1327.8 142 1327.8 M 142 1227.8 94 1227.8 M 94 1127.8 142 1127.8 M 142 1027.8 94 1027.8 M 94 927.8 142 927.8 M 142 827.8 94 827.8 M 94 727.8 142 727.8 M 142 627.8 94 627.8 M 94 527.8 142 527.8 M 142 427.8 94 427.8 M 94 327.8 142 327.8 M 142 227.8 94 227.8 M 94 127.8 142 127.8" fill="none" stroke-width="48"/><use xlink:href="#gFZBqKLQ2cA5ZvIsGFDV_pad-13" x="1195.2" y="1606.6"/><use xlink:href="#gFZBqKLQ2cA5ZvIsGFDV_pad-13" x="1195.2" y="1992.4"/><use xlink:href="#gFZBqKLQ2cA5ZvIsGFDV_pad-14" x="1058.4" y="1878.2"/><use xlink:href="#gFZBqKLQ2cA5ZvIsGFDV_pad-14" x="1058.4" y="1799.5"/><use xlink:href="#gFZBqKLQ2cA5ZvIsGFDV_pad-14" x="1058.4" y="1720.8"/><use xlink:href="#gFZBqKLQ2cA5ZvIsGFDV_pad-15" x="1020" y="1675.5"/><use xlink:href="#gFZBqKLQ2cA5ZvIsGFDV_pad-15" x="978.6" y="2077.1"/><use xlink:href="#gFZBqKLQ2cA5ZvIsGFDV_pad-15" x="598.7" y="2057.4"/><use xlink:href="#gFZBqKLQ2cA5ZvIsGFDV_pad-15" x="539.7" y="1754.2"/><use xlink:href="#gFZBqKLQ2cA5ZvIsGFDV_pad-15" x="466.8" y="1608.6"/><use xlink:href="#gFZBqKLQ2cA5ZvIsGFDV_pad-15" x="323.1" y="1185.3"/><use xlink:href="#gFZBqKLQ2cA5ZvIsGFDV_pad-15" x="474.7" y="1051.5"/><use xlink:href="#gFZBqKLQ2cA5ZvIsGFDV_pad-15" x="372.3" y="831"/><use xlink:href="#gFZBqKLQ2cA5ZvIsGFDV_pad-15" x="575.1" y="437.3"/><use xlink:href="#gFZBqKLQ2cA5ZvIsGFDV_pad-15" x="535.7" y="331"/><use xlink:href="#gFZBqKLQ2cA5ZvIsGFDV_pad-15" x="518" y="279.8"/><use xlink:href="#gFZBqKLQ2cA5ZvIsGFDV_pad-15" x="545.6" y="224.7"/><use xlink:href="#gFZBqKLQ2cA5ZvIsGFDV_pad-15" x="500.3" y="208.9"/><use xlink:href="#gFZBqKLQ2cA5ZvIsGFDV_pad-15" x="651.9" y="175.5"/><use xlink:href="#gFZBqKLQ2cA5ZvIsGFDV_pad-15" x="319.2" y="183.4"/><use xlink:href="#gFZBqKLQ2cA5ZvIsGFDV_pad-15" x="624.3" y="817.2"/><use xlink:href="#gFZBqKLQ2cA5ZvIsGFDV_pad-15" x="352.6" y="2057.4"/><use xlink:href="#gFZBqKLQ2cA5ZvIsGFDV_pad-16" x="384.1" y="1775.9"/></g></svg>