<svg version="1.1" xmlns="http://www.w3.org/2000/svg" xmlns:xlink="http://www.w3.org/1999/xlink" stroke-linecap="round" stroke-linejoin="round" stroke-width="0" fill-rule="evenodd" width="1.2402in" height="2.1555in" viewBox="18 18 1240.2 2155.5" id="n2eA5fkYhVKkqc8zGfv6"><defs><circle cx="0" cy="0" r="7.85" id="n2eA5fkYhVKkqc8zGfv6_pad-11"/><rect x="-5.9" y="-19.7" width="11.8" height="39.4" id="n2eA5fkYhVKkqc8zGfv6_pad-12"/><rect x="-14.9" y="-5.75" width="29.8" height="11.5" id="n2eA5fkYhVKkqc8zGfv6_pad-13"/><rect x="-25.6" y="-29.55" width="51.2" height="59.1" id="n2eA5fkYhVKkqc8zGfv6_pad-15"/><rect x="-29.55" y="-39.35" width="59.1" height="78.7" id="n2eA5fkYhVKkqc8zGfv6_pad-16"/><rect x="-23.6" y="-15.75" width="47.2" height="31.5" id="n2eA5fkYhVKkqc8zGfv6_pad-17"/><rect x="-42.3" y="-25.6" width="84.6" height="51.2" id="n2eA5fkYhVKkqc8zGfv6_pad-18"/></defs><g transform="translate(0,2191.5) scale(1,-1)" fill="currentColor" stroke="currentColor"><path d="M 18 18 18 2173.5 1258.2 2173.5 1258.2 1012.1 943.2 1012.1 943.2 18 18 18" fill="none" stroke-width="0"/><use xlink:href="#n2eA5fkYhVKkqc8zGfv6_pad-11" x="380.6" y="923.9"/><use xlink:href="#n2eA5fkYhVKkqc8zGfv6_pad-11" x="380.6" y="955.4"/><use xlink:href="#n2eA5fkYhVKkqc8zGfv6_pad-11" x="412.1" y="955.4"/><use xlink:href="#n2eA5fkYhVKkqc8zGfv6_pad-11" x="412.1" y="923.9"/><use xlink:href="#n2eA5fkYhVKkqc8zGfv6_pad-11" x="443.6" y="923.9"/><use xlink:href="#n2eA5fkYhVKkqc8zGfv6_pad-11" x="443.6" y="955.4"/><use xlink:href="#n2eA5fkYhVKkqc8zGfv6_pad-11" x="443.6" y="986.9"/><use xlink:href="#n2eA5fkYhVKkqc8zGfv6_pad-11" x="443.6" y="1018.4"/><use xlink:href="#n2eA5fkYhVKkqc8zGfv6_pad-11" x="443.6" y="1049.9"/><use xlink:href="#n2eA5fkYhVKkqc8zGfv6_pad-11" x="443.6" y="1081.4"/><use xlink:href="#n2eA5fkYhVKkqc8zGfv6_pad-11" x="443.6" y="1112.9"/><use xlink:href="#n2eA5fkYhVKkqc8zGfv6_pad-11" x="412.1" y="1112.9"/><use xlink:href="#n2eA5fkYhVKkqc8zGfv6_pad-11" x="412.1" y="1081.4"/><use xlink:href="#n2eA5fkYhVKkqc8zGfv6_pad-11" x="380.6" y="1081.4"/><use xlink:href="#n2eA5fkYhVKkqc8zGfv6_pad-11" x="380.6" y="1112.9"/><use xlink:href="#n2eA5fkYhVKkqc8zGfv6_pad-11" x="380.6" y="1049.9"/><use xlink:href="#n2eA5fkYhVKkqc8zGfv6_pad-11" x="380.6" y="1018.4"/><use xlink:href="#n2eA5fkYhVKkqc8zGfv6_pad-11" x="380.6" y="986.9"/><use xlink:href="#n2eA5fkYhVKkqc8zGfv6_pad-11" x="412.1" y="986.9"/><use xlink:href="#n2eA5fkYhVKkqc8zGfv6_pad-11" x="412.1" y="1018.4"/><use xlink:href="#n2eA5fkYhVKkqc8zGfv6_pad-11" x="412.1" y="1049.9"/><use xlink:href="#n2eA5fkYhVKkqc8zGfv6_pad-11" x="475.1" y="1081.4"/><use xlink:href="#n2eA5fkYhVKkqc8zGfv6_pad-11" x="475.1" y="1112.9"/><use xlink:href="#n2eA5fkYhVKkqc8zGfv6_pad-11" x="506.6" y="1112.9"/><use xlink:href="#n2eA5fkYhVKkqc8zGfv6_pad-11" x="506.6" y="1081.4"/><use xlink:href="#n2eA5fkYhVKkqc8zGfv6_pad-11" x="538.1" y="1081.4"/><use xlink:href="#n2eA5fkYhVKkqc8zGfv6_pad-11" x="538.1" y="1112.9"/><use xlink:href="#n2eA5fkYhVKkqc8zGfv6_pad-11" x="569.6" y="1112.9"/><use xlink:href="#n2eA5fkYhVKkqc8zGfv6_pad-11" x="569.6" y="1081.4"/><use xlink:href="#n2eA5fkYhVKkqc8zGfv6_pad-11" x="569.6" y="1049.9"/><use xlink:href="#n2eA5fkYhVKkqc8zGfv6_pad-11" x="569.6" y="1018.4"/><use xlink:href="#n2eA5fkYhVKkqc8zGfv6_pad-11" x="569.6" y="986.9"/><use xlink:href="#n2eA5fkYhVKkqc8zGfv6_pad-11" x="569.6" y="955.4"/><use xlink:href="#n2eA5fkYhVKkqc8zGfv6_pad-11" x="569.6" y="923.9"/><use xlink:href="#n2eA5fkYhVKkqc8zGfv6_pad-11" x="538.1" y="923.9"/><use xlink:href="#n2eA5fkYhVKkqc8zGfv6_pad-11" x="538.1" y="955.4"/><use xlink:href="#n2eA5fkYhVKkqc8zGfv6_pad-11" x="538.1" y="986.9"/><use xlink:href="#n2eA5fkYhVKkqc8zGfv6_pad-11" x="538.1" y="1018.4"/><use xlink:href="#n2eA5fkYhVKkqc8zGfv6_pad-11" x="538.1" y="1049.9"/><use xlink:href="#n2eA5fkYhVKkqc8zGfv6_pad-11" x="506.6" y="1049.9"/><use xlink:href="#n2eA5fkYhVKkqc8zGfv6_pad-11" x="506.6" y="1018.4"/><use xlink:href="#n2eA5fkYhVKkqc8zGfv6_pad-11" x="506.6" y="986.9"/><use xlink:href="#n2eA5fkYhVKkqc8zGfv6_pad-11" x="506.6" y="955.4"/><use xlink:href="#n2eA5fkYhVKkqc8zGfv6_pad-11" x="506.6" y="923.9"/><use xlink:href="#n2eA5fkYhVKkqc8zGfv6_pad-11" x="475.1" y="923.9"/><use xlink:href="#n2eA5fkYhVKkqc8zGfv6_pad-11" x="475.1" y="955.4"/><use xlink:href="#n2eA5fkYhVKkqc8zGfv6_pad-11" x="475.1" y="986.9"/><use xlink:href="#n2eA5fkYhVKkqc8zGfv6_pad-11" x="475.1" y="1018.4"/><use xlink:href="#n2eA5fkYhVKkqc8zGfv6_pad-12" x="467.8" y="644.4"/><use xlink:href="#n2eA5fkYhVKkqc8zGfv6_pad-12" x="446.1" y="644.4"/><use xlink:href="#n2eA5fkYhVKkqc8zGfv6_pad-12" x="424.5" y="644.4"/><use xlink:href="#n2eA5fkYhVKkqc8zGfv6_pad-12" x="402.8" y="644.4"/><use xlink:href="#n2eA5fkYhVKkqc8zGfv6_pad-12" x="381.2" y="644.4"/><use xlink:href="#n2eA5fkYhVKkqc8zGfv6_pad-12" x="359.5" y="644.4"/><use xlink:href="#n2eA5fkYhVKkqc8zGfv6_pad-12" x="337.9" y="644.4"/><use xlink:href="#n2eA5fkYhVKkqc8zGfv6_pad-12" x="489.5" y="644.4"/><use xlink:href="#n2eA5fkYhVKkqc8zGfv6_pad-12" x="511.1" y="644.4"/><use xlink:href="#n2eA5fkYhVKkqc8zGfv6_pad-12" x="532.8" y="644.4"/><use xlink:href="#n2eA5fkYhVKkqc8zGfv6_pad-12" x="554.4" y="644.4"/><use xlink:href="#n2eA5fkYhVKkqc8zGfv6_pad-12" x="576.1" y="644.4"/><use xlink:href="#n2eA5fkYhVKkqc8zGfv6_pad-12" x="597.7" y="644.4"/><use xlink:href="#n2eA5fkYhVKkqc8zGfv6_pad-12" x="619.4" y="644.4"/><use xlink:href="#n2eA5fkYhVKkqc8zGfv6_pad-12" x="619.4" y="132.6"/><use xlink:href="#n2eA5fkYhVKkqc8zGfv6_pad-12" x="597.7" y="132.6"/><use xlink:href="#n2eA5fkYhVKkqc8zGfv6_pad-12" x="576.1" y="132.6"/><use xlink:href="#n2eA5fkYhVKkqc8zGfv6_pad-12" x="554.4" y="132.6"/><use xlink:href="#n2eA5fkYhVKkqc8zGfv6_pad-12" x="532.8" y="132.6"/><use xlink:href="#n2eA5fkYhVKkqc8zGfv6_pad-12" x="511.1" y="132.6"/><use xlink:href="#n2eA5fkYhVKkqc8zGfv6_pad-12" x="489.5" y="132.6"/><use xlink:href="#n2eA5fkYhVKkqc8zGfv6_pad-12" x="467.8" y="132.6"/><use xlink:href="#n2eA5fkYhVKkqc8zGfv6_pad-12" x="446.1" y="132.6"/><use xlink:href="#n2eA5fkYhVKkqc8zGfv6_pad-12" x="424.5" y="132.6"/><use xlink:href="#n2eA5fkYhVKkqc8zGfv6_pad-12" x="402.8" y="132.6"/><use xlink:href="#n2eA5fkYhVKkqc8zGfv6_pad-12" x="381.2" y="132.6"/><use xlink:href="#n2eA5fkYhVKkqc8zGfv6_pad-12" x="359.5" y="132.6"/><use xlink:href="#n2eA5fkYhVKkqc8zGfv6_pad-12" x="337.9" y="132.6"/><use xlink:href="#n2eA5fkYhVKkqc8zGfv6_pad-13" x="426" y="1659.3"/><use xlink:href="#n2eA5fkYhVKkqc8zGfv6_pad-13" x="426" y="1684.9"/><use xlink:href="#n2eA5fkYhVKkqc8zGfv6_pad-13" x="426" y="1710.5"/><use xlink:href="#n2eA5fkYhVKkqc8zGfv6_pad-13" x="510.8" y="1710.5"/><use xlink:href="#n2eA5fkYhVKkqc8zGfv6_pad-13" x="510.8" y="1684.9"/><use xlink:href="#n2eA5fkYhVKkqc8zGfv6_pad-13" x="510.8" y="1659.3"/><path d="M 480.5 1661 480.5 1708.9 456.3 1708.9 456.3 1661 480.5 1661 M 480.5 1661.1 456.3 1661.1 M 456.3 1661.9 480.5 1661.9 M 480.5 1662.8 456.3 1662.8 M 456.3 1663.6 480.5 1663.6 M 480.5 1664.5 456.3 1664.5 M 456.3 1665.3 480.5 1665.3 M 480.5 1666.2 456.3 1666.2 M 456.3 1667 480.5 1667 M 480.5 1667.9 456.3 1667.9 M 456.3 1668.7 480.5 1668.7 M 480.5 1669.6 456.3 1669.6 M 456.3 1670.4 480.5 1670.4 M 480.5 1671.3 456.3 1671.3 M 456.3 1672.1 480.5 1672.1 M 480.5 1673 456.3 1673 M 456.3 1673.8 480.5 1673.8 M 480.5 1674.7 456.3 1674.7 M 456.3 1675.5 480.5 1675.5 M 480.5 1676.4 456.3 1676.4 M 456.3 1677.2 480.5 1677.2 M 480.5 1678.1 456.3 1678.1 M 456.3 1678.9 480.5 1678.9 M 480.5 1679.8 456.3 1679.8 M 456.3 1680.6 480.5 1680.6 M 480.5 1681.5 456.3 1681.5 M 456.3 1682.3 480.5 1682.3 M 480.5 1683.2 456.3 1683.2 M 456.3 1684 480.5 1684 M 480.5 1684.9 456.3 1684.9 M 456.3 1685.7 480.5 1685.7 M 480.5 1686.6 456.3 1686.6 M 456.3 1687.4 480.5 1687.4 M 480.5 1688.3 456.3 1688.3 M 456.3 1689.1 480.5 1689.1 M 480.5 1690 456.3 1690 M 456.3 1690.8 480.5 1690.8 M 480.5 1691.7 456.3 1691.7 M 456.3 1692.5 480.5 1692.5 M 480.5 1693.4 456.3 1693.4 M 456.3 1694.2 480.5 1694.2 M 480.5 1695.1 456.3 1695.1 M 456.3 1695.9 480.5 1695.9 M 480.5 1696.8 456.3 1696.8 M 456.3 1697.6 480.5 1697.6 M 480.5 1698.5 456.3 1698.5 M 456.3 1699.3 480.5 1699.3 M 480.5 1700.2 456.3 1700.2 M 456.3 1701 480.5 1701 M 480.5 1701.9 456.3 1701.9 M 456.3 1702.7 480.5 1702.7 M 480.5 1703.6 456.3 1703.6 M 456.3 1704.4 480.5 1704.4 M 480.5 1705.3 456.3 1705.3 M 456.3 1706.1 480.5 1706.1 M 480.5 1707 456.3 1707 M 456.3 1707.8 480.5 1707.8 M 480.5 1708.7 456.3 1708.7" fill="none" stroke-width="1"/><use xlink:href="#n2eA5fkYhVKkqc8zGfv6_pad-15" x="986.1" y="1614.1"/><use xlink:href="#n2eA5fkYhVKkqc8zGfv6_pad-15" x="1053" y="1614.1"/><use xlink:href="#n2eA5fkYhVKkqc8zGfv6_pad-16" x="527.4" y="1394.8"/><use xlink:href="#n2eA5fkYhVKkqc8zGfv6_pad-16" x="525.1" y="1535.7"/><use xlink:href="#n2eA5fkYhVKkqc8zGfv6_pad-16" x="407" y="1535.7"/><use xlink:href="#n2eA5fkYhVKkqc8zGfv6_pad-16" x="409.3" y="1394.8"/><use xlink:href="#n2eA5fkYhVKkqc8zGfv6_pad-16" x="414.9" y="1846.3"/><use xlink:href="#n2eA5fkYhVKkqc8zGfv6_pad-16" x="414.1" y="1971.5"/><use xlink:href="#n2eA5fkYhVKkqc8zGfv6_pad-16" x="532.2" y="1971.5"/><use xlink:href="#n2eA5fkYhVKkqc8zGfv6_pad-16" x="533" y="1846.3"/><use xlink:href="#n2eA5fkYhVKkqc8zGfv6_pad-17" x="1090.8" y="1894"/><use xlink:href="#n2eA5fkYhVKkqc8zGfv6_pad-17" x="1090.8" y="1943.2"/><use xlink:href="#n2eA5fkYhVKkqc8zGfv6_pad-17" x="1090.8" y="1441.2"/><use xlink:href="#n2eA5fkYhVKkqc8zGfv6_pad-17" x="1090.8" y="1392"/><use xlink:href="#n2eA5fkYhVKkqc8zGfv6_pad-17" x="1090.8" y="1342.8"/><use xlink:href="#n2eA5fkYhVKkqc8zGfv6_pad-17" x="1090.8" y="1293.6"/><use xlink:href="#n2eA5fkYhVKkqc8zGfv6_pad-17" x="1090.8" y="1244.4"/><use xlink:href="#n2eA5fkYhVKkqc8zGfv6_pad-17" x="1090.8" y="1195.2"/><use xlink:href="#n2eA5fkYhVKkqc8zGfv6_pad-18" x="1181.2" y="1120.4"/><use xlink:href="#n2eA5fkYhVKkqc8zGfv6_pad-18" x="1181.2" y="1516"/><use xlink:href="#n2eA5fkYhVKkqc8zGfv6_pad-18" x="1181.2" y="1819.2"/><use xlink:href="#n2eA5fkYhVKkqc8zGfv6_pad-18" x="1181.2" y="2018"/></g></svg>