<svg version="1.1" xmlns="http://www.w3.org/2000/svg" xmlns:xlink="http://www.w3.org/1999/xlink" stroke-linecap="round" stroke-linejoin="round" stroke-width="0" fill-rule="evenodd" width="1.2402in" height="2.1555in" viewBox="18 18 1240.2 2155.5" id="xBIVVwt-Ebzc1msuMwhW"><defs><polygon points="44.29991,18.34962 18.34962,44.29991 -18.34962,44.29991 -44.29991,18.34962 -44.29991,-18.34962 -18.34962,-44.29991 18.34962,-44.29991 44.29991,-18.34962" id="xBIVVwt-Ebzc1msuMwhW_pad-11"/><circle cx="0" cy="0" r="7.85" id="xBIVVwt-Ebzc1msuMwhW_pad-13"/><rect x="-6.9" y="-20.65" width="13.8" height="41.3" id="xBIVVwt-Ebzc1msuMwhW_pad-14"/><rect x="-14.9" y="-5.75" width="29.8" height="11.5" id="xBIVVwt-Ebzc1msuMwhW_pad-15"/><rect x="-21.65" y="-33.45" width="43.3" height="66.9" id="xBIVVwt-Ebzc1msuMwhW_pad-16"/><rect x="-25.6" y="-29.55" width="51.2" height="59.1" id="xBIVVwt-Ebzc1msuMwhW_pad-17"/><rect x="-29.55" y="-39.35" width="59.1" height="78.7" id="xBIVVwt-Ebzc1msuMwhW_pad-18"/><rect x="-23.6" y="-15.75" width="47.2" height="31.5" id="xBIVVwt-Ebzc1msuMwhW_pad-19"/><rect x="-42.3" y="-25.6" width="84.6" height="51.2" id="xBIVVwt-Ebzc1msuMwhW_pad-20"/><circle cx="0" cy="0" r="11.8" id="xBIVVwt-Ebzc1msuMwhW_pad-21"/><circle cx="0" cy="0" r="14.75" id="xBIVVwt-Ebzc1msuMwhW_pad-22"/></defs><g transform="translate(0,2191.5) scale(1,-1)" fill="currentColor" stroke="currentColor"><path d="M 18 18 18 2173.5 1258.2 2173.5 1258.2 1012.1 943.2 1012.1 943.2 18 18 18" fill="none" stroke-width="0"/><use xlink:href="#xBIVVwt-Ebzc1msuMwhW_pad-11" x="248.3" y="127.8"/><use xlink:href="#xBIVVwt-Ebzc1msuMwhW_pad-11" x="248.3" y="227.8"/><use xlink:href="#xBIVVwt-Ebzc1msuMwhW_pad-11" x="248.3" y="327.8"/><use xlink:href="#xBIVVwt-Ebzc1msuMwhW_pad-11" x="248.3" y="427.8"/><use xlink:href="#xBIVVwt-Ebzc1msuMwhW_pad-11" x="248.3" y="527.8"/><use xlink:href="#xBIVVwt-Ebzc1msuMwhW_pad-11" x="248.3" y="627.8"/><use xlink:href="#xBIVVwt-Ebzc1msuMwhW_pad-11" x="248.3" y="727.8"/><use xlink:href="#xBIVVwt-Ebzc1msuMwhW_pad-11" x="248.3" y="827.8"/><use xlink:href="#xBIVVwt-Ebzc1msuMwhW_pad-11" x="248.3" y="927.8"/><use xlink:href="#xBIVVwt-Ebzc1msuMwhW_pad-11" x="248.3" y="1027.8"/><use xlink:href="#xBIVVwt-Ebzc1msuMwhW_pad-11" x="248.3" y="1127.8"/><use xlink:href="#xBIVVwt-Ebzc1msuMwhW_pad-11" x="248.3" y="1227.8"/><use xlink:href="#xBIVVwt-Ebzc1msuMwhW_pad-11" x="248.3" y="1327.8"/><use xlink:href="#xBIVVwt-Ebzc1msuMwhW_pad-11" x="248.3" y="1427.8"/><use xlink:href="#xBIVVwt-Ebzc1msuMwhW_pad-11" x="248.3" y="1527.8"/><use xlink:href="#xBIVVwt-Ebzc1msuMwhW_pad-11" x="248.3" y="1627.8"/><use xlink:href="#xBIVVwt-Ebzc1msuMwhW_pad-11" x="248.3" y="1727.8"/><use xlink:href="#xBIVVwt-Ebzc1msuMwhW_pad-11" x="248.3" y="1827.8"/><use xlink:href="#xBIVVwt-Ebzc1msuMwhW_pad-11" x="248.3" y="1927.8"/><use xlink:href="#xBIVVwt-Ebzc1msuMwhW_pad-11" x="248.3" y="2027.8"/><use xlink:href="#xBIVVwt-Ebzc1msuMwhW_pad-11" x="848.3" y="2027.8"/><use xlink:href="#xBIVVwt-Ebzc1msuMwhW_pad-11" x="848.3" y="1927.8"/><use xlink:href="#xBIVVwt-Ebzc1msuMwhW_pad-11" x="848.3" y="1827.8"/><use xlink:href="#xBIVVwt-Ebzc1msuMwhW_pad-11" x="848.3" y="1727.8"/><use xlink:href="#xBIVVwt-Ebzc1msuMwhW_pad-11" x="848.3" y="1627.8"/><use xlink:href="#xBIVVwt-Ebzc1msuMwhW_pad-11" x="848.3" y="1527.8"/><use xlink:href="#xBIVVwt-Ebzc1msuMwhW_pad-11" x="848.3" y="1427.8"/><use xlink:href="#xBIVVwt-Ebzc1msuMwhW_pad-11" x="848.3" y="1327.8"/><use xlink:href="#xBIVVwt-Ebzc1msuMwhW_pad-11" x="848.3" y="1227.8"/><use xlink:href="#xBIVVwt-Ebzc1msuMwhW_pad-11" x="848.3" y="1127.8"/><use xlink:href="#xBIVVwt-Ebzc1msuMwhW_pad-11" x="848.3" y="1027.8"/><use xlink:href="#xBIVVwt-Ebzc1msuMwhW_pad-11" x="848.3" y="927.8"/><use xlink:href="#xBIVVwt-Ebzc1msuMwhW_pad-11" x="848.3" y="827.8"/><use xlink:href="#xBIVVwt-Ebzc1msuMwhW_pad-11" x="848.3" y="727.8"/><use xlink:href="#xBIVVwt-Ebzc1msuMwhW_pad-11" x="848.3" y="627.8"/><use xlink:href="#xBIVVwt-Ebzc1msuMwhW_pad-11" x="848.3" y="527.8"/><use xlink:href="#xBIVVwt-Ebzc1msuMwhW_pad-11" x="848.3" y="427.8"/><use xlink:href="#xBIVVwt-Ebzc1msuMwhW_pad-11" x="848.3" y="327.8"/><use xlink:href="#xBIVVwt-Ebzc1msuMwhW_pad-11" x="848.3" y="227.8"/><use xlink:href="#xBIVVwt-Ebzc1msuMwhW_pad-11" x="848.3" y="127.8"/><path d="M 742 127.8 694 127.8 M 694 227.8 742 227.8 M 742 327.8 694 327.8 M 694 427.8 742 427.8 M 742 527.8 694 527.8 M 694 627.8 742 627.8 M 742 727.8 694 727.8 M 694 827.8 742 827.8 M 742 927.8 694 927.8 M 694 1027.8 742 1027.8 M 742 1127.8 694 1127.8 M 694 1227.8 742 1227.8 M 742 1327.8 694 1327.8 M 694 1427.8 742 1427.8 M 742 1527.8 694 1527.8 M 694 1627.8 742 1627.8 M 742 1727.8 694 1727.8 M 694 1827.8 742 1827.8 M 742 1927.8 694 1927.8 M 694 2027.8 742 2027.8 M 142 2027.8 94 2027.8 M 94 1927.8 142 1927.8 M 142 1827.8 94 1827.8 M 94 1727.8 142 1727.8 M 142 1627.8 94 1627.8 M 94 1527.8 142 1527.8 M 142 1427.8 94 1427.8 M 94 1327.8 142 1327.8 M 142 1227.8 94 1227.8 M 94 1127.8 142 1127.8 M 142 1027.8 94 1027.8 M 94 927.8 142 927.8 M 142 827.8 94 827.8 M 94 727.8 142 727.8 M 142 627.8 94 627.8 M 94 527.8 142 527.8 M 142 427.8 94 427.8 M 94 327.8 142 327.8 M 142 227.8 94 227.8 M 94 127.8 142 127.8" fill="none" stroke-width="48"/><use xlink:href="#xBIVVwt-Ebzc1msuMwhW_pad-13" x="380.6" y="923.9"/><use xlink:href="#xBIVVwt-Ebzc1msuMwhW_pad-13" x="380.6" y="955.4"/><use xlink:href="#xBIVVwt-Ebzc1msuMwhW_pad-13" x="412.1" y="955.4"/><use xlink:href="#xBIVVwt-Ebzc1msuMwhW_pad-13" x="412.1" y="923.9"/><use xlink:href="#xBIVVwt-Ebzc1msuMwhW_pad-13" x="443.6" y="923.9"/><use xlink:href="#xBIVVwt-Ebzc1msuMwhW_pad-13" x="443.6" y="955.4"/><use xlink:href="#xBIVVwt-Ebzc1msuMwhW_pad-13" x="443.6" y="986.9"/><use xlink:href="#xBIVVwt-Ebzc1msuMwhW_pad-13" x="443.6" y="1018.4"/><use xlink:href="#xBIVVwt-Ebzc1msuMwhW_pad-13" x="443.6" y="1049.9"/><use xlink:href="#xBIVVwt-Ebzc1msuMwhW_pad-13" x="443.6" y="1081.4"/><use xlink:href="#xBIVVwt-Ebzc1msuMwhW_pad-13" x="443.6" y="1112.9"/><use xlink:href="#xBIVVwt-Ebzc1msuMwhW_pad-13" x="412.1" y="1112.9"/><use xlink:href="#xBIVVwt-Ebzc1msuMwhW_pad-13" x="412.1" y="1081.4"/><use xlink:href="#xBIVVwt-Ebzc1msuMwhW_pad-13" x="380.6" y="1081.4"/><use xlink:href="#xBIVVwt-Ebzc1msuMwhW_pad-13" x="380.6" y="1112.9"/><use xlink:href="#xBIVVwt-Ebzc1msuMwhW_pad-13" x="380.6" y="1049.9"/><use xlink:href="#xBIVVwt-Ebzc1msuMwhW_pad-13" x="380.6" y="1018.4"/><use xlink:href="#xBIVVwt-Ebzc1msuMwhW_pad-13" x="380.6" y="986.9"/><use xlink:href="#xBIVVwt-Ebzc1msuMwhW_pad-13" x="412.1" y="986.9"/><use xlink:href="#xBIVVwt-Ebzc1msuMwhW_pad-13" x="412.1" y="1018.4"/><use xlink:href="#xBIVVwt-Ebzc1msuMwhW_pad-13" x="412.1" y="1049.9"/><use xlink:href="#xBIVVwt-Ebzc1msuMwhW_pad-13" x="475.1" y="1081.4"/><use xlink:href="#xBIVVwt-Ebzc1msuMwhW_pad-13" x="475.1" y="1112.9"/><use xlink:href="#xBIVVwt-Ebzc1msuMwhW_pad-13" x="506.6" y="1112.9"/><use xlink:href="#xBIVVwt-Ebzc1msuMwhW_pad-13" x="506.6" y="1081.4"/><use xlink:href="#xBIVVwt-Ebzc1msuMwhW_pad-13" x="538.1" y="1081.4"/><use xlink:href="#xBIVVwt-Ebzc1msuMwhW_pad-13" x="538.1" y="1112.9"/><use xlink:href="#xBIVVwt-Ebzc1msuMwhW_pad-13" x="569.6" y="1112.9"/><use xlink:href="#xBIVVwt-Ebzc1msuMwhW_pad-13" x="569.6" y="1081.4"/><use xlink:href="#xBIVVwt-Ebzc1msuMwhW_pad-13" x="569.6" y="1049.9"/><use xlink:href="#xBIVVwt-Ebzc1msuMwhW_pad-13" x="569.6" y="1018.4"/><use xlink:href="#xBIVVwt-Ebzc1msuMwhW_pad-13" x="569.6" y="986.9"/><use xlink:href="#xBIVVwt-Ebzc1msuMwhW_pad-13" x="569.6" y="955.4"/><use xlink:href="#xBIVVwt-Ebzc1msuMwhW_pad-13" x="569.6" y="923.9"/><use xlink:href="#xBIVVwt-Ebzc1msuMwhW_pad-13" x="538.1" y="923.9"/><use xlink:href="#xBIVVwt-Ebzc1msuMwhW_pad-13" x="538.1" y="955.4"/><use xlink:href="#xBIVVwt-Ebzc1msuMwhW_pad-13" x="538.1" y="986.9"/><use xlink:href="#xBIVVwt-Ebzc1msuMwhW_pad-13" x="538.1" y="1018.4"/><use xlink:href="#xBIVVwt-Ebzc1msuMwhW_pad-13" x="538.1" y="1049.9"/><use xlink:href="#xBIVVwt-Ebzc1msuMwhW_pad-13" x="506.6" y="1049.9"/><use xlink:href="#xBIVVwt-Ebzc1msuMwhW_pad-13" x="506.6" y="1018.4"/><use xlink:href="#xBIVVwt-Ebzc1msuMwhW_pad-13" x="506.6" y="986.9"/><use xlink:href="#xBIVVwt-Ebzc1msuMwhW_pad-13" x="506.6" y="955.4"/><use xlink:href="#xBIVVwt-Ebzc1msuMwhW_pad-13" x="506.6" y="923.9"/><use xlink:href="#xBIVVwt-Ebzc1msuMwhW_pad-13" x="475.1" y="923.9"/><use xlink:href="#xBIVVwt-Ebzc1msuMwhW_pad-13" x="475.1" y="955.4"/><use xlink:href="#xBIVVwt-Ebzc1msuMwhW_pad-13" x="475.1" y="986.9"/><use xlink:href="#xBIVVwt-Ebzc1msuMwhW_pad-13" x="475.1" y="1018.4"/><use xlink:href="#xBIVVwt-Ebzc1msuMwhW_pad-14" x="467.8" y="644.4"/><use xlink:href="#xBIVVwt-Ebzc1msuMwhW_pad-14" x="446.1" y="644.4"/><use xlink:href="#xBIVVwt-Ebzc1msuMwhW_pad-14" x="424.5" y="644.4"/><use xlink:href="#xBIVVwt-Ebzc1msuMwhW_pad-14" x="402.8" y="644.4"/><use xlink:href="#xBIVVwt-Ebzc1msuMwhW_pad-14" x="381.2" y="644.4"/><use xlink:href="#xBIVVwt-Ebzc1msuMwhW_pad-14" x="359.5" y="644.4"/><use xlink:href="#xBIVVwt-Ebzc1msuMwhW_pad-14" x="337.9" y="644.4"/><use xlink:href="#xBIVVwt-Ebzc1msuMwhW_pad-14" x="489.5" y="644.4"/><use xlink:href="#xBIVVwt-Ebzc1msuMwhW_pad-14" x="511.1" y="644.4"/><use xlink:href="#xBIVVwt-Ebzc1msuMwhW_pad-14" x="532.8" y="644.4"/><use xlink:href="#xBIVVwt-Ebzc1msuMwhW_pad-14" x="554.4" y="644.4"/><use xlink:href="#xBIVVwt-Ebzc1msuMwhW_pad-14" x="576.1" y="644.4"/><use xlink:href="#xBIVVwt-Ebzc1msuMwhW_pad-14" x="597.7" y="644.4"/><use xlink:href="#xBIVVwt-Ebzc1msuMwhW_pad-14" x="619.4" y="644.4"/><use xlink:href="#xBIVVwt-Ebzc1msuMwhW_pad-14" x="619.4" y="132.6"/><use xlink:href="#xBIVVwt-Ebzc1msuMwhW_pad-14" x="597.7" y="132.6"/><use xlink:href="#xBIVVwt-Ebzc1msuMwhW_pad-14" x="576.1" y="132.6"/><use xlink:href="#xBIVVwt-Ebzc1msuMwhW_pad-14" x="554.4" y="132.6"/><use xlink:href="#xBIVVwt-Ebzc1msuMwhW_pad-14" x="532.8" y="132.6"/><use xlink:href="#xBIVVwt-Ebzc1msuMwhW_pad-14" x="511.1" y="132.6"/><use xlink:href="#xBIVVwt-Ebzc1msuMwhW_pad-14" x="489.5" y="132.6"/><use xlink:href="#xBIVVwt-Ebzc1msuMwhW_pad-14" x="467.8" y="132.6"/><use xlink:href="#xBIVVwt-Ebzc1msuMwhW_pad-14" x="446.1" y="132.6"/><use xlink:href="#xBIVVwt-Ebzc1msuMwhW_pad-14" x="424.5" y="132.6"/><use xlink:href="#xBIVVwt-Ebzc1msuMwhW_pad-14" x="402.8" y="132.6"/><use xlink:href="#xBIVVwt-Ebzc1msuMwhW_pad-14" x="381.2" y="132.6"/><use xlink:href="#xBIVVwt-Ebzc1msuMwhW_pad-14" x="359.5" y="132.6"/><use xlink:href="#xBIVVwt-Ebzc1msuMwhW_pad-14" x="337.9" y="132.6"/><use xlink:href="#xBIVVwt-Ebzc1msuMwhW_pad-15" x="426" y="1659.3"/><use xlink:href="#xBIVVwt-Ebzc1msuMwhW_pad-15" x="426" y="1684.9"/><use xlink:href="#xBIVVwt-Ebzc1msuMwhW_pad-15" x="426" y="1710.5"/><use xlink:href="#xBIVVwt-Ebzc1msuMwhW_pad-15" x="510.8" y="1710.5"/><use xlink:href="#xBIVVwt-Ebzc1msuMwhW_pad-15" x="510.8" y="1684.9"/><use xlink:href="#xBIVVwt-Ebzc1msuMwhW_pad-15" x="510.8" y="1659.3"/><use xlink:href="#xBIVVwt-Ebzc1msuMwhW_pad-16" x="468.4" y="1684.9"/><use xlink:href="#xBIVVwt-Ebzc1msuMwhW_pad-17" x="986.1" y="1614.1"/><use xlink:href="#xBIVVwt-Ebzc1msuMwhW_pad-17" x="1053" y="1614.1"/><use xlink:href="#xBIVVwt-Ebzc1msuMwhW_pad-18" x="527.4" y="1394.8"/><use xlink:href="#xBIVVwt-Ebzc1msuMwhW_pad-18" x="525.1" y="1535.7"/><use xlink:href="#xBIVVwt-Ebzc1msuMwhW_pad-18" x="407" y="1535.7"/><use xlink:href="#xBIVVwt-Ebzc1msuMwhW_pad-18" x="409.3" y="1394.8"/><use xlink:href="#xBIVVwt-Ebzc1msuMwhW_pad-18" x="414.9" y="1846.3"/><use xlink:href="#xBIVVwt-Ebzc1msuMwhW_pad-18" x="414.1" y="1971.5"/><use xlink:href="#xBIVVwt-Ebzc1msuMwhW_pad-18" x="532.2" y="1971.5"/><use xlink:href="#xBIVVwt-Ebzc1msuMwhW_pad-18" x="533" y="1846.3"/><use xlink:href="#xBIVVwt-Ebzc1msuMwhW_pad-19" x="1090.8" y="1894"/><use xlink:href="#xBIVVwt-Ebzc1msuMwhW_pad-19" x="1090.8" y="1943.2"/><use xlink:href="#xBIVVwt-Ebzc1msuMwhW_pad-19" x="1090.8" y="1441.2"/><use xlink:href="#xBIVVwt-Ebzc1msuMwhW_pad-19" x="1090.8" y="1392"/><use xlink:href="#xBIVVwt-Ebzc1msuMwhW_pad-19" x="1090.8" y="1342.8"/><use xlink:href="#xBIVVwt-Ebzc1msuMwhW_pad-19" x="1090.8" y="1293.6"/><use xlink:href="#xBIVVwt-Ebzc1msuMwhW_pad-19" x="1090.8" y="1244.4"/><use xlink:href="#xBIVVwt-Ebzc1msuMwhW_pad-19" x="1090.8" y="1195.2"/><use xlink:href="#xBIVVwt-Ebzc1msuMwhW_pad-20" x="1181.2" y="1120.4"/><use xlink:href="#xBIVVwt-Ebzc1msuMwhW_pad-20" x="1181.2" y="1516"/><use xlink:href="#xBIVVwt-Ebzc1msuMwhW_pad-20" x="1181.2" y="1819.2"/><use xlink:href="#xBIVVwt-Ebzc1msuMwhW_pad-20" x="1181.2" y="2018"/><use xlink:href="#xBIVVwt-Ebzc1msuMwhW_pad-21" x="978.6" y="2077.1"/><use xlink:href="#xBIVVwt-Ebzc1msuMwhW_pad-21" x="1020" y="1675.5"/><use xlink:href="#xBIVVwt-Ebzc1msuMwhW_pad-21" x="598.7" y="2057.4"/><use xlink:href="#xBIVVwt-Ebzc1msuMwhW_pad-21" x="539.7" y="1754.2"/><use xlink:href="#xBIVVwt-Ebzc1msuMwhW_pad-21" x="466.8" y="1608.6"/><use xlink:href="#xBIVVwt-Ebzc1msuMwhW_pad-21" x="323.1" y="1185.3"/><use xlink:href="#xBIVVwt-Ebzc1msuMwhW_pad-21" x="474.7" y="1051.5"/><use xlink:href="#xBIVVwt-Ebzc1msuMwhW_pad-21" x="372.3" y="831"/><use xlink:href="#xBIVVwt-Ebzc1msuMwhW_pad-21" x="575.1" y="437.3"/><use xlink:href="#xBIVVwt-Ebzc1msuMwhW_pad-21" x="535.7" y="331"/><use xlink:href="#xBIVVwt-Ebzc1msuMwhW_pad-21" x="518" y="279.8"/><use xlink:href="#xBIVVwt-Ebzc1msuMwhW_pad-21" x="545.6" y="224.7"/><use xlink:href="#xBIVVwt-Ebzc1msuMwhW_pad-21" x="500.3" y="208.9"/><use xlink:href="#xBIVVwt-Ebzc1msuMwhW_pad-21" x="651.9" y="175.5"/><use xlink:href="#xBIVVwt-Ebzc1msuMwhW_pad-21" x="319.2" y="183.4"/><use xlink:href="#xBIVVwt-Ebzc1msuMwhW_pad-21" x="624.3" y="817.2"/><use xlink:href="#xBIVVwt-Ebzc1msuMwhW_pad-21" x="352.6" y="2057.4"/><use xlink:href="#xBIVVwt-Ebzc1msuMwhW_pad-22" x="384.1" y="1775.9"/></g></svg>