G75*
G70*
%OFA0B0*%
%FSLAX24Y24*%
%IPPOS*%
%LPD*%
%AMOC8*
5,1,8,0,0,1.08239X$1,22.5*
%
%ADD10C,0.0000*%
%ADD11C,0.0886*%
%ADD12C,0.0480*%
%ADD13C,0.0236*%
%ADD14C,0.0177*%
%ADD15C,0.0160*%
%ADD16C,0.0295*%
%ADD17C,0.0120*%
%ADD18C,0.0197*%
%ADD19C,0.0059*%
%ADD20C,0.0049*%
D10*
X000180Y000180D02*
X000180Y021735D01*
X012582Y021735D01*
X012582Y010121D01*
X009432Y010121D01*
X009432Y000180D01*
X000180Y000180D01*
D11*
X002483Y001278D03*
X002483Y002278D03*
X002483Y003278D03*
X002483Y004278D03*
X002483Y005278D03*
X002483Y006278D03*
X002483Y007278D03*
X002483Y008278D03*
X002483Y009278D03*
X002483Y010278D03*
X002483Y011278D03*
X002483Y012278D03*
X002483Y013278D03*
X002483Y014278D03*
X002483Y015278D03*
X002483Y016278D03*
X002483Y017278D03*
X002483Y018278D03*
X002483Y019278D03*
X002483Y020278D03*
X008483Y020278D03*
X008483Y019278D03*
X008483Y018278D03*
X008483Y017278D03*
X008483Y016278D03*
X008483Y015278D03*
X008483Y014278D03*
X008483Y013278D03*
X008483Y012278D03*
X008483Y011278D03*
X008483Y010278D03*
X008483Y009278D03*
X008483Y008278D03*
X008483Y007278D03*
X008483Y006278D03*
X008483Y005278D03*
X008483Y004278D03*
X008483Y003278D03*
X008483Y002278D03*
X008483Y001278D03*
D12*
X007180Y001278D03*
X007180Y002278D03*
X007180Y003278D03*
X007180Y004278D03*
X007180Y005278D03*
X007180Y006278D03*
X007180Y007278D03*
X007180Y008278D03*
X007180Y009278D03*
X007180Y010278D03*
X007180Y011278D03*
X007180Y012278D03*
X007180Y013278D03*
X007180Y014278D03*
X007180Y015278D03*
X007180Y016278D03*
X007180Y017278D03*
X007180Y018278D03*
X007180Y019278D03*
X007180Y020278D03*
X001180Y020278D03*
X001180Y019278D03*
X001180Y018278D03*
X001180Y017278D03*
X001180Y016278D03*
X001180Y015278D03*
X001180Y014278D03*
X001180Y013278D03*
X001180Y012278D03*
X001180Y011278D03*
X001180Y010278D03*
X001180Y009278D03*
X001180Y008278D03*
X001180Y007278D03*
X001180Y006278D03*
X001180Y005278D03*
X001180Y004278D03*
X001180Y003278D03*
X001180Y002278D03*
X001180Y001278D03*
D13*
X003192Y001834D03*
X005003Y002089D03*
X005180Y002798D03*
X005456Y002247D03*
X005357Y003310D03*
X005908Y004294D03*
X006519Y001755D03*
X006243Y008172D03*
X004747Y010515D03*
X003723Y008310D03*
X003231Y011853D03*
X004668Y016086D03*
X005397Y017542D03*
X005987Y020574D03*
X003526Y020574D03*
X009786Y020771D03*
X010200Y016755D03*
D14*
X011696Y013428D03*
X011696Y012936D03*
X011696Y012444D03*
X011696Y011952D03*
X007582Y010810D03*
X006361Y009156D03*
X005889Y008290D03*
X005224Y009393D03*
X005219Y009708D03*
X005219Y010023D03*
X005534Y010027D03*
X005219Y010652D03*
X005224Y010967D03*
X005574Y011361D03*
X005967Y011538D03*
X006007Y011263D03*
X006046Y010298D03*
X005042Y012188D03*
X004727Y012089D03*
X004279Y010972D03*
X003960Y010967D03*
X003964Y010652D03*
X004274Y010652D03*
X004274Y010027D03*
X004294Y009727D03*
X004284Y009407D03*
X004594Y009398D03*
X004589Y010027D03*
X003969Y010023D03*
X003969Y009712D03*
X003960Y009393D03*
X004471Y008349D03*
X004471Y007995D03*
X003822Y007778D03*
X003812Y006966D03*
X004245Y007006D03*
X003940Y005987D03*
X004235Y005869D03*
X004708Y005397D03*
X004570Y004983D03*
X005023Y004314D03*
X005544Y005716D03*
X005889Y005810D03*
X006204Y005889D03*
X005987Y006952D03*
X002975Y010771D03*
X003802Y012714D03*
X005495Y012286D03*
X000751Y011794D03*
X000751Y010790D03*
X000751Y009786D03*
X000751Y007778D03*
X000771Y006774D03*
X000771Y005790D03*
X000771Y004767D03*
X000771Y003763D03*
X000751Y002778D03*
X000771Y001794D03*
X010633Y021302D03*
D15*
X010514Y021113D02*
X010543Y021084D01*
X010723Y021084D01*
X010851Y021212D01*
X010851Y021392D01*
X010723Y021520D01*
X010543Y021520D01*
X010514Y021491D01*
X007848Y021491D01*
X007780Y021499D01*
X007771Y021491D01*
X007759Y021491D01*
X007711Y021443D01*
X007673Y021413D01*
X007661Y021413D01*
X007613Y021365D01*
X007560Y021322D01*
X007558Y021310D01*
X007550Y021302D01*
X007550Y021234D01*
X007542Y021166D01*
X007550Y021157D01*
X007550Y019999D01*
X007540Y019937D01*
X007550Y019923D01*
X007550Y019905D01*
X007594Y019860D01*
X007610Y019839D01*
X007610Y019751D01*
X007743Y019618D01*
X007932Y019618D01*
X008065Y019751D01*
X008065Y019887D01*
X008159Y019793D01*
X008195Y019778D01*
X008159Y019763D01*
X007998Y019603D01*
X007911Y019392D01*
X007911Y019165D01*
X007998Y018954D01*
X008159Y018793D01*
X008195Y018778D01*
X008159Y018763D01*
X007998Y018603D01*
X007911Y018392D01*
X007911Y018165D01*
X007998Y017954D01*
X008159Y017793D01*
X008195Y017778D01*
X008159Y017763D01*
X007998Y017603D01*
X007911Y017392D01*
X007911Y017165D01*
X007998Y016954D01*
X008159Y016793D01*
X008195Y016778D01*
X008159Y016763D01*
X007998Y016603D01*
X007911Y016392D01*
X007911Y016165D01*
X007998Y015954D01*
X008159Y015793D01*
X008195Y015778D01*
X008159Y015763D01*
X007998Y015603D01*
X007911Y015392D01*
X007911Y015165D01*
X007988Y014978D01*
X007932Y014976D01*
X007399Y014976D01*
X007493Y015069D01*
X007549Y015205D01*
X007549Y015352D01*
X007493Y015488D01*
X007389Y015591D01*
X007253Y015648D01*
X007107Y015648D01*
X006971Y015591D01*
X006867Y015488D01*
X006811Y015352D01*
X006811Y015205D01*
X006867Y015069D01*
X006961Y014976D01*
X004951Y014976D01*
X004942Y014983D01*
X004874Y014976D01*
X004806Y014976D01*
X004798Y014967D01*
X004786Y014966D01*
X004744Y014913D01*
X004696Y014865D01*
X004696Y014853D01*
X004586Y014716D01*
X004538Y014668D01*
X004538Y014656D01*
X004531Y014646D01*
X004538Y014579D01*
X004538Y012208D01*
X004509Y012180D01*
X004509Y011999D01*
X004637Y011872D01*
X004817Y011872D01*
X004934Y011988D01*
X004952Y011970D01*
X005132Y011970D01*
X005260Y012098D01*
X005260Y012278D01*
X005132Y012406D01*
X004952Y012406D01*
X004916Y012370D01*
X004916Y014523D01*
X004976Y014597D01*
X006985Y014597D01*
X006971Y014591D01*
X006867Y014488D01*
X006811Y014352D01*
X006811Y014205D01*
X006867Y014069D01*
X006971Y013965D01*
X007107Y013909D01*
X007253Y013909D01*
X007389Y013965D01*
X007493Y014069D01*
X007549Y014205D01*
X007549Y014352D01*
X007493Y014488D01*
X007389Y014591D01*
X007375Y014597D01*
X007862Y014597D01*
X007959Y014507D01*
X007911Y014392D01*
X007911Y014165D01*
X007998Y013954D01*
X008159Y013793D01*
X008195Y013778D01*
X008159Y013763D01*
X007998Y013603D01*
X007911Y013392D01*
X007911Y013165D01*
X007993Y012968D01*
X007391Y012968D01*
X007493Y013069D01*
X007549Y013205D01*
X007549Y013352D01*
X007493Y013488D01*
X007389Y013591D01*
X007253Y013648D01*
X007107Y013648D01*
X006971Y013591D01*
X006867Y013488D01*
X006811Y013352D01*
X006811Y013205D01*
X006867Y013069D01*
X006969Y012968D01*
X006833Y012968D01*
X006774Y012979D01*
X006757Y012968D01*
X006735Y012968D01*
X006693Y012925D01*
X006579Y012850D01*
X006558Y012850D01*
X006516Y012807D01*
X006467Y012774D01*
X006462Y012754D01*
X006447Y012739D01*
X006447Y012679D01*
X006436Y012621D01*
X006447Y012603D01*
X006447Y012100D01*
X006432Y012082D01*
X005598Y012082D01*
X005713Y012196D01*
X005713Y012377D01*
X005585Y012504D01*
X005405Y012504D01*
X005277Y012377D01*
X005277Y012196D01*
X005405Y012069D01*
X005580Y012069D01*
X005483Y011971D01*
X004994Y011482D01*
X004994Y011534D01*
X004861Y011667D01*
X004672Y011667D01*
X004634Y011630D01*
X004624Y011629D01*
X004550Y011629D01*
X004547Y011625D01*
X004542Y011625D01*
X004492Y011570D01*
X004440Y011518D01*
X004440Y011513D01*
X004348Y011413D01*
X003389Y011413D01*
X003251Y011275D01*
X003140Y011164D01*
X003140Y010932D01*
X003113Y010960D01*
X003094Y010960D01*
X003065Y010988D01*
X002982Y010988D01*
X003055Y011165D01*
X003055Y011392D01*
X002968Y011603D01*
X002807Y011763D01*
X002771Y011778D01*
X002807Y011793D01*
X002968Y011954D01*
X003055Y012165D01*
X003055Y012392D01*
X002968Y012603D01*
X002819Y012752D01*
X002889Y012803D01*
X002958Y012873D01*
X003016Y012952D01*
X003060Y013039D01*
X003091Y013133D01*
X003103Y013211D01*
X002551Y013211D01*
X002551Y013346D01*
X003103Y013346D01*
X003091Y013424D01*
X003060Y013518D01*
X003016Y013605D01*
X002958Y013684D01*
X002889Y013754D01*
X002819Y013805D01*
X002968Y013954D01*
X003055Y014165D01*
X003055Y014392D01*
X002968Y014603D01*
X002807Y014763D01*
X002771Y014778D01*
X002807Y014793D01*
X002968Y014954D01*
X003055Y015165D01*
X003055Y015392D01*
X002968Y015603D01*
X002807Y015763D01*
X002771Y015778D01*
X002807Y015793D01*
X002968Y015954D01*
X003055Y016165D01*
X003055Y016392D01*
X002968Y016603D01*
X002807Y016763D01*
X002771Y016778D01*
X002807Y016793D01*
X002968Y016954D01*
X003055Y017165D01*
X003055Y017392D01*
X002968Y017603D01*
X002807Y017763D01*
X002771Y017778D01*
X002807Y017793D01*
X002968Y017954D01*
X003055Y018165D01*
X003055Y018392D01*
X002968Y018603D01*
X002807Y018763D01*
X002771Y018778D01*
X002807Y018793D01*
X002968Y018954D01*
X003055Y019165D01*
X003055Y019392D01*
X002968Y019603D01*
X002807Y019763D01*
X002771Y019778D01*
X002807Y019793D01*
X002968Y019954D01*
X003055Y020165D01*
X003055Y020392D01*
X002968Y020603D01*
X002807Y020763D01*
X002597Y020851D01*
X002369Y020851D01*
X002159Y020763D01*
X001998Y020603D01*
X001911Y020392D01*
X001911Y020165D01*
X001998Y019954D01*
X002159Y019793D01*
X002195Y019778D01*
X002159Y019763D01*
X001998Y019603D01*
X001911Y019392D01*
X001911Y019165D01*
X001998Y018954D01*
X002159Y018793D01*
X002195Y018778D01*
X002159Y018763D01*
X001998Y018603D01*
X001911Y018392D01*
X001911Y018165D01*
X001998Y017954D01*
X002159Y017793D01*
X002195Y017778D01*
X002159Y017763D01*
X001998Y017603D01*
X001911Y017392D01*
X001911Y017165D01*
X001998Y016954D01*
X002159Y016793D01*
X002195Y016778D01*
X002159Y016763D01*
X001998Y016603D01*
X001911Y016392D01*
X001911Y016165D01*
X001998Y015954D01*
X002159Y015793D01*
X002195Y015778D01*
X002159Y015763D01*
X001998Y015603D01*
X001911Y015392D01*
X001911Y015165D01*
X001998Y014954D01*
X002159Y014793D01*
X002195Y014778D01*
X002159Y014763D01*
X001998Y014603D01*
X001911Y014392D01*
X001911Y014165D01*
X001998Y013954D01*
X002148Y013805D01*
X002077Y013754D01*
X002008Y013684D01*
X001950Y013605D01*
X001906Y013518D01*
X001876Y013424D01*
X001863Y013346D01*
X002416Y013346D01*
X002416Y013211D01*
X001863Y013211D01*
X001876Y013133D01*
X001906Y013039D01*
X001950Y012952D01*
X002008Y012873D01*
X002077Y012803D01*
X002148Y012752D01*
X001998Y012603D01*
X001911Y012392D01*
X001911Y012165D01*
X001998Y011954D01*
X002159Y011793D01*
X002195Y011778D01*
X002159Y011763D01*
X001998Y011603D01*
X001911Y011392D01*
X001911Y011165D01*
X001998Y010954D01*
X002159Y010793D01*
X002195Y010778D01*
X002159Y010763D01*
X001998Y010603D01*
X001911Y010392D01*
X001911Y010165D01*
X001998Y009954D01*
X002159Y009793D01*
X002195Y009778D01*
X002159Y009763D01*
X001998Y009603D01*
X001911Y009392D01*
X001911Y009165D01*
X001998Y008954D01*
X002159Y008793D01*
X002195Y008778D01*
X002159Y008763D01*
X001998Y008603D01*
X001911Y008392D01*
X001911Y008165D01*
X001998Y007954D01*
X002159Y007793D01*
X002195Y007778D01*
X002159Y007763D01*
X001998Y007603D01*
X001911Y007392D01*
X001911Y007165D01*
X001998Y006954D01*
X002159Y006793D01*
X002195Y006778D01*
X002159Y006763D01*
X001998Y006603D01*
X001911Y006392D01*
X001911Y006165D01*
X001998Y005954D01*
X002159Y005793D01*
X002195Y005778D01*
X002159Y005763D01*
X001998Y005603D01*
X001911Y005392D01*
X001911Y005165D01*
X001998Y004954D01*
X002159Y004793D01*
X002195Y004778D01*
X002159Y004763D01*
X001998Y004603D01*
X001911Y004392D01*
X001911Y004165D01*
X001998Y003954D01*
X002159Y003793D01*
X002195Y003778D01*
X002159Y003763D01*
X001998Y003603D01*
X001911Y003392D01*
X001911Y003165D01*
X001998Y002954D01*
X002159Y002793D01*
X002195Y002778D01*
X002159Y002763D01*
X001998Y002603D01*
X001911Y002392D01*
X001911Y002165D01*
X001998Y001954D01*
X002159Y001793D01*
X002195Y001778D01*
X002159Y001763D01*
X001998Y001603D01*
X001911Y001392D01*
X001911Y001165D01*
X001998Y000954D01*
X002159Y000793D01*
X002369Y000706D01*
X002597Y000706D01*
X002807Y000793D01*
X002968Y000954D01*
X003055Y001165D01*
X003055Y001392D01*
X002968Y001603D01*
X002807Y001763D01*
X002771Y001778D01*
X002807Y001793D01*
X002968Y001954D01*
X003055Y002165D01*
X003055Y002392D01*
X002968Y002603D01*
X002807Y002763D01*
X002771Y002778D01*
X002807Y002793D01*
X002968Y002954D01*
X003055Y003165D01*
X003055Y003392D01*
X002968Y003603D01*
X002807Y003763D01*
X002771Y003778D01*
X002807Y003793D01*
X002968Y003954D01*
X003055Y004165D01*
X003055Y004392D01*
X002968Y004603D01*
X002807Y004763D01*
X002771Y004778D01*
X002807Y004793D01*
X002968Y004954D01*
X003055Y005165D01*
X003055Y005392D01*
X002968Y005603D01*
X002807Y005763D01*
X002771Y005778D01*
X002807Y005793D01*
X002968Y005954D01*
X003055Y006165D01*
X003055Y006392D01*
X002968Y006603D01*
X002807Y006763D01*
X002771Y006778D01*
X002807Y006793D01*
X002968Y006954D01*
X003055Y007165D01*
X003055Y007186D01*
X003122Y007128D01*
X003172Y007077D01*
X003180Y007077D01*
X003185Y007073D01*
X003257Y007077D01*
X003377Y007077D01*
X003377Y006716D01*
X003487Y006605D01*
X003586Y006507D01*
X003751Y006507D01*
X003751Y006106D01*
X003722Y006077D01*
X003722Y005897D01*
X003850Y005769D01*
X004027Y005769D01*
X004043Y005753D01*
X004010Y005743D01*
X003960Y005743D01*
X003938Y005722D01*
X003909Y005713D01*
X003885Y005668D01*
X003849Y005632D01*
X003849Y005602D01*
X003835Y005575D01*
X003849Y005526D01*
X003849Y000858D01*
X003842Y000849D01*
X003849Y000781D01*
X003849Y000712D01*
X003857Y000704D01*
X003858Y000693D01*
X003911Y000650D01*
X003960Y000601D01*
X003971Y000601D01*
X004128Y000473D01*
X004176Y000424D01*
X004187Y000424D01*
X004196Y000417D01*
X004264Y000424D01*
X008736Y000424D01*
X008745Y000416D01*
X008813Y000424D01*
X008880Y000424D01*
X008889Y000432D01*
X008901Y000434D01*
X008943Y000487D01*
X008991Y000535D01*
X008991Y000547D01*
X009234Y000850D01*
X009234Y000378D01*
X000378Y000378D01*
X000378Y021537D01*
X012383Y021537D01*
X012383Y010319D01*
X009350Y010319D01*
X009306Y010275D01*
X009306Y010298D01*
X009247Y010357D01*
X009136Y010468D01*
X009024Y010468D01*
X008968Y010603D01*
X008807Y010763D01*
X008771Y010778D01*
X008807Y010793D01*
X008968Y010954D01*
X009055Y011165D01*
X009055Y011392D01*
X008968Y011603D01*
X008807Y011763D01*
X008771Y011778D01*
X008807Y011793D01*
X008968Y011954D01*
X009055Y012165D01*
X009055Y012392D01*
X008968Y012603D01*
X008807Y012763D01*
X008771Y012778D01*
X008807Y012793D01*
X008968Y012954D01*
X009055Y013165D01*
X009055Y013392D01*
X008968Y013603D01*
X008807Y013763D01*
X008771Y013778D01*
X008807Y013793D01*
X008968Y013954D01*
X009055Y014165D01*
X009055Y014392D01*
X008968Y014603D01*
X008807Y014763D01*
X008771Y014778D01*
X008807Y014793D01*
X008968Y014954D01*
X009055Y015165D01*
X009055Y015392D01*
X008968Y015603D01*
X008807Y015763D01*
X008771Y015778D01*
X008807Y015793D01*
X008968Y015954D01*
X009055Y016165D01*
X009055Y016392D01*
X008968Y016603D01*
X008807Y016763D01*
X008771Y016778D01*
X008807Y016793D01*
X008968Y016954D01*
X009055Y017165D01*
X009055Y017392D01*
X008968Y017603D01*
X008807Y017763D01*
X008771Y017778D01*
X008807Y017793D01*
X008968Y017954D01*
X009055Y018165D01*
X009055Y018392D01*
X008968Y018603D01*
X008807Y018763D01*
X008771Y018778D01*
X008807Y018793D01*
X008968Y018954D01*
X009055Y019165D01*
X009055Y019392D01*
X008968Y019603D01*
X008807Y019763D01*
X008771Y019778D01*
X008807Y019793D01*
X008968Y019954D01*
X009055Y020165D01*
X009055Y020392D01*
X008968Y020603D01*
X008807Y020763D01*
X008597Y020851D01*
X008369Y020851D01*
X008159Y020763D01*
X007998Y020603D01*
X007928Y020434D01*
X007928Y021113D01*
X010514Y021113D01*
X010525Y021102D02*
X007928Y021102D01*
X007928Y020944D02*
X009610Y020944D01*
X009577Y020911D02*
X009646Y020980D01*
X009737Y021018D01*
X009835Y021018D01*
X009926Y020980D01*
X009996Y020911D01*
X010034Y020820D01*
X010034Y020721D01*
X009996Y020630D01*
X009926Y020561D01*
X009835Y020523D01*
X009737Y020523D01*
X009646Y020561D01*
X009577Y020630D01*
X009539Y020721D01*
X009539Y020820D01*
X009577Y020911D01*
X009539Y020785D02*
X008755Y020785D01*
X008944Y020627D02*
X009581Y020627D01*
X009992Y020627D02*
X012383Y020627D01*
X012383Y020785D02*
X010034Y020785D01*
X009963Y020944D02*
X012383Y020944D01*
X012383Y021102D02*
X010741Y021102D01*
X010851Y021261D02*
X012383Y021261D01*
X012383Y021419D02*
X010824Y021419D01*
X012383Y020468D02*
X009024Y020468D01*
X009055Y020310D02*
X012383Y020310D01*
X012383Y020151D02*
X009050Y020151D01*
X008984Y019993D02*
X012383Y019993D01*
X012383Y019834D02*
X008848Y019834D01*
X008895Y019676D02*
X012383Y019676D01*
X012383Y019517D02*
X009004Y019517D01*
X009055Y019359D02*
X012383Y019359D01*
X012383Y019200D02*
X009055Y019200D01*
X009004Y019042D02*
X012383Y019042D01*
X012383Y018883D02*
X008897Y018883D01*
X008846Y018725D02*
X012383Y018725D01*
X012383Y018566D02*
X008983Y018566D01*
X009049Y018408D02*
X012383Y018408D01*
X012383Y018249D02*
X009055Y018249D01*
X009025Y018091D02*
X012383Y018091D01*
X012383Y017932D02*
X008946Y017932D01*
X008956Y017615D02*
X012383Y017615D01*
X012383Y017457D02*
X009029Y017457D01*
X009055Y017298D02*
X012383Y017298D01*
X012383Y017140D02*
X009045Y017140D01*
X008979Y016981D02*
X010100Y016981D01*
X010060Y016964D02*
X009990Y016895D01*
X009952Y016804D01*
X009952Y016706D01*
X009990Y016615D01*
X010060Y016545D01*
X010150Y016507D01*
X010249Y016507D01*
X010340Y016545D01*
X010409Y016615D01*
X010447Y016706D01*
X010447Y016804D01*
X010409Y016895D01*
X010340Y016964D01*
X010249Y017002D01*
X010150Y017002D01*
X010060Y016964D01*
X009960Y016823D02*
X008836Y016823D01*
X008907Y016664D02*
X009970Y016664D01*
X010300Y016981D02*
X012383Y016981D01*
X012383Y016823D02*
X010439Y016823D01*
X010430Y016664D02*
X012383Y016664D01*
X012383Y016506D02*
X009008Y016506D01*
X009055Y016347D02*
X012383Y016347D01*
X012383Y016189D02*
X009055Y016189D01*
X009000Y016030D02*
X012383Y016030D01*
X012383Y015872D02*
X008885Y015872D01*
X008858Y015713D02*
X012383Y015713D01*
X012383Y015555D02*
X008988Y015555D01*
X009054Y015396D02*
X012383Y015396D01*
X012383Y015238D02*
X009055Y015238D01*
X009020Y015079D02*
X012383Y015079D01*
X012383Y014921D02*
X008934Y014921D01*
X008809Y014762D02*
X012383Y014762D01*
X012383Y014604D02*
X008967Y014604D01*
X009033Y014445D02*
X012383Y014445D01*
X012383Y014287D02*
X009055Y014287D01*
X009040Y014128D02*
X012383Y014128D01*
X012383Y013970D02*
X008974Y013970D01*
X008825Y013811D02*
X012383Y013811D01*
X012383Y013653D02*
X008918Y013653D01*
X009013Y013494D02*
X011478Y013494D01*
X011478Y013518D02*
X011478Y013338D01*
X011606Y013210D01*
X011786Y013210D01*
X011914Y013338D01*
X011914Y013518D01*
X011786Y013646D01*
X011606Y013646D01*
X011478Y013518D01*
X011480Y013336D02*
X009055Y013336D01*
X009055Y013177D02*
X012383Y013177D01*
X012383Y013019D02*
X011914Y013019D01*
X011914Y013026D02*
X011786Y013154D01*
X011606Y013154D01*
X011478Y013026D01*
X011478Y012846D01*
X011606Y012718D01*
X011786Y012718D01*
X011914Y012846D01*
X011914Y013026D01*
X011914Y012860D02*
X012383Y012860D01*
X012383Y012702D02*
X008869Y012702D01*
X008874Y012860D02*
X011478Y012860D01*
X011478Y013019D02*
X008995Y013019D01*
X008993Y012543D02*
X011487Y012543D01*
X011478Y012534D02*
X011478Y012354D01*
X011606Y012226D01*
X011786Y012226D01*
X012383Y012226D01*
X012383Y012068D02*
X011888Y012068D01*
X011914Y012042D02*
X011786Y012169D01*
X011606Y012169D01*
X011478Y012042D01*
X011478Y011861D01*
X011606Y011734D01*
X011786Y011734D01*
X011914Y011861D01*
X011914Y012042D01*
X011914Y011909D02*
X012383Y011909D01*
X012383Y011751D02*
X011803Y011751D01*
X011589Y011751D02*
X008820Y011751D01*
X008923Y011909D02*
X011478Y011909D01*
X011504Y012068D02*
X009015Y012068D01*
X009055Y012226D02*
X011605Y012226D01*
X011478Y012385D02*
X009055Y012385D01*
X008973Y011592D02*
X012383Y011592D01*
X012383Y011434D02*
X009038Y011434D01*
X009055Y011275D02*
X012383Y011275D01*
X012383Y011117D02*
X009035Y011117D01*
X008970Y010958D02*
X012383Y010958D01*
X012383Y010800D02*
X008813Y010800D01*
X008930Y010641D02*
X012383Y010641D01*
X012383Y010483D02*
X009018Y010483D01*
X009280Y010324D02*
X012383Y010324D01*
X011786Y012226D02*
X011914Y012354D01*
X011914Y012534D01*
X011786Y012662D01*
X011606Y012662D01*
X011478Y012534D01*
X011905Y012543D02*
X012383Y012543D01*
X012383Y012385D02*
X011914Y012385D01*
X011911Y013336D02*
X012383Y013336D01*
X012383Y013494D02*
X011914Y013494D01*
X012383Y017774D02*
X008783Y017774D01*
X008183Y017774D02*
X005484Y017774D01*
X005446Y017790D02*
X005347Y017790D01*
X005256Y017752D01*
X005187Y017682D01*
X005149Y017591D01*
X005149Y017493D01*
X005187Y017402D01*
X005256Y017333D01*
X005347Y017295D01*
X005446Y017295D01*
X005537Y017333D01*
X005606Y017402D01*
X005644Y017493D01*
X005644Y017591D01*
X005606Y017682D01*
X005537Y017752D01*
X005446Y017790D01*
X005309Y017774D02*
X002783Y017774D01*
X002946Y017932D02*
X007051Y017932D01*
X007107Y017909D02*
X007253Y017909D01*
X007389Y017965D01*
X007493Y018069D01*
X007549Y018205D01*
X007549Y018352D01*
X007493Y018488D01*
X007389Y018591D01*
X007253Y018648D01*
X007107Y018648D01*
X006971Y018591D01*
X006867Y018488D01*
X006811Y018352D01*
X006811Y018205D01*
X006867Y018069D01*
X006971Y017965D01*
X007107Y017909D01*
X007107Y017648D02*
X006971Y017591D01*
X006867Y017488D01*
X006811Y017352D01*
X006811Y017205D01*
X006867Y017069D01*
X006971Y016965D01*
X007107Y016909D01*
X007253Y016909D01*
X007389Y016965D01*
X007493Y017069D01*
X007549Y017205D01*
X007549Y017352D01*
X007493Y017488D01*
X007389Y017591D01*
X007253Y017648D01*
X007107Y017648D01*
X007028Y017615D02*
X005634Y017615D01*
X005629Y017457D02*
X006854Y017457D01*
X006811Y017298D02*
X005453Y017298D01*
X005340Y017298D02*
X003055Y017298D01*
X003045Y017140D02*
X006838Y017140D01*
X006955Y016981D02*
X002979Y016981D01*
X002907Y016664D02*
X008060Y016664D01*
X008130Y016823D02*
X002836Y016823D01*
X003008Y016506D02*
X006885Y016506D01*
X006867Y016488D02*
X006811Y016352D01*
X006811Y016205D01*
X006867Y016069D01*
X006971Y015965D01*
X007107Y015909D01*
X007253Y015909D01*
X007389Y015965D01*
X007493Y016069D01*
X007549Y016205D01*
X007549Y016352D01*
X007493Y016488D01*
X007389Y016591D01*
X007253Y016648D01*
X007107Y016648D01*
X006971Y016591D01*
X006867Y016488D01*
X006811Y016347D02*
X003055Y016347D01*
X003055Y016189D02*
X004443Y016189D01*
X004459Y016226D02*
X004421Y016135D01*
X004421Y016036D01*
X004459Y015945D01*
X004528Y015876D01*
X004619Y015838D01*
X004717Y015838D01*
X004808Y015876D01*
X004878Y015945D01*
X004916Y016036D01*
X004916Y016135D01*
X004878Y016226D01*
X004808Y016295D01*
X004717Y016333D01*
X004619Y016333D01*
X004528Y016295D01*
X004459Y016226D01*
X004423Y016030D02*
X003000Y016030D01*
X002885Y015872D02*
X004539Y015872D01*
X004798Y015872D02*
X008081Y015872D01*
X008109Y015713D02*
X002858Y015713D01*
X002988Y015555D02*
X006934Y015555D01*
X006829Y015396D02*
X003054Y015396D01*
X003055Y015238D02*
X006811Y015238D01*
X006863Y015079D02*
X003020Y015079D01*
X002934Y014921D02*
X004750Y014921D01*
X004623Y014762D02*
X002809Y014762D01*
X002967Y014604D02*
X004535Y014604D01*
X004538Y014445D02*
X003033Y014445D01*
X003055Y014287D02*
X004538Y014287D01*
X004538Y014128D02*
X003040Y014128D01*
X002974Y013970D02*
X004538Y013970D01*
X004538Y013811D02*
X002825Y013811D01*
X002981Y013653D02*
X004538Y013653D01*
X004538Y013494D02*
X003068Y013494D01*
X003098Y013177D02*
X004538Y013177D01*
X004538Y013019D02*
X003050Y013019D01*
X002946Y012860D02*
X003640Y012860D01*
X003584Y012805D02*
X003584Y012624D01*
X003712Y012497D01*
X003892Y012497D01*
X004020Y012624D01*
X004020Y012805D01*
X003892Y012932D01*
X003712Y012932D01*
X003584Y012805D01*
X003584Y012702D02*
X002869Y012702D01*
X002993Y012543D02*
X003665Y012543D01*
X003939Y012543D02*
X004538Y012543D01*
X004538Y012385D02*
X003055Y012385D01*
X003055Y012226D02*
X004538Y012226D01*
X004509Y012068D02*
X003360Y012068D01*
X003371Y012063D02*
X003280Y012101D01*
X003182Y012101D01*
X003091Y012063D01*
X003022Y011993D01*
X002984Y011902D01*
X002984Y011804D01*
X003022Y011713D01*
X003091Y011644D01*
X003182Y011606D01*
X003280Y011606D01*
X003371Y011644D01*
X003441Y011713D01*
X003479Y011804D01*
X003479Y011902D01*
X003441Y011993D01*
X003371Y012063D01*
X003476Y011909D02*
X004600Y011909D01*
X004855Y011909D02*
X005421Y011909D01*
X005579Y012068D02*
X005230Y012068D01*
X005260Y012226D02*
X005277Y012226D01*
X005285Y012385D02*
X005154Y012385D01*
X004931Y012385D02*
X004916Y012385D01*
X004916Y012543D02*
X006447Y012543D01*
X006447Y012385D02*
X005705Y012385D01*
X005713Y012226D02*
X006447Y012226D01*
X006447Y012702D02*
X004916Y012702D01*
X004916Y012860D02*
X006595Y012860D01*
X006822Y013177D02*
X004916Y013177D01*
X004916Y013019D02*
X006918Y013019D01*
X006811Y013336D02*
X004916Y013336D01*
X004916Y013494D02*
X006873Y013494D01*
X006967Y013970D02*
X004916Y013970D01*
X004916Y014128D02*
X006843Y014128D01*
X006811Y014287D02*
X004916Y014287D01*
X004916Y014445D02*
X006849Y014445D01*
X007393Y013970D02*
X007992Y013970D01*
X007926Y014128D02*
X007517Y014128D01*
X007549Y014287D02*
X007911Y014287D01*
X007933Y014445D02*
X007511Y014445D01*
X007497Y015079D02*
X007946Y015079D01*
X007911Y015238D02*
X007549Y015238D01*
X007531Y015396D02*
X007913Y015396D01*
X007978Y015555D02*
X007426Y015555D01*
X007454Y016030D02*
X007967Y016030D01*
X007911Y016189D02*
X007542Y016189D01*
X007549Y016347D02*
X007911Y016347D01*
X007958Y016506D02*
X007475Y016506D01*
X007405Y016981D02*
X007987Y016981D01*
X007921Y017140D02*
X007522Y017140D01*
X007549Y017298D02*
X007911Y017298D01*
X007938Y017457D02*
X007506Y017457D01*
X007332Y017615D02*
X008011Y017615D01*
X008020Y017932D02*
X007309Y017932D01*
X007502Y018091D02*
X007942Y018091D01*
X007911Y018249D02*
X007549Y018249D01*
X007526Y018408D02*
X007917Y018408D01*
X007983Y018566D02*
X007415Y018566D01*
X007253Y018909D02*
X007107Y018909D01*
X006971Y018965D01*
X006867Y019069D01*
X006811Y019205D01*
X006811Y019352D01*
X006867Y019488D01*
X006971Y019591D01*
X007107Y019648D01*
X007253Y019648D01*
X007389Y019591D01*
X007493Y019488D01*
X007549Y019352D01*
X007549Y019205D01*
X007493Y019069D01*
X007389Y018965D01*
X007253Y018909D01*
X007465Y019042D02*
X007962Y019042D01*
X007911Y019200D02*
X007547Y019200D01*
X007546Y019359D02*
X007911Y019359D01*
X007963Y019517D02*
X007464Y019517D01*
X007685Y019676D02*
X002895Y019676D01*
X002848Y019834D02*
X007610Y019834D01*
X007549Y019993D02*
X007416Y019993D01*
X007389Y019965D02*
X007493Y020069D01*
X007549Y020205D01*
X007549Y020352D01*
X007493Y020488D01*
X007389Y020591D01*
X007253Y020648D01*
X007107Y020648D01*
X006971Y020591D01*
X006867Y020488D01*
X006811Y020352D01*
X006811Y020205D01*
X006867Y020069D01*
X006971Y019965D01*
X007107Y019909D01*
X007253Y019909D01*
X007389Y019965D01*
X007527Y020151D02*
X007550Y020151D01*
X007549Y020310D02*
X007550Y020310D01*
X007550Y020468D02*
X007501Y020468D01*
X007550Y020627D02*
X007304Y020627D01*
X007056Y020627D02*
X006233Y020627D01*
X006234Y020623D02*
X006197Y020714D01*
X006127Y020783D01*
X006036Y020821D01*
X005938Y020821D01*
X005847Y020783D01*
X005777Y020714D01*
X005740Y020623D01*
X005740Y020525D01*
X005777Y020434D01*
X005847Y020364D01*
X005938Y020326D01*
X006036Y020326D01*
X006127Y020364D01*
X006197Y020434D01*
X006234Y020525D01*
X006234Y020623D01*
X006211Y020468D02*
X006859Y020468D01*
X006811Y020310D02*
X003055Y020310D01*
X003050Y020151D02*
X006833Y020151D01*
X006944Y019993D02*
X002984Y019993D01*
X003004Y019517D02*
X006896Y019517D01*
X006814Y019359D02*
X003055Y019359D01*
X003055Y019200D02*
X006813Y019200D01*
X006895Y019042D02*
X003004Y019042D01*
X002897Y018883D02*
X008069Y018883D01*
X008120Y018725D02*
X002846Y018725D01*
X002983Y018566D02*
X006945Y018566D01*
X006834Y018408D02*
X003049Y018408D01*
X003055Y018249D02*
X006811Y018249D01*
X006858Y018091D02*
X003025Y018091D01*
X002956Y017615D02*
X005159Y017615D01*
X005164Y017457D02*
X003029Y017457D01*
X002183Y017774D02*
X000378Y017774D01*
X000378Y017932D02*
X001051Y017932D01*
X001107Y017909D02*
X000971Y017965D01*
X000867Y018069D01*
X000811Y018205D01*
X000811Y018352D01*
X000867Y018488D01*
X000971Y018591D01*
X001107Y018648D01*
X001253Y018648D01*
X001389Y018591D01*
X001493Y018488D01*
X001549Y018352D01*
X001549Y018205D01*
X001493Y018069D01*
X001389Y017965D01*
X001253Y017909D01*
X001107Y017909D01*
X001309Y017932D02*
X002020Y017932D01*
X001942Y018091D02*
X001502Y018091D01*
X001549Y018249D02*
X001911Y018249D01*
X001917Y018408D02*
X001526Y018408D01*
X001415Y018566D02*
X001983Y018566D01*
X002120Y018725D02*
X000378Y018725D01*
X000378Y018883D02*
X002069Y018883D01*
X001962Y019042D02*
X001465Y019042D01*
X001493Y019069D02*
X001389Y018965D01*
X001253Y018909D01*
X001107Y018909D01*
X000971Y018965D01*
X000867Y019069D01*
X000811Y019205D01*
X000811Y019352D01*
X000867Y019488D01*
X000971Y019591D01*
X001107Y019648D01*
X001253Y019648D01*
X001389Y019591D01*
X001493Y019488D01*
X001549Y019352D01*
X001549Y019205D01*
X001493Y019069D01*
X001547Y019200D02*
X001911Y019200D01*
X001911Y019359D02*
X001546Y019359D01*
X001464Y019517D02*
X001963Y019517D01*
X002071Y019676D02*
X000378Y019676D01*
X000378Y019834D02*
X002118Y019834D01*
X001982Y019993D02*
X001416Y019993D01*
X001389Y019965D02*
X001493Y020069D01*
X001549Y020205D01*
X001549Y020352D01*
X001493Y020488D01*
X001389Y020591D01*
X001253Y020648D01*
X001107Y020648D01*
X000971Y020591D01*
X000867Y020488D01*
X000811Y020352D01*
X000811Y020205D01*
X000867Y020069D01*
X000971Y019965D01*
X001107Y019909D01*
X001253Y019909D01*
X001389Y019965D01*
X001527Y020151D02*
X001917Y020151D01*
X001911Y020310D02*
X001549Y020310D01*
X001501Y020468D02*
X001942Y020468D01*
X002022Y020627D02*
X001304Y020627D01*
X001056Y020627D02*
X000378Y020627D01*
X000378Y020785D02*
X002211Y020785D01*
X002755Y020785D02*
X003390Y020785D01*
X003386Y020783D02*
X003317Y020714D01*
X003279Y020623D01*
X003279Y020525D01*
X003317Y020434D01*
X003386Y020364D01*
X003477Y020326D01*
X003576Y020326D01*
X003667Y020364D01*
X003736Y020434D01*
X003774Y020525D01*
X003774Y020623D01*
X003736Y020714D01*
X003667Y020783D01*
X003576Y020821D01*
X003477Y020821D01*
X003386Y020783D01*
X003281Y020627D02*
X002944Y020627D01*
X003024Y020468D02*
X003303Y020468D01*
X003750Y020468D02*
X005763Y020468D01*
X005741Y020627D02*
X003772Y020627D01*
X003663Y020785D02*
X005851Y020785D01*
X006123Y020785D02*
X007550Y020785D01*
X007550Y020944D02*
X000378Y020944D01*
X000378Y021102D02*
X007550Y021102D01*
X007550Y021261D02*
X000378Y021261D01*
X000378Y021419D02*
X007681Y021419D01*
X007928Y020785D02*
X008211Y020785D01*
X008022Y020627D02*
X007928Y020627D01*
X007928Y020468D02*
X007942Y020468D01*
X008065Y019834D02*
X008118Y019834D01*
X008071Y019676D02*
X007990Y019676D01*
X006818Y016189D02*
X004893Y016189D01*
X004913Y016030D02*
X006906Y016030D01*
X008141Y013811D02*
X004916Y013811D01*
X004916Y013653D02*
X008048Y013653D01*
X007953Y013494D02*
X007487Y013494D01*
X007549Y013336D02*
X007911Y013336D01*
X007911Y013177D02*
X007538Y013177D01*
X007442Y013019D02*
X007972Y013019D01*
X005262Y011751D02*
X003456Y011751D01*
X003252Y011275D02*
X003055Y011275D01*
X003038Y011434D02*
X004367Y011434D01*
X004511Y011592D02*
X002973Y011592D01*
X003006Y011751D02*
X002820Y011751D01*
X002923Y011909D02*
X002987Y011909D01*
X003015Y012068D02*
X003102Y012068D01*
X003140Y011117D02*
X003035Y011117D01*
X003114Y010958D02*
X003140Y010958D01*
X004020Y012702D02*
X004538Y012702D01*
X004538Y012860D02*
X003964Y012860D01*
X004538Y013336D02*
X002551Y013336D01*
X002416Y013336D02*
X001596Y013336D01*
X001600Y013311D02*
X001590Y013377D01*
X001569Y013440D01*
X001539Y013499D01*
X001500Y013552D01*
X001454Y013599D01*
X001400Y013638D01*
X001341Y013668D01*
X001278Y013688D01*
X001213Y013698D01*
X001180Y013698D01*
X001180Y013278D01*
X001180Y012858D01*
X001213Y012858D01*
X001278Y012869D01*
X001341Y012889D01*
X001400Y012919D01*
X001454Y012958D01*
X001500Y013005D01*
X001539Y013058D01*
X001569Y013117D01*
X001590Y013180D01*
X001600Y013245D01*
X001600Y013278D01*
X001180Y013278D01*
X001180Y013278D01*
X001180Y012858D01*
X001147Y012858D01*
X001082Y012869D01*
X001019Y012889D01*
X000960Y012919D01*
X000906Y012958D01*
X000860Y013005D01*
X000821Y013058D01*
X000791Y013117D01*
X000770Y013180D01*
X000760Y013245D01*
X000760Y013278D01*
X001180Y013278D01*
X001180Y013278D01*
X001180Y013278D01*
X001600Y013278D01*
X001600Y013311D01*
X001589Y013177D02*
X001869Y013177D01*
X001916Y013019D02*
X001510Y013019D01*
X001223Y012860D02*
X002021Y012860D01*
X002097Y012702D02*
X000378Y012702D01*
X000378Y012860D02*
X001137Y012860D01*
X001180Y012860D02*
X001180Y012860D01*
X001180Y013019D02*
X001180Y013019D01*
X001180Y013177D02*
X001180Y013177D01*
X001180Y013278D02*
X000760Y013278D01*
X000760Y013311D01*
X000770Y013377D01*
X000791Y013440D01*
X000821Y013499D01*
X000860Y013552D01*
X000906Y013599D01*
X000960Y013638D01*
X001019Y013668D01*
X001082Y013688D01*
X001147Y013698D01*
X001180Y013698D01*
X001180Y013278D01*
X001180Y013278D01*
X001180Y013336D02*
X001180Y013336D01*
X001180Y013494D02*
X001180Y013494D01*
X001180Y013653D02*
X001180Y013653D01*
X000989Y013653D02*
X000378Y013653D01*
X000378Y013811D02*
X002141Y013811D01*
X001992Y013970D02*
X001393Y013970D01*
X001389Y013965D02*
X001493Y014069D01*
X001549Y014205D01*
X001549Y014352D01*
X001493Y014488D01*
X001389Y014591D01*
X001253Y014648D01*
X001107Y014648D01*
X000971Y014591D01*
X000867Y014488D01*
X000811Y014352D01*
X000811Y014205D01*
X000867Y014069D01*
X000971Y013965D01*
X001107Y013909D01*
X001253Y013909D01*
X001389Y013965D01*
X001517Y014128D02*
X001926Y014128D01*
X001911Y014287D02*
X001549Y014287D01*
X001511Y014445D02*
X001933Y014445D01*
X001999Y014604D02*
X001360Y014604D01*
X001253Y014909D02*
X001107Y014909D01*
X000971Y014965D01*
X000867Y015069D01*
X000811Y015205D01*
X000811Y015352D01*
X000867Y015488D01*
X000971Y015591D01*
X001107Y015648D01*
X001253Y015648D01*
X001389Y015591D01*
X001493Y015488D01*
X001549Y015352D01*
X001549Y015205D01*
X001493Y015069D01*
X001389Y014965D01*
X001253Y014909D01*
X001281Y014921D02*
X002032Y014921D01*
X001946Y015079D02*
X001497Y015079D01*
X001549Y015238D02*
X001911Y015238D01*
X001913Y015396D02*
X001531Y015396D01*
X001426Y015555D02*
X001978Y015555D01*
X002109Y015713D02*
X000378Y015713D01*
X000378Y015555D02*
X000934Y015555D01*
X000829Y015396D02*
X000378Y015396D01*
X000378Y015238D02*
X000811Y015238D01*
X000863Y015079D02*
X000378Y015079D01*
X000378Y014921D02*
X001079Y014921D01*
X001000Y014604D02*
X000378Y014604D01*
X000378Y014762D02*
X002158Y014762D01*
X002081Y015872D02*
X000378Y015872D01*
X000378Y016030D02*
X000906Y016030D01*
X000867Y016069D02*
X000971Y015965D01*
X001107Y015909D01*
X001253Y015909D01*
X001389Y015965D01*
X001493Y016069D01*
X001549Y016205D01*
X001549Y016352D01*
X001493Y016488D01*
X001389Y016591D01*
X001253Y016648D01*
X001107Y016648D01*
X000971Y016591D01*
X000867Y016488D01*
X000811Y016352D01*
X000811Y016205D01*
X000867Y016069D01*
X000818Y016189D02*
X000378Y016189D01*
X000378Y016347D02*
X000811Y016347D01*
X000885Y016506D02*
X000378Y016506D01*
X000378Y016664D02*
X002060Y016664D01*
X002130Y016823D02*
X000378Y016823D01*
X000378Y016981D02*
X000955Y016981D01*
X000971Y016965D02*
X001107Y016909D01*
X001253Y016909D01*
X001389Y016965D01*
X001493Y017069D01*
X001549Y017205D01*
X001549Y017352D01*
X001493Y017488D01*
X001389Y017591D01*
X001253Y017648D01*
X001107Y017648D01*
X000971Y017591D01*
X000867Y017488D01*
X000811Y017352D01*
X000811Y017205D01*
X000867Y017069D01*
X000971Y016965D01*
X000838Y017140D02*
X000378Y017140D01*
X000378Y017298D02*
X000811Y017298D01*
X000854Y017457D02*
X000378Y017457D01*
X000378Y017615D02*
X001028Y017615D01*
X001332Y017615D02*
X002011Y017615D01*
X001938Y017457D02*
X001506Y017457D01*
X001549Y017298D02*
X001911Y017298D01*
X001921Y017140D02*
X001522Y017140D01*
X001405Y016981D02*
X001987Y016981D01*
X001958Y016506D02*
X001475Y016506D01*
X001549Y016347D02*
X001911Y016347D01*
X001911Y016189D02*
X001542Y016189D01*
X001454Y016030D02*
X001967Y016030D01*
X000849Y014445D02*
X000378Y014445D01*
X000378Y014287D02*
X000811Y014287D01*
X000843Y014128D02*
X000378Y014128D01*
X000378Y013970D02*
X000967Y013970D01*
X000818Y013494D02*
X000378Y013494D01*
X000378Y013336D02*
X000764Y013336D01*
X000771Y013177D02*
X000378Y013177D01*
X000378Y013019D02*
X000850Y013019D01*
X000971Y012591D02*
X000867Y012488D01*
X000811Y012352D01*
X000811Y012205D01*
X000867Y012069D01*
X000971Y011965D01*
X001107Y011909D01*
X001253Y011909D01*
X001389Y011965D01*
X001493Y012069D01*
X001549Y012205D01*
X001549Y012352D01*
X001493Y012488D01*
X001389Y012591D01*
X001253Y012648D01*
X001107Y012648D01*
X000971Y012591D01*
X000922Y012543D02*
X000378Y012543D01*
X000378Y012385D02*
X000824Y012385D01*
X000811Y012226D02*
X000378Y012226D01*
X000378Y012068D02*
X000869Y012068D01*
X000841Y012012D02*
X000661Y012012D01*
X000533Y011884D01*
X000533Y011704D01*
X000661Y011576D01*
X000841Y011576D01*
X000969Y011704D01*
X000969Y011884D01*
X000841Y012012D01*
X000944Y011909D02*
X002043Y011909D01*
X001951Y012068D02*
X001491Y012068D01*
X001549Y012226D02*
X001911Y012226D01*
X001911Y012385D02*
X001536Y012385D01*
X001438Y012543D02*
X001973Y012543D01*
X002146Y011751D02*
X000969Y011751D01*
X000972Y011592D02*
X000857Y011592D01*
X000867Y011488D02*
X000811Y011352D01*
X000811Y011205D01*
X000867Y011069D01*
X000971Y010965D01*
X001107Y010909D01*
X001253Y010909D01*
X001389Y010965D01*
X001493Y011069D01*
X001549Y011205D01*
X001549Y011352D01*
X001493Y011488D01*
X001389Y011591D01*
X001253Y011648D01*
X001107Y011648D01*
X000971Y011591D01*
X000867Y011488D01*
X000845Y011434D02*
X000378Y011434D01*
X000378Y011592D02*
X000645Y011592D01*
X000533Y011751D02*
X000378Y011751D01*
X000378Y011909D02*
X000558Y011909D01*
X000378Y011275D02*
X000811Y011275D01*
X000847Y011117D02*
X000378Y011117D01*
X000378Y010958D02*
X000611Y010958D01*
X000661Y011008D02*
X000533Y010880D01*
X000533Y010700D01*
X000661Y010572D01*
X000841Y010572D01*
X000969Y010700D01*
X000969Y010880D01*
X000841Y011008D01*
X000661Y011008D01*
X000533Y010800D02*
X000378Y010800D01*
X000378Y010641D02*
X000592Y010641D01*
X000867Y010488D02*
X000811Y010352D01*
X000811Y010205D01*
X000867Y010069D01*
X000971Y009965D01*
X001107Y009909D01*
X001253Y009909D01*
X001389Y009965D01*
X001493Y010069D01*
X001549Y010205D01*
X001549Y010352D01*
X001493Y010488D01*
X001389Y010591D01*
X001253Y010648D01*
X001107Y010648D01*
X000971Y010591D01*
X000867Y010488D01*
X000865Y010483D02*
X000378Y010483D01*
X000378Y010324D02*
X000811Y010324D01*
X000827Y010166D02*
X000378Y010166D01*
X000378Y010007D02*
X000929Y010007D01*
X000841Y010004D02*
X000661Y010004D01*
X000533Y009877D01*
X000533Y009696D01*
X000661Y009569D01*
X000841Y009569D01*
X000969Y009696D01*
X000969Y009877D01*
X000841Y010004D01*
X000969Y009849D02*
X002104Y009849D01*
X002086Y009690D02*
X000963Y009690D01*
X000971Y009591D02*
X000867Y009488D01*
X000811Y009352D01*
X000811Y009205D01*
X000867Y009069D01*
X000971Y008965D01*
X001107Y008909D01*
X001253Y008909D01*
X001389Y008965D01*
X001493Y009069D01*
X001549Y009205D01*
X001549Y009352D01*
X001493Y009488D01*
X001389Y009591D01*
X001253Y009648D01*
X001107Y009648D01*
X000971Y009591D01*
X000911Y009532D02*
X000378Y009532D01*
X000378Y009690D02*
X000539Y009690D01*
X000533Y009849D02*
X000378Y009849D01*
X000378Y009373D02*
X000820Y009373D01*
X000811Y009215D02*
X000378Y009215D01*
X000378Y009056D02*
X000880Y009056D01*
X001107Y008648D02*
X000971Y008591D01*
X000867Y008488D01*
X000811Y008352D01*
X000811Y008205D01*
X000867Y008069D01*
X000971Y007965D01*
X001107Y007909D01*
X001253Y007909D01*
X001389Y007965D01*
X001493Y008069D01*
X001549Y008205D01*
X001549Y008352D01*
X001493Y008488D01*
X001389Y008591D01*
X001253Y008648D01*
X001107Y008648D01*
X000960Y008581D02*
X000378Y008581D01*
X000378Y008739D02*
X002135Y008739D01*
X002055Y008898D02*
X000378Y008898D01*
X000378Y008422D02*
X000840Y008422D01*
X000811Y008264D02*
X000378Y008264D01*
X000378Y008105D02*
X000852Y008105D01*
X000841Y007996D02*
X000661Y007996D01*
X000533Y007869D01*
X000533Y007688D01*
X000661Y007561D01*
X000841Y007561D01*
X000969Y007688D01*
X000969Y007869D01*
X000841Y007996D01*
X000891Y007947D02*
X001017Y007947D01*
X000969Y007788D02*
X002172Y007788D01*
X002025Y007630D02*
X001297Y007630D01*
X001253Y007648D02*
X001107Y007648D01*
X000971Y007591D01*
X000867Y007488D01*
X000811Y007352D01*
X000811Y007205D01*
X000867Y007069D01*
X000971Y006965D01*
X001107Y006909D01*
X001253Y006909D01*
X001389Y006965D01*
X001493Y007069D01*
X001549Y007205D01*
X001549Y007352D01*
X001493Y007488D01*
X001389Y007591D01*
X001253Y007648D01*
X001063Y007630D02*
X000910Y007630D01*
X000860Y007471D02*
X000378Y007471D01*
X000378Y007313D02*
X000811Y007313D01*
X000832Y007154D02*
X000378Y007154D01*
X000378Y006996D02*
X000941Y006996D01*
X000861Y006992D02*
X000680Y006992D01*
X000553Y006865D01*
X000553Y006684D01*
X000680Y006557D01*
X000861Y006557D01*
X000988Y006684D01*
X000988Y006865D01*
X000861Y006992D01*
X000988Y006837D02*
X002115Y006837D01*
X002074Y006679D02*
X000983Y006679D01*
X000971Y006591D02*
X000867Y006488D01*
X000811Y006352D01*
X000811Y006205D01*
X000867Y006069D01*
X000971Y005965D01*
X001107Y005909D01*
X001253Y005909D01*
X001389Y005965D01*
X001493Y006069D01*
X001549Y006205D01*
X001549Y006352D01*
X001493Y006488D01*
X001389Y006591D01*
X001253Y006648D01*
X001107Y006648D01*
X000971Y006591D01*
X000899Y006520D02*
X000378Y006520D01*
X000378Y006362D02*
X000815Y006362D01*
X000812Y006203D02*
X000378Y006203D01*
X000378Y006045D02*
X000892Y006045D01*
X000861Y006008D02*
X000680Y006008D01*
X000553Y005880D01*
X000553Y005700D01*
X000680Y005572D01*
X000861Y005572D01*
X000988Y005700D01*
X000988Y005880D01*
X000861Y006008D01*
X000983Y005886D02*
X002066Y005886D01*
X002123Y005728D02*
X000988Y005728D01*
X000971Y005591D02*
X000867Y005488D01*
X000811Y005352D01*
X000811Y005205D01*
X000867Y005069D01*
X000971Y004965D01*
X001107Y004909D01*
X001253Y004909D01*
X001389Y004965D01*
X001493Y005069D01*
X001549Y005205D01*
X001549Y005352D01*
X001493Y005488D01*
X001389Y005591D01*
X001253Y005648D01*
X001107Y005648D01*
X000971Y005591D01*
X000948Y005569D02*
X000378Y005569D01*
X000378Y005411D02*
X000835Y005411D01*
X000811Y005252D02*
X000378Y005252D01*
X000378Y005094D02*
X000857Y005094D01*
X000861Y004984D02*
X000680Y004984D01*
X000553Y004857D01*
X000553Y004676D01*
X000680Y004549D01*
X000861Y004549D01*
X000988Y004676D01*
X000988Y004857D01*
X000861Y004984D01*
X000910Y004935D02*
X001044Y004935D01*
X000988Y004777D02*
X002191Y004777D01*
X002017Y004935D02*
X001316Y004935D01*
X001253Y004648D02*
X001107Y004648D01*
X000971Y004591D01*
X000867Y004488D01*
X000811Y004352D01*
X000811Y004205D01*
X000867Y004069D01*
X000971Y003965D01*
X001107Y003909D01*
X001253Y003909D01*
X001389Y003965D01*
X001493Y004069D01*
X001549Y004205D01*
X001549Y004352D01*
X001493Y004488D01*
X001389Y004591D01*
X001253Y004648D01*
X001325Y004618D02*
X002014Y004618D01*
X001939Y004460D02*
X001505Y004460D01*
X001549Y004301D02*
X001911Y004301D01*
X001920Y004143D02*
X001523Y004143D01*
X001408Y003984D02*
X001986Y003984D01*
X002127Y003826D02*
X000988Y003826D01*
X000988Y003853D02*
X000861Y003980D01*
X000680Y003980D01*
X000553Y003853D01*
X000553Y003672D01*
X000680Y003545D01*
X000861Y003545D01*
X000988Y003672D01*
X000988Y003853D01*
X000952Y003984D02*
X000378Y003984D01*
X000378Y003826D02*
X000553Y003826D01*
X000558Y003667D02*
X000378Y003667D01*
X000378Y003509D02*
X000888Y003509D01*
X000867Y003488D02*
X000811Y003352D01*
X000811Y003205D01*
X000867Y003069D01*
X000971Y002965D01*
X001107Y002909D01*
X001253Y002909D01*
X001389Y002965D01*
X001493Y003069D01*
X001549Y003205D01*
X001549Y003352D01*
X001493Y003488D01*
X001389Y003591D01*
X001253Y003648D01*
X001107Y003648D01*
X000971Y003591D01*
X000867Y003488D01*
X000811Y003350D02*
X000378Y003350D01*
X000378Y003192D02*
X000816Y003192D01*
X000903Y003033D02*
X000378Y003033D01*
X000378Y002875D02*
X000539Y002875D01*
X000533Y002869D02*
X000533Y002688D01*
X000661Y002561D01*
X000841Y002561D01*
X000969Y002688D01*
X000969Y002869D01*
X000841Y002996D01*
X000661Y002996D01*
X000533Y002869D01*
X000533Y002716D02*
X000378Y002716D01*
X000378Y002558D02*
X000937Y002558D01*
X000971Y002591D02*
X000867Y002488D01*
X000811Y002352D01*
X000811Y002205D01*
X000867Y002069D01*
X000971Y001965D01*
X001107Y001909D01*
X001253Y001909D01*
X001389Y001965D01*
X001493Y002069D01*
X001549Y002205D01*
X001549Y002352D01*
X001493Y002488D01*
X001389Y002591D01*
X001253Y002648D01*
X001107Y002648D01*
X000971Y002591D01*
X000969Y002716D02*
X002112Y002716D01*
X002078Y002875D02*
X000963Y002875D01*
X000830Y002399D02*
X000378Y002399D01*
X000378Y002241D02*
X000811Y002241D01*
X000862Y002082D02*
X000378Y002082D01*
X000378Y001924D02*
X000592Y001924D01*
X000553Y001884D02*
X000553Y001704D01*
X000680Y001576D01*
X000861Y001576D01*
X000988Y001704D01*
X000988Y001884D01*
X000861Y002012D01*
X000680Y002012D01*
X000553Y001884D01*
X000553Y001765D02*
X000378Y001765D01*
X000378Y001607D02*
X000650Y001607D01*
X000867Y001488D02*
X000811Y001352D01*
X000811Y001205D01*
X000867Y001069D01*
X000971Y000965D01*
X001107Y000909D01*
X001253Y000909D01*
X001389Y000965D01*
X001493Y001069D01*
X001549Y001205D01*
X001549Y001352D01*
X001493Y001488D01*
X001389Y001591D01*
X001253Y001648D01*
X001107Y001648D01*
X000971Y001591D01*
X000867Y001488D01*
X000851Y001448D02*
X000378Y001448D01*
X000378Y001290D02*
X000811Y001290D01*
X000841Y001131D02*
X000378Y001131D01*
X000378Y000973D02*
X000964Y000973D01*
X001396Y000973D02*
X001991Y000973D01*
X001925Y001131D02*
X001519Y001131D01*
X001549Y001290D02*
X001911Y001290D01*
X001934Y001448D02*
X001509Y001448D01*
X001353Y001607D02*
X002002Y001607D01*
X002163Y001765D02*
X000988Y001765D01*
X001007Y001607D02*
X000891Y001607D01*
X000949Y001924D02*
X001072Y001924D01*
X001288Y001924D02*
X002029Y001924D01*
X001945Y002082D02*
X001498Y002082D01*
X001549Y002241D02*
X001911Y002241D01*
X001914Y002399D02*
X001530Y002399D01*
X001423Y002558D02*
X001979Y002558D01*
X001966Y003033D02*
X001457Y003033D01*
X001544Y003192D02*
X001911Y003192D01*
X001911Y003350D02*
X001549Y003350D01*
X001472Y003509D02*
X001959Y003509D01*
X002063Y003667D02*
X000983Y003667D01*
X000837Y004143D02*
X000378Y004143D01*
X000378Y004301D02*
X000811Y004301D01*
X000855Y004460D02*
X000378Y004460D01*
X000378Y004618D02*
X000611Y004618D01*
X000553Y004777D02*
X000378Y004777D01*
X000378Y004935D02*
X000631Y004935D01*
X000930Y004618D02*
X001035Y004618D01*
X001503Y005094D02*
X001940Y005094D01*
X001911Y005252D02*
X001549Y005252D01*
X001525Y005411D02*
X001919Y005411D01*
X001984Y005569D02*
X001412Y005569D01*
X001468Y006045D02*
X001961Y006045D01*
X001911Y006203D02*
X001548Y006203D01*
X001545Y006362D02*
X001911Y006362D01*
X001964Y006520D02*
X001461Y006520D01*
X001419Y006996D02*
X001981Y006996D01*
X001915Y007154D02*
X001528Y007154D01*
X001549Y007313D02*
X001911Y007313D01*
X001944Y007471D02*
X001500Y007471D01*
X001343Y007947D02*
X002006Y007947D01*
X001936Y008105D02*
X001508Y008105D01*
X001549Y008264D02*
X001911Y008264D01*
X001923Y008422D02*
X001520Y008422D01*
X001400Y008581D02*
X001989Y008581D01*
X001956Y009056D02*
X001480Y009056D01*
X001549Y009215D02*
X001911Y009215D01*
X001911Y009373D02*
X001540Y009373D01*
X001449Y009532D02*
X001969Y009532D01*
X001976Y010007D02*
X001431Y010007D01*
X001533Y010166D02*
X001911Y010166D01*
X001911Y010324D02*
X001549Y010324D01*
X001495Y010483D02*
X001948Y010483D01*
X002037Y010641D02*
X001269Y010641D01*
X001091Y010641D02*
X000910Y010641D01*
X000969Y010800D02*
X002153Y010800D01*
X001997Y010958D02*
X001371Y010958D01*
X001513Y011117D02*
X001931Y011117D01*
X001911Y011275D02*
X001549Y011275D01*
X001515Y011434D02*
X001928Y011434D01*
X001994Y011592D02*
X001388Y011592D01*
X000989Y010958D02*
X000891Y010958D01*
X001542Y013494D02*
X001898Y013494D01*
X001985Y013653D02*
X001371Y013653D01*
X000858Y018091D02*
X000378Y018091D01*
X000378Y018249D02*
X000811Y018249D01*
X000834Y018408D02*
X000378Y018408D01*
X000378Y018566D02*
X000945Y018566D01*
X000895Y019042D02*
X000378Y019042D01*
X000378Y019200D02*
X000813Y019200D01*
X000814Y019359D02*
X000378Y019359D01*
X000378Y019517D02*
X000896Y019517D01*
X000944Y019993D02*
X000378Y019993D01*
X000378Y020151D02*
X000833Y020151D01*
X000811Y020310D02*
X000378Y020310D01*
X000378Y020468D02*
X000859Y020468D01*
X004936Y011592D02*
X005104Y011592D01*
X004363Y007373D02*
X004256Y007373D01*
X004256Y007231D01*
X004248Y007224D01*
X004335Y007224D01*
X004463Y007096D01*
X004463Y006916D01*
X004335Y006788D01*
X004155Y006788D01*
X004030Y006913D01*
X004030Y006876D01*
X003975Y006821D01*
X003997Y006806D01*
X004018Y006806D01*
X004060Y006764D01*
X004110Y006731D01*
X004114Y006710D01*
X004129Y006695D01*
X004129Y006636D01*
X004141Y006577D01*
X004129Y006560D01*
X004129Y006106D01*
X004148Y006087D01*
X004325Y006087D01*
X004453Y005959D01*
X004453Y005779D01*
X004424Y005750D01*
X004424Y005641D01*
X004439Y005592D01*
X004424Y005565D01*
X004424Y005535D01*
X004389Y005499D01*
X004365Y005454D01*
X004335Y005446D01*
X004313Y005424D01*
X004263Y005424D01*
X004227Y005413D01*
X004227Y000880D01*
X004322Y000802D01*
X008150Y000802D01*
X007998Y000954D01*
X007911Y001165D01*
X007911Y001392D01*
X007998Y001603D01*
X008159Y001763D01*
X008195Y001778D01*
X008159Y001793D01*
X007998Y001954D01*
X007911Y002165D01*
X007911Y002392D01*
X007998Y002603D01*
X008159Y002763D01*
X008195Y002778D01*
X008159Y002793D01*
X007998Y002954D01*
X007911Y003165D01*
X007911Y003392D01*
X007998Y003603D01*
X008159Y003763D01*
X008195Y003778D01*
X008159Y003793D01*
X007998Y003954D01*
X007944Y004086D01*
X007941Y004083D01*
X007872Y004090D01*
X007803Y004090D01*
X007796Y004098D01*
X007785Y004099D01*
X007741Y004152D01*
X007693Y004201D01*
X007693Y004211D01*
X007648Y004255D01*
X007648Y004266D01*
X007641Y004274D01*
X007648Y004343D01*
X007648Y004579D01*
X007632Y004597D01*
X007375Y004597D01*
X007389Y004591D01*
X007493Y004488D01*
X007549Y004352D01*
X007549Y004205D01*
X007493Y004069D01*
X007389Y003965D01*
X007253Y003909D01*
X007107Y003909D01*
X006971Y003965D01*
X006867Y004069D01*
X006811Y004205D01*
X006811Y004352D01*
X006867Y004488D01*
X006971Y004591D01*
X006985Y004597D01*
X006814Y004597D01*
X006703Y004708D01*
X006566Y004846D01*
X006566Y005266D01*
X005414Y005266D01*
X005412Y005265D01*
X005335Y005266D01*
X005259Y005266D01*
X005257Y005268D01*
X005255Y005268D01*
X005202Y005323D01*
X005153Y005373D01*
X005153Y004492D01*
X005240Y004404D01*
X005240Y004224D01*
X005113Y004096D01*
X004932Y004096D01*
X004805Y004224D01*
X004805Y004264D01*
X004774Y004295D01*
X004774Y004880D01*
X004759Y004864D01*
X004759Y004038D01*
X004766Y004031D01*
X005672Y004031D01*
X005783Y003920D01*
X005901Y003802D01*
X005901Y002180D01*
X006321Y002180D01*
X006432Y002069D01*
X006491Y002010D01*
X006491Y002002D01*
X006568Y002002D01*
X006659Y001964D01*
X006728Y001895D01*
X006766Y001804D01*
X006766Y001706D01*
X006728Y001615D01*
X006659Y001545D01*
X006568Y001507D01*
X006469Y001507D01*
X006378Y001545D01*
X006358Y001566D01*
X006302Y001566D01*
X006224Y001644D01*
X006113Y001755D01*
X006113Y001802D01*
X005692Y001802D01*
X005633Y001861D01*
X005522Y001972D01*
X005522Y002007D01*
X005505Y002000D01*
X005406Y002000D01*
X005315Y002037D01*
X005246Y002107D01*
X005208Y002198D01*
X005208Y002296D01*
X005246Y002387D01*
X005315Y002457D01*
X005406Y002494D01*
X005505Y002494D01*
X005522Y002487D01*
X005522Y003125D01*
X005497Y003100D01*
X005406Y003063D01*
X005308Y003063D01*
X005217Y003100D01*
X005147Y003170D01*
X005110Y003261D01*
X005110Y003359D01*
X005147Y003450D01*
X005217Y003520D01*
X005308Y003557D01*
X005406Y003557D01*
X005497Y003520D01*
X005522Y003495D01*
X005522Y003645D01*
X005515Y003652D01*
X004609Y003652D01*
X004491Y003770D01*
X004381Y003881D01*
X004381Y004864D01*
X004352Y004893D01*
X004352Y005073D01*
X004480Y005201D01*
X004595Y005201D01*
X004490Y005306D01*
X004490Y005487D01*
X004518Y005515D01*
X004518Y007334D01*
X004402Y007334D01*
X004363Y007373D01*
X004256Y007313D02*
X004518Y007313D01*
X004518Y007154D02*
X004405Y007154D01*
X004463Y006996D02*
X004518Y006996D01*
X004518Y006837D02*
X004384Y006837D01*
X004518Y006679D02*
X004129Y006679D01*
X004129Y006520D02*
X004518Y006520D01*
X004518Y006362D02*
X004129Y006362D01*
X004129Y006203D02*
X004518Y006203D01*
X004518Y006045D02*
X004368Y006045D01*
X004453Y005886D02*
X004518Y005886D01*
X004518Y005728D02*
X004424Y005728D01*
X004426Y005569D02*
X004518Y005569D01*
X004490Y005411D02*
X004227Y005411D01*
X004227Y005252D02*
X004544Y005252D01*
X004372Y005094D02*
X004227Y005094D01*
X004227Y004935D02*
X004352Y004935D01*
X004381Y004777D02*
X004227Y004777D01*
X004227Y004618D02*
X004381Y004618D01*
X004381Y004460D02*
X004227Y004460D01*
X004227Y004301D02*
X004381Y004301D01*
X004381Y004143D02*
X004227Y004143D01*
X004227Y003984D02*
X004381Y003984D01*
X004436Y003826D02*
X004227Y003826D01*
X004227Y003667D02*
X004595Y003667D01*
X004227Y003509D02*
X005206Y003509D01*
X005110Y003350D02*
X004227Y003350D01*
X004227Y003192D02*
X005139Y003192D01*
X005131Y003045D02*
X005040Y003008D01*
X004970Y002938D01*
X004933Y002847D01*
X004933Y002749D01*
X004970Y002658D01*
X005040Y002588D01*
X005131Y002551D01*
X005229Y002551D01*
X005320Y002588D01*
X005390Y002658D01*
X005427Y002749D01*
X005427Y002847D01*
X005390Y002938D01*
X005320Y003008D01*
X005229Y003045D01*
X005131Y003045D01*
X005101Y003033D02*
X004227Y003033D01*
X004227Y002875D02*
X004944Y002875D01*
X004946Y002716D02*
X004227Y002716D01*
X004227Y002558D02*
X005115Y002558D01*
X005245Y002558D02*
X005522Y002558D01*
X005522Y002716D02*
X005414Y002716D01*
X005416Y002875D02*
X005522Y002875D01*
X005522Y003033D02*
X005259Y003033D01*
X005508Y003509D02*
X005522Y003509D01*
X005718Y003984D02*
X006952Y003984D01*
X006837Y004143D02*
X006106Y004143D01*
X006118Y004154D02*
X006156Y004245D01*
X006156Y004343D01*
X006118Y004434D01*
X006048Y004504D01*
X005958Y004541D01*
X005859Y004541D01*
X005768Y004504D01*
X005699Y004434D01*
X005661Y004343D01*
X005661Y004245D01*
X005699Y004154D01*
X005768Y004085D01*
X005859Y004047D01*
X005958Y004047D01*
X006048Y004085D01*
X006118Y004154D01*
X006156Y004301D02*
X006811Y004301D01*
X006855Y004460D02*
X006093Y004460D01*
X005724Y004460D02*
X005185Y004460D01*
X005153Y004618D02*
X006793Y004618D01*
X006635Y004777D02*
X005153Y004777D01*
X005153Y004935D02*
X006566Y004935D01*
X006566Y005094D02*
X005153Y005094D01*
X005153Y005252D02*
X006566Y005252D01*
X005710Y004143D02*
X005159Y004143D01*
X005240Y004301D02*
X005661Y004301D01*
X005877Y003826D02*
X008127Y003826D01*
X008063Y003667D02*
X005901Y003667D01*
X005901Y003509D02*
X006888Y003509D01*
X006867Y003488D02*
X006811Y003352D01*
X006811Y003205D01*
X006867Y003069D01*
X006971Y002965D01*
X007107Y002909D01*
X007253Y002909D01*
X007389Y002965D01*
X007493Y003069D01*
X007549Y003205D01*
X007549Y003352D01*
X007493Y003488D01*
X007389Y003591D01*
X007253Y003648D01*
X007107Y003648D01*
X006971Y003591D01*
X006867Y003488D01*
X006811Y003350D02*
X005901Y003350D01*
X005901Y003192D02*
X006816Y003192D01*
X006903Y003033D02*
X005901Y003033D01*
X005901Y002875D02*
X008078Y002875D01*
X008112Y002716D02*
X005901Y002716D01*
X005901Y002558D02*
X006937Y002558D01*
X006971Y002591D02*
X006867Y002488D01*
X006811Y002352D01*
X006811Y002205D01*
X006867Y002069D01*
X006971Y001965D01*
X007107Y001909D01*
X007253Y001909D01*
X007389Y001965D01*
X007493Y002069D01*
X007549Y002205D01*
X007549Y002352D01*
X007493Y002488D01*
X007389Y002591D01*
X007253Y002648D01*
X007107Y002648D01*
X006971Y002591D01*
X006830Y002399D02*
X005901Y002399D01*
X005901Y002241D02*
X006811Y002241D01*
X006862Y002082D02*
X006420Y002082D01*
X006700Y001924D02*
X007072Y001924D01*
X007288Y001924D02*
X008029Y001924D01*
X007945Y002082D02*
X007498Y002082D01*
X007549Y002241D02*
X007911Y002241D01*
X007914Y002399D02*
X007530Y002399D01*
X007423Y002558D02*
X007979Y002558D01*
X007966Y003033D02*
X007457Y003033D01*
X007544Y003192D02*
X007911Y003192D01*
X007911Y003350D02*
X007549Y003350D01*
X007472Y003509D02*
X007959Y003509D01*
X007986Y003984D02*
X007408Y003984D01*
X007523Y004143D02*
X007749Y004143D01*
X007644Y004301D02*
X007549Y004301D01*
X007505Y004460D02*
X007648Y004460D01*
X008163Y001765D02*
X006766Y001765D01*
X006720Y001607D02*
X007007Y001607D01*
X006971Y001591D02*
X006867Y001488D01*
X006811Y001352D01*
X006811Y001205D01*
X006867Y001069D01*
X006971Y000965D01*
X007107Y000909D01*
X007253Y000909D01*
X007389Y000965D01*
X007493Y001069D01*
X007549Y001205D01*
X007549Y001352D01*
X007493Y001488D01*
X007389Y001591D01*
X007253Y001648D01*
X007107Y001648D01*
X006971Y001591D01*
X006851Y001448D02*
X004227Y001448D01*
X004227Y001290D02*
X006811Y001290D01*
X006841Y001131D02*
X004227Y001131D01*
X004227Y000973D02*
X006964Y000973D01*
X007396Y000973D02*
X007991Y000973D01*
X007925Y001131D02*
X007519Y001131D01*
X007549Y001290D02*
X007911Y001290D01*
X007934Y001448D02*
X007509Y001448D01*
X007353Y001607D02*
X008002Y001607D01*
X008138Y000814D02*
X004308Y000814D01*
X004098Y000497D02*
X000378Y000497D01*
X000378Y000656D02*
X003904Y000656D01*
X003846Y000814D02*
X002828Y000814D01*
X002976Y000973D02*
X003849Y000973D01*
X003849Y001131D02*
X003041Y001131D01*
X003055Y001290D02*
X003849Y001290D01*
X003849Y001448D02*
X003032Y001448D01*
X002964Y001607D02*
X003849Y001607D01*
X003849Y001765D02*
X002803Y001765D01*
X002937Y001924D02*
X003849Y001924D01*
X003849Y002082D02*
X003021Y002082D01*
X003055Y002241D02*
X003849Y002241D01*
X003849Y002399D02*
X003052Y002399D01*
X002987Y002558D02*
X003849Y002558D01*
X003849Y002716D02*
X002855Y002716D01*
X002888Y002875D02*
X003849Y002875D01*
X003849Y003033D02*
X003001Y003033D01*
X003055Y003192D02*
X003849Y003192D01*
X003849Y003350D02*
X003055Y003350D01*
X003007Y003509D02*
X003849Y003509D01*
X003849Y003667D02*
X002904Y003667D01*
X002839Y003826D02*
X003849Y003826D01*
X003849Y003984D02*
X002980Y003984D01*
X003046Y004143D02*
X003849Y004143D01*
X003849Y004301D02*
X003055Y004301D01*
X003027Y004460D02*
X003849Y004460D01*
X003849Y004618D02*
X002953Y004618D01*
X002776Y004777D02*
X003849Y004777D01*
X003849Y004935D02*
X002949Y004935D01*
X003026Y005094D02*
X003849Y005094D01*
X003849Y005252D02*
X003055Y005252D01*
X003048Y005411D02*
X003849Y005411D01*
X003836Y005569D02*
X002982Y005569D01*
X002843Y005728D02*
X003944Y005728D01*
X003733Y005886D02*
X002900Y005886D01*
X003006Y006045D02*
X003722Y006045D01*
X003751Y006203D02*
X003055Y006203D01*
X003055Y006362D02*
X003751Y006362D01*
X003572Y006520D02*
X003002Y006520D01*
X002892Y006679D02*
X003414Y006679D01*
X003377Y006837D02*
X002851Y006837D01*
X002985Y006996D02*
X003377Y006996D01*
X003092Y007154D02*
X003051Y007154D01*
X003990Y006837D02*
X004106Y006837D01*
X004759Y004777D02*
X004774Y004777D01*
X004759Y004618D02*
X004774Y004618D01*
X004759Y004460D02*
X004774Y004460D01*
X004759Y004301D02*
X004774Y004301D01*
X004759Y004143D02*
X004886Y004143D01*
X005258Y002399D02*
X004227Y002399D01*
X004227Y002241D02*
X005208Y002241D01*
X005271Y002082D02*
X004227Y002082D01*
X004227Y001924D02*
X005570Y001924D01*
X006113Y001765D02*
X004227Y001765D01*
X004227Y001607D02*
X006262Y001607D01*
X008954Y000497D02*
X009234Y000497D01*
X009234Y000656D02*
X009078Y000656D01*
X009205Y000814D02*
X009234Y000814D01*
X002138Y000814D02*
X000378Y000814D01*
X000378Y005728D02*
X000553Y005728D01*
X000558Y005886D02*
X000378Y005886D01*
X000378Y006679D02*
X000559Y006679D01*
X000553Y006837D02*
X000378Y006837D01*
X000378Y007630D02*
X000592Y007630D01*
X000533Y007788D02*
X000378Y007788D01*
X000378Y007947D02*
X000611Y007947D01*
D16*
X003841Y017759D03*
D17*
X004885Y014786D02*
X007936Y014786D01*
X008483Y014278D01*
X007983Y012778D02*
X008483Y012278D01*
X007983Y012778D02*
X006814Y012778D01*
X006637Y012660D01*
X006637Y012030D01*
X006519Y011893D01*
X005672Y011893D01*
X004806Y011026D01*
X004274Y010652D01*
X004511Y010357D02*
X004589Y010278D01*
X004589Y010027D01*
X004511Y010357D02*
X003546Y010357D01*
X003546Y010869D01*
X003645Y010967D01*
X003960Y010967D01*
X004432Y011223D02*
X003467Y011223D01*
X003330Y011086D01*
X003330Y007660D01*
X003428Y007562D01*
X004496Y007562D01*
X004471Y007995D02*
X004255Y007995D01*
X004176Y008074D01*
X004176Y008487D01*
X004235Y008546D01*
X004274Y008546D01*
X004442Y008718D01*
X004442Y009235D01*
X003960Y009393D02*
X003900Y009393D01*
X003841Y009334D01*
X003841Y008625D01*
X003960Y008507D01*
X003960Y007975D01*
X003822Y007778D01*
X003507Y007267D02*
X003566Y007168D01*
X003566Y006794D01*
X003664Y006696D01*
X003822Y006696D01*
X003940Y006617D01*
X003940Y005987D01*
X004235Y005869D02*
X004235Y005613D01*
X004038Y005554D01*
X004038Y000790D01*
X004255Y000613D01*
X008802Y000613D01*
X009117Y001007D01*
X009117Y010219D01*
X009058Y010278D01*
X008483Y010278D01*
X007837Y009668D02*
X007700Y009806D01*
X006597Y009806D01*
X006538Y009747D01*
X006538Y009294D01*
X006400Y009156D01*
X006361Y009156D01*
X005810Y009963D02*
X005869Y010003D01*
X006046Y010200D01*
X006046Y010298D01*
X005810Y009963D02*
X005771Y009924D01*
X005771Y009885D01*
X005672Y009786D01*
X005672Y009412D01*
X005613Y009353D01*
X005613Y007483D01*
X005692Y007385D01*
X005692Y005948D01*
X005889Y005810D01*
X005337Y005456D02*
X006656Y005456D01*
X006755Y005357D01*
X006755Y004924D01*
X006893Y004786D01*
X007719Y004786D01*
X007837Y004649D01*
X007837Y004334D01*
X007882Y004279D01*
X008482Y004279D01*
X008483Y004278D01*
X008483Y005278D02*
X007995Y005278D01*
X007837Y005416D01*
X007837Y009668D01*
X005224Y009393D02*
X005224Y005574D01*
X005337Y005456D01*
X004708Y005397D02*
X004708Y008290D01*
X004471Y008349D01*
X003969Y009712D02*
X003620Y009712D01*
X003546Y009806D01*
X003546Y010357D01*
X003093Y010711D02*
X003034Y010771D01*
X002975Y010771D01*
X003093Y010711D02*
X003093Y007404D01*
X003251Y007267D01*
X003507Y007267D01*
X004570Y004983D02*
X004570Y003960D01*
X004688Y003841D01*
X005593Y003841D01*
X005711Y003723D01*
X005711Y002050D01*
X005771Y001991D01*
X006243Y001991D01*
X006302Y001932D01*
X006302Y001834D01*
X006381Y001755D01*
X006519Y001755D01*
X005023Y004314D02*
X004963Y004373D01*
X004963Y010062D01*
X005082Y010239D01*
X005082Y010613D01*
X005121Y010652D01*
X005219Y010652D01*
X004767Y011440D02*
X004629Y011440D01*
X004432Y011223D01*
X004727Y012089D02*
X004727Y014589D01*
X004885Y014786D01*
X007837Y019845D02*
X007739Y019983D01*
X007739Y021223D01*
X007837Y021302D01*
X010633Y021302D01*
D18*
X007837Y019845D03*
X007542Y011794D03*
X006007Y009762D03*
X006007Y009432D03*
X005889Y009038D03*
X004496Y007562D03*
X004028Y007326D03*
X004117Y008822D03*
X003576Y008969D03*
X004767Y011440D03*
D19*
X004294Y009727D02*
X004294Y009722D01*
X004442Y009589D01*
D20*
X004747Y009589D01*
X004806Y009530D01*
X004806Y009294D01*
X004747Y009235D01*
X004442Y009235D01*
M02*
