G75*
G70*
%OFA0B0*%
%FSLAX24Y24*%
%IPPOS*%
%LPD*%
%AMOC8*
5,1,8,0,0,1.08239X$1,22.5*
%
%ADD10C,0.0000*%
%ADD11C,0.0090*%
%ADD12C,0.0070*%
%ADD13C,0.0050*%
%ADD14C,0.0060*%
%ADD15C,0.0040*%
%ADD16C,0.0080*%
%ADD17C,0.0237*%
%ADD18R,0.0118X0.0344*%
%ADD19C,0.0100*%
%ADD20C,0.0020*%
%ADD21R,0.0344X0.0197*%
%ADD22R,0.0256X0.0551*%
%ADD23R,0.0197X0.0630*%
%ADD24C,0.0030*%
D10*
X000180Y000180D02*
X000180Y021735D01*
X012582Y021735D01*
X012582Y010121D01*
X009432Y010121D01*
X009432Y000180D01*
X000180Y000180D01*
D11*
X010226Y011280D02*
X010158Y011349D01*
X010158Y011486D01*
X010226Y011554D01*
X010295Y011554D01*
X010363Y011486D01*
X010363Y011280D01*
X010226Y011280D01*
X010363Y011280D02*
X010500Y011417D01*
X010568Y011554D01*
X010432Y014824D02*
X010568Y014960D01*
X010158Y014960D01*
X010158Y014824D02*
X010158Y015097D01*
D12*
X009988Y015015D02*
X009664Y015015D01*
X009664Y015231D01*
X009664Y015377D02*
X009988Y015377D01*
X009988Y015593D01*
X009826Y015485D02*
X009826Y015377D01*
X009988Y015231D02*
X009988Y015015D01*
X009934Y014868D02*
X009826Y014868D01*
X009772Y014814D01*
X009772Y014652D01*
X009664Y014652D02*
X009988Y014652D01*
X009988Y014814D01*
X009934Y014868D01*
X009826Y015015D02*
X009826Y015123D01*
X009664Y014868D02*
X009772Y014760D01*
X009772Y014506D02*
X009988Y014506D01*
X009772Y014506D02*
X009664Y014398D01*
X009772Y014290D01*
X009988Y014290D01*
X009934Y014122D02*
X009826Y014122D01*
X009772Y014068D01*
X009772Y013960D02*
X009880Y013960D01*
X009772Y013960D02*
X009772Y013852D01*
X009826Y013798D01*
X009934Y013798D01*
X009988Y013852D01*
X009988Y014068D01*
X009934Y014122D01*
X009625Y014122D02*
X009625Y013798D01*
X009571Y013630D02*
X009625Y013576D01*
X009625Y013360D01*
X009571Y013306D01*
X009463Y013306D01*
X009409Y013360D01*
X009262Y013414D02*
X009047Y013630D01*
X009101Y013798D02*
X009047Y013852D01*
X009047Y014068D01*
X009101Y014122D01*
X009262Y014122D01*
X009262Y013798D01*
X009101Y013798D01*
X009262Y013630D02*
X009262Y013306D01*
X009208Y013468D02*
X009047Y013306D01*
X009101Y013137D02*
X009047Y013083D01*
X009047Y012867D01*
X009101Y012813D01*
X009208Y012813D01*
X009262Y012867D01*
X009262Y013083D01*
X009208Y013137D01*
X009101Y013137D01*
X009409Y013083D02*
X009409Y012867D01*
X009463Y012813D01*
X009625Y012813D01*
X009625Y013137D01*
X009463Y013137D01*
X009409Y013083D01*
X009463Y012645D02*
X009625Y012645D01*
X009625Y012321D01*
X009463Y012321D01*
X009409Y012375D01*
X009409Y012591D01*
X009463Y012645D01*
X009262Y012645D02*
X009155Y012645D01*
X009208Y012645D02*
X009208Y012321D01*
X009155Y012321D02*
X009262Y012321D01*
X009208Y012153D02*
X009101Y012153D01*
X009047Y012099D01*
X009101Y011991D02*
X009047Y011937D01*
X009047Y011883D01*
X009101Y011829D01*
X009208Y011829D01*
X009262Y011883D01*
X009208Y011991D02*
X009101Y011991D01*
X009208Y011991D02*
X009262Y012045D01*
X009262Y012099D01*
X009208Y012153D01*
X009409Y012153D02*
X009409Y011829D01*
X009517Y012045D02*
X009409Y012153D01*
X009517Y012045D02*
X009625Y012153D01*
X009625Y011829D01*
X009880Y011829D02*
X009880Y012153D01*
X009988Y012153D02*
X009772Y012153D01*
X009880Y012321D02*
X009880Y012645D01*
X009988Y012645D02*
X009772Y012645D01*
X009880Y012813D02*
X009880Y013137D01*
X009988Y013137D02*
X009772Y013137D01*
X009880Y013306D02*
X009880Y013630D01*
X009988Y013630D02*
X009772Y013630D01*
X009571Y013630D02*
X009463Y013630D01*
X009409Y013576D01*
X009409Y013798D02*
X009409Y014122D01*
X009625Y014122D02*
X009409Y013798D01*
X009407Y016537D02*
X009627Y016537D01*
X009517Y016537D02*
X009517Y016867D01*
X009627Y016757D01*
X009776Y016702D02*
X009831Y016647D01*
X009996Y016647D01*
X009996Y016537D02*
X009996Y016867D01*
X009831Y016867D01*
X009776Y016812D01*
X009776Y016702D01*
X009886Y016647D02*
X009776Y016537D01*
X010226Y019649D02*
X010446Y019649D01*
X010226Y019869D01*
X010226Y019924D01*
X010281Y019979D01*
X010391Y019979D01*
X010446Y019924D01*
X010594Y019979D02*
X010814Y019649D01*
X010594Y019649D02*
X010814Y019979D01*
X006602Y020924D02*
X006382Y021254D01*
X006233Y021199D02*
X006178Y021254D01*
X006068Y021254D01*
X006013Y021199D01*
X006013Y021144D01*
X006068Y021089D01*
X006013Y021034D01*
X006013Y020979D01*
X006068Y020924D01*
X006178Y020924D01*
X006233Y020979D01*
X006123Y021089D02*
X006068Y021089D01*
X006382Y020924D02*
X006602Y021254D01*
X006096Y019823D02*
X005766Y019823D01*
X005766Y019713D02*
X005766Y019933D01*
X005821Y019565D02*
X005766Y019510D01*
X005766Y019400D01*
X005821Y019345D01*
X006041Y019345D01*
X006096Y019400D01*
X006096Y019510D01*
X006041Y019565D01*
X005986Y019713D02*
X006096Y019823D01*
X006047Y018764D02*
X005992Y018764D01*
X005937Y018709D01*
X005882Y018764D01*
X005827Y018764D01*
X005772Y018709D01*
X005772Y018599D01*
X005827Y018544D01*
X005827Y018396D02*
X005772Y018341D01*
X005772Y018231D01*
X005827Y018176D01*
X006047Y018176D01*
X006102Y018231D01*
X006102Y018341D01*
X006047Y018396D01*
X006047Y018544D02*
X006102Y018599D01*
X006102Y018709D01*
X006047Y018764D01*
X005937Y018709D02*
X005937Y018654D01*
X005831Y017142D02*
X005831Y016922D01*
X005996Y017087D01*
X005666Y017087D01*
X005721Y016774D02*
X005666Y016719D01*
X005666Y016609D01*
X005721Y016554D01*
X005996Y016554D01*
X005996Y016774D02*
X005721Y016774D01*
X005872Y015666D02*
X005872Y015446D01*
X006037Y015611D01*
X005707Y015611D01*
X005762Y015297D02*
X005707Y015242D01*
X005707Y015132D01*
X005762Y015077D01*
X005982Y015077D01*
X006037Y015132D01*
X006037Y015242D01*
X005982Y015297D01*
X005894Y012044D02*
X005894Y011769D01*
X005949Y011714D01*
X006059Y011714D01*
X006114Y011769D01*
X006114Y012044D01*
X005746Y011989D02*
X005690Y012044D01*
X005580Y012044D01*
X005525Y011989D01*
X005525Y011934D01*
X005746Y011714D01*
X005525Y011714D01*
X003602Y013596D02*
X003657Y013652D01*
X003657Y013762D01*
X003602Y013817D01*
X003602Y013965D02*
X003657Y014020D01*
X003657Y014130D01*
X003602Y014185D01*
X003547Y014185D01*
X003327Y013965D01*
X003327Y014185D01*
X003382Y013817D02*
X003327Y013762D01*
X003327Y013652D01*
X003382Y013596D01*
X003602Y013596D01*
X005269Y007079D02*
X005214Y007024D01*
X005214Y006969D01*
X005269Y006914D01*
X005214Y006859D01*
X005214Y006804D01*
X005269Y006748D01*
X005379Y006748D01*
X005434Y006804D01*
X005582Y006804D02*
X005637Y006748D01*
X005747Y006748D01*
X005802Y006804D01*
X005802Y007079D01*
X005582Y007079D02*
X005582Y006804D01*
X005434Y007024D02*
X005379Y007079D01*
X005269Y007079D01*
X005269Y006914D02*
X005324Y006914D01*
X010482Y010589D02*
X010702Y010589D01*
X010592Y010589D02*
X010592Y010919D01*
X010702Y010809D01*
X010850Y010919D02*
X011070Y010589D01*
X010850Y010589D02*
X011070Y010919D01*
D13*
X010990Y020933D02*
X010922Y020933D01*
X010887Y020968D01*
X010887Y021002D01*
X010922Y021036D01*
X010990Y021036D01*
X011025Y021071D01*
X011025Y021105D01*
X010990Y021139D01*
X010922Y021139D01*
X010887Y021105D01*
X010789Y021071D02*
X010789Y020968D01*
X010755Y020933D01*
X010720Y020968D01*
X010686Y020933D01*
X010652Y020968D01*
X010652Y021071D01*
X010553Y021071D02*
X010519Y021071D01*
X010519Y020933D01*
X010553Y020933D02*
X010485Y020933D01*
X010362Y020968D02*
X010362Y021105D01*
X010396Y021071D02*
X010328Y021071D01*
X010239Y021036D02*
X010239Y020968D01*
X010205Y020933D01*
X010102Y020933D01*
X010003Y020933D02*
X010003Y021139D01*
X009969Y021071D02*
X009900Y021071D01*
X009866Y021036D01*
X009866Y020933D01*
X010003Y021036D02*
X009969Y021071D01*
X010102Y021071D02*
X010205Y021071D01*
X010239Y021036D01*
X010328Y020933D02*
X010362Y020968D01*
X010519Y021139D02*
X010519Y021174D01*
X010799Y021317D02*
X010867Y021317D01*
X010833Y021317D02*
X010833Y021523D01*
X010867Y021523D01*
X010966Y021420D02*
X010966Y021317D01*
X011069Y021317D01*
X011103Y021352D01*
X011069Y021386D01*
X010966Y021386D01*
X010966Y021420D02*
X011000Y021455D01*
X011069Y021455D01*
X011201Y021420D02*
X011201Y021317D01*
X011201Y021420D02*
X011236Y021455D01*
X011339Y021455D01*
X011339Y021317D01*
X011432Y021455D02*
X011466Y021455D01*
X011535Y021386D01*
X011535Y021317D02*
X011535Y021455D01*
X011633Y021420D02*
X011633Y021386D01*
X011771Y021386D01*
X011771Y021420D02*
X011736Y021455D01*
X011668Y021455D01*
X011633Y021420D01*
X011668Y021317D02*
X011736Y021317D01*
X011771Y021352D01*
X011771Y021420D01*
X011859Y021455D02*
X011928Y021455D01*
X011893Y021489D02*
X011893Y021352D01*
X011859Y021317D01*
X012026Y021317D02*
X012163Y021455D01*
X012262Y021523D02*
X012399Y021523D01*
X012399Y021317D01*
X012262Y021317D01*
X012163Y021317D02*
X012026Y021455D01*
X012026Y021071D02*
X012026Y020933D01*
X012129Y020933D01*
X012163Y020968D01*
X012163Y021071D01*
X012262Y021139D02*
X012399Y021139D01*
X012330Y021139D02*
X012330Y020933D01*
X012330Y021420D02*
X012399Y021420D01*
X011928Y021071D02*
X011928Y020933D01*
X011928Y021002D02*
X011859Y021071D01*
X011825Y021071D01*
X011731Y021071D02*
X011628Y021071D01*
X011594Y021036D01*
X011594Y020968D01*
X011628Y020933D01*
X011731Y020933D01*
X011731Y021139D01*
X011496Y021036D02*
X011496Y020968D01*
X011461Y020933D01*
X011393Y020933D01*
X011358Y020968D01*
X011358Y021036D01*
X011393Y021071D01*
X011461Y021071D01*
X011496Y021036D01*
X011025Y020968D02*
X010990Y020933D01*
D14*
X011450Y020657D02*
X011450Y020190D01*
X011450Y020424D02*
X012151Y020424D01*
X011917Y020190D01*
X010357Y016391D02*
X010034Y016391D01*
X010034Y015891D02*
X010357Y015891D01*
X011450Y015638D02*
X011450Y015171D01*
X011450Y015404D02*
X012151Y015404D01*
X011917Y015171D01*
X006630Y020778D02*
X006630Y000778D01*
X001730Y000778D01*
X001730Y020778D01*
X003680Y020778D01*
X003682Y020734D01*
X003688Y020691D01*
X003697Y020649D01*
X003710Y020607D01*
X003727Y020567D01*
X003747Y020528D01*
X003770Y020491D01*
X003797Y020457D01*
X003826Y020424D01*
X003859Y020395D01*
X003893Y020368D01*
X003930Y020345D01*
X003969Y020325D01*
X004009Y020308D01*
X004051Y020295D01*
X004093Y020286D01*
X004136Y020280D01*
X004180Y020278D01*
X004224Y020280D01*
X004267Y020286D01*
X004309Y020295D01*
X004351Y020308D01*
X004391Y020325D01*
X004430Y020345D01*
X004467Y020368D01*
X004501Y020395D01*
X004534Y020424D01*
X004563Y020457D01*
X004590Y020491D01*
X004613Y020528D01*
X004633Y020567D01*
X004650Y020607D01*
X004663Y020649D01*
X004672Y020691D01*
X004678Y020734D01*
X004680Y020778D01*
X006630Y020778D01*
X005074Y017309D02*
X004294Y017309D01*
X004294Y017239D02*
X005074Y017239D01*
X005074Y016459D01*
X004294Y016459D01*
X004294Y017239D01*
X004294Y016389D02*
X005074Y016389D01*
D15*
X005051Y016069D02*
X004984Y016069D01*
X004951Y016036D01*
X005084Y015903D01*
X005051Y015869D01*
X004984Y015869D01*
X004951Y015903D01*
X004951Y016036D01*
X004863Y016003D02*
X004863Y015869D01*
X004730Y015869D02*
X004730Y015969D01*
X004763Y016003D01*
X004863Y016003D01*
X005051Y016069D02*
X005084Y016036D01*
X005084Y015903D01*
X005172Y015903D02*
X005172Y016036D01*
X005305Y015903D01*
X005272Y015869D01*
X005205Y015869D01*
X005172Y015903D01*
X005172Y016036D02*
X005205Y016069D01*
X005272Y016069D01*
X005305Y016036D01*
X005305Y015903D01*
X005393Y015869D02*
X005526Y015869D01*
X005459Y015869D02*
X005459Y016069D01*
X005526Y016003D01*
X005261Y015652D02*
X004060Y015652D01*
X003540Y015672D02*
X003340Y015672D01*
X003340Y015572D01*
X003373Y015539D01*
X003440Y015539D01*
X003473Y015572D01*
X003473Y015672D01*
X003473Y015605D02*
X003540Y015539D01*
X003507Y015451D02*
X003540Y015418D01*
X003540Y015351D01*
X003507Y015318D01*
X003373Y015318D01*
X003340Y015351D01*
X003340Y015418D01*
X003373Y015451D01*
X003507Y015451D01*
X003473Y015384D02*
X003540Y015318D01*
X003540Y015230D02*
X003540Y015097D01*
X003540Y015163D02*
X003340Y015163D01*
X003406Y015230D01*
X003473Y015760D02*
X003340Y015760D01*
X003340Y015893D02*
X003473Y015893D01*
X003540Y015826D01*
X003473Y015760D01*
X003440Y015981D02*
X003373Y015981D01*
X003340Y016014D01*
X003340Y016114D01*
X003540Y016114D01*
X003473Y016114D02*
X003473Y016014D01*
X003440Y015981D01*
X003473Y016047D02*
X003540Y015981D01*
X003507Y016202D02*
X003373Y016202D01*
X003340Y016235D01*
X003340Y016335D01*
X003540Y016335D01*
X003540Y016235D01*
X003507Y016202D01*
X003507Y016423D02*
X003540Y016456D01*
X003540Y016523D01*
X003507Y016556D01*
X003507Y016633D02*
X003540Y016633D01*
X003540Y016667D01*
X003507Y016667D01*
X003507Y016633D01*
X003507Y016754D02*
X003540Y016787D01*
X003540Y016854D01*
X003507Y016888D01*
X003507Y016975D02*
X003540Y017008D01*
X003540Y017075D01*
X003507Y017109D01*
X003373Y017109D01*
X003340Y017075D01*
X003340Y017008D01*
X003373Y016975D01*
X003507Y016975D01*
X003540Y016975D02*
X003473Y017042D01*
X003406Y017196D02*
X003373Y017196D01*
X003340Y017229D01*
X003340Y017296D01*
X003373Y017330D01*
X003406Y017196D02*
X003540Y017330D01*
X003540Y017196D01*
X003540Y017417D02*
X003540Y017551D01*
X003540Y017484D02*
X003340Y017484D01*
X003406Y017551D01*
X003373Y017638D02*
X003507Y017638D01*
X003540Y017671D01*
X003540Y017738D01*
X003507Y017772D01*
X003440Y017738D02*
X003406Y017772D01*
X003373Y017772D01*
X003340Y017738D01*
X003340Y017671D01*
X003373Y017638D01*
X003440Y017638D02*
X003440Y017738D01*
X003440Y017859D02*
X003507Y017859D01*
X003540Y017892D01*
X003540Y017959D01*
X003507Y017993D01*
X003440Y017993D02*
X003406Y017926D01*
X003406Y017892D01*
X003440Y017859D01*
X003340Y017859D02*
X003340Y017993D01*
X003440Y017993D01*
X003440Y018080D02*
X003473Y018113D01*
X003473Y018214D01*
X003540Y018214D02*
X003340Y018214D01*
X003340Y018113D01*
X003373Y018080D01*
X003440Y018080D01*
X003540Y018301D02*
X003540Y018434D01*
X003340Y018434D01*
X003515Y019432D02*
X003515Y019566D01*
X003515Y019499D02*
X003715Y019499D01*
X003648Y019432D01*
X003682Y019653D02*
X003548Y019653D01*
X003682Y019787D01*
X003548Y019787D01*
X003515Y019753D01*
X003515Y019687D01*
X003548Y019653D01*
X003682Y019653D02*
X003715Y019687D01*
X003715Y019753D01*
X003682Y019787D01*
X003648Y019874D02*
X003548Y019874D01*
X003515Y019908D01*
X003515Y020008D01*
X003648Y020008D01*
X004131Y020011D02*
X005332Y020011D01*
X005332Y019420D02*
X004131Y019420D01*
X004139Y018759D02*
X005339Y018759D01*
X005339Y018168D02*
X004139Y018168D01*
X004887Y017855D02*
X004887Y017755D01*
X004887Y017855D02*
X004921Y017889D01*
X005021Y017889D01*
X005021Y017755D01*
X005108Y017788D02*
X005142Y017755D01*
X005208Y017755D01*
X005242Y017788D01*
X005108Y017922D01*
X005108Y017788D01*
X005242Y017788D02*
X005242Y017922D01*
X005208Y017955D01*
X005142Y017955D01*
X005108Y017922D01*
X005329Y017922D02*
X005463Y017788D01*
X005429Y017755D01*
X005363Y017755D01*
X005329Y017788D01*
X005329Y017922D01*
X005363Y017955D01*
X005429Y017955D01*
X005463Y017922D01*
X005463Y017788D01*
X005550Y017755D02*
X005684Y017755D01*
X005617Y017755D02*
X005617Y017955D01*
X005684Y017889D01*
X006302Y017860D02*
X006302Y017927D01*
X006336Y017961D01*
X006369Y017961D01*
X006402Y017927D01*
X006402Y017827D01*
X006336Y017827D01*
X006302Y017860D01*
X006402Y017827D02*
X006469Y017894D01*
X006503Y017961D01*
X006402Y018048D02*
X006402Y018182D01*
X006302Y018148D02*
X006503Y018148D01*
X006402Y018048D01*
X006336Y018269D02*
X006469Y018403D01*
X006336Y018403D01*
X006302Y018369D01*
X006302Y018302D01*
X006336Y018269D01*
X006469Y018269D01*
X006503Y018302D01*
X006503Y018369D01*
X006469Y018403D01*
X006402Y018490D02*
X006402Y018624D01*
X006336Y018711D02*
X006469Y018845D01*
X006336Y018845D01*
X006302Y018811D01*
X006302Y018744D01*
X006336Y018711D01*
X006469Y018711D01*
X006503Y018744D01*
X006503Y018811D01*
X006469Y018845D01*
X006469Y018932D02*
X006336Y018932D01*
X006469Y019066D01*
X006336Y019066D01*
X006302Y019032D01*
X006302Y018965D01*
X006336Y018932D01*
X006469Y018932D02*
X006503Y018965D01*
X006503Y019032D01*
X006469Y019066D01*
X006402Y019153D02*
X006402Y019287D01*
X006336Y019374D02*
X006469Y019374D01*
X006503Y019407D01*
X006503Y019474D01*
X006469Y019508D01*
X006336Y019374D01*
X006302Y019407D01*
X006302Y019474D01*
X006336Y019508D01*
X006469Y019508D01*
X006469Y019595D02*
X006503Y019628D01*
X006503Y019695D01*
X006469Y019728D01*
X006336Y019595D01*
X006302Y019628D01*
X006302Y019695D01*
X006336Y019728D01*
X006469Y019728D01*
X006436Y019816D02*
X006503Y019883D01*
X006302Y019883D01*
X006302Y019949D02*
X006302Y019816D01*
X006336Y019595D02*
X006469Y019595D01*
X006469Y020037D02*
X006336Y020037D01*
X006469Y020170D01*
X006336Y020170D01*
X006302Y020137D01*
X006302Y020070D01*
X006336Y020037D01*
X006469Y020037D02*
X006503Y020070D01*
X006503Y020137D01*
X006469Y020170D01*
X006469Y020258D02*
X006503Y020291D01*
X006503Y020358D01*
X006469Y020391D01*
X006336Y020258D01*
X006302Y020291D01*
X006302Y020358D01*
X006336Y020391D01*
X006469Y020391D01*
X006469Y020479D02*
X006503Y020512D01*
X006503Y020579D01*
X006469Y020612D01*
X006336Y020479D01*
X006302Y020512D01*
X006302Y020579D01*
X006336Y020612D01*
X006469Y020612D01*
X006469Y020479D02*
X006336Y020479D01*
X006336Y020258D02*
X006469Y020258D01*
X006402Y017740D02*
X006402Y017606D01*
X006336Y017519D02*
X006302Y017485D01*
X006302Y017419D01*
X006336Y017385D01*
X006469Y017519D01*
X006336Y017519D01*
X006469Y017519D02*
X006503Y017485D01*
X006503Y017419D01*
X006469Y017385D01*
X006336Y017385D01*
X006302Y017298D02*
X006302Y017164D01*
X006302Y017231D02*
X006503Y017231D01*
X006436Y017164D01*
X006402Y017077D02*
X006402Y016943D01*
X006336Y016856D02*
X006302Y016822D01*
X006302Y016756D01*
X006336Y016722D01*
X006469Y016856D01*
X006336Y016856D01*
X006469Y016856D02*
X006503Y016822D01*
X006503Y016756D01*
X006469Y016722D01*
X006336Y016722D01*
X006336Y016635D02*
X006302Y016601D01*
X006302Y016535D01*
X006336Y016501D01*
X006402Y016501D02*
X006436Y016568D01*
X006436Y016601D01*
X006402Y016635D01*
X006336Y016635D01*
X006402Y016501D02*
X006503Y016501D01*
X006503Y016635D01*
X006503Y016347D02*
X006436Y016280D01*
X006503Y016347D02*
X006302Y016347D01*
X006302Y016280D02*
X006302Y016414D01*
X005261Y015062D02*
X004060Y015062D01*
X004084Y014243D02*
X005284Y014243D01*
X005284Y013652D02*
X004084Y013652D01*
X004978Y013396D02*
X004978Y013263D01*
X005078Y013263D01*
X005112Y013296D01*
X005112Y013396D01*
X005199Y013430D02*
X005199Y013296D01*
X005233Y013263D01*
X005299Y013263D01*
X005333Y013296D01*
X005199Y013430D01*
X005233Y013463D01*
X005299Y013463D01*
X005333Y013430D01*
X005333Y013296D01*
X005420Y013263D02*
X005554Y013263D01*
X005487Y013263D02*
X005487Y013463D01*
X005554Y013396D01*
X003507Y016423D02*
X003473Y016423D01*
X003440Y016456D01*
X003440Y016489D01*
X003440Y016456D02*
X003406Y016423D01*
X003373Y016423D01*
X003340Y016456D01*
X003340Y016523D01*
X003373Y016556D01*
X003373Y016754D02*
X003406Y016754D01*
X003440Y016787D01*
X003473Y016754D01*
X003507Y016754D01*
X003440Y016787D02*
X003440Y016821D01*
X003373Y016888D02*
X003340Y016854D01*
X003340Y016787D01*
X003373Y016754D01*
X003302Y011576D02*
X003302Y011511D01*
X003302Y011543D02*
X003106Y011543D01*
X003106Y011511D02*
X003106Y011576D01*
X003138Y011424D02*
X003106Y011391D01*
X003106Y011326D01*
X003138Y011293D01*
X003171Y011293D01*
X003204Y011326D01*
X003204Y011391D01*
X003171Y011424D01*
X003138Y011424D01*
X003204Y011391D02*
X003236Y011424D01*
X003269Y011424D01*
X003302Y011391D01*
X003302Y011326D01*
X003269Y011293D01*
X003236Y011293D01*
X003204Y011326D01*
X003204Y011206D02*
X003204Y011076D01*
X003302Y011174D01*
X003106Y011174D01*
X003138Y010989D02*
X003106Y010956D01*
X003106Y010891D01*
X003138Y010858D01*
X003269Y010858D01*
X003302Y010891D01*
X003302Y010956D01*
X003269Y010989D01*
X003204Y010989D02*
X003204Y010923D01*
X003204Y010989D02*
X003138Y010989D01*
X003138Y010771D02*
X003106Y010739D01*
X003106Y010673D01*
X003138Y010640D01*
X003204Y010673D02*
X003204Y010739D01*
X003171Y010771D01*
X003138Y010771D01*
X003204Y010673D02*
X003236Y010640D01*
X003269Y010640D01*
X003302Y010673D01*
X003302Y010739D01*
X003269Y010771D01*
X003269Y010554D02*
X003302Y010521D01*
X003302Y010456D01*
X003269Y010423D01*
X003138Y010423D01*
X003106Y010456D01*
X003106Y010521D01*
X003138Y010554D01*
X003138Y010336D02*
X003106Y010304D01*
X003106Y010238D01*
X003138Y010205D01*
X003269Y010336D01*
X003138Y010336D01*
X003138Y010205D02*
X003269Y010205D01*
X003302Y010238D01*
X003302Y010304D01*
X003269Y010336D01*
X003106Y010119D02*
X003106Y009988D01*
X003106Y010053D02*
X003302Y010053D01*
X003236Y009988D01*
X003204Y009901D02*
X003204Y009770D01*
X003106Y009684D02*
X003106Y009553D01*
X003302Y009553D01*
X003302Y009466D02*
X003106Y009335D01*
X003138Y009249D02*
X003106Y009216D01*
X003106Y009151D01*
X003138Y009118D01*
X003204Y009118D01*
X003204Y009216D01*
X003171Y009249D01*
X003138Y009249D01*
X003269Y009183D02*
X003204Y009118D01*
X003269Y009183D02*
X003302Y009249D01*
X003302Y009335D02*
X003106Y009466D01*
X003138Y009031D02*
X003106Y008999D01*
X003106Y008933D01*
X003138Y008900D01*
X003138Y008814D02*
X003106Y008781D01*
X003106Y008716D01*
X003138Y008683D01*
X003204Y008683D02*
X003236Y008748D01*
X003236Y008781D01*
X003204Y008814D01*
X003138Y008814D01*
X003204Y008683D02*
X003302Y008683D01*
X003302Y008814D01*
X003269Y008900D02*
X003302Y008933D01*
X003302Y008999D01*
X003269Y009031D01*
X003236Y009031D01*
X003204Y008999D01*
X003171Y009031D01*
X003138Y009031D01*
X003204Y008999D02*
X003204Y008966D01*
X003204Y008596D02*
X003204Y008498D01*
X003236Y008465D01*
X003269Y008465D01*
X003302Y008498D01*
X003302Y008564D01*
X003269Y008596D01*
X003138Y008596D01*
X003106Y008564D01*
X003106Y008498D01*
X003138Y008465D01*
X003138Y008379D02*
X003106Y008346D01*
X003106Y008281D01*
X003138Y008248D01*
X003269Y008248D01*
X003302Y008281D01*
X003302Y008346D01*
X003269Y008379D01*
X003302Y008161D02*
X003106Y008030D01*
X003106Y008161D02*
X003302Y008030D01*
X003519Y005516D02*
X003519Y005449D01*
X003519Y005482D02*
X003719Y005482D01*
X003719Y005449D02*
X003719Y005516D01*
X003519Y005361D02*
X003519Y005228D01*
X003719Y005228D01*
X003719Y005141D02*
X003719Y005007D01*
X003719Y005074D02*
X003519Y005074D01*
X003552Y004920D02*
X003519Y004886D01*
X003519Y004819D01*
X003552Y004786D01*
X003619Y004786D02*
X003652Y004853D01*
X003652Y004886D01*
X003619Y004920D01*
X003552Y004920D01*
X003619Y004786D02*
X003719Y004786D01*
X003719Y004920D01*
X003619Y004699D02*
X003619Y004565D01*
X003719Y004665D01*
X003519Y004665D01*
X003619Y004478D02*
X003619Y004344D01*
X003519Y004257D02*
X003519Y004123D01*
X003719Y004123D01*
X003652Y004036D02*
X003719Y003969D01*
X003652Y003902D01*
X003519Y003902D01*
X003552Y003815D02*
X003586Y003815D01*
X003619Y003781D01*
X003619Y003681D01*
X003552Y003681D01*
X003519Y003714D01*
X003519Y003781D01*
X003552Y003815D01*
X003619Y003902D02*
X003619Y004036D01*
X003652Y004036D02*
X003519Y004036D01*
X003719Y003815D02*
X003686Y003748D01*
X003619Y003681D01*
X003619Y003594D02*
X003552Y003594D01*
X003519Y003560D01*
X003519Y003494D01*
X003552Y003460D01*
X003619Y003460D02*
X003652Y003527D01*
X003652Y003560D01*
X003619Y003594D01*
X003719Y003594D02*
X003719Y003460D01*
X003619Y003460D01*
X003652Y003373D02*
X003686Y003373D01*
X003719Y003339D01*
X003719Y003273D01*
X003686Y003239D01*
X003686Y003152D02*
X003719Y003118D01*
X003719Y003052D01*
X003686Y003018D01*
X003552Y003018D01*
X003519Y003052D01*
X003519Y003118D01*
X003552Y003152D01*
X003519Y003239D02*
X003652Y003373D01*
X003519Y003373D02*
X003519Y003239D01*
X003519Y002931D02*
X003519Y002797D01*
X003652Y002931D01*
X003686Y002931D01*
X003719Y002897D01*
X003719Y002831D01*
X003686Y002797D01*
X003719Y002710D02*
X003686Y002643D01*
X003619Y002576D01*
X003619Y002676D01*
X003586Y002710D01*
X003552Y002710D01*
X003519Y002676D01*
X003519Y002610D01*
X003552Y002576D01*
X003619Y002576D01*
X003586Y002489D02*
X003552Y002489D01*
X003519Y002455D01*
X003519Y002389D01*
X003552Y002355D01*
X003619Y002389D02*
X003619Y002455D01*
X003586Y002489D01*
X003686Y002489D02*
X003719Y002455D01*
X003719Y002389D01*
X003686Y002355D01*
X003652Y002355D01*
X003619Y002389D01*
X003719Y002275D02*
X003719Y002208D01*
X003719Y002241D02*
X003519Y002241D01*
X003519Y002208D02*
X003519Y002275D01*
X011375Y012050D02*
X011342Y012084D01*
X011342Y012150D01*
X011375Y012184D01*
X011442Y012184D01*
X011475Y012150D01*
X011475Y012117D01*
X011442Y012050D01*
X011542Y012050D01*
X011542Y012184D01*
X011509Y012271D02*
X011542Y012305D01*
X011542Y012371D01*
X011509Y012405D01*
X011375Y012271D01*
X011342Y012305D01*
X011342Y012371D01*
X011375Y012405D01*
X011509Y012405D01*
X011542Y012492D02*
X011442Y012492D01*
X011475Y012559D01*
X011475Y012592D01*
X011442Y012626D01*
X011375Y012626D01*
X011342Y012592D01*
X011342Y012526D01*
X011375Y012492D01*
X011542Y012492D02*
X011542Y012626D01*
X011542Y012713D02*
X011442Y012713D01*
X011475Y012780D01*
X011475Y012813D01*
X011442Y012847D01*
X011375Y012847D01*
X011342Y012813D01*
X011342Y012747D01*
X011375Y012713D01*
X011542Y012713D02*
X011542Y012847D01*
X011442Y012934D02*
X011442Y013034D01*
X011408Y013068D01*
X011375Y013068D01*
X011342Y013034D01*
X011342Y012968D01*
X011375Y012934D01*
X011442Y012934D01*
X011509Y013001D01*
X011542Y013068D01*
X011542Y013155D02*
X011542Y013289D01*
X011509Y013289D01*
X011375Y013155D01*
X011342Y013155D01*
X011442Y013376D02*
X011442Y013510D01*
X011375Y013597D02*
X011509Y013597D01*
X011542Y013631D01*
X011542Y013697D01*
X011509Y013731D01*
X011375Y013597D01*
X011342Y013631D01*
X011342Y013697D01*
X011375Y013731D01*
X011509Y013731D01*
X011442Y013818D02*
X011442Y013918D01*
X011408Y013952D01*
X011375Y013952D01*
X011342Y013918D01*
X011342Y013852D01*
X011375Y013818D01*
X011442Y013818D01*
X011509Y013885D01*
X011542Y013952D01*
X011542Y014039D02*
X011442Y014039D01*
X011475Y014106D01*
X011475Y014139D01*
X011442Y014173D01*
X011375Y014173D01*
X011342Y014139D01*
X011342Y014073D01*
X011375Y014039D01*
X011542Y014039D02*
X011542Y014173D01*
X011475Y014260D02*
X011542Y014327D01*
X011342Y014327D01*
X011342Y014260D02*
X011342Y014394D01*
X010976Y015862D02*
X010976Y015996D01*
X010942Y016083D02*
X011009Y016183D01*
X011076Y016267D02*
X011076Y016401D01*
X011043Y016401D01*
X010909Y016267D01*
X010876Y016267D01*
X010876Y016183D02*
X010942Y016083D01*
X010876Y016083D02*
X011076Y016083D01*
X011076Y015962D02*
X010876Y015962D01*
X010976Y015862D02*
X011076Y015962D01*
X011375Y012271D02*
X011509Y012271D01*
D16*
X010977Y011597D02*
X010977Y011391D01*
X012552Y011391D01*
X012552Y011450D01*
X012552Y014895D01*
X012552Y014954D01*
X010977Y014954D01*
X010977Y014747D01*
X010977Y011597D01*
X011223Y011351D02*
X011223Y010613D01*
X012404Y010613D01*
X012404Y011351D01*
X012404Y014993D02*
X012404Y015731D01*
X011223Y015731D01*
X011223Y014993D01*
X011223Y017601D02*
X011223Y018339D01*
X010977Y018379D02*
X010977Y018586D01*
X010977Y019767D01*
X010977Y019973D01*
X012552Y019973D01*
X012552Y019914D01*
X012552Y018438D01*
X012552Y018379D01*
X010977Y018379D01*
X011223Y017601D02*
X012404Y017601D01*
X012404Y018339D01*
X012404Y020013D02*
X012404Y020751D01*
X011223Y020751D01*
X011223Y020013D01*
X006129Y011562D02*
X003373Y011562D01*
X003373Y008806D01*
X006129Y008806D01*
X005814Y008806D01*
X006129Y009121D01*
X006129Y008806D01*
X006129Y011562D01*
X006129Y009051D02*
X006058Y009051D01*
X006129Y008972D02*
X005980Y008972D01*
X005901Y008894D02*
X006129Y008894D01*
X006129Y008815D02*
X005823Y008815D01*
X006339Y006186D02*
X003233Y006186D01*
X003233Y001584D01*
X004532Y001584D01*
X005040Y001584D01*
X006339Y001584D01*
X006339Y006186D01*
X005040Y001583D02*
X005041Y001614D01*
X005037Y001645D01*
X005030Y001676D01*
X005020Y001705D01*
X005006Y001733D01*
X004988Y001758D01*
X004968Y001782D01*
X004945Y001803D01*
X004919Y001820D01*
X004892Y001835D01*
X004863Y001846D01*
X004832Y001854D01*
X004802Y001858D01*
X004770Y001858D01*
X004740Y001854D01*
X004709Y001846D01*
X004680Y001835D01*
X004653Y001820D01*
X004627Y001803D01*
X004604Y001782D01*
X004584Y001758D01*
X004566Y001733D01*
X004552Y001705D01*
X004542Y001676D01*
X004535Y001645D01*
X004531Y001614D01*
X004532Y001583D01*
D17*
X006086Y001936D03*
D18*
X006194Y001380D03*
X005977Y001380D03*
X005761Y001380D03*
X005544Y001380D03*
X005328Y001380D03*
X005111Y001380D03*
X004895Y001380D03*
X004678Y001380D03*
X004461Y001380D03*
X004245Y001380D03*
X004028Y001380D03*
X003812Y001380D03*
X003595Y001380D03*
X003379Y001380D03*
X003379Y006390D03*
X003595Y006390D03*
X003812Y006390D03*
X004028Y006390D03*
X004245Y006390D03*
X004461Y006390D03*
X004678Y006390D03*
X004895Y006390D03*
X005111Y006390D03*
X005328Y006390D03*
X005544Y006390D03*
X005761Y006390D03*
X005977Y006390D03*
X006194Y006390D03*
D19*
X005524Y017109D02*
X005522Y017122D01*
X005517Y017134D01*
X005509Y017144D01*
X005499Y017152D01*
X005487Y017157D01*
X005474Y017159D01*
X005461Y017157D01*
X005449Y017152D01*
X005439Y017144D01*
X005431Y017134D01*
X005426Y017122D01*
X005424Y017109D01*
X005426Y017096D01*
X005431Y017084D01*
X005439Y017074D01*
X005449Y017066D01*
X005461Y017061D01*
X005474Y017059D01*
X005487Y017061D01*
X005499Y017066D01*
X005509Y017074D01*
X005517Y017084D01*
X005522Y017096D01*
X005524Y017109D01*
D20*
X010977Y018586D02*
X011223Y018586D01*
X011223Y018389D01*
X011223Y018832D02*
X011026Y018832D01*
X011026Y019028D02*
X011223Y019028D01*
X011223Y018832D01*
X011223Y019324D02*
X011026Y019324D01*
X011026Y019521D02*
X011223Y019521D01*
X011223Y019324D01*
X011223Y019767D02*
X010977Y019767D01*
X011223Y019767D02*
X011223Y019963D01*
X011912Y019668D02*
X011912Y018684D01*
X012158Y018684D01*
X012158Y018586D01*
X012404Y018586D01*
X012552Y018438D01*
X012404Y018586D02*
X012404Y019767D01*
X012552Y019914D01*
X012404Y019767D02*
X012158Y019767D01*
X012158Y019963D01*
X012158Y019767D02*
X012158Y019668D01*
X011912Y019668D01*
X012158Y018586D02*
X012158Y018389D01*
X012158Y014944D02*
X012158Y014747D01*
X012404Y014747D01*
X012552Y014895D01*
X012404Y014747D02*
X012404Y011597D01*
X012552Y011450D01*
X012404Y011597D02*
X012158Y011597D01*
X012158Y011696D01*
X011912Y011696D01*
X011912Y014649D01*
X012158Y014649D01*
X012158Y014747D01*
X011223Y014747D02*
X010977Y014747D01*
X011223Y014747D02*
X011223Y014944D01*
X011223Y014501D02*
X011026Y014501D01*
X011026Y014304D02*
X011223Y014304D01*
X011223Y014501D01*
X011223Y014009D02*
X011026Y014009D01*
X011026Y013812D02*
X011223Y013812D01*
X011223Y014009D01*
X011223Y013517D02*
X011026Y013517D01*
X011026Y013320D02*
X011223Y013320D01*
X011223Y013517D01*
X011223Y013024D02*
X011026Y013024D01*
X011026Y012828D02*
X011223Y012828D01*
X011223Y013024D01*
X011223Y012532D02*
X011026Y012532D01*
X011026Y012336D02*
X011223Y012336D01*
X011223Y012532D01*
X011223Y012040D02*
X011026Y012040D01*
X011026Y011843D02*
X011223Y011843D01*
X011223Y012040D01*
X011223Y011597D02*
X010977Y011597D01*
X011223Y011597D02*
X011223Y011400D01*
X012158Y011400D02*
X012158Y011597D01*
D21*
X012085Y011942D03*
X012085Y012434D03*
X012085Y012926D03*
X012085Y013418D03*
X012085Y013910D03*
X012085Y014402D03*
X012085Y018930D03*
X012085Y019422D03*
D22*
X010484Y016140D03*
X009904Y016140D03*
D23*
X005192Y015357D03*
X005215Y013948D03*
X004152Y013948D03*
X004129Y015357D03*
X004208Y018463D03*
X004200Y019715D03*
X005263Y019715D03*
X005271Y018463D03*
D24*
X011494Y018473D02*
X011514Y018453D01*
X011494Y018473D02*
X011494Y018513D01*
X011514Y018533D01*
X011554Y018533D01*
X011574Y018513D01*
X011574Y018493D01*
X011554Y018453D01*
X011614Y018453D01*
X011614Y018533D01*
X011594Y018591D02*
X011614Y018611D01*
X011614Y018650D01*
X011594Y018670D01*
X011514Y018591D01*
X011494Y018611D01*
X011494Y018650D01*
X011514Y018670D01*
X011594Y018670D01*
X011614Y018728D02*
X011554Y018728D01*
X011574Y018768D01*
X011574Y018788D01*
X011554Y018808D01*
X011514Y018808D01*
X011494Y018788D01*
X011494Y018748D01*
X011514Y018728D01*
X011614Y018728D02*
X011614Y018808D01*
X011614Y018866D02*
X011554Y018866D01*
X011574Y018906D01*
X011574Y018926D01*
X011554Y018946D01*
X011514Y018946D01*
X011494Y018926D01*
X011494Y018886D01*
X011514Y018866D01*
X011614Y018866D02*
X011614Y018946D01*
X011554Y019004D02*
X011554Y019064D01*
X011534Y019084D01*
X011514Y019084D01*
X011494Y019064D01*
X011494Y019024D01*
X011514Y019004D01*
X011554Y019004D01*
X011594Y019044D01*
X011614Y019084D01*
X011614Y019142D02*
X011614Y019221D01*
X011594Y019221D01*
X011514Y019142D01*
X011494Y019142D01*
X011554Y019279D02*
X011554Y019359D01*
X011514Y019417D02*
X011594Y019497D01*
X011514Y019497D01*
X011494Y019477D01*
X011494Y019437D01*
X011514Y019417D01*
X011594Y019417D01*
X011614Y019437D01*
X011614Y019477D01*
X011594Y019497D01*
X011594Y019555D02*
X011614Y019575D01*
X011614Y019615D01*
X011594Y019635D01*
X011574Y019635D01*
X011494Y019555D01*
X011494Y019635D01*
X011514Y019693D02*
X011494Y019713D01*
X011494Y019753D01*
X011514Y019772D01*
X011554Y019772D01*
X011574Y019753D01*
X011574Y019733D01*
X011554Y019693D01*
X011614Y019693D01*
X011614Y019772D01*
X011574Y019830D02*
X011614Y019870D01*
X011494Y019870D01*
X011494Y019830D02*
X011494Y019910D01*
X011514Y018591D02*
X011594Y018591D01*
M02*
