G75*
G70*
%OFA0B0*%
%FSLAX24Y24*%
%IPPOS*%
%LPD*%
%AMOC8*
5,1,8,0,0,1.08239X$1,22.5*
%
%ADD10C,0.0000*%
%ADD11OC8,0.0886*%
%ADD12C,0.0480*%
%ADD13R,0.0669X0.0669*%
%ADD14R,0.1004X0.0394*%
%ADD15C,0.0120*%
%ADD16C,0.0236*%
%ADD17C,0.0059*%
%ADD18C,0.0177*%
%ADD19C,0.0295*%
%ADD20C,0.0320*%
%ADD21C,0.0197*%
%ADD22C,0.0079*%
%ADD23C,0.0089*%
%ADD24C,0.0098*%
%ADD25C,0.0108*%
%ADD26C,0.0114*%
D10*
X000180Y000180D02*
X000180Y021735D01*
X012582Y021735D01*
X012582Y010121D01*
X009432Y010121D01*
X009432Y000180D01*
X000180Y000180D01*
D11*
X002483Y001278D03*
X002483Y002278D03*
X002483Y003278D03*
X002483Y004278D03*
X002483Y005278D03*
X002483Y006278D03*
X002483Y007278D03*
X002483Y008278D03*
X002483Y009278D03*
X002483Y010278D03*
X002483Y011278D03*
X002483Y012278D03*
X002483Y013278D03*
X002483Y014278D03*
X002483Y015278D03*
X002483Y016278D03*
X002483Y017278D03*
X002483Y018278D03*
X002483Y019278D03*
X002483Y020278D03*
X008483Y020278D03*
X008483Y019278D03*
X008483Y018278D03*
X008483Y017278D03*
X008483Y016278D03*
X008483Y015278D03*
X008483Y014278D03*
X008483Y013278D03*
X008483Y012278D03*
X008483Y011278D03*
X008483Y010278D03*
X008483Y009278D03*
X008483Y008278D03*
X008483Y007278D03*
X008483Y006278D03*
X008483Y005278D03*
X008483Y004278D03*
X008483Y003278D03*
X008483Y002278D03*
X008483Y001278D03*
D12*
X007420Y001278D02*
X006940Y001278D01*
X006940Y002278D02*
X007420Y002278D01*
X007420Y003278D02*
X006940Y003278D01*
X006940Y004278D02*
X007420Y004278D01*
X007420Y005278D02*
X006940Y005278D01*
X006940Y006278D02*
X007420Y006278D01*
X007420Y007278D02*
X006940Y007278D01*
X006940Y008278D02*
X007420Y008278D01*
X007420Y009278D02*
X006940Y009278D01*
X006940Y010278D02*
X007420Y010278D01*
X007420Y011278D02*
X006940Y011278D01*
X006940Y012278D02*
X007420Y012278D01*
X007420Y013278D02*
X006940Y013278D01*
X006940Y014278D02*
X007420Y014278D01*
X007420Y015278D02*
X006940Y015278D01*
X006940Y016278D02*
X007420Y016278D01*
X007420Y017278D02*
X006940Y017278D01*
X006940Y018278D02*
X007420Y018278D01*
X007420Y019278D02*
X006940Y019278D01*
X006940Y020278D02*
X007420Y020278D01*
X001420Y020278D02*
X000940Y020278D01*
X000940Y019278D02*
X001420Y019278D01*
X001420Y018278D02*
X000940Y018278D01*
X000940Y017278D02*
X001420Y017278D01*
X001420Y016278D02*
X000940Y016278D01*
X000940Y015278D02*
X001420Y015278D01*
X001420Y014278D02*
X000940Y014278D01*
X000940Y013278D02*
X001420Y013278D01*
X001420Y012278D02*
X000940Y012278D01*
X000940Y011278D02*
X001420Y011278D01*
X001420Y010278D02*
X000940Y010278D01*
X000940Y009278D02*
X001420Y009278D01*
X001420Y008278D02*
X000940Y008278D01*
X000940Y007278D02*
X001420Y007278D01*
X001420Y006278D02*
X000940Y006278D01*
X000940Y005278D02*
X001420Y005278D01*
X001420Y004278D02*
X000940Y004278D01*
X000940Y003278D02*
X001420Y003278D01*
X001420Y002278D02*
X000940Y002278D01*
X000940Y001278D02*
X001420Y001278D01*
D13*
X011971Y016066D03*
X011971Y019924D03*
D14*
X010603Y018782D03*
X010603Y017995D03*
X010603Y017208D03*
D15*
X010603Y017158D01*
X010200Y016755D01*
X009235Y016519D02*
X008995Y016278D01*
X008483Y016278D01*
X008483Y017278D02*
X007928Y017278D01*
X007857Y017188D01*
X007857Y009904D01*
X007739Y009806D01*
X006440Y009806D01*
X006396Y009762D01*
X006007Y009762D01*
X005908Y009983D02*
X005711Y009727D01*
X005633Y009589D01*
X005633Y008782D01*
X007798Y008782D01*
X007877Y008704D01*
X007877Y008330D01*
X007911Y008275D01*
X008258Y008275D01*
X008290Y008278D01*
X008483Y008278D01*
X007542Y010771D02*
X007582Y010810D01*
X007542Y010771D02*
X006479Y010771D01*
X006400Y010849D01*
X006400Y011460D01*
X006322Y011538D01*
X005967Y011538D01*
X006007Y011263D02*
X006007Y010652D01*
X005967Y010613D01*
X006223Y010613D01*
X006361Y010515D01*
X006361Y010082D01*
X006282Y009983D01*
X005908Y009983D01*
X004944Y008979D02*
X005180Y008763D01*
X005180Y008330D01*
X005259Y008290D01*
X005889Y008290D01*
X005903Y007995D02*
X005692Y007995D01*
X005613Y008074D01*
X005121Y008074D01*
X004747Y008526D02*
X004747Y006597D01*
X004885Y006460D01*
X006145Y006460D01*
X006499Y006105D01*
X006499Y004412D01*
X006637Y004274D01*
X007176Y004274D01*
X007180Y004278D01*
X006204Y005889D02*
X006204Y000771D01*
X005948Y000515D01*
X000908Y000515D01*
X000515Y000908D01*
X000515Y012208D01*
X000586Y012278D01*
X002483Y012278D01*
X003231Y011853D02*
X003231Y020810D01*
X003389Y020967D01*
X009629Y020967D01*
X009786Y020771D01*
X009334Y018782D02*
X009235Y018684D01*
X009235Y016519D01*
X009334Y018782D02*
X010603Y018782D01*
X007180Y017278D02*
X007172Y017286D01*
X005652Y017286D01*
X005515Y017168D01*
X005515Y013448D01*
X005318Y013211D01*
X003920Y013211D01*
X003802Y013093D01*
X003802Y012714D01*
X004767Y011715D02*
X004767Y011440D01*
X004767Y011715D02*
X004845Y011794D01*
X007542Y011794D01*
X007180Y013278D02*
X006448Y013278D01*
X006361Y013192D01*
X006361Y012897D01*
X005810Y012345D01*
X005554Y012345D01*
X005495Y012286D01*
X005790Y012641D02*
X005082Y012641D01*
X005042Y012601D01*
X005042Y012188D01*
X005160Y011361D02*
X004649Y010889D01*
X004570Y010889D01*
X004530Y010830D01*
X004530Y010657D01*
X004506Y010588D01*
X004452Y010495D01*
X004452Y010377D01*
X004530Y010278D01*
X004747Y010200D01*
X004944Y009904D01*
X004944Y008979D01*
X004668Y008605D02*
X004747Y008526D01*
X004668Y008605D02*
X004530Y008723D01*
X004530Y009117D01*
X004471Y009137D01*
X004284Y009324D01*
X004284Y009407D01*
X003822Y007778D02*
X003625Y007778D01*
X003546Y007700D01*
X003546Y003841D01*
X003782Y003684D01*
X005534Y003684D01*
X005731Y003487D01*
X005731Y002483D01*
X005456Y002247D01*
X005180Y002798D02*
X003487Y002798D01*
X003113Y003015D01*
X003113Y010042D01*
X002956Y010259D01*
X002503Y010259D01*
X002483Y010278D01*
X002483Y011278D02*
X003097Y011278D01*
X003330Y011026D01*
X003330Y003546D01*
X003684Y003310D01*
X005357Y003310D01*
X005574Y004314D02*
X005023Y004314D01*
X005574Y004314D02*
X005633Y004373D01*
X005633Y005628D01*
X005544Y005716D01*
X005987Y006952D02*
X005977Y006961D01*
X005977Y007921D01*
X005903Y007995D01*
X005574Y011361D02*
X005160Y011361D01*
X005790Y012641D02*
X006105Y012956D01*
X006105Y013369D01*
X006204Y013467D01*
X006322Y013467D01*
X006440Y013586D01*
X006440Y014215D01*
X006562Y014278D01*
X007180Y014278D01*
D16*
X005397Y017542D03*
X004668Y016086D03*
X003231Y011853D03*
X004747Y010515D03*
X003723Y008310D03*
X005908Y004294D03*
X005357Y003310D03*
X005180Y002798D03*
X005456Y002247D03*
X005003Y002089D03*
X006519Y001755D03*
X003192Y001834D03*
X006243Y008172D03*
X010200Y016755D03*
X009786Y020771D03*
X005987Y020574D03*
X003526Y020574D03*
D17*
X003402Y020785D02*
X008252Y020785D01*
X008267Y020800D02*
X007984Y020517D01*
X007632Y020517D01*
X007601Y020549D01*
X007483Y020597D01*
X006877Y020597D01*
X006759Y020549D01*
X006670Y020459D01*
X006621Y020342D01*
X006621Y020215D01*
X006670Y020098D01*
X006759Y020008D01*
X006877Y019960D01*
X007483Y019960D01*
X007601Y020008D01*
X007632Y020040D01*
X007984Y020040D01*
X008245Y019778D01*
X007984Y019517D01*
X007632Y019517D01*
X007601Y019549D01*
X007483Y019597D01*
X006877Y019597D01*
X006759Y019549D01*
X006670Y019459D01*
X006621Y019342D01*
X006621Y019215D01*
X006670Y019098D01*
X006759Y019008D01*
X006877Y018960D01*
X007483Y018960D01*
X007601Y019008D01*
X007632Y019040D01*
X007984Y019040D01*
X008245Y018778D01*
X007984Y018517D01*
X007632Y018517D01*
X007601Y018549D01*
X007483Y018597D01*
X006877Y018597D01*
X006759Y018549D01*
X006670Y018459D01*
X006621Y018342D01*
X006621Y018215D01*
X006670Y018098D01*
X006759Y018008D01*
X006877Y017960D01*
X007483Y017960D01*
X007601Y018008D01*
X007632Y018040D01*
X007984Y018040D01*
X008245Y017778D01*
X007961Y017495D01*
X007961Y017422D01*
X007920Y017417D01*
X007871Y017417D01*
X007864Y017410D01*
X007854Y017409D01*
X007824Y017371D01*
X007789Y017336D01*
X007789Y017326D01*
X007753Y017280D01*
X007739Y017266D01*
X007739Y017342D01*
X007690Y017459D01*
X007601Y017549D01*
X007483Y017597D01*
X006877Y017597D01*
X006759Y017549D01*
X006670Y017459D01*
X006656Y017425D01*
X005658Y017425D01*
X005606Y017429D01*
X005601Y017425D01*
X005595Y017425D01*
X005558Y017388D01*
X005463Y017307D01*
X005457Y017307D01*
X005420Y017270D01*
X005381Y017236D01*
X005380Y017230D01*
X005376Y017226D01*
X005376Y017174D01*
X005372Y017122D01*
X005376Y017117D01*
X005376Y013498D01*
X005253Y013350D01*
X003863Y013350D01*
X003781Y013269D01*
X003663Y013151D01*
X003663Y012812D01*
X003635Y012784D01*
X003635Y012645D01*
X003733Y012547D01*
X003871Y012547D01*
X003969Y012645D01*
X003969Y012784D01*
X003941Y012812D01*
X003941Y013036D01*
X003978Y013073D01*
X005268Y013073D01*
X005273Y013068D01*
X005324Y013073D01*
X005375Y013073D01*
X005380Y013078D01*
X005388Y013079D01*
X005420Y013118D01*
X005457Y013154D01*
X005457Y013161D01*
X005617Y013354D01*
X005653Y013390D01*
X005653Y013397D01*
X005658Y013403D01*
X005653Y013454D01*
X005653Y017104D01*
X005704Y017148D01*
X006649Y017148D01*
X006670Y017098D01*
X006759Y017008D01*
X006877Y016960D01*
X007483Y016960D01*
X007601Y017008D01*
X007690Y017098D01*
X007718Y017166D01*
X007718Y016497D01*
X007707Y016514D01*
X007656Y016565D01*
X007595Y016606D01*
X007528Y016634D01*
X007456Y016648D01*
X007210Y016648D01*
X007210Y016308D01*
X007150Y016308D01*
X007150Y016249D01*
X006570Y016249D01*
X006570Y016242D01*
X006585Y016171D01*
X006613Y016103D01*
X006653Y016043D01*
X006704Y015991D01*
X006765Y015951D01*
X006832Y015923D01*
X006904Y015909D01*
X007150Y015909D01*
X007150Y016249D01*
X007210Y016249D01*
X007210Y015909D01*
X007456Y015909D01*
X007528Y015923D01*
X007595Y015951D01*
X007656Y015991D01*
X007707Y016043D01*
X007718Y016060D01*
X007718Y015497D01*
X007707Y015514D01*
X007656Y015565D01*
X007595Y015606D01*
X007528Y015634D01*
X007456Y015648D01*
X007210Y015648D01*
X007210Y015308D01*
X007150Y015308D01*
X007150Y015249D01*
X006570Y015249D01*
X006570Y015242D01*
X006585Y015171D01*
X006613Y015103D01*
X006653Y015043D01*
X006704Y014991D01*
X006765Y014951D01*
X006832Y014923D01*
X006904Y014909D01*
X007150Y014909D01*
X007150Y015249D01*
X007210Y015249D01*
X007210Y014909D01*
X007456Y014909D01*
X007528Y014923D01*
X007595Y014951D01*
X007656Y014991D01*
X007707Y015043D01*
X007718Y015060D01*
X007718Y014391D01*
X007690Y014459D01*
X007601Y014549D01*
X007483Y014597D01*
X006877Y014597D01*
X006759Y014549D01*
X006670Y014459D01*
X006652Y014417D01*
X006583Y014417D01*
X006549Y014428D01*
X006528Y014417D01*
X006504Y014417D01*
X006479Y014392D01*
X006406Y014354D01*
X006382Y014354D01*
X006357Y014329D01*
X006325Y014312D01*
X006318Y014290D01*
X006301Y014273D01*
X006301Y014237D01*
X006290Y014203D01*
X006301Y014182D01*
X006301Y013643D01*
X006264Y013606D01*
X006146Y013606D01*
X006048Y013508D01*
X005966Y013426D01*
X005966Y013013D01*
X005733Y012779D01*
X005024Y012779D01*
X004985Y012740D01*
X004903Y012659D01*
X004903Y012286D01*
X004875Y012257D01*
X004875Y012178D01*
X004797Y012257D01*
X004658Y012257D01*
X004560Y012159D01*
X004560Y012020D01*
X004658Y011922D01*
X004777Y011922D01*
X004707Y011852D01*
X004628Y011773D01*
X004628Y011552D01*
X004589Y011513D01*
X004589Y011366D01*
X004693Y011263D01*
X004840Y011263D01*
X004944Y011366D01*
X004944Y011513D01*
X004905Y011552D01*
X004905Y011655D01*
X005848Y011655D01*
X005800Y011608D01*
X005800Y011469D01*
X005888Y011381D01*
X005839Y011332D01*
X005839Y011193D01*
X005868Y011165D01*
X005868Y010710D01*
X005829Y010671D01*
X005829Y010556D01*
X005910Y010474D01*
X006179Y010474D01*
X006222Y010443D01*
X006222Y010130D01*
X006216Y010122D01*
X005956Y010122D01*
X005947Y010128D01*
X005899Y010122D01*
X005851Y010122D01*
X005844Y010115D01*
X005833Y010113D01*
X005804Y010075D01*
X005770Y010041D01*
X005770Y010030D01*
X005630Y009849D01*
X005620Y009846D01*
X005596Y009804D01*
X005566Y009766D01*
X005568Y009756D01*
X005522Y009674D01*
X005494Y009647D01*
X005494Y009626D01*
X005484Y009608D01*
X005494Y009571D01*
X005494Y008725D01*
X005575Y008644D01*
X007738Y008644D01*
X007738Y008345D01*
X007738Y008344D01*
X007690Y008459D01*
X007601Y008549D01*
X007483Y008597D01*
X006877Y008597D01*
X006759Y008549D01*
X006670Y008459D01*
X006621Y008342D01*
X006621Y008215D01*
X006670Y008098D01*
X006759Y008008D01*
X006877Y007960D01*
X007483Y007960D01*
X007601Y008008D01*
X007690Y008098D01*
X007739Y008215D01*
X007739Y008272D01*
X007768Y008242D01*
X007773Y008235D01*
X007773Y008218D01*
X007802Y008188D01*
X007825Y008153D01*
X007842Y008149D01*
X007854Y008137D01*
X007896Y008137D01*
X007937Y008128D01*
X007952Y008137D01*
X007961Y008137D01*
X007961Y008062D01*
X008245Y007778D01*
X007961Y007495D01*
X007961Y007062D01*
X008245Y006778D01*
X007961Y006495D01*
X007961Y006062D01*
X008245Y005778D01*
X007961Y005495D01*
X007961Y005062D01*
X008245Y004778D01*
X007961Y004495D01*
X007961Y004062D01*
X008245Y003778D01*
X007984Y003517D01*
X007632Y003517D01*
X007601Y003549D01*
X007483Y003597D01*
X006877Y003597D01*
X006759Y003549D01*
X006670Y003459D01*
X006621Y003342D01*
X006621Y003215D01*
X006670Y003098D01*
X006759Y003008D01*
X006877Y002960D01*
X007483Y002960D01*
X007601Y003008D01*
X007632Y003040D01*
X007984Y003040D01*
X008245Y002778D01*
X007984Y002517D01*
X007632Y002517D01*
X007601Y002549D01*
X007483Y002597D01*
X006877Y002597D01*
X006759Y002549D01*
X006670Y002459D01*
X006621Y002342D01*
X006621Y002215D01*
X006670Y002098D01*
X006759Y002008D01*
X006877Y001960D01*
X007483Y001960D01*
X007601Y002008D01*
X007632Y002040D01*
X007984Y002040D01*
X008210Y001814D01*
X007911Y001516D01*
X007911Y001308D01*
X008454Y001308D01*
X008454Y001249D01*
X008513Y001249D01*
X008513Y001308D01*
X009056Y001308D01*
X009056Y001516D01*
X008757Y001814D01*
X009005Y002062D01*
X009005Y002495D01*
X008721Y002778D01*
X009005Y003062D01*
X009005Y003495D01*
X008721Y003778D01*
X009005Y004062D01*
X009005Y004495D01*
X008721Y004778D01*
X009005Y005062D01*
X009005Y005495D01*
X008721Y005778D01*
X009005Y006062D01*
X009005Y006495D01*
X008721Y006778D01*
X009005Y007062D01*
X009005Y007495D01*
X008721Y007778D01*
X009005Y008062D01*
X009005Y008495D01*
X008721Y008778D01*
X009005Y009062D01*
X009005Y009495D01*
X008721Y009778D01*
X009005Y010062D01*
X009005Y010495D01*
X008721Y010778D01*
X009005Y011062D01*
X009005Y011495D01*
X008721Y011778D01*
X009005Y012062D01*
X009005Y012495D01*
X008721Y012778D01*
X009005Y013062D01*
X009005Y013495D01*
X008721Y013778D01*
X009005Y014062D01*
X009005Y014495D01*
X008757Y014743D01*
X009056Y015041D01*
X009056Y015249D01*
X008513Y015249D01*
X008513Y015308D01*
X009056Y015308D01*
X009056Y015516D01*
X008793Y015778D01*
X009056Y016041D01*
X009056Y016249D01*
X008513Y016249D01*
X008513Y016308D01*
X009056Y016308D01*
X009056Y016516D01*
X008757Y016814D01*
X009005Y017062D01*
X009005Y017495D01*
X008721Y017778D01*
X009005Y018062D01*
X009005Y018495D01*
X008721Y018778D01*
X009005Y019062D01*
X009005Y019495D01*
X008721Y019778D01*
X009005Y020062D01*
X009005Y020495D01*
X008699Y020800D01*
X008267Y020800D01*
X008194Y020727D02*
X003370Y020727D01*
X003370Y020752D02*
X003446Y020829D01*
X009562Y020829D01*
X009589Y020795D01*
X009589Y020689D01*
X009705Y020574D01*
X009868Y020574D01*
X009983Y020689D01*
X009983Y020852D01*
X009868Y020967D01*
X009806Y020967D01*
X009768Y021016D01*
X009768Y021025D01*
X009732Y021060D01*
X009701Y021099D01*
X009693Y021100D01*
X009686Y021106D01*
X009637Y021106D01*
X009587Y021112D01*
X009580Y021106D01*
X003331Y021106D01*
X003250Y021025D01*
X003092Y020867D01*
X003092Y011993D01*
X003034Y011935D01*
X003034Y011772D01*
X003150Y011656D01*
X003313Y011656D01*
X003428Y011772D01*
X003428Y011935D01*
X003370Y011993D01*
X003370Y020752D01*
X003370Y020670D02*
X008137Y020670D01*
X008079Y020612D02*
X003370Y020612D01*
X003370Y020555D02*
X006774Y020555D01*
X006708Y020497D02*
X003370Y020497D01*
X003370Y020439D02*
X006662Y020439D01*
X006638Y020382D02*
X003370Y020382D01*
X003370Y020324D02*
X006621Y020324D01*
X006621Y020267D02*
X003370Y020267D01*
X003370Y020209D02*
X006624Y020209D01*
X006647Y020152D02*
X003370Y020152D01*
X003370Y020094D02*
X006674Y020094D01*
X006731Y020037D02*
X003370Y020037D01*
X003370Y019979D02*
X006830Y019979D01*
X006826Y019576D02*
X003370Y019576D01*
X003370Y019519D02*
X006729Y019519D01*
X006672Y019461D02*
X003370Y019461D01*
X003370Y019403D02*
X006647Y019403D01*
X006623Y019346D02*
X003370Y019346D01*
X003370Y019288D02*
X006621Y019288D01*
X006621Y019231D02*
X003370Y019231D01*
X003370Y019173D02*
X006639Y019173D01*
X006662Y019116D02*
X003370Y019116D01*
X003370Y019058D02*
X006709Y019058D01*
X006778Y019001D02*
X003370Y019001D01*
X003370Y018943D02*
X008081Y018943D01*
X008138Y018885D02*
X003370Y018885D01*
X003370Y018828D02*
X008196Y018828D01*
X008237Y018770D02*
X003370Y018770D01*
X003370Y018713D02*
X008180Y018713D01*
X008122Y018655D02*
X003370Y018655D01*
X003370Y018598D02*
X008065Y018598D01*
X008007Y018540D02*
X007609Y018540D01*
X007582Y019001D02*
X008023Y019001D01*
X007986Y019519D02*
X007631Y019519D01*
X007534Y019576D02*
X008043Y019576D01*
X008101Y019634D02*
X003370Y019634D01*
X003370Y019691D02*
X007741Y019691D01*
X007764Y019668D02*
X007911Y019668D01*
X008015Y019772D01*
X008015Y019919D01*
X007911Y020023D01*
X007764Y020023D01*
X007660Y019919D01*
X007660Y019772D01*
X007764Y019668D01*
X007683Y019749D02*
X003370Y019749D01*
X003370Y019806D02*
X007660Y019806D01*
X007660Y019864D02*
X003370Y019864D01*
X003370Y019921D02*
X007663Y019921D01*
X007721Y019979D02*
X007530Y019979D01*
X007629Y020037D02*
X007987Y020037D01*
X007954Y019979D02*
X008045Y019979D01*
X008012Y019921D02*
X008102Y019921D01*
X008160Y019864D02*
X008015Y019864D01*
X008015Y019806D02*
X008217Y019806D01*
X008216Y019749D02*
X007991Y019749D01*
X007934Y019691D02*
X008158Y019691D01*
X008750Y019749D02*
X011558Y019749D01*
X011558Y019806D02*
X008749Y019806D01*
X008806Y019864D02*
X011558Y019864D01*
X011558Y019921D02*
X008864Y019921D01*
X008921Y019979D02*
X011558Y019979D01*
X011558Y020037D02*
X008979Y020037D01*
X009005Y020094D02*
X011558Y020094D01*
X011558Y020152D02*
X009005Y020152D01*
X009005Y020209D02*
X011558Y020209D01*
X011558Y020267D02*
X009005Y020267D01*
X009005Y020324D02*
X011591Y020324D01*
X011604Y020337D02*
X011558Y020291D01*
X011558Y019557D01*
X011604Y019511D01*
X012339Y019511D01*
X012385Y019557D01*
X012385Y020291D01*
X012339Y020337D01*
X011604Y020337D01*
X011558Y019691D02*
X008808Y019691D01*
X008866Y019634D02*
X011558Y019634D01*
X011558Y019576D02*
X008923Y019576D01*
X008981Y019519D02*
X011596Y019519D01*
X011185Y019083D02*
X011209Y019059D01*
X011226Y019029D01*
X011235Y018996D01*
X011235Y018812D01*
X010633Y018812D01*
X010633Y018753D01*
X011235Y018753D01*
X011235Y018568D01*
X011226Y018536D01*
X011209Y018506D01*
X011185Y018482D01*
X011155Y018465D01*
X011122Y018456D01*
X010633Y018456D01*
X010633Y018753D01*
X010574Y018753D01*
X010574Y018456D01*
X010084Y018456D01*
X010051Y018465D01*
X010022Y018482D01*
X009998Y018506D01*
X009981Y018536D01*
X009972Y018568D01*
X009972Y018753D01*
X010574Y018753D01*
X010574Y018812D01*
X010574Y019109D01*
X010084Y019109D01*
X010051Y019100D01*
X010022Y019083D01*
X009998Y019059D01*
X009981Y019029D01*
X009972Y018996D01*
X009972Y018812D01*
X010574Y018812D01*
X010633Y018812D01*
X010633Y019109D01*
X011122Y019109D01*
X011155Y019100D01*
X011185Y019083D01*
X011209Y019058D02*
X012434Y019058D01*
X012434Y019001D02*
X011234Y019001D01*
X011235Y018943D02*
X012434Y018943D01*
X012434Y018885D02*
X011235Y018885D01*
X011235Y018828D02*
X012434Y018828D01*
X012434Y018770D02*
X010633Y018770D01*
X010633Y018713D02*
X010574Y018713D01*
X010574Y018770D02*
X008729Y018770D01*
X008770Y018828D02*
X009972Y018828D01*
X009972Y018885D02*
X008828Y018885D01*
X008886Y018943D02*
X009972Y018943D01*
X009973Y019001D02*
X008943Y019001D01*
X009001Y019058D02*
X009997Y019058D01*
X009972Y018713D02*
X008786Y018713D01*
X008844Y018655D02*
X009972Y018655D01*
X009972Y018598D02*
X008902Y018598D01*
X008959Y018540D02*
X009979Y018540D01*
X010021Y018483D02*
X009005Y018483D01*
X009005Y018425D02*
X012434Y018425D01*
X012434Y018367D02*
X009005Y018367D01*
X009005Y018310D02*
X010047Y018310D01*
X010051Y018313D02*
X010022Y018295D01*
X009998Y018271D01*
X009981Y018242D01*
X009972Y018209D01*
X009972Y018024D01*
X010574Y018024D01*
X010574Y017965D01*
X010633Y017965D01*
X010633Y017669D01*
X011122Y017669D01*
X011155Y017677D01*
X011185Y017694D01*
X011209Y017719D01*
X011226Y017748D01*
X011235Y017781D01*
X011235Y017965D01*
X012434Y017965D01*
X012434Y018022D02*
X010633Y018022D01*
X010633Y018024D02*
X011235Y018024D01*
X011235Y018209D01*
X011226Y018242D01*
X011209Y018271D01*
X011185Y018295D01*
X011155Y018313D01*
X011122Y018321D01*
X010633Y018321D01*
X010633Y018024D01*
X010633Y017965D01*
X010574Y017965D01*
X010574Y017669D01*
X010084Y017669D01*
X010051Y017677D01*
X010022Y017694D01*
X009998Y017719D01*
X009981Y017748D01*
X009972Y017781D01*
X009972Y017965D01*
X008907Y017965D01*
X008965Y018022D02*
X010574Y018022D01*
X010574Y018024D02*
X010574Y018321D01*
X010084Y018321D01*
X010051Y018313D01*
X009987Y018252D02*
X009005Y018252D01*
X009005Y018195D02*
X009972Y018195D01*
X009972Y018137D02*
X009005Y018137D01*
X009005Y018080D02*
X009972Y018080D01*
X009972Y017965D02*
X010574Y017965D01*
X010574Y017907D02*
X010633Y017907D01*
X010633Y017849D02*
X010574Y017849D01*
X010574Y017792D02*
X010633Y017792D01*
X010633Y017734D02*
X010574Y017734D01*
X010574Y017677D02*
X010633Y017677D01*
X010633Y017965D02*
X011235Y017965D01*
X011235Y017907D02*
X012434Y017907D01*
X012434Y017849D02*
X011235Y017849D01*
X011235Y017792D02*
X012434Y017792D01*
X012434Y017734D02*
X011218Y017734D01*
X011153Y017677D02*
X012434Y017677D01*
X012434Y017619D02*
X008880Y017619D01*
X008938Y017562D02*
X012434Y017562D01*
X012434Y017504D02*
X008995Y017504D01*
X009005Y017447D02*
X010032Y017447D01*
X010023Y017437D02*
X010069Y017483D01*
X011138Y017483D01*
X011184Y017437D01*
X011184Y016978D01*
X011138Y016932D01*
X010573Y016932D01*
X010397Y016755D01*
X010397Y016673D01*
X010281Y016558D01*
X010118Y016558D01*
X010003Y016673D01*
X010003Y016836D01*
X010098Y016932D01*
X010069Y016932D01*
X010023Y016978D01*
X010023Y017437D01*
X010023Y017389D02*
X009005Y017389D01*
X009005Y017331D02*
X010023Y017331D01*
X010023Y017274D02*
X009005Y017274D01*
X009005Y017216D02*
X010023Y017216D01*
X010023Y017159D02*
X009005Y017159D01*
X009005Y017101D02*
X010023Y017101D01*
X010023Y017044D02*
X008986Y017044D01*
X008929Y016986D02*
X010023Y016986D01*
X010095Y016929D02*
X008871Y016929D01*
X008814Y016871D02*
X010038Y016871D01*
X010003Y016814D02*
X008758Y016814D01*
X008815Y016756D02*
X010003Y016756D01*
X010003Y016698D02*
X008873Y016698D01*
X008930Y016641D02*
X010035Y016641D01*
X010093Y016583D02*
X008988Y016583D01*
X009045Y016526D02*
X012434Y016526D01*
X012434Y016583D02*
X010307Y016583D01*
X010364Y016641D02*
X012434Y016641D01*
X012434Y016698D02*
X010397Y016698D01*
X010397Y016756D02*
X012434Y016756D01*
X012434Y016814D02*
X010455Y016814D01*
X010512Y016871D02*
X012434Y016871D01*
X012434Y016929D02*
X010570Y016929D01*
X011184Y016986D02*
X012434Y016986D01*
X012434Y017044D02*
X011184Y017044D01*
X011184Y017101D02*
X012434Y017101D01*
X012434Y017159D02*
X011184Y017159D01*
X011184Y017216D02*
X012434Y017216D01*
X012434Y017274D02*
X011184Y017274D01*
X011184Y017331D02*
X012434Y017331D01*
X012434Y017389D02*
X011184Y017389D01*
X011174Y017447D02*
X012434Y017447D01*
X012434Y018080D02*
X011235Y018080D01*
X011235Y018137D02*
X012434Y018137D01*
X012434Y018195D02*
X011235Y018195D01*
X011220Y018252D02*
X012434Y018252D01*
X012434Y018310D02*
X011160Y018310D01*
X011185Y018483D02*
X012434Y018483D01*
X012434Y018540D02*
X011227Y018540D01*
X011235Y018598D02*
X012434Y018598D01*
X012434Y018655D02*
X011235Y018655D01*
X011235Y018713D02*
X012434Y018713D01*
X012434Y019116D02*
X009005Y019116D01*
X009005Y019173D02*
X012434Y019173D01*
X012434Y019231D02*
X009005Y019231D01*
X009005Y019288D02*
X012434Y019288D01*
X012434Y019346D02*
X009005Y019346D01*
X009005Y019403D02*
X012434Y019403D01*
X012434Y019461D02*
X009005Y019461D01*
X009005Y020382D02*
X012434Y020382D01*
X012434Y020439D02*
X009005Y020439D01*
X009002Y020497D02*
X012434Y020497D01*
X012434Y020555D02*
X008945Y020555D01*
X008887Y020612D02*
X009666Y020612D01*
X009609Y020670D02*
X008830Y020670D01*
X008772Y020727D02*
X009589Y020727D01*
X009589Y020785D02*
X008714Y020785D01*
X008022Y020555D02*
X007586Y020555D01*
X006751Y018540D02*
X003370Y018540D01*
X003370Y018483D02*
X006693Y018483D01*
X006656Y018425D02*
X003370Y018425D01*
X003370Y018367D02*
X006632Y018367D01*
X006621Y018310D02*
X003370Y018310D01*
X003370Y018252D02*
X006621Y018252D01*
X006630Y018195D02*
X003370Y018195D01*
X003370Y018137D02*
X006653Y018137D01*
X006688Y018080D02*
X003370Y018080D01*
X003370Y018022D02*
X006745Y018022D01*
X006865Y017965D02*
X003956Y017965D01*
X003935Y017985D02*
X003748Y017985D01*
X003615Y017853D01*
X003615Y017665D01*
X003748Y017532D01*
X003935Y017532D01*
X004068Y017665D01*
X004068Y017853D01*
X003935Y017985D01*
X004013Y017907D02*
X008117Y017907D01*
X008174Y017849D02*
X004068Y017849D01*
X004068Y017792D02*
X008232Y017792D01*
X008201Y017734D02*
X004068Y017734D01*
X004068Y017677D02*
X008144Y017677D01*
X008086Y017619D02*
X004022Y017619D01*
X003965Y017562D02*
X006791Y017562D01*
X006715Y017504D02*
X003370Y017504D01*
X003370Y017447D02*
X006665Y017447D01*
X006668Y017101D02*
X005653Y017101D01*
X005653Y017044D02*
X006724Y017044D01*
X006813Y016986D02*
X005653Y016986D01*
X005653Y016929D02*
X007718Y016929D01*
X007718Y016986D02*
X007547Y016986D01*
X007636Y017044D02*
X007718Y017044D01*
X007718Y017101D02*
X007692Y017101D01*
X007715Y017159D02*
X007718Y017159D01*
X007739Y017274D02*
X007747Y017274D01*
X007739Y017331D02*
X007789Y017331D01*
X007838Y017389D02*
X007719Y017389D01*
X007695Y017447D02*
X007961Y017447D01*
X007971Y017504D02*
X007645Y017504D01*
X007569Y017562D02*
X008029Y017562D01*
X008059Y017965D02*
X007495Y017965D01*
X007615Y018022D02*
X008002Y018022D01*
X008734Y017792D02*
X009972Y017792D01*
X009972Y017849D02*
X008792Y017849D01*
X008850Y017907D02*
X009972Y017907D01*
X009988Y017734D02*
X008765Y017734D01*
X008822Y017677D02*
X010053Y017677D01*
X010574Y018024D02*
X010633Y018024D01*
X010633Y018080D02*
X010574Y018080D01*
X010574Y018137D02*
X010633Y018137D01*
X010633Y018195D02*
X010574Y018195D01*
X010574Y018252D02*
X010633Y018252D01*
X010633Y018310D02*
X010574Y018310D01*
X010574Y018483D02*
X010633Y018483D01*
X010633Y018540D02*
X010574Y018540D01*
X010574Y018598D02*
X010633Y018598D01*
X010633Y018655D02*
X010574Y018655D01*
X010574Y018828D02*
X010633Y018828D01*
X010633Y018885D02*
X010574Y018885D01*
X010574Y018943D02*
X010633Y018943D01*
X010633Y019001D02*
X010574Y019001D01*
X010574Y019058D02*
X010633Y019058D01*
X009906Y020612D02*
X012434Y020612D01*
X012434Y020670D02*
X009964Y020670D01*
X009983Y020727D02*
X012434Y020727D01*
X012434Y020785D02*
X009983Y020785D01*
X009983Y020842D02*
X012434Y020842D01*
X012434Y020900D02*
X009935Y020900D01*
X009878Y020957D02*
X012434Y020957D01*
X012434Y021015D02*
X009768Y021015D01*
X009722Y021073D02*
X012434Y021073D01*
X012434Y021130D02*
X000328Y021130D01*
X000328Y021073D02*
X003298Y021073D01*
X003240Y021015D02*
X000328Y021015D01*
X000328Y020957D02*
X003183Y020957D01*
X003125Y020900D02*
X000328Y020900D01*
X000328Y020842D02*
X002238Y020842D01*
X002246Y020851D02*
X001911Y020516D01*
X001911Y020308D01*
X002454Y020308D01*
X002454Y020851D01*
X002246Y020851D01*
X002180Y020785D02*
X000328Y020785D01*
X000328Y020727D02*
X002122Y020727D01*
X002065Y020670D02*
X000328Y020670D01*
X000328Y020612D02*
X000780Y020612D01*
X000765Y020606D02*
X000704Y020565D01*
X000653Y020514D01*
X000613Y020453D01*
X000585Y020386D01*
X000570Y020315D01*
X000570Y020308D01*
X001150Y020308D01*
X001150Y020249D01*
X000570Y020249D01*
X000570Y020242D01*
X000585Y020171D01*
X000613Y020103D01*
X000653Y020043D01*
X000704Y019991D01*
X000765Y019951D01*
X000832Y019923D01*
X000904Y019909D01*
X001150Y019909D01*
X001150Y020249D01*
X001210Y020249D01*
X001210Y020308D01*
X001790Y020308D01*
X001790Y020315D01*
X001775Y020386D01*
X001747Y020453D01*
X001707Y020514D01*
X001656Y020565D01*
X001595Y020606D01*
X001528Y020634D01*
X001456Y020648D01*
X001210Y020648D01*
X001210Y020308D01*
X001150Y020308D01*
X001150Y020648D01*
X000904Y020648D01*
X000832Y020634D01*
X000765Y020606D01*
X000694Y020555D02*
X000328Y020555D01*
X000328Y020497D02*
X000642Y020497D01*
X000607Y020439D02*
X000328Y020439D01*
X000328Y020382D02*
X000584Y020382D01*
X000572Y020324D02*
X000328Y020324D01*
X000328Y020267D02*
X001150Y020267D01*
X001150Y020324D02*
X001210Y020324D01*
X001210Y020267D02*
X002454Y020267D01*
X002454Y020249D02*
X001911Y020249D01*
X001911Y020041D01*
X002210Y019743D01*
X001984Y019517D01*
X001632Y019517D01*
X001601Y019549D01*
X001483Y019597D01*
X000877Y019597D01*
X000759Y019549D01*
X000670Y019459D01*
X000621Y019342D01*
X000621Y019215D01*
X000670Y019098D01*
X000759Y019008D01*
X000877Y018960D01*
X001483Y018960D01*
X001601Y019008D01*
X001632Y019040D01*
X001984Y019040D01*
X002245Y018778D01*
X001984Y018517D01*
X001632Y018517D01*
X001601Y018549D01*
X001483Y018597D01*
X000877Y018597D01*
X000759Y018549D01*
X000670Y018459D01*
X000621Y018342D01*
X000621Y018215D01*
X000670Y018098D01*
X000759Y018008D01*
X000877Y017960D01*
X001483Y017960D01*
X001601Y018008D01*
X001632Y018040D01*
X001984Y018040D01*
X002245Y017778D01*
X001984Y017517D01*
X001632Y017517D01*
X001601Y017549D01*
X001483Y017597D01*
X000877Y017597D01*
X000759Y017549D01*
X000670Y017459D01*
X000621Y017342D01*
X000621Y017215D01*
X000670Y017098D01*
X000759Y017008D01*
X000877Y016960D01*
X001483Y016960D01*
X001601Y017008D01*
X001632Y017040D01*
X001984Y017040D01*
X002210Y016814D01*
X001911Y016516D01*
X001911Y016308D01*
X002454Y016308D01*
X002454Y016249D01*
X001911Y016249D01*
X001911Y016041D01*
X002210Y015743D01*
X001984Y015517D01*
X001632Y015517D01*
X001601Y015549D01*
X001483Y015597D01*
X000877Y015597D01*
X000759Y015549D01*
X000670Y015459D01*
X000621Y015342D01*
X000621Y015215D01*
X000670Y015098D01*
X000759Y015008D01*
X000877Y014960D01*
X001483Y014960D01*
X001601Y015008D01*
X001632Y015040D01*
X001984Y015040D01*
X002245Y014778D01*
X001984Y014517D01*
X001632Y014517D01*
X001601Y014549D01*
X001483Y014597D01*
X000877Y014597D01*
X000759Y014549D01*
X000670Y014459D01*
X000621Y014342D01*
X000621Y014215D01*
X000670Y014098D01*
X000759Y014008D01*
X000877Y013960D01*
X001483Y013960D01*
X001601Y014008D01*
X001632Y014040D01*
X001984Y014040D01*
X002245Y013778D01*
X001961Y013495D01*
X001961Y013062D01*
X002245Y012778D01*
X001984Y012517D01*
X001632Y012517D01*
X001601Y012549D01*
X001483Y012597D01*
X000877Y012597D01*
X000759Y012549D01*
X000670Y012459D01*
X000652Y012417D01*
X000528Y012417D01*
X000457Y012346D01*
X000376Y012265D01*
X000376Y000851D01*
X000770Y000457D01*
X000851Y000376D01*
X006005Y000376D01*
X006261Y000632D01*
X006342Y000713D01*
X006342Y001653D01*
X006437Y001558D01*
X006600Y001558D01*
X006715Y001673D01*
X006715Y001836D01*
X006600Y001952D01*
X006437Y001952D01*
X006342Y001857D01*
X006342Y005791D01*
X006360Y005809D01*
X006360Y004355D01*
X006498Y004217D01*
X006579Y004136D01*
X006654Y004136D01*
X006670Y004098D01*
X006759Y004008D01*
X006877Y003960D01*
X007483Y003960D01*
X007601Y004008D01*
X007690Y004098D01*
X007739Y004215D01*
X007739Y004342D01*
X007690Y004459D01*
X007601Y004549D01*
X007483Y004597D01*
X006877Y004597D01*
X006759Y004549D01*
X006670Y004459D01*
X006664Y004444D01*
X006638Y004470D01*
X006638Y005175D01*
X006670Y005098D01*
X006759Y005008D01*
X006877Y004960D01*
X007483Y004960D01*
X007601Y005008D01*
X007690Y005098D01*
X007739Y005215D01*
X007739Y005342D01*
X007690Y005459D01*
X007601Y005549D01*
X007483Y005597D01*
X006877Y005597D01*
X006759Y005549D01*
X006670Y005459D01*
X006638Y005381D01*
X006638Y006163D01*
X006556Y006244D01*
X006202Y006598D01*
X004942Y006598D01*
X004886Y006655D01*
X004886Y008039D01*
X004891Y008037D01*
X004908Y008020D01*
X004925Y008020D01*
X005032Y007966D01*
X005063Y007935D01*
X005095Y007935D01*
X005111Y007927D01*
X005134Y007935D01*
X005556Y007935D01*
X005634Y007856D01*
X005839Y007856D01*
X005839Y007040D01*
X005820Y007021D01*
X005820Y006882D01*
X005918Y006784D01*
X006056Y006784D01*
X006154Y006882D01*
X006154Y007021D01*
X006116Y007059D01*
X006116Y007979D01*
X006035Y008060D01*
X005965Y008130D01*
X006056Y008221D01*
X006056Y008360D01*
X005958Y008458D01*
X005819Y008458D01*
X005791Y008429D01*
X005319Y008429D01*
X005319Y008709D01*
X005321Y008711D01*
X005319Y008766D01*
X005319Y008820D01*
X005316Y008823D01*
X005316Y008826D01*
X005276Y008863D01*
X005237Y008901D01*
X005234Y008901D01*
X005083Y009040D01*
X005083Y009298D01*
X005155Y009225D01*
X005294Y009225D01*
X005392Y009323D01*
X005392Y009462D01*
X005301Y009553D01*
X005387Y009638D01*
X005387Y009777D01*
X005299Y009865D01*
X005379Y009946D01*
X005465Y009860D01*
X005604Y009860D01*
X005702Y009958D01*
X005702Y010097D01*
X005604Y010195D01*
X005465Y010195D01*
X005374Y010104D01*
X005289Y010190D01*
X005150Y010190D01*
X005052Y010092D01*
X005052Y009992D01*
X005052Y009993D01*
X004868Y010268D01*
X004848Y010310D01*
X004837Y010315D01*
X004830Y010324D01*
X004784Y010334D01*
X004614Y010396D01*
X004590Y010426D01*
X004590Y010458D01*
X004604Y010482D01*
X004617Y010488D01*
X004632Y010530D01*
X004655Y010569D01*
X004651Y010582D01*
X004669Y010600D01*
X004669Y010633D01*
X004680Y010665D01*
X004669Y010689D01*
X004669Y010749D01*
X004700Y010748D01*
X004703Y010750D01*
X004706Y010750D01*
X004745Y010789D01*
X005215Y011222D01*
X005476Y011222D01*
X005504Y011194D01*
X005643Y011194D01*
X005741Y011292D01*
X005741Y011430D01*
X005643Y011528D01*
X005504Y011528D01*
X005476Y011500D01*
X005163Y011500D01*
X005108Y011502D01*
X005106Y011500D01*
X005103Y011500D01*
X005064Y011461D01*
X004944Y011461D01*
X004939Y011518D02*
X005494Y011518D01*
X005653Y011518D02*
X005800Y011518D01*
X005808Y011461D02*
X005711Y011461D01*
X005741Y011403D02*
X005866Y011403D01*
X005853Y011346D02*
X005741Y011346D01*
X005737Y011288D02*
X005839Y011288D01*
X005839Y011231D02*
X005680Y011231D01*
X005800Y011576D02*
X004905Y011576D01*
X004905Y011634D02*
X005826Y011634D01*
X005860Y011173D02*
X005161Y011173D01*
X005155Y011135D02*
X005057Y011037D01*
X005057Y010898D01*
X005143Y010812D01*
X005052Y010722D01*
X005052Y010583D01*
X005150Y010485D01*
X005289Y010485D01*
X005387Y010583D01*
X005387Y010722D01*
X005301Y010807D01*
X005392Y010898D01*
X005392Y011037D01*
X005294Y011135D01*
X005155Y011135D01*
X005136Y011116D02*
X005099Y011116D01*
X005078Y011058D02*
X005036Y011058D01*
X005057Y011000D02*
X004974Y011000D01*
X004912Y010943D02*
X005057Y010943D01*
X005070Y010885D02*
X004849Y010885D01*
X004787Y010828D02*
X005127Y010828D01*
X005100Y010770D02*
X004726Y010770D01*
X004669Y010713D02*
X005052Y010713D01*
X005052Y010655D02*
X004677Y010655D01*
X004667Y010598D02*
X005052Y010598D01*
X005095Y010540D02*
X004638Y010540D01*
X004606Y010482D02*
X005902Y010482D01*
X005936Y010425D02*
X004591Y010425D01*
X004692Y010367D02*
X005879Y010367D01*
X005879Y010229D01*
X005977Y010131D01*
X006115Y010131D01*
X006213Y010229D01*
X006213Y010367D01*
X006222Y010367D01*
X006213Y010367D02*
X006115Y010465D01*
X005977Y010465D01*
X005879Y010367D01*
X005879Y010310D02*
X004849Y010310D01*
X004879Y010252D02*
X005879Y010252D01*
X005913Y010195D02*
X005604Y010195D01*
X005661Y010137D02*
X005971Y010137D01*
X006122Y010137D02*
X006222Y010137D01*
X006222Y010195D02*
X006179Y010195D01*
X006213Y010252D02*
X006222Y010252D01*
X006213Y010310D02*
X006222Y010310D01*
X006222Y010425D02*
X006156Y010425D01*
X005844Y010540D02*
X005344Y010540D01*
X005387Y010598D02*
X005829Y010598D01*
X005829Y010655D02*
X005387Y010655D01*
X005387Y010713D02*
X005868Y010713D01*
X005868Y010770D02*
X005338Y010770D01*
X005321Y010828D02*
X005868Y010828D01*
X005868Y010885D02*
X005379Y010885D01*
X005392Y010943D02*
X005868Y010943D01*
X005868Y011000D02*
X005392Y011000D01*
X005370Y011058D02*
X005868Y011058D01*
X005868Y011116D02*
X005313Y011116D01*
X005064Y011461D02*
X004602Y011034D01*
X004599Y011036D01*
X004556Y011027D01*
X004512Y011027D01*
X004501Y011016D01*
X004486Y011013D01*
X004462Y010977D01*
X004447Y010962D01*
X004447Y011042D01*
X004394Y011095D01*
X004388Y011130D01*
X004388Y011165D01*
X004380Y011173D01*
X004752Y011173D01*
X004690Y011116D02*
X004390Y011116D01*
X004394Y011095D02*
X004394Y011095D01*
X004430Y011058D02*
X004627Y011058D01*
X004478Y011000D02*
X004447Y011000D01*
X004279Y010972D02*
X004279Y011120D01*
X004215Y011164D01*
X003566Y011164D01*
X003512Y011105D01*
X003512Y009250D01*
X003586Y009156D01*
X003728Y009156D01*
X003802Y009058D01*
X003802Y008841D01*
X003940Y008684D01*
X004038Y008566D01*
X004038Y007345D01*
X004028Y007326D01*
X004176Y007463D02*
X004206Y007434D01*
X004206Y007242D01*
X003940Y007011D01*
X003861Y007011D01*
X003812Y006966D01*
X003939Y006856D02*
X004158Y006856D01*
X004176Y006838D02*
X004314Y006838D01*
X004412Y006936D01*
X004412Y007075D01*
X004314Y007173D01*
X004291Y007173D01*
X004310Y007190D01*
X004311Y007194D01*
X004314Y007197D01*
X004314Y007238D01*
X004317Y007279D01*
X004314Y007283D01*
X004314Y007479D01*
X004284Y007508D01*
X004284Y008475D01*
X004342Y008522D01*
X004349Y008522D01*
X004377Y008549D01*
X004407Y008574D01*
X004408Y008580D01*
X004412Y008585D01*
X004412Y008624D01*
X004414Y008640D01*
X004436Y008621D01*
X004473Y008585D01*
X004479Y008585D01*
X004574Y008503D01*
X004608Y008469D01*
X004608Y008449D01*
X004541Y008517D01*
X004402Y008517D01*
X004304Y008419D01*
X004304Y008280D01*
X004402Y008182D01*
X004541Y008182D01*
X004608Y008250D01*
X004608Y008095D01*
X004541Y008162D01*
X004402Y008162D01*
X004304Y008064D01*
X004304Y007926D01*
X004402Y007828D01*
X004541Y007828D01*
X004608Y007895D01*
X004608Y007700D01*
X004569Y007739D01*
X004423Y007739D01*
X004319Y007635D01*
X004319Y007489D01*
X004423Y007385D01*
X004569Y007385D01*
X004608Y007424D01*
X004608Y006540D01*
X004746Y006402D01*
X004827Y006321D01*
X006087Y006321D01*
X006360Y006048D01*
X006360Y005969D01*
X006273Y006056D01*
X006134Y006056D01*
X006036Y005958D01*
X006036Y005899D01*
X005958Y005977D01*
X005819Y005977D01*
X005721Y005879D01*
X005721Y005741D01*
X005819Y005643D01*
X005958Y005643D01*
X006056Y005741D01*
X006056Y005800D01*
X006065Y005791D01*
X006065Y000828D01*
X005890Y000653D01*
X000966Y000653D01*
X000653Y000966D01*
X000653Y001137D01*
X000670Y001098D01*
X000759Y001008D01*
X000877Y000960D01*
X001483Y000960D01*
X001601Y001008D01*
X001632Y001040D01*
X001984Y001040D01*
X002267Y000757D01*
X002699Y000757D01*
X003005Y001062D01*
X003005Y001495D01*
X002721Y001778D01*
X003005Y002062D01*
X003005Y002495D01*
X002721Y002778D01*
X002967Y003024D01*
X002974Y002996D01*
X002974Y002957D01*
X002989Y002943D01*
X002994Y002923D01*
X003028Y002904D01*
X003056Y002876D01*
X003076Y002876D01*
X003402Y002687D01*
X003430Y002659D01*
X003450Y002659D01*
X003467Y002649D01*
X003505Y002659D01*
X005040Y002659D01*
X005098Y002601D01*
X005262Y002601D01*
X005377Y002717D01*
X005377Y002880D01*
X005262Y002995D01*
X005098Y002995D01*
X005040Y002937D01*
X003524Y002937D01*
X003252Y003095D01*
X003252Y003428D01*
X003272Y003407D01*
X003288Y003407D01*
X003596Y003202D01*
X003626Y003171D01*
X003642Y003171D01*
X003655Y003163D01*
X003698Y003171D01*
X005218Y003171D01*
X005276Y003113D01*
X005439Y003113D01*
X005554Y003228D01*
X005554Y003391D01*
X005439Y003507D01*
X005276Y003507D01*
X005218Y003449D01*
X003726Y003449D01*
X003468Y003620D01*
X003468Y003723D01*
X003489Y003703D01*
X003504Y003703D01*
X003694Y003576D01*
X003725Y003545D01*
X003740Y003545D01*
X003753Y003537D01*
X003796Y003545D01*
X005477Y003545D01*
X005592Y003430D01*
X005592Y002547D01*
X005472Y002444D01*
X005374Y002444D01*
X005259Y002328D01*
X005259Y002165D01*
X005374Y002050D01*
X005537Y002050D01*
X005652Y002165D01*
X005652Y002233D01*
X005783Y002344D01*
X005789Y002344D01*
X005826Y002381D01*
X005865Y002415D01*
X005866Y002421D01*
X005870Y002426D01*
X005870Y002478D01*
X005874Y002530D01*
X005870Y002534D01*
X005870Y003545D01*
X005789Y003626D01*
X005592Y003823D01*
X003824Y003823D01*
X003685Y003916D01*
X003685Y006857D01*
X003743Y006799D01*
X003881Y006799D01*
X003979Y006897D01*
X003979Y006901D01*
X003980Y006902D01*
X003985Y006902D01*
X004014Y006931D01*
X004078Y006987D01*
X004078Y006936D01*
X004176Y006838D01*
X004100Y006914D02*
X003996Y006914D01*
X004060Y006972D02*
X004078Y006972D01*
X004314Y007202D02*
X004608Y007202D01*
X004608Y007259D02*
X004315Y007259D01*
X004314Y007317D02*
X004608Y007317D01*
X004608Y007374D02*
X004314Y007374D01*
X004314Y007432D02*
X004375Y007432D01*
X004319Y007490D02*
X004303Y007490D01*
X004319Y007547D02*
X004284Y007547D01*
X004284Y007605D02*
X004319Y007605D01*
X004346Y007662D02*
X004284Y007662D01*
X004284Y007720D02*
X004403Y007720D01*
X004395Y007835D02*
X004284Y007835D01*
X004284Y007892D02*
X004337Y007892D01*
X004304Y007950D02*
X004284Y007950D01*
X004284Y008008D02*
X004304Y008008D01*
X004305Y008065D02*
X004284Y008065D01*
X004284Y008123D02*
X004362Y008123D01*
X004284Y008180D02*
X004608Y008180D01*
X004608Y008123D02*
X004580Y008123D01*
X004596Y008238D02*
X004608Y008238D01*
X004589Y008468D02*
X004608Y008468D01*
X004548Y008526D02*
X004353Y008526D01*
X004353Y008468D02*
X004284Y008468D01*
X004284Y008410D02*
X004304Y008410D01*
X004304Y008353D02*
X004284Y008353D01*
X004284Y008295D02*
X004304Y008295D01*
X004284Y008238D02*
X004346Y008238D01*
X004176Y008526D02*
X004304Y008630D01*
X004304Y008979D01*
X004215Y009078D01*
X003999Y009078D01*
X003940Y009156D01*
X003822Y009294D01*
X003684Y009294D01*
X003645Y009353D01*
X003645Y010613D01*
X003684Y010652D01*
X003964Y010652D01*
X003840Y010540D02*
X003753Y010540D01*
X003753Y010544D02*
X003836Y010544D01*
X003895Y010485D01*
X004034Y010485D01*
X004119Y010571D01*
X004205Y010485D01*
X004311Y010485D01*
X004313Y010477D01*
X004313Y010385D01*
X004307Y010335D01*
X004313Y010328D01*
X004313Y010319D01*
X004348Y010284D01*
X004412Y010205D01*
X004429Y010168D01*
X004446Y010161D01*
X004458Y010147D01*
X004471Y010145D01*
X004432Y010107D01*
X004344Y010195D01*
X004205Y010195D01*
X004107Y010097D01*
X004107Y009958D01*
X004198Y009868D01*
X004127Y009797D01*
X004127Y009792D01*
X004127Y009792D01*
X004039Y009880D01*
X003900Y009880D01*
X003802Y009782D01*
X003802Y009643D01*
X003888Y009557D01*
X003792Y009462D01*
X003792Y009405D01*
X003785Y009406D01*
X003782Y009402D01*
X003753Y009402D01*
X003753Y010544D01*
X003753Y010482D02*
X004311Y010482D01*
X004313Y010425D02*
X003753Y010425D01*
X003753Y010367D02*
X004311Y010367D01*
X004323Y010310D02*
X003753Y010310D01*
X003753Y010252D02*
X004374Y010252D01*
X004344Y010195D02*
X004416Y010195D01*
X004401Y010137D02*
X004462Y010137D01*
X004274Y010027D02*
X004614Y009708D01*
X004786Y009570D01*
X005083Y009274D02*
X005107Y009274D01*
X005083Y009216D02*
X005494Y009216D01*
X005494Y009159D02*
X005083Y009159D01*
X005083Y009101D02*
X005494Y009101D01*
X005494Y009044D02*
X005083Y009044D01*
X005142Y008986D02*
X005494Y008986D01*
X005494Y008928D02*
X005205Y008928D01*
X005268Y008871D02*
X005494Y008871D01*
X005494Y008813D02*
X005319Y008813D01*
X005319Y008756D02*
X005494Y008756D01*
X005521Y008698D02*
X005319Y008698D01*
X005319Y008641D02*
X007738Y008641D01*
X007738Y008583D02*
X007517Y008583D01*
X007624Y008526D02*
X007738Y008526D01*
X007738Y008468D02*
X007681Y008468D01*
X007710Y008410D02*
X007738Y008410D01*
X007734Y008353D02*
X007738Y008353D01*
X007739Y008238D02*
X007771Y008238D01*
X007807Y008180D02*
X007724Y008180D01*
X007700Y008123D02*
X007961Y008123D01*
X007961Y008065D02*
X007657Y008065D01*
X007599Y008008D02*
X008016Y008008D01*
X008074Y007950D02*
X006116Y007950D01*
X006116Y007892D02*
X008131Y007892D01*
X008189Y007835D02*
X006116Y007835D01*
X006116Y007777D02*
X008244Y007777D01*
X008187Y007720D02*
X006116Y007720D01*
X006116Y007662D02*
X008129Y007662D01*
X008072Y007605D02*
X006116Y007605D01*
X006116Y007547D02*
X006758Y007547D01*
X006759Y007549D02*
X006670Y007459D01*
X006621Y007342D01*
X006621Y007215D01*
X006670Y007098D01*
X006759Y007008D01*
X006877Y006960D01*
X007483Y006960D01*
X007601Y007008D01*
X007690Y007098D01*
X007739Y007215D01*
X007739Y007342D01*
X007690Y007459D01*
X007601Y007549D01*
X007483Y007597D01*
X006877Y007597D01*
X006759Y007549D01*
X006700Y007490D02*
X006116Y007490D01*
X006116Y007432D02*
X006659Y007432D01*
X006635Y007374D02*
X006116Y007374D01*
X006116Y007317D02*
X006621Y007317D01*
X006621Y007259D02*
X006116Y007259D01*
X006116Y007202D02*
X006627Y007202D01*
X006651Y007144D02*
X006116Y007144D01*
X006116Y007087D02*
X006681Y007087D01*
X006739Y007029D02*
X006146Y007029D01*
X006154Y006972D02*
X006848Y006972D01*
X006877Y006597D02*
X006759Y006549D01*
X006670Y006459D01*
X006621Y006342D01*
X006621Y006215D01*
X006670Y006098D01*
X006759Y006008D01*
X006877Y005960D01*
X007483Y005960D01*
X007601Y006008D01*
X007690Y006098D01*
X007739Y006215D01*
X007739Y006342D01*
X007690Y006459D01*
X007601Y006549D01*
X007483Y006597D01*
X006877Y006597D01*
X006808Y006569D02*
X006232Y006569D01*
X006289Y006511D02*
X006722Y006511D01*
X006668Y006454D02*
X006347Y006454D01*
X006404Y006396D02*
X006644Y006396D01*
X006621Y006338D02*
X006462Y006338D01*
X006519Y006281D02*
X006621Y006281D01*
X006621Y006223D02*
X006577Y006223D01*
X006635Y006166D02*
X006642Y006166D01*
X006638Y006108D02*
X006666Y006108D01*
X006638Y006051D02*
X006717Y006051D01*
X006638Y005993D02*
X006796Y005993D01*
X006638Y005936D02*
X008088Y005936D01*
X008031Y005993D02*
X007564Y005993D01*
X007643Y006051D02*
X007973Y006051D01*
X007961Y006108D02*
X007694Y006108D01*
X007718Y006166D02*
X007961Y006166D01*
X007961Y006223D02*
X007739Y006223D01*
X007739Y006281D02*
X007961Y006281D01*
X007961Y006338D02*
X007739Y006338D01*
X007716Y006396D02*
X007961Y006396D01*
X007961Y006454D02*
X007692Y006454D01*
X007638Y006511D02*
X007978Y006511D01*
X008036Y006569D02*
X007552Y006569D01*
X007512Y006972D02*
X008052Y006972D01*
X007995Y007029D02*
X007621Y007029D01*
X007679Y007087D02*
X007961Y007087D01*
X007961Y007144D02*
X007709Y007144D01*
X007733Y007202D02*
X007961Y007202D01*
X007961Y007259D02*
X007739Y007259D01*
X007739Y007317D02*
X007961Y007317D01*
X007961Y007374D02*
X007725Y007374D01*
X007701Y007432D02*
X007961Y007432D01*
X007961Y007490D02*
X007660Y007490D01*
X007602Y007547D02*
X008014Y007547D01*
X008110Y006914D02*
X006154Y006914D01*
X006128Y006856D02*
X008167Y006856D01*
X008225Y006799D02*
X006071Y006799D01*
X005903Y006799D02*
X004886Y006799D01*
X004886Y006856D02*
X005846Y006856D01*
X005820Y006914D02*
X004886Y006914D01*
X004886Y006972D02*
X005820Y006972D01*
X005828Y007029D02*
X004886Y007029D01*
X004886Y007087D02*
X005839Y007087D01*
X005839Y007144D02*
X004886Y007144D01*
X004886Y007202D02*
X005839Y007202D01*
X005839Y007259D02*
X004886Y007259D01*
X004886Y007317D02*
X005839Y007317D01*
X005839Y007374D02*
X004886Y007374D01*
X004886Y007432D02*
X005839Y007432D01*
X005839Y007490D02*
X004886Y007490D01*
X004886Y007547D02*
X005839Y007547D01*
X005839Y007605D02*
X004886Y007605D01*
X004886Y007662D02*
X005839Y007662D01*
X005839Y007720D02*
X004886Y007720D01*
X004886Y007777D02*
X005839Y007777D01*
X005839Y007835D02*
X004886Y007835D01*
X004886Y007892D02*
X005598Y007892D01*
X005319Y008468D02*
X006679Y008468D01*
X006650Y008410D02*
X006005Y008410D01*
X006056Y008353D02*
X006626Y008353D01*
X006621Y008295D02*
X006056Y008295D01*
X006056Y008238D02*
X006621Y008238D01*
X006636Y008180D02*
X006015Y008180D01*
X005972Y008123D02*
X006660Y008123D01*
X006703Y008065D02*
X006030Y008065D01*
X006087Y008008D02*
X006761Y008008D01*
X006736Y008526D02*
X005319Y008526D01*
X005319Y008583D02*
X006843Y008583D01*
X005719Y009964D02*
X005702Y009964D01*
X005702Y010022D02*
X005763Y010022D01*
X005807Y010080D02*
X005702Y010080D01*
X005675Y009907D02*
X005650Y009907D01*
X005630Y009849D02*
X005314Y009849D01*
X005340Y009907D02*
X005418Y009907D01*
X005372Y009792D02*
X005586Y009792D01*
X005556Y009734D02*
X005387Y009734D01*
X005387Y009677D02*
X005523Y009677D01*
X005490Y009619D02*
X005368Y009619D01*
X005310Y009562D02*
X005494Y009562D01*
X005494Y009504D02*
X005350Y009504D01*
X005392Y009446D02*
X005494Y009446D01*
X005494Y009389D02*
X005392Y009389D01*
X005392Y009331D02*
X005494Y009331D01*
X005494Y009274D02*
X005342Y009274D01*
X005052Y010022D02*
X005032Y010022D01*
X005052Y010080D02*
X004994Y010080D01*
X004955Y010137D02*
X005097Y010137D01*
X004917Y010195D02*
X005465Y010195D01*
X005407Y010137D02*
X005341Y010137D01*
X004814Y011231D02*
X004310Y011231D01*
X004313Y011228D02*
X004285Y011248D01*
X004260Y011273D01*
X004249Y011273D01*
X004240Y011279D01*
X004206Y011273D01*
X003608Y011273D01*
X003606Y011274D01*
X003563Y011273D01*
X003521Y011273D01*
X003519Y011271D01*
X003516Y011270D01*
X003488Y011239D01*
X003458Y011209D01*
X003458Y011206D01*
X003433Y011180D01*
X003404Y011151D01*
X003236Y011333D01*
X003236Y011336D01*
X003197Y011375D01*
X003160Y011415D01*
X003157Y011415D01*
X003155Y011417D01*
X003100Y011417D01*
X003046Y011419D01*
X003043Y011417D01*
X003005Y011417D01*
X003005Y011495D01*
X002721Y011778D01*
X003005Y012062D01*
X003005Y012495D01*
X002721Y012778D01*
X003005Y013062D01*
X003005Y013495D01*
X002721Y013778D01*
X003005Y014062D01*
X003005Y014495D01*
X002721Y014778D01*
X003005Y015062D01*
X003005Y015495D01*
X002757Y015743D01*
X003056Y016041D01*
X003056Y016249D01*
X002513Y016249D01*
X002513Y016308D01*
X003056Y016308D01*
X003056Y016516D01*
X002757Y016814D01*
X003005Y017062D01*
X003005Y017495D01*
X002721Y017778D01*
X003005Y018062D01*
X003005Y018495D01*
X002721Y018778D01*
X003005Y019062D01*
X003005Y019495D01*
X002757Y019743D01*
X003056Y020041D01*
X003056Y020249D01*
X002513Y020249D01*
X002513Y020308D01*
X003056Y020308D01*
X003056Y020516D01*
X002720Y020851D01*
X002513Y020851D01*
X002513Y020308D01*
X002454Y020308D01*
X002454Y020249D01*
X002513Y020267D02*
X003092Y020267D01*
X003092Y020324D02*
X003056Y020324D01*
X003056Y020382D02*
X003092Y020382D01*
X003092Y020439D02*
X003056Y020439D01*
X003056Y020497D02*
X003092Y020497D01*
X003092Y020555D02*
X003017Y020555D01*
X002959Y020612D02*
X003092Y020612D01*
X003092Y020670D02*
X002901Y020670D01*
X002844Y020727D02*
X003092Y020727D01*
X003092Y020785D02*
X002786Y020785D01*
X002729Y020842D02*
X003092Y020842D01*
X003092Y020209D02*
X003056Y020209D01*
X003056Y020152D02*
X003092Y020152D01*
X003092Y020094D02*
X003056Y020094D01*
X003051Y020037D02*
X003092Y020037D01*
X003092Y019979D02*
X002993Y019979D01*
X002936Y019921D02*
X003092Y019921D01*
X003092Y019864D02*
X002878Y019864D01*
X002821Y019806D02*
X003092Y019806D01*
X003092Y019749D02*
X002763Y019749D01*
X002808Y019691D02*
X003092Y019691D01*
X003092Y019634D02*
X002866Y019634D01*
X002923Y019576D02*
X003092Y019576D01*
X003092Y019519D02*
X002981Y019519D01*
X003005Y019461D02*
X003092Y019461D01*
X003092Y019403D02*
X003005Y019403D01*
X003005Y019346D02*
X003092Y019346D01*
X003092Y019288D02*
X003005Y019288D01*
X003005Y019231D02*
X003092Y019231D01*
X003092Y019173D02*
X003005Y019173D01*
X003005Y019116D02*
X003092Y019116D01*
X003092Y019058D02*
X003001Y019058D01*
X002943Y019001D02*
X003092Y019001D01*
X003092Y018943D02*
X002886Y018943D01*
X002828Y018885D02*
X003092Y018885D01*
X003092Y018828D02*
X002770Y018828D01*
X002729Y018770D02*
X003092Y018770D01*
X003092Y018713D02*
X002786Y018713D01*
X002844Y018655D02*
X003092Y018655D01*
X003092Y018598D02*
X002902Y018598D01*
X002959Y018540D02*
X003092Y018540D01*
X003092Y018483D02*
X003005Y018483D01*
X003005Y018425D02*
X003092Y018425D01*
X003092Y018367D02*
X003005Y018367D01*
X003005Y018310D02*
X003092Y018310D01*
X003092Y018252D02*
X003005Y018252D01*
X003005Y018195D02*
X003092Y018195D01*
X003092Y018137D02*
X003005Y018137D01*
X003005Y018080D02*
X003092Y018080D01*
X003092Y018022D02*
X002965Y018022D01*
X002907Y017965D02*
X003092Y017965D01*
X003092Y017907D02*
X002850Y017907D01*
X002792Y017849D02*
X003092Y017849D01*
X003092Y017792D02*
X002734Y017792D01*
X002765Y017734D02*
X003092Y017734D01*
X003092Y017677D02*
X002822Y017677D01*
X002880Y017619D02*
X003092Y017619D01*
X003092Y017562D02*
X002938Y017562D01*
X002995Y017504D02*
X003092Y017504D01*
X003092Y017447D02*
X003005Y017447D01*
X003005Y017389D02*
X003092Y017389D01*
X003092Y017331D02*
X003005Y017331D01*
X003005Y017274D02*
X003092Y017274D01*
X003092Y017216D02*
X003005Y017216D01*
X003005Y017159D02*
X003092Y017159D01*
X003092Y017101D02*
X003005Y017101D01*
X002986Y017044D02*
X003092Y017044D01*
X003092Y016986D02*
X002929Y016986D01*
X002871Y016929D02*
X003092Y016929D01*
X003092Y016871D02*
X002814Y016871D01*
X002758Y016814D02*
X003092Y016814D01*
X003092Y016756D02*
X002815Y016756D01*
X002873Y016698D02*
X003092Y016698D01*
X003092Y016641D02*
X002930Y016641D01*
X002988Y016583D02*
X003092Y016583D01*
X003092Y016526D02*
X003045Y016526D01*
X003056Y016468D02*
X003092Y016468D01*
X003092Y016411D02*
X003056Y016411D01*
X003056Y016353D02*
X003092Y016353D01*
X003092Y016296D02*
X002513Y016296D01*
X002454Y016296D02*
X001210Y016296D01*
X001210Y016308D02*
X001790Y016308D01*
X001790Y016315D01*
X001775Y016386D01*
X001747Y016453D01*
X001707Y016514D01*
X001656Y016565D01*
X001595Y016606D01*
X001528Y016634D01*
X001456Y016648D01*
X001210Y016648D01*
X001210Y016308D01*
X001210Y016249D01*
X001790Y016249D01*
X001790Y016242D01*
X001775Y016171D01*
X001747Y016103D01*
X001707Y016043D01*
X001656Y015991D01*
X001595Y015951D01*
X001528Y015923D01*
X001456Y015909D01*
X001210Y015909D01*
X001210Y016249D01*
X001150Y016249D01*
X000570Y016249D01*
X000570Y016242D01*
X000585Y016171D01*
X000613Y016103D01*
X000653Y016043D01*
X000704Y015991D01*
X000765Y015951D01*
X000832Y015923D01*
X000904Y015909D01*
X001150Y015909D01*
X001150Y016249D01*
X001150Y016308D01*
X000570Y016308D01*
X000570Y016315D01*
X000585Y016386D01*
X000613Y016453D01*
X000653Y016514D01*
X000704Y016565D01*
X000765Y016606D01*
X000832Y016634D01*
X000904Y016648D01*
X001150Y016648D01*
X001150Y016308D01*
X001210Y016308D01*
X001210Y016353D02*
X001150Y016353D01*
X001150Y016296D02*
X000328Y016296D01*
X000328Y016353D02*
X000578Y016353D01*
X000595Y016411D02*
X000328Y016411D01*
X000328Y016468D02*
X000622Y016468D01*
X000665Y016526D02*
X000328Y016526D01*
X000328Y016583D02*
X000731Y016583D01*
X000868Y016641D02*
X000328Y016641D01*
X000328Y016698D02*
X002094Y016698D01*
X002151Y016756D02*
X000328Y016756D01*
X000328Y016814D02*
X002209Y016814D01*
X002153Y016871D02*
X000328Y016871D01*
X000328Y016929D02*
X002095Y016929D01*
X002038Y016986D02*
X001547Y016986D01*
X001492Y016641D02*
X002036Y016641D01*
X001978Y016583D02*
X001629Y016583D01*
X001695Y016526D02*
X001921Y016526D01*
X001911Y016468D02*
X001738Y016468D01*
X001765Y016411D02*
X001911Y016411D01*
X001911Y016353D02*
X001782Y016353D01*
X001789Y016238D02*
X001911Y016238D01*
X001911Y016180D02*
X001777Y016180D01*
X001756Y016123D02*
X001911Y016123D01*
X001911Y016065D02*
X001722Y016065D01*
X001672Y016008D02*
X001944Y016008D01*
X002002Y015950D02*
X001593Y015950D01*
X001602Y015547D02*
X002014Y015547D01*
X002072Y015605D02*
X000328Y015605D01*
X000328Y015662D02*
X002129Y015662D01*
X002187Y015720D02*
X000328Y015720D01*
X000328Y015778D02*
X002175Y015778D01*
X002117Y015835D02*
X000328Y015835D01*
X000328Y015893D02*
X002059Y015893D01*
X001995Y015029D02*
X001622Y015029D01*
X001512Y014972D02*
X002052Y014972D01*
X002110Y014914D02*
X000328Y014914D01*
X000328Y014857D02*
X002167Y014857D01*
X002225Y014799D02*
X000328Y014799D01*
X000328Y014742D02*
X002209Y014742D01*
X002151Y014684D02*
X000328Y014684D01*
X000328Y014626D02*
X002093Y014626D01*
X002036Y014569D02*
X001552Y014569D01*
X001565Y013993D02*
X002031Y013993D01*
X002088Y013936D02*
X000328Y013936D01*
X000328Y013993D02*
X000795Y013993D01*
X000717Y014051D02*
X000328Y014051D01*
X000328Y014108D02*
X000665Y014108D01*
X000642Y014166D02*
X000328Y014166D01*
X000328Y014224D02*
X000621Y014224D01*
X000621Y014281D02*
X000328Y014281D01*
X000328Y014339D02*
X000621Y014339D01*
X000644Y014396D02*
X000328Y014396D01*
X000328Y014454D02*
X000668Y014454D01*
X000722Y014511D02*
X000328Y014511D01*
X000328Y014569D02*
X000808Y014569D01*
X000848Y014972D02*
X000328Y014972D01*
X000328Y015029D02*
X000738Y015029D01*
X000681Y015087D02*
X000328Y015087D01*
X000328Y015144D02*
X000651Y015144D01*
X000627Y015202D02*
X000328Y015202D01*
X000328Y015260D02*
X000621Y015260D01*
X000621Y015317D02*
X000328Y015317D01*
X000328Y015375D02*
X000635Y015375D01*
X000659Y015432D02*
X000328Y015432D01*
X000328Y015490D02*
X000701Y015490D01*
X000758Y015547D02*
X000328Y015547D01*
X000328Y015950D02*
X000767Y015950D01*
X000688Y016008D02*
X000328Y016008D01*
X000328Y016065D02*
X000638Y016065D01*
X000604Y016123D02*
X000328Y016123D01*
X000328Y016180D02*
X000583Y016180D01*
X000571Y016238D02*
X000328Y016238D01*
X000328Y016986D02*
X000813Y016986D01*
X000724Y017044D02*
X000328Y017044D01*
X000328Y017101D02*
X000668Y017101D01*
X000645Y017159D02*
X000328Y017159D01*
X000328Y017216D02*
X000621Y017216D01*
X000621Y017274D02*
X000328Y017274D01*
X000328Y017331D02*
X000621Y017331D01*
X000641Y017389D02*
X000328Y017389D01*
X000328Y017447D02*
X000665Y017447D01*
X000715Y017504D02*
X000328Y017504D01*
X000328Y017562D02*
X000791Y017562D01*
X000865Y017965D02*
X000328Y017965D01*
X000328Y018022D02*
X000745Y018022D01*
X000688Y018080D02*
X000328Y018080D01*
X000328Y018137D02*
X000653Y018137D01*
X000630Y018195D02*
X000328Y018195D01*
X000328Y018252D02*
X000621Y018252D01*
X000621Y018310D02*
X000328Y018310D01*
X000328Y018367D02*
X000632Y018367D01*
X000656Y018425D02*
X000328Y018425D01*
X000328Y018483D02*
X000693Y018483D01*
X000751Y018540D02*
X000328Y018540D01*
X000328Y018598D02*
X002065Y018598D01*
X002122Y018655D02*
X000328Y018655D01*
X000328Y018713D02*
X002180Y018713D01*
X002237Y018770D02*
X000328Y018770D01*
X000328Y018828D02*
X002196Y018828D01*
X002138Y018885D02*
X000328Y018885D01*
X000328Y018943D02*
X002081Y018943D01*
X002023Y019001D02*
X001582Y019001D01*
X001609Y018540D02*
X002007Y018540D01*
X002002Y018022D02*
X001615Y018022D01*
X001495Y017965D02*
X002059Y017965D01*
X002117Y017907D02*
X000328Y017907D01*
X000328Y017849D02*
X002174Y017849D01*
X002232Y017792D02*
X000328Y017792D01*
X000328Y017734D02*
X002201Y017734D01*
X002144Y017677D02*
X000328Y017677D01*
X000328Y017619D02*
X002086Y017619D01*
X002029Y017562D02*
X001569Y017562D01*
X001210Y016641D02*
X001150Y016641D01*
X001150Y016583D02*
X001210Y016583D01*
X001210Y016526D02*
X001150Y016526D01*
X001150Y016468D02*
X001210Y016468D01*
X001210Y016411D02*
X001150Y016411D01*
X001150Y016238D02*
X001210Y016238D01*
X001210Y016180D02*
X001150Y016180D01*
X001150Y016123D02*
X001210Y016123D01*
X001210Y016065D02*
X001150Y016065D01*
X001150Y016008D02*
X001210Y016008D01*
X001210Y015950D02*
X001150Y015950D01*
X000328Y013878D02*
X002146Y013878D01*
X002203Y013821D02*
X000328Y013821D01*
X000328Y013763D02*
X002230Y013763D01*
X002173Y013706D02*
X000328Y013706D01*
X000328Y013648D02*
X002115Y013648D01*
X002057Y013590D02*
X001500Y013590D01*
X001483Y013597D02*
X001601Y013549D01*
X001690Y013459D01*
X001739Y013342D01*
X001739Y013215D01*
X001690Y013098D01*
X001601Y013008D01*
X001483Y012960D01*
X000877Y012960D01*
X000759Y013008D01*
X000670Y013098D01*
X000621Y013215D01*
X000621Y013342D01*
X000670Y013459D01*
X000759Y013549D01*
X000877Y013597D01*
X001483Y013597D01*
X001616Y013533D02*
X002000Y013533D01*
X001961Y013475D02*
X001674Y013475D01*
X001707Y013418D02*
X001961Y013418D01*
X001961Y013360D02*
X001731Y013360D01*
X001739Y013303D02*
X001961Y013303D01*
X001961Y013245D02*
X001739Y013245D01*
X001727Y013188D02*
X001961Y013188D01*
X001961Y013130D02*
X001704Y013130D01*
X001665Y013072D02*
X001961Y013072D01*
X002009Y013015D02*
X001607Y013015D01*
X001587Y012554D02*
X002021Y012554D01*
X002079Y012612D02*
X000328Y012612D01*
X000328Y012670D02*
X002137Y012670D01*
X002194Y012727D02*
X000328Y012727D01*
X000328Y012785D02*
X002239Y012785D01*
X002182Y012842D02*
X000328Y012842D01*
X000328Y012900D02*
X002124Y012900D01*
X002067Y012957D02*
X000328Y012957D01*
X000328Y013015D02*
X000753Y013015D01*
X000695Y013072D02*
X000328Y013072D01*
X000328Y013130D02*
X000656Y013130D01*
X000633Y013188D02*
X000328Y013188D01*
X000328Y013245D02*
X000621Y013245D01*
X000621Y013303D02*
X000328Y013303D01*
X000328Y013360D02*
X000629Y013360D01*
X000653Y013418D02*
X000328Y013418D01*
X000328Y013475D02*
X000686Y013475D01*
X000744Y013533D02*
X000328Y013533D01*
X000328Y013590D02*
X000860Y013590D01*
X000773Y012554D02*
X000328Y012554D01*
X000328Y012497D02*
X000708Y012497D01*
X000662Y012439D02*
X000328Y012439D01*
X000328Y012382D02*
X000493Y012382D01*
X000435Y012324D02*
X000328Y012324D01*
X000328Y012267D02*
X000378Y012267D01*
X000376Y012209D02*
X000328Y012209D01*
X000328Y012152D02*
X000376Y012152D01*
X000376Y012094D02*
X000328Y012094D01*
X000328Y012036D02*
X000376Y012036D01*
X000376Y011979D02*
X000328Y011979D01*
X000328Y011921D02*
X000376Y011921D01*
X000376Y011864D02*
X000328Y011864D01*
X000328Y011806D02*
X000376Y011806D01*
X000376Y011749D02*
X000328Y011749D01*
X000328Y011691D02*
X000376Y011691D01*
X000376Y011634D02*
X000328Y011634D01*
X000328Y011576D02*
X000376Y011576D01*
X000376Y011518D02*
X000328Y011518D01*
X000328Y011461D02*
X000376Y011461D01*
X000376Y011403D02*
X000328Y011403D01*
X000328Y011346D02*
X000376Y011346D01*
X000376Y011288D02*
X000328Y011288D01*
X000328Y011231D02*
X000376Y011231D01*
X000376Y011173D02*
X000328Y011173D01*
X000328Y011116D02*
X000376Y011116D01*
X000376Y011058D02*
X000328Y011058D01*
X000328Y011000D02*
X000376Y011000D01*
X000376Y010943D02*
X000328Y010943D01*
X000328Y010885D02*
X000376Y010885D01*
X000376Y010828D02*
X000328Y010828D01*
X000328Y010770D02*
X000376Y010770D01*
X000376Y010713D02*
X000328Y010713D01*
X000328Y010655D02*
X000376Y010655D01*
X000376Y010598D02*
X000328Y010598D01*
X000328Y010540D02*
X000376Y010540D01*
X000376Y010482D02*
X000328Y010482D01*
X000328Y010425D02*
X000376Y010425D01*
X000376Y010367D02*
X000328Y010367D01*
X000328Y010310D02*
X000376Y010310D01*
X000376Y010252D02*
X000328Y010252D01*
X000328Y010195D02*
X000376Y010195D01*
X000376Y010137D02*
X000328Y010137D01*
X000328Y010080D02*
X000376Y010080D01*
X000376Y010022D02*
X000328Y010022D01*
X000328Y009964D02*
X000376Y009964D01*
X000376Y009907D02*
X000328Y009907D01*
X000328Y009849D02*
X000376Y009849D01*
X000376Y009792D02*
X000328Y009792D01*
X000328Y009734D02*
X000376Y009734D01*
X000376Y009677D02*
X000328Y009677D01*
X000328Y009619D02*
X000376Y009619D01*
X000376Y009562D02*
X000328Y009562D01*
X000328Y009504D02*
X000376Y009504D01*
X000376Y009446D02*
X000328Y009446D01*
X000328Y009389D02*
X000376Y009389D01*
X000376Y009331D02*
X000328Y009331D01*
X000328Y009274D02*
X000376Y009274D01*
X000376Y009216D02*
X000328Y009216D01*
X000328Y009159D02*
X000376Y009159D01*
X000376Y009101D02*
X000328Y009101D01*
X000328Y009044D02*
X000376Y009044D01*
X000376Y008986D02*
X000328Y008986D01*
X000328Y008928D02*
X000376Y008928D01*
X000376Y008871D02*
X000328Y008871D01*
X000328Y008813D02*
X000376Y008813D01*
X000376Y008756D02*
X000328Y008756D01*
X000328Y008698D02*
X000376Y008698D01*
X000376Y008641D02*
X000328Y008641D01*
X000328Y008583D02*
X000376Y008583D01*
X000376Y008526D02*
X000328Y008526D01*
X000328Y008468D02*
X000376Y008468D01*
X000376Y008410D02*
X000328Y008410D01*
X000328Y008353D02*
X000376Y008353D01*
X000376Y008295D02*
X000328Y008295D01*
X000328Y008238D02*
X000376Y008238D01*
X000376Y008180D02*
X000328Y008180D01*
X000328Y008123D02*
X000376Y008123D01*
X000376Y008065D02*
X000328Y008065D01*
X000328Y008008D02*
X000376Y008008D01*
X000376Y007950D02*
X000328Y007950D01*
X000328Y007892D02*
X000376Y007892D01*
X000376Y007835D02*
X000328Y007835D01*
X000328Y007777D02*
X000376Y007777D01*
X000376Y007720D02*
X000328Y007720D01*
X000328Y007662D02*
X000376Y007662D01*
X000376Y007605D02*
X000328Y007605D01*
X000328Y007547D02*
X000376Y007547D01*
X000376Y007490D02*
X000328Y007490D01*
X000328Y007432D02*
X000376Y007432D01*
X000376Y007374D02*
X000328Y007374D01*
X000328Y007317D02*
X000376Y007317D01*
X000376Y007259D02*
X000328Y007259D01*
X000328Y007202D02*
X000376Y007202D01*
X000376Y007144D02*
X000328Y007144D01*
X000328Y007087D02*
X000376Y007087D01*
X000376Y007029D02*
X000328Y007029D01*
X000328Y006972D02*
X000376Y006972D01*
X000376Y006914D02*
X000328Y006914D01*
X000328Y006856D02*
X000376Y006856D01*
X000376Y006799D02*
X000328Y006799D01*
X000328Y006741D02*
X000376Y006741D01*
X000376Y006684D02*
X000328Y006684D01*
X000328Y006626D02*
X000376Y006626D01*
X000376Y006569D02*
X000328Y006569D01*
X000328Y006511D02*
X000376Y006511D01*
X000376Y006454D02*
X000328Y006454D01*
X000328Y006396D02*
X000376Y006396D01*
X000376Y006338D02*
X000328Y006338D01*
X000328Y006281D02*
X000376Y006281D01*
X000376Y006223D02*
X000328Y006223D01*
X000328Y006166D02*
X000376Y006166D01*
X000376Y006108D02*
X000328Y006108D01*
X000328Y006051D02*
X000376Y006051D01*
X000376Y005993D02*
X000328Y005993D01*
X000328Y005936D02*
X000376Y005936D01*
X000376Y005878D02*
X000328Y005878D01*
X000328Y005820D02*
X000376Y005820D01*
X000376Y005763D02*
X000328Y005763D01*
X000328Y005705D02*
X000376Y005705D01*
X000376Y005648D02*
X000328Y005648D01*
X000328Y005590D02*
X000376Y005590D01*
X000376Y005533D02*
X000328Y005533D01*
X000328Y005475D02*
X000376Y005475D01*
X000376Y005418D02*
X000328Y005418D01*
X000328Y005360D02*
X000376Y005360D01*
X000376Y005302D02*
X000328Y005302D01*
X000328Y005245D02*
X000376Y005245D01*
X000376Y005187D02*
X000328Y005187D01*
X000328Y005130D02*
X000376Y005130D01*
X000376Y005072D02*
X000328Y005072D01*
X000328Y005015D02*
X000376Y005015D01*
X000376Y004957D02*
X000328Y004957D01*
X000328Y004900D02*
X000376Y004900D01*
X000376Y004842D02*
X000328Y004842D01*
X000328Y004784D02*
X000376Y004784D01*
X000376Y004727D02*
X000328Y004727D01*
X000328Y004669D02*
X000376Y004669D01*
X000376Y004612D02*
X000328Y004612D01*
X000328Y004554D02*
X000376Y004554D01*
X000376Y004497D02*
X000328Y004497D01*
X000328Y004439D02*
X000376Y004439D01*
X000376Y004382D02*
X000328Y004382D01*
X000328Y004324D02*
X000376Y004324D01*
X000376Y004266D02*
X000328Y004266D01*
X000328Y004209D02*
X000376Y004209D01*
X000376Y004151D02*
X000328Y004151D01*
X000328Y004094D02*
X000376Y004094D01*
X000376Y004036D02*
X000328Y004036D01*
X000328Y003979D02*
X000376Y003979D01*
X000376Y003921D02*
X000328Y003921D01*
X000328Y003864D02*
X000376Y003864D01*
X000376Y003806D02*
X000328Y003806D01*
X000328Y003748D02*
X000376Y003748D01*
X000376Y003691D02*
X000328Y003691D01*
X000328Y003633D02*
X000376Y003633D01*
X000376Y003576D02*
X000328Y003576D01*
X000328Y003518D02*
X000376Y003518D01*
X000376Y003461D02*
X000328Y003461D01*
X000328Y003403D02*
X000376Y003403D01*
X000376Y003346D02*
X000328Y003346D01*
X000328Y003288D02*
X000376Y003288D01*
X000376Y003230D02*
X000328Y003230D01*
X000328Y003173D02*
X000376Y003173D01*
X000376Y003115D02*
X000328Y003115D01*
X000328Y003058D02*
X000376Y003058D01*
X000376Y003000D02*
X000328Y003000D01*
X000328Y002943D02*
X000376Y002943D01*
X000376Y002885D02*
X000328Y002885D01*
X000328Y002828D02*
X000376Y002828D01*
X000376Y002770D02*
X000328Y002770D01*
X000328Y002712D02*
X000376Y002712D01*
X000376Y002655D02*
X000328Y002655D01*
X000328Y002597D02*
X000376Y002597D01*
X000376Y002540D02*
X000328Y002540D01*
X000328Y002482D02*
X000376Y002482D01*
X000376Y002425D02*
X000328Y002425D01*
X000328Y002367D02*
X000376Y002367D01*
X000376Y002310D02*
X000328Y002310D01*
X000328Y002252D02*
X000376Y002252D01*
X000376Y002194D02*
X000328Y002194D01*
X000328Y002137D02*
X000376Y002137D01*
X000376Y002079D02*
X000328Y002079D01*
X000328Y002022D02*
X000376Y002022D01*
X000376Y001964D02*
X000328Y001964D01*
X000328Y001907D02*
X000376Y001907D01*
X000376Y001849D02*
X000328Y001849D01*
X000328Y001792D02*
X000376Y001792D01*
X000376Y001734D02*
X000328Y001734D01*
X000328Y001676D02*
X000376Y001676D01*
X000376Y001619D02*
X000328Y001619D01*
X000328Y001561D02*
X000376Y001561D01*
X000376Y001504D02*
X000328Y001504D01*
X000328Y001446D02*
X000376Y001446D01*
X000376Y001389D02*
X000328Y001389D01*
X000328Y001331D02*
X000376Y001331D01*
X000376Y001274D02*
X000328Y001274D01*
X000328Y001216D02*
X000376Y001216D01*
X000376Y001158D02*
X000328Y001158D01*
X000328Y001101D02*
X000376Y001101D01*
X000376Y001043D02*
X000328Y001043D01*
X000328Y000986D02*
X000376Y000986D01*
X000376Y000928D02*
X000328Y000928D01*
X000328Y000871D02*
X000376Y000871D01*
X000414Y000813D02*
X000328Y000813D01*
X000328Y000756D02*
X000471Y000756D01*
X000529Y000698D02*
X000328Y000698D01*
X000328Y000640D02*
X000586Y000640D01*
X000644Y000583D02*
X000328Y000583D01*
X000328Y000525D02*
X000701Y000525D01*
X000759Y000468D02*
X000328Y000468D01*
X000328Y000410D02*
X000817Y000410D01*
X000921Y000698D02*
X005935Y000698D01*
X005992Y000756D02*
X000864Y000756D01*
X000806Y000813D02*
X002211Y000813D01*
X002153Y000871D02*
X000749Y000871D01*
X000691Y000928D02*
X002096Y000928D01*
X002038Y000986D02*
X001546Y000986D01*
X001632Y001517D02*
X001601Y001549D01*
X001483Y001597D01*
X000877Y001597D01*
X000759Y001549D01*
X000670Y001459D01*
X000653Y001419D01*
X000653Y002137D01*
X000654Y002137D01*
X000653Y002137D02*
X000670Y002098D01*
X000759Y002008D01*
X000877Y001960D01*
X001483Y001960D01*
X001601Y002008D01*
X001632Y002040D01*
X001984Y002040D01*
X002245Y001778D01*
X001984Y001517D01*
X001632Y001517D01*
X001570Y001561D02*
X002028Y001561D01*
X002086Y001619D02*
X000653Y001619D01*
X000653Y001676D02*
X002143Y001676D01*
X002201Y001734D02*
X000653Y001734D01*
X000653Y001792D02*
X002232Y001792D01*
X002175Y001849D02*
X000653Y001849D01*
X000653Y001907D02*
X002117Y001907D01*
X002060Y001964D02*
X001494Y001964D01*
X001614Y002022D02*
X002002Y002022D01*
X001984Y002517D02*
X001632Y002517D01*
X001601Y002549D01*
X001483Y002597D01*
X000877Y002597D01*
X000759Y002549D01*
X000670Y002459D01*
X000653Y002419D01*
X000653Y003137D01*
X000670Y003098D01*
X000759Y003008D01*
X000877Y002960D01*
X001483Y002960D01*
X001601Y003008D01*
X001632Y003040D01*
X001984Y003040D01*
X002245Y002778D01*
X001984Y002517D01*
X002007Y002540D02*
X001609Y002540D01*
X001581Y003000D02*
X002024Y003000D01*
X002081Y002943D02*
X000653Y002943D01*
X000653Y003000D02*
X000779Y003000D01*
X000710Y003058D02*
X000653Y003058D01*
X000653Y003115D02*
X000663Y003115D01*
X000653Y002885D02*
X002139Y002885D01*
X002196Y002828D02*
X000653Y002828D01*
X000653Y002770D02*
X002237Y002770D01*
X002179Y002712D02*
X000653Y002712D01*
X000653Y002655D02*
X002122Y002655D01*
X002064Y002597D02*
X000653Y002597D01*
X000653Y002540D02*
X000751Y002540D01*
X000693Y002482D02*
X000653Y002482D01*
X000653Y002425D02*
X000656Y002425D01*
X000653Y002079D02*
X000688Y002079D01*
X000653Y002022D02*
X000746Y002022D01*
X000653Y001964D02*
X000866Y001964D01*
X000790Y001561D02*
X000653Y001561D01*
X000653Y001504D02*
X000715Y001504D01*
X000665Y001446D02*
X000653Y001446D01*
X000653Y001101D02*
X000669Y001101D01*
X000653Y001043D02*
X000724Y001043D01*
X000653Y000986D02*
X000814Y000986D01*
X000328Y000353D02*
X009284Y000353D01*
X009284Y000328D02*
X000328Y000328D01*
X000328Y021587D01*
X012434Y021587D01*
X012434Y010269D01*
X009371Y010269D01*
X009284Y010182D01*
X009284Y000328D01*
X009284Y000410D02*
X006040Y000410D01*
X006097Y000468D02*
X009284Y000468D01*
X009284Y000525D02*
X006155Y000525D01*
X006212Y000583D02*
X009284Y000583D01*
X009284Y000640D02*
X006270Y000640D01*
X006327Y000698D02*
X009284Y000698D01*
X009284Y000756D02*
X008770Y000756D01*
X008720Y000706D02*
X009056Y001041D01*
X009056Y001249D01*
X008513Y001249D01*
X008513Y000706D01*
X008720Y000706D01*
X008827Y000813D02*
X009284Y000813D01*
X009284Y000871D02*
X008885Y000871D01*
X008942Y000928D02*
X009284Y000928D01*
X009284Y000986D02*
X009000Y000986D01*
X009056Y001043D02*
X009284Y001043D01*
X009284Y001101D02*
X009056Y001101D01*
X009056Y001158D02*
X009284Y001158D01*
X009284Y001216D02*
X009056Y001216D01*
X009056Y001331D02*
X009284Y001331D01*
X009284Y001274D02*
X008513Y001274D01*
X008513Y001216D02*
X008454Y001216D01*
X008454Y001249D02*
X008454Y000706D01*
X008246Y000706D01*
X007911Y001041D01*
X007911Y001249D01*
X008454Y001249D01*
X008454Y001274D02*
X007210Y001274D01*
X007210Y001249D02*
X007210Y001308D01*
X007790Y001308D01*
X007790Y001315D01*
X007775Y001386D01*
X007747Y001453D01*
X007707Y001514D01*
X007656Y001565D01*
X007595Y001606D01*
X007528Y001634D01*
X007456Y001648D01*
X007210Y001648D01*
X007210Y001308D01*
X007150Y001308D01*
X007150Y001249D01*
X006570Y001249D01*
X006570Y001242D01*
X006585Y001171D01*
X006613Y001103D01*
X006653Y001043D01*
X006704Y000991D01*
X006765Y000951D01*
X006832Y000923D01*
X006904Y000909D01*
X007150Y000909D01*
X007150Y001249D01*
X007210Y001249D01*
X007790Y001249D01*
X007790Y001242D01*
X007775Y001171D01*
X007747Y001103D01*
X007707Y001043D01*
X007656Y000991D01*
X007595Y000951D01*
X007528Y000923D01*
X007456Y000909D01*
X007210Y000909D01*
X007210Y001249D01*
X007210Y001216D02*
X007150Y001216D01*
X007150Y001274D02*
X006342Y001274D01*
X006342Y001331D02*
X006574Y001331D01*
X006570Y001315D02*
X006585Y001386D01*
X006613Y001453D01*
X006653Y001514D01*
X006704Y001565D01*
X006765Y001606D01*
X006832Y001634D01*
X006904Y001648D01*
X007150Y001648D01*
X007150Y001308D01*
X006570Y001308D01*
X006570Y001315D01*
X006586Y001389D02*
X006342Y001389D01*
X006342Y001446D02*
X006610Y001446D01*
X006646Y001504D02*
X006342Y001504D01*
X006342Y001561D02*
X006434Y001561D01*
X006376Y001619D02*
X006342Y001619D01*
X006342Y001907D02*
X006392Y001907D01*
X006342Y001964D02*
X006866Y001964D01*
X006746Y002022D02*
X006342Y002022D01*
X006342Y002079D02*
X006688Y002079D01*
X006654Y002137D02*
X006342Y002137D01*
X006342Y002194D02*
X006630Y002194D01*
X006621Y002252D02*
X006342Y002252D01*
X006342Y002310D02*
X006621Y002310D01*
X006632Y002367D02*
X006342Y002367D01*
X006342Y002425D02*
X006656Y002425D01*
X006693Y002482D02*
X006342Y002482D01*
X006342Y002540D02*
X006751Y002540D01*
X006779Y003000D02*
X006342Y003000D01*
X006342Y002943D02*
X008081Y002943D01*
X008024Y003000D02*
X007581Y003000D01*
X007609Y002540D02*
X008007Y002540D01*
X008064Y002597D02*
X006342Y002597D01*
X006342Y002655D02*
X008122Y002655D01*
X008179Y002712D02*
X006342Y002712D01*
X006342Y002770D02*
X008237Y002770D01*
X008196Y002828D02*
X006342Y002828D01*
X006342Y002885D02*
X008139Y002885D01*
X007985Y003518D02*
X007631Y003518D01*
X007535Y003576D02*
X008043Y003576D01*
X008100Y003633D02*
X006342Y003633D01*
X006342Y003576D02*
X006825Y003576D01*
X006729Y003518D02*
X006342Y003518D01*
X006342Y003461D02*
X006671Y003461D01*
X006647Y003403D02*
X006342Y003403D01*
X006342Y003346D02*
X006623Y003346D01*
X006621Y003288D02*
X006342Y003288D01*
X006342Y003230D02*
X006621Y003230D01*
X006639Y003173D02*
X006342Y003173D01*
X006342Y003115D02*
X006663Y003115D01*
X006710Y003058D02*
X006342Y003058D01*
X006065Y003058D02*
X005870Y003058D01*
X005870Y003115D02*
X006065Y003115D01*
X006065Y003173D02*
X005870Y003173D01*
X005870Y003230D02*
X006065Y003230D01*
X006065Y003288D02*
X005870Y003288D01*
X005870Y003346D02*
X006065Y003346D01*
X006065Y003403D02*
X005870Y003403D01*
X005870Y003461D02*
X006065Y003461D01*
X006065Y003518D02*
X005870Y003518D01*
X005839Y003576D02*
X006065Y003576D01*
X006065Y003633D02*
X005781Y003633D01*
X005724Y003691D02*
X006065Y003691D01*
X006065Y003748D02*
X005666Y003748D01*
X005608Y003806D02*
X006065Y003806D01*
X006065Y003864D02*
X003763Y003864D01*
X003685Y003921D02*
X006065Y003921D01*
X006065Y003979D02*
X003685Y003979D01*
X003685Y004036D02*
X006065Y004036D01*
X006065Y004094D02*
X003685Y004094D01*
X003685Y004151D02*
X004948Y004151D01*
X004953Y004147D02*
X005092Y004147D01*
X005120Y004175D01*
X005631Y004175D01*
X005690Y004234D01*
X005771Y004315D01*
X005771Y005685D01*
X005711Y005745D01*
X005711Y005786D01*
X005613Y005884D01*
X005475Y005884D01*
X005377Y005786D01*
X005377Y005647D01*
X005475Y005549D01*
X005494Y005549D01*
X005494Y004453D01*
X005120Y004453D01*
X005092Y004481D01*
X004953Y004481D01*
X004855Y004383D01*
X004855Y004245D01*
X004953Y004147D01*
X004891Y004209D02*
X003685Y004209D01*
X003685Y004266D02*
X004855Y004266D01*
X004855Y004324D02*
X003685Y004324D01*
X003685Y004382D02*
X004855Y004382D01*
X004911Y004439D02*
X003685Y004439D01*
X003685Y004497D02*
X005494Y004497D01*
X005494Y004554D02*
X003685Y004554D01*
X003685Y004612D02*
X005494Y004612D01*
X005494Y004669D02*
X003685Y004669D01*
X003685Y004727D02*
X005494Y004727D01*
X005494Y004784D02*
X003685Y004784D01*
X003685Y004842D02*
X004474Y004842D01*
X004500Y004816D02*
X004639Y004816D01*
X004737Y004914D01*
X004737Y005052D01*
X004639Y005150D01*
X004500Y005150D01*
X004402Y005052D01*
X004402Y004914D01*
X004500Y004816D01*
X004417Y004900D02*
X003685Y004900D01*
X003685Y004957D02*
X004402Y004957D01*
X004402Y005015D02*
X003685Y005015D01*
X003685Y005072D02*
X004422Y005072D01*
X004480Y005130D02*
X003685Y005130D01*
X003685Y005187D02*
X005494Y005187D01*
X005494Y005130D02*
X004660Y005130D01*
X004717Y005072D02*
X005494Y005072D01*
X005494Y005015D02*
X004737Y005015D01*
X004737Y004957D02*
X005494Y004957D01*
X005494Y004900D02*
X004723Y004900D01*
X004665Y004842D02*
X005494Y004842D01*
X005494Y005245D02*
X004793Y005245D01*
X004777Y005229D02*
X004875Y005327D01*
X004875Y005466D01*
X004777Y005564D01*
X004638Y005564D01*
X004540Y005466D01*
X004540Y005327D01*
X004638Y005229D01*
X004777Y005229D01*
X004850Y005302D02*
X005494Y005302D01*
X005494Y005360D02*
X004875Y005360D01*
X004875Y005418D02*
X005494Y005418D01*
X005494Y005475D02*
X004866Y005475D01*
X004808Y005533D02*
X005494Y005533D01*
X005434Y005590D02*
X003685Y005590D01*
X003685Y005533D02*
X004607Y005533D01*
X004549Y005475D02*
X003685Y005475D01*
X003685Y005418D02*
X004540Y005418D01*
X004540Y005360D02*
X003685Y005360D01*
X003685Y005302D02*
X004565Y005302D01*
X004623Y005245D02*
X003685Y005245D01*
X003685Y005648D02*
X005377Y005648D01*
X005377Y005705D02*
X004308Y005705D01*
X004304Y005702D02*
X004402Y005800D01*
X004402Y005938D01*
X004304Y006036D01*
X004166Y006036D01*
X004107Y005978D01*
X004107Y006056D01*
X004009Y006154D01*
X003871Y006154D01*
X003773Y006056D01*
X003773Y005918D01*
X003871Y005820D01*
X004009Y005820D01*
X004068Y005878D01*
X004067Y005878D01*
X004068Y005878D02*
X004068Y005800D01*
X004166Y005702D01*
X004304Y005702D01*
X004366Y005763D02*
X005377Y005763D01*
X005412Y005820D02*
X004402Y005820D01*
X004402Y005878D02*
X005469Y005878D01*
X005619Y005878D02*
X005721Y005878D01*
X005721Y005820D02*
X005677Y005820D01*
X005711Y005763D02*
X005721Y005763D01*
X005751Y005705D02*
X005757Y005705D01*
X005771Y005648D02*
X005814Y005648D01*
X005771Y005590D02*
X006065Y005590D01*
X006065Y005533D02*
X005771Y005533D01*
X005771Y005475D02*
X006065Y005475D01*
X006065Y005418D02*
X005771Y005418D01*
X005771Y005360D02*
X006065Y005360D01*
X006065Y005302D02*
X005771Y005302D01*
X005771Y005245D02*
X006065Y005245D01*
X006065Y005187D02*
X005771Y005187D01*
X005771Y005130D02*
X006065Y005130D01*
X006065Y005072D02*
X005771Y005072D01*
X005771Y005015D02*
X006065Y005015D01*
X006065Y004957D02*
X005771Y004957D01*
X005771Y004900D02*
X006065Y004900D01*
X006065Y004842D02*
X005771Y004842D01*
X005771Y004784D02*
X006065Y004784D01*
X006065Y004727D02*
X005771Y004727D01*
X005771Y004669D02*
X006065Y004669D01*
X006065Y004612D02*
X005771Y004612D01*
X005771Y004554D02*
X006065Y004554D01*
X006065Y004497D02*
X005771Y004497D01*
X005771Y004439D02*
X006065Y004439D01*
X006065Y004382D02*
X005771Y004382D01*
X005771Y004324D02*
X006065Y004324D01*
X006065Y004266D02*
X005722Y004266D01*
X005665Y004209D02*
X006065Y004209D01*
X006065Y004151D02*
X005097Y004151D01*
X005230Y003461D02*
X003708Y003461D01*
X003622Y003518D02*
X005504Y003518D01*
X005485Y003461D02*
X005561Y003461D01*
X005542Y003403D02*
X005592Y003403D01*
X005592Y003346D02*
X005554Y003346D01*
X005554Y003288D02*
X005592Y003288D01*
X005592Y003230D02*
X005554Y003230D01*
X005592Y003173D02*
X005499Y003173D01*
X005441Y003115D02*
X005592Y003115D01*
X005592Y003058D02*
X003315Y003058D01*
X003252Y003115D02*
X005273Y003115D01*
X005314Y002943D02*
X005592Y002943D01*
X005592Y003000D02*
X003415Y003000D01*
X003514Y002943D02*
X005046Y002943D01*
X005045Y002655D02*
X003488Y002655D01*
X003458Y002655D02*
X002844Y002655D01*
X002787Y002712D02*
X003358Y002712D01*
X003259Y002770D02*
X002729Y002770D01*
X002770Y002828D02*
X003159Y002828D01*
X003046Y002885D02*
X002828Y002885D01*
X002885Y002943D02*
X002989Y002943D01*
X002973Y003000D02*
X002943Y003000D01*
X002902Y002597D02*
X005592Y002597D01*
X005584Y002540D02*
X002960Y002540D01*
X003005Y002482D02*
X005517Y002482D01*
X005355Y002425D02*
X003005Y002425D01*
X003005Y002367D02*
X005297Y002367D01*
X005259Y002310D02*
X003005Y002310D01*
X003005Y002252D02*
X004887Y002252D01*
X004921Y002286D02*
X004806Y002171D01*
X004806Y002008D01*
X004921Y001893D01*
X005084Y001893D01*
X005200Y002008D01*
X005200Y002171D01*
X005084Y002286D01*
X004921Y002286D01*
X004829Y002194D02*
X003005Y002194D01*
X003005Y002137D02*
X004806Y002137D01*
X004806Y002079D02*
X003005Y002079D01*
X002964Y002022D02*
X003102Y002022D01*
X003110Y002030D02*
X002995Y001915D01*
X002995Y001752D01*
X003110Y001637D01*
X003273Y001637D01*
X003389Y001752D01*
X003389Y001915D01*
X003273Y002030D01*
X003110Y002030D01*
X003044Y001964D02*
X002907Y001964D01*
X002849Y001907D02*
X002995Y001907D01*
X002995Y001849D02*
X002792Y001849D01*
X002734Y001792D02*
X002995Y001792D01*
X003013Y001734D02*
X002765Y001734D01*
X002823Y001676D02*
X003071Y001676D01*
X002938Y001561D02*
X006065Y001561D01*
X006065Y001504D02*
X002996Y001504D01*
X003005Y001446D02*
X006065Y001446D01*
X006065Y001389D02*
X003005Y001389D01*
X003005Y001331D02*
X006065Y001331D01*
X006065Y001274D02*
X003005Y001274D01*
X003005Y001216D02*
X006065Y001216D01*
X006065Y001158D02*
X003005Y001158D01*
X003005Y001101D02*
X006065Y001101D01*
X006065Y001043D02*
X002986Y001043D01*
X002928Y000986D02*
X006065Y000986D01*
X006065Y000928D02*
X002871Y000928D01*
X002813Y000871D02*
X006065Y000871D01*
X006050Y000813D02*
X002756Y000813D01*
X002880Y001619D02*
X006065Y001619D01*
X006065Y001676D02*
X003313Y001676D01*
X003371Y001734D02*
X006065Y001734D01*
X006065Y001792D02*
X003389Y001792D01*
X003389Y001849D02*
X006065Y001849D01*
X006065Y001907D02*
X005098Y001907D01*
X005156Y001964D02*
X006065Y001964D01*
X006065Y002022D02*
X005200Y002022D01*
X005200Y002079D02*
X005345Y002079D01*
X005287Y002137D02*
X005200Y002137D01*
X005176Y002194D02*
X005259Y002194D01*
X005259Y002252D02*
X005119Y002252D01*
X004806Y002022D02*
X003282Y002022D01*
X003340Y001964D02*
X004850Y001964D01*
X004907Y001907D02*
X003389Y001907D01*
X003252Y003173D02*
X003625Y003173D01*
X003553Y003230D02*
X003252Y003230D01*
X003252Y003288D02*
X003467Y003288D01*
X003380Y003346D02*
X003252Y003346D01*
X003252Y003403D02*
X003294Y003403D01*
X003468Y003633D02*
X003608Y003633D01*
X003535Y003576D02*
X003694Y003576D01*
X003522Y003691D02*
X003468Y003691D01*
X002245Y003778D02*
X001984Y003517D01*
X001632Y003517D01*
X001601Y003549D01*
X001483Y003597D01*
X000877Y003597D01*
X000759Y003549D01*
X000670Y003459D01*
X000653Y003419D01*
X000653Y004137D01*
X000670Y004098D01*
X000759Y004008D01*
X000877Y003960D01*
X001483Y003960D01*
X001601Y004008D01*
X001632Y004040D01*
X001984Y004040D01*
X002245Y003778D01*
X002218Y003806D02*
X000653Y003806D01*
X000653Y003864D02*
X002160Y003864D01*
X002103Y003921D02*
X000653Y003921D01*
X000653Y003979D02*
X000831Y003979D01*
X000731Y004036D02*
X000653Y004036D01*
X000653Y004094D02*
X000674Y004094D01*
X000653Y003748D02*
X002215Y003748D01*
X002158Y003691D02*
X000653Y003691D01*
X000653Y003633D02*
X002100Y003633D01*
X002043Y003576D02*
X001535Y003576D01*
X001631Y003518D02*
X001985Y003518D01*
X002045Y003979D02*
X001529Y003979D01*
X001629Y004036D02*
X001988Y004036D01*
X001984Y004517D02*
X001632Y004517D01*
X001601Y004549D01*
X001483Y004597D01*
X000877Y004597D01*
X000759Y004549D01*
X000670Y004459D01*
X000653Y004419D01*
X000653Y005137D01*
X000670Y005098D01*
X000759Y005008D01*
X000877Y004960D01*
X001483Y004960D01*
X001601Y005008D01*
X001632Y005040D01*
X001984Y005040D01*
X002245Y004778D01*
X001984Y004517D01*
X002021Y004554D02*
X001587Y004554D01*
X001607Y005015D02*
X002009Y005015D01*
X002067Y004957D02*
X000653Y004957D01*
X000653Y004900D02*
X002124Y004900D01*
X002182Y004842D02*
X000653Y004842D01*
X000653Y004784D02*
X002239Y004784D01*
X002194Y004727D02*
X000653Y004727D01*
X000653Y004669D02*
X002136Y004669D01*
X002079Y004612D02*
X000653Y004612D01*
X000653Y004554D02*
X000773Y004554D01*
X000707Y004497D02*
X000653Y004497D01*
X000653Y004439D02*
X000662Y004439D01*
X000653Y005015D02*
X000753Y005015D01*
X000695Y005072D02*
X000653Y005072D01*
X000653Y005130D02*
X000657Y005130D01*
X000653Y005419D02*
X000653Y006137D01*
X000670Y006098D01*
X000759Y006008D01*
X000877Y005960D01*
X001483Y005960D01*
X001601Y006008D01*
X001632Y006040D01*
X001984Y006040D01*
X002245Y005778D01*
X001984Y005517D01*
X001632Y005517D01*
X001601Y005549D01*
X001483Y005597D01*
X000877Y005597D01*
X000759Y005549D01*
X000670Y005459D01*
X000653Y005419D01*
X000653Y005475D02*
X000686Y005475D01*
X000653Y005533D02*
X000743Y005533D01*
X000653Y005590D02*
X000860Y005590D01*
X000653Y005648D02*
X002115Y005648D01*
X002172Y005705D02*
X000653Y005705D01*
X000653Y005763D02*
X002230Y005763D01*
X002203Y005820D02*
X000653Y005820D01*
X000653Y005878D02*
X002146Y005878D01*
X002088Y005936D02*
X000653Y005936D01*
X000653Y005993D02*
X000796Y005993D01*
X000717Y006051D02*
X000653Y006051D01*
X000653Y006108D02*
X000666Y006108D01*
X000653Y006419D02*
X000653Y007137D01*
X000670Y007098D01*
X000759Y007008D01*
X000877Y006960D01*
X001483Y006960D01*
X001601Y007008D01*
X001632Y007040D01*
X001984Y007040D01*
X002245Y006778D01*
X001984Y006517D01*
X001632Y006517D01*
X001601Y006549D01*
X001483Y006597D01*
X000877Y006597D01*
X000759Y006549D01*
X000670Y006459D01*
X000653Y006419D01*
X000653Y006454D02*
X000668Y006454D01*
X000653Y006511D02*
X000722Y006511D01*
X000653Y006569D02*
X000808Y006569D01*
X000653Y006626D02*
X002093Y006626D01*
X002036Y006569D02*
X001552Y006569D01*
X001512Y006972D02*
X002052Y006972D01*
X001995Y007029D02*
X001621Y007029D01*
X001632Y007517D02*
X001601Y007549D01*
X001483Y007597D01*
X000877Y007597D01*
X000759Y007549D01*
X000670Y007459D01*
X000653Y007419D01*
X000653Y008137D01*
X000670Y008098D01*
X000759Y008008D01*
X000877Y007960D01*
X001483Y007960D01*
X001601Y008008D01*
X001632Y008040D01*
X001984Y008040D01*
X002245Y007778D01*
X001984Y007517D01*
X001632Y007517D01*
X001602Y007547D02*
X002014Y007547D01*
X002072Y007605D02*
X000653Y007605D01*
X000653Y007662D02*
X002129Y007662D01*
X002187Y007720D02*
X000653Y007720D01*
X000653Y007777D02*
X002244Y007777D01*
X002189Y007835D02*
X000653Y007835D01*
X000653Y007892D02*
X002131Y007892D01*
X002074Y007950D02*
X000653Y007950D01*
X000653Y008008D02*
X000761Y008008D01*
X000703Y008065D02*
X000653Y008065D01*
X000653Y008123D02*
X000660Y008123D01*
X000653Y007547D02*
X000758Y007547D01*
X000700Y007490D02*
X000653Y007490D01*
X000653Y007432D02*
X000659Y007432D01*
X000653Y007087D02*
X000681Y007087D01*
X000653Y007029D02*
X000739Y007029D01*
X000653Y006972D02*
X000848Y006972D01*
X000653Y006914D02*
X002110Y006914D01*
X002167Y006856D02*
X000653Y006856D01*
X000653Y006799D02*
X002225Y006799D01*
X002208Y006741D02*
X000653Y006741D01*
X000653Y006684D02*
X002151Y006684D01*
X002031Y005993D02*
X001564Y005993D01*
X001500Y005590D02*
X002057Y005590D01*
X002000Y005533D02*
X001617Y005533D01*
X000825Y003576D02*
X000653Y003576D01*
X000653Y003518D02*
X000729Y003518D01*
X000671Y003461D02*
X000653Y003461D01*
X001599Y008008D02*
X002016Y008008D01*
X001984Y009517D02*
X001632Y009517D01*
X001601Y009549D01*
X001483Y009597D01*
X000877Y009597D01*
X000759Y009549D01*
X000670Y009459D01*
X000653Y009419D01*
X000653Y010137D01*
X000654Y010137D01*
X000653Y010137D02*
X000670Y010098D01*
X000759Y010008D01*
X000877Y009960D01*
X001483Y009960D01*
X001601Y010008D01*
X001632Y010040D01*
X001984Y010040D01*
X002245Y009778D01*
X001984Y009517D01*
X002029Y009562D02*
X001569Y009562D01*
X001495Y009964D02*
X002059Y009964D01*
X002002Y010022D02*
X001614Y010022D01*
X001632Y010517D02*
X001601Y010549D01*
X001483Y010597D01*
X000877Y010597D01*
X000759Y010549D01*
X000670Y010459D01*
X000653Y010419D01*
X000653Y011137D01*
X000670Y011098D01*
X000759Y011008D01*
X000877Y010960D01*
X001483Y010960D01*
X001601Y011008D01*
X001632Y011040D01*
X001984Y011040D01*
X002245Y010778D01*
X001984Y010517D01*
X001632Y010517D01*
X001609Y010540D02*
X002007Y010540D01*
X002065Y010598D02*
X000653Y010598D01*
X000653Y010655D02*
X002122Y010655D01*
X002180Y010713D02*
X000653Y010713D01*
X000653Y010770D02*
X002237Y010770D01*
X002196Y010828D02*
X000653Y010828D01*
X000653Y010885D02*
X002139Y010885D01*
X002081Y010943D02*
X000653Y010943D01*
X000653Y011000D02*
X000778Y011000D01*
X000710Y011058D02*
X000653Y011058D01*
X000653Y011116D02*
X000662Y011116D01*
X000653Y011419D02*
X000653Y012137D01*
X000670Y012098D01*
X000759Y012008D01*
X000877Y011960D01*
X001483Y011960D01*
X001601Y012008D01*
X001632Y012040D01*
X001984Y012040D01*
X002245Y011778D01*
X001984Y011517D01*
X001632Y011517D01*
X001601Y011549D01*
X001483Y011597D01*
X000877Y011597D01*
X000759Y011549D01*
X000670Y011459D01*
X000653Y011419D01*
X000653Y011461D02*
X000672Y011461D01*
X000653Y011518D02*
X000729Y011518D01*
X000653Y011576D02*
X000825Y011576D01*
X000653Y011634D02*
X002101Y011634D01*
X002158Y011691D02*
X000653Y011691D01*
X000653Y011749D02*
X002216Y011749D01*
X002218Y011806D02*
X000653Y011806D01*
X000653Y011864D02*
X002160Y011864D01*
X002103Y011921D02*
X000653Y011921D01*
X000653Y011979D02*
X000830Y011979D01*
X000731Y012036D02*
X000653Y012036D01*
X000653Y012094D02*
X000674Y012094D01*
X001530Y011979D02*
X002045Y011979D01*
X001987Y012036D02*
X001629Y012036D01*
X001535Y011576D02*
X002043Y011576D01*
X001985Y011518D02*
X001631Y011518D01*
X001582Y011000D02*
X002023Y011000D01*
X002117Y009907D02*
X000653Y009907D01*
X000653Y009964D02*
X000865Y009964D01*
X000746Y010022D02*
X000653Y010022D01*
X000653Y010080D02*
X000688Y010080D01*
X000653Y009849D02*
X002175Y009849D01*
X002232Y009792D02*
X000653Y009792D01*
X000653Y009734D02*
X002201Y009734D01*
X002144Y009677D02*
X000653Y009677D01*
X000653Y009619D02*
X002086Y009619D01*
X003226Y011346D02*
X004610Y011346D01*
X004589Y011403D02*
X003171Y011403D01*
X003277Y011288D02*
X004668Y011288D01*
X004589Y011461D02*
X003005Y011461D01*
X002981Y011518D02*
X004595Y011518D01*
X004628Y011576D02*
X002923Y011576D01*
X002866Y011634D02*
X004628Y011634D01*
X004628Y011691D02*
X003347Y011691D01*
X003405Y011749D02*
X004628Y011749D01*
X004661Y011806D02*
X003428Y011806D01*
X003428Y011864D02*
X004719Y011864D01*
X004776Y011921D02*
X003428Y011921D01*
X003384Y011979D02*
X004601Y011979D01*
X004560Y012036D02*
X003370Y012036D01*
X003370Y012094D02*
X004560Y012094D01*
X004560Y012152D02*
X003370Y012152D01*
X003370Y012209D02*
X004610Y012209D01*
X004844Y012209D02*
X004875Y012209D01*
X004884Y012267D02*
X003370Y012267D01*
X003370Y012324D02*
X004903Y012324D01*
X004903Y012382D02*
X003370Y012382D01*
X003370Y012439D02*
X004903Y012439D01*
X004903Y012497D02*
X003370Y012497D01*
X003370Y012554D02*
X003725Y012554D01*
X003668Y012612D02*
X003370Y012612D01*
X003370Y012670D02*
X003635Y012670D01*
X003635Y012727D02*
X003370Y012727D01*
X003370Y012785D02*
X003636Y012785D01*
X003663Y012842D02*
X003370Y012842D01*
X003370Y012900D02*
X003663Y012900D01*
X003663Y012957D02*
X003370Y012957D01*
X003370Y013015D02*
X003663Y013015D01*
X003663Y013072D02*
X003370Y013072D01*
X003370Y013130D02*
X003663Y013130D01*
X003700Y013188D02*
X003370Y013188D01*
X003370Y013245D02*
X003758Y013245D01*
X003815Y013303D02*
X003370Y013303D01*
X003370Y013360D02*
X005261Y013360D01*
X005309Y013418D02*
X003370Y013418D01*
X003370Y013475D02*
X005357Y013475D01*
X005376Y013533D02*
X003370Y013533D01*
X003370Y013590D02*
X005376Y013590D01*
X005376Y013648D02*
X003370Y013648D01*
X003370Y013706D02*
X005376Y013706D01*
X005376Y013763D02*
X003370Y013763D01*
X003370Y013821D02*
X005376Y013821D01*
X005376Y013878D02*
X003370Y013878D01*
X003370Y013936D02*
X005376Y013936D01*
X005376Y013993D02*
X003370Y013993D01*
X003370Y014051D02*
X005376Y014051D01*
X005376Y014108D02*
X003370Y014108D01*
X003370Y014166D02*
X005376Y014166D01*
X005376Y014224D02*
X003370Y014224D01*
X003370Y014281D02*
X005376Y014281D01*
X005376Y014339D02*
X003370Y014339D01*
X003370Y014396D02*
X005376Y014396D01*
X005376Y014454D02*
X003370Y014454D01*
X003370Y014511D02*
X005376Y014511D01*
X005376Y014569D02*
X003370Y014569D01*
X003370Y014626D02*
X005376Y014626D01*
X005376Y014684D02*
X003370Y014684D01*
X003370Y014742D02*
X005376Y014742D01*
X005376Y014799D02*
X003370Y014799D01*
X003370Y014857D02*
X005376Y014857D01*
X005376Y014914D02*
X003370Y014914D01*
X003370Y014972D02*
X005376Y014972D01*
X005376Y015029D02*
X003370Y015029D01*
X003370Y015087D02*
X005376Y015087D01*
X005376Y015144D02*
X003370Y015144D01*
X003370Y015202D02*
X005376Y015202D01*
X005376Y015260D02*
X003370Y015260D01*
X003370Y015317D02*
X005376Y015317D01*
X005376Y015375D02*
X003370Y015375D01*
X003370Y015432D02*
X005376Y015432D01*
X005376Y015490D02*
X003370Y015490D01*
X003370Y015547D02*
X005376Y015547D01*
X005376Y015605D02*
X003370Y015605D01*
X003370Y015662D02*
X005376Y015662D01*
X005376Y015720D02*
X003370Y015720D01*
X003370Y015778D02*
X005376Y015778D01*
X005376Y015835D02*
X003370Y015835D01*
X003370Y015893D02*
X005376Y015893D01*
X005376Y015950D02*
X003370Y015950D01*
X003370Y016008D02*
X005376Y016008D01*
X005376Y016065D02*
X003370Y016065D01*
X003370Y016123D02*
X005376Y016123D01*
X005376Y016180D02*
X003370Y016180D01*
X003370Y016238D02*
X005376Y016238D01*
X005376Y016296D02*
X003370Y016296D01*
X003370Y016353D02*
X005376Y016353D01*
X005376Y016411D02*
X003370Y016411D01*
X003370Y016468D02*
X005376Y016468D01*
X005376Y016526D02*
X003370Y016526D01*
X003370Y016583D02*
X005376Y016583D01*
X005376Y016641D02*
X003370Y016641D01*
X003370Y016698D02*
X005376Y016698D01*
X005376Y016756D02*
X003370Y016756D01*
X003370Y016814D02*
X005376Y016814D01*
X005376Y016871D02*
X003370Y016871D01*
X003370Y016929D02*
X005376Y016929D01*
X005376Y016986D02*
X003370Y016986D01*
X003370Y017044D02*
X005376Y017044D01*
X005376Y017101D02*
X003370Y017101D01*
X003370Y017159D02*
X005375Y017159D01*
X005376Y017216D02*
X003370Y017216D01*
X003370Y017274D02*
X005424Y017274D01*
X005492Y017331D02*
X003370Y017331D01*
X003370Y017389D02*
X005559Y017389D01*
X005653Y016871D02*
X007718Y016871D01*
X007718Y016814D02*
X005653Y016814D01*
X005653Y016756D02*
X007718Y016756D01*
X007718Y016698D02*
X005653Y016698D01*
X005653Y016641D02*
X006868Y016641D01*
X006904Y016648D02*
X006832Y016634D01*
X006765Y016606D01*
X006704Y016565D01*
X006653Y016514D01*
X006613Y016453D01*
X006585Y016386D01*
X006570Y016315D01*
X006570Y016308D01*
X007150Y016308D01*
X007150Y016648D01*
X006904Y016648D01*
X007150Y016641D02*
X007210Y016641D01*
X007210Y016583D02*
X007150Y016583D01*
X007150Y016526D02*
X007210Y016526D01*
X007210Y016468D02*
X007150Y016468D01*
X007150Y016411D02*
X007210Y016411D01*
X007210Y016353D02*
X007150Y016353D01*
X007150Y016296D02*
X005653Y016296D01*
X005653Y016353D02*
X006578Y016353D01*
X006595Y016411D02*
X005653Y016411D01*
X005653Y016468D02*
X006622Y016468D01*
X006665Y016526D02*
X005653Y016526D01*
X005653Y016583D02*
X006731Y016583D01*
X006571Y016238D02*
X005653Y016238D01*
X005653Y016180D02*
X006583Y016180D01*
X006604Y016123D02*
X005653Y016123D01*
X005653Y016065D02*
X006638Y016065D01*
X006688Y016008D02*
X005653Y016008D01*
X005653Y015950D02*
X006767Y015950D01*
X006832Y015634D02*
X006765Y015606D01*
X006704Y015565D01*
X006653Y015514D01*
X006613Y015453D01*
X006585Y015386D01*
X006570Y015315D01*
X006570Y015308D01*
X007150Y015308D01*
X007150Y015648D01*
X006904Y015648D01*
X006832Y015634D01*
X006763Y015605D02*
X005653Y015605D01*
X005653Y015662D02*
X007718Y015662D01*
X007718Y015605D02*
X007597Y015605D01*
X007674Y015547D02*
X007718Y015547D01*
X007718Y015720D02*
X005653Y015720D01*
X005653Y015778D02*
X007718Y015778D01*
X007718Y015835D02*
X005653Y015835D01*
X005653Y015893D02*
X007718Y015893D01*
X007718Y015950D02*
X007593Y015950D01*
X007672Y016008D02*
X007718Y016008D01*
X007695Y016526D02*
X007718Y016526D01*
X007718Y016583D02*
X007629Y016583D01*
X007718Y016641D02*
X007492Y016641D01*
X007210Y016238D02*
X007150Y016238D01*
X007150Y016180D02*
X007210Y016180D01*
X007210Y016123D02*
X007150Y016123D01*
X007150Y016065D02*
X007210Y016065D01*
X007210Y016008D02*
X007150Y016008D01*
X007150Y015950D02*
X007210Y015950D01*
X007210Y015605D02*
X007150Y015605D01*
X007150Y015547D02*
X007210Y015547D01*
X007210Y015490D02*
X007150Y015490D01*
X007150Y015432D02*
X007210Y015432D01*
X007210Y015375D02*
X007150Y015375D01*
X007150Y015317D02*
X007210Y015317D01*
X007150Y015260D02*
X005653Y015260D01*
X005653Y015317D02*
X006571Y015317D01*
X006582Y015375D02*
X005653Y015375D01*
X005653Y015432D02*
X006604Y015432D01*
X006637Y015490D02*
X005653Y015490D01*
X005653Y015547D02*
X006686Y015547D01*
X006578Y015202D02*
X005653Y015202D01*
X005653Y015144D02*
X006596Y015144D01*
X006624Y015087D02*
X005653Y015087D01*
X005653Y015029D02*
X006667Y015029D01*
X006734Y014972D02*
X005653Y014972D01*
X005653Y014914D02*
X006877Y014914D01*
X007150Y014914D02*
X007210Y014914D01*
X007210Y014972D02*
X007150Y014972D01*
X007150Y015029D02*
X007210Y015029D01*
X007210Y015087D02*
X007150Y015087D01*
X007150Y015144D02*
X007210Y015144D01*
X007210Y015202D02*
X007150Y015202D01*
X007483Y014914D02*
X007718Y014914D01*
X007718Y014857D02*
X005653Y014857D01*
X005653Y014799D02*
X007718Y014799D01*
X007718Y014742D02*
X005653Y014742D01*
X005653Y014684D02*
X007718Y014684D01*
X007718Y014626D02*
X005653Y014626D01*
X005653Y014569D02*
X006808Y014569D01*
X006722Y014511D02*
X005653Y014511D01*
X005653Y014454D02*
X006668Y014454D01*
X006483Y014396D02*
X005653Y014396D01*
X005653Y014339D02*
X006367Y014339D01*
X006309Y014281D02*
X005653Y014281D01*
X005653Y014224D02*
X006297Y014224D01*
X006301Y014166D02*
X005653Y014166D01*
X005653Y014108D02*
X006301Y014108D01*
X006301Y014051D02*
X005653Y014051D01*
X005653Y013993D02*
X006301Y013993D01*
X006301Y013936D02*
X005653Y013936D01*
X005653Y013878D02*
X006301Y013878D01*
X006301Y013821D02*
X005653Y013821D01*
X005653Y013763D02*
X006301Y013763D01*
X006301Y013706D02*
X005653Y013706D01*
X005653Y013648D02*
X006301Y013648D01*
X006130Y013590D02*
X005653Y013590D01*
X005653Y013533D02*
X006073Y013533D01*
X006015Y013475D02*
X005653Y013475D01*
X005657Y013418D02*
X005966Y013418D01*
X005966Y013360D02*
X005623Y013360D01*
X005574Y013303D02*
X005966Y013303D01*
X005966Y013245D02*
X005526Y013245D01*
X005478Y013188D02*
X005966Y013188D01*
X005966Y013130D02*
X005432Y013130D01*
X005320Y013072D02*
X005966Y013072D01*
X005966Y013015D02*
X003941Y013015D01*
X003941Y012957D02*
X005911Y012957D01*
X005853Y012900D02*
X003941Y012900D01*
X003941Y012842D02*
X005796Y012842D01*
X005738Y012785D02*
X003969Y012785D01*
X003969Y012727D02*
X004972Y012727D01*
X004914Y012670D02*
X003969Y012670D01*
X003936Y012612D02*
X004903Y012612D01*
X004903Y012554D02*
X003879Y012554D01*
X003977Y013072D02*
X005268Y013072D01*
X005001Y011403D02*
X004944Y011403D01*
X004939Y011346D02*
X004923Y011346D01*
X004877Y011288D02*
X004866Y011288D01*
X004380Y011173D02*
X004378Y011183D01*
X004349Y011203D01*
X004324Y011228D01*
X004313Y011228D01*
X004150Y010540D02*
X004089Y010540D01*
X004205Y010195D02*
X003753Y010195D01*
X003753Y010137D02*
X004147Y010137D01*
X004107Y010080D02*
X003753Y010080D01*
X003753Y010022D02*
X004107Y010022D01*
X004107Y009964D02*
X003753Y009964D01*
X003753Y009907D02*
X004158Y009907D01*
X004180Y009849D02*
X004069Y009849D01*
X003870Y009849D02*
X003753Y009849D01*
X003753Y009792D02*
X003812Y009792D01*
X003802Y009734D02*
X003753Y009734D01*
X003753Y009677D02*
X003802Y009677D01*
X003826Y009619D02*
X003753Y009619D01*
X003753Y009562D02*
X003884Y009562D01*
X003834Y009504D02*
X003753Y009504D01*
X003753Y009446D02*
X003792Y009446D01*
X003693Y008836D02*
X003649Y008792D01*
X003502Y008792D01*
X003468Y008826D01*
X003468Y007818D01*
X003489Y007838D01*
X003567Y007917D01*
X003724Y007917D01*
X003752Y007946D01*
X003891Y007946D01*
X003930Y007907D01*
X003930Y008527D01*
X003857Y008614D01*
X003723Y008767D01*
X003694Y008797D01*
X003694Y008801D01*
X003691Y008804D01*
X003693Y008836D01*
X003692Y008813D02*
X003670Y008813D01*
X003733Y008756D02*
X003468Y008756D01*
X003468Y008813D02*
X003481Y008813D01*
X003468Y008698D02*
X003784Y008698D01*
X003834Y008641D02*
X003468Y008641D01*
X003468Y008583D02*
X003883Y008583D01*
X003930Y008526D02*
X003468Y008526D01*
X003468Y008468D02*
X003930Y008468D01*
X003930Y008410D02*
X003468Y008410D01*
X003468Y008353D02*
X003930Y008353D01*
X003930Y008295D02*
X003468Y008295D01*
X003468Y008238D02*
X003930Y008238D01*
X003930Y008180D02*
X003468Y008180D01*
X003468Y008123D02*
X003930Y008123D01*
X003930Y008065D02*
X003468Y008065D01*
X003468Y008008D02*
X003930Y008008D01*
X003930Y007950D02*
X003468Y007950D01*
X003468Y007892D02*
X003543Y007892D01*
X003485Y007835D02*
X003468Y007835D01*
X003685Y006856D02*
X003685Y006856D01*
X003685Y006799D02*
X004608Y006799D01*
X004608Y006856D02*
X004332Y006856D01*
X004390Y006914D02*
X004608Y006914D01*
X004608Y006972D02*
X004412Y006972D01*
X004412Y007029D02*
X004608Y007029D01*
X004608Y007087D02*
X004401Y007087D01*
X004343Y007144D02*
X004608Y007144D01*
X004608Y006741D02*
X003685Y006741D01*
X003685Y006684D02*
X004608Y006684D01*
X004608Y006626D02*
X003685Y006626D01*
X003685Y006569D02*
X004608Y006569D01*
X004637Y006511D02*
X003685Y006511D01*
X003685Y006454D02*
X004695Y006454D01*
X004752Y006396D02*
X003685Y006396D01*
X003685Y006338D02*
X004810Y006338D01*
X004914Y006626D02*
X008093Y006626D01*
X008151Y006684D02*
X004886Y006684D01*
X004886Y006741D02*
X008208Y006741D01*
X008741Y006799D02*
X009284Y006799D01*
X009284Y006856D02*
X008799Y006856D01*
X008856Y006914D02*
X009284Y006914D01*
X009284Y006972D02*
X008914Y006972D01*
X008972Y007029D02*
X009284Y007029D01*
X009284Y007087D02*
X009005Y007087D01*
X009005Y007144D02*
X009284Y007144D01*
X009284Y007202D02*
X009005Y007202D01*
X009005Y007259D02*
X009284Y007259D01*
X009284Y007317D02*
X009005Y007317D01*
X009005Y007374D02*
X009284Y007374D01*
X009284Y007432D02*
X009005Y007432D01*
X009005Y007490D02*
X009284Y007490D01*
X009284Y007547D02*
X008952Y007547D01*
X008895Y007605D02*
X009284Y007605D01*
X009284Y007662D02*
X008837Y007662D01*
X008780Y007720D02*
X009284Y007720D01*
X009284Y007777D02*
X008722Y007777D01*
X008777Y007835D02*
X009284Y007835D01*
X009284Y007892D02*
X008835Y007892D01*
X008892Y007950D02*
X009284Y007950D01*
X009284Y008008D02*
X008950Y008008D01*
X009005Y008065D02*
X009284Y008065D01*
X009284Y008123D02*
X009005Y008123D01*
X009005Y008180D02*
X009284Y008180D01*
X009284Y008238D02*
X009005Y008238D01*
X009005Y008295D02*
X009284Y008295D01*
X009284Y008353D02*
X009005Y008353D01*
X009005Y008410D02*
X009284Y008410D01*
X009284Y008468D02*
X009005Y008468D01*
X008974Y008526D02*
X009284Y008526D01*
X009284Y008583D02*
X008916Y008583D01*
X008859Y008641D02*
X009284Y008641D01*
X009284Y008698D02*
X008801Y008698D01*
X008744Y008756D02*
X009284Y008756D01*
X009284Y008813D02*
X008756Y008813D01*
X008813Y008871D02*
X009284Y008871D01*
X009284Y008928D02*
X008871Y008928D01*
X008928Y008986D02*
X009284Y008986D01*
X009284Y009044D02*
X008986Y009044D01*
X009005Y009101D02*
X009284Y009101D01*
X009284Y009159D02*
X009005Y009159D01*
X009005Y009216D02*
X009284Y009216D01*
X009284Y009274D02*
X009005Y009274D01*
X009005Y009331D02*
X009284Y009331D01*
X009284Y009389D02*
X009005Y009389D01*
X009005Y009446D02*
X009284Y009446D01*
X009284Y009504D02*
X008995Y009504D01*
X008938Y009562D02*
X009284Y009562D01*
X009284Y009619D02*
X008880Y009619D01*
X008823Y009677D02*
X009284Y009677D01*
X009284Y009734D02*
X008765Y009734D01*
X008734Y009792D02*
X009284Y009792D01*
X009284Y009849D02*
X008792Y009849D01*
X008849Y009907D02*
X009284Y009907D01*
X009284Y009964D02*
X008907Y009964D01*
X008964Y010022D02*
X009284Y010022D01*
X009284Y010080D02*
X009005Y010080D01*
X009005Y010137D02*
X009284Y010137D01*
X009297Y010195D02*
X009005Y010195D01*
X009005Y010252D02*
X009354Y010252D01*
X009005Y010310D02*
X012434Y010310D01*
X012434Y010367D02*
X009005Y010367D01*
X009005Y010425D02*
X012434Y010425D01*
X012434Y010482D02*
X009005Y010482D01*
X008959Y010540D02*
X012434Y010540D01*
X012434Y010598D02*
X008902Y010598D01*
X008844Y010655D02*
X012434Y010655D01*
X012434Y010713D02*
X008787Y010713D01*
X008729Y010770D02*
X012434Y010770D01*
X012434Y010828D02*
X008770Y010828D01*
X008828Y010885D02*
X012434Y010885D01*
X012434Y010943D02*
X008885Y010943D01*
X008943Y011000D02*
X012434Y011000D01*
X012434Y011058D02*
X009000Y011058D01*
X009005Y011116D02*
X012434Y011116D01*
X012434Y011173D02*
X009005Y011173D01*
X009005Y011231D02*
X012434Y011231D01*
X012434Y011288D02*
X009005Y011288D01*
X009005Y011346D02*
X012434Y011346D01*
X012434Y011403D02*
X009005Y011403D01*
X009005Y011461D02*
X012434Y011461D01*
X012434Y011518D02*
X008981Y011518D01*
X008923Y011576D02*
X012434Y011576D01*
X012434Y011634D02*
X008866Y011634D01*
X008808Y011691D02*
X012434Y011691D01*
X012434Y011749D02*
X008751Y011749D01*
X008749Y011806D02*
X011605Y011806D01*
X011626Y011784D02*
X011765Y011784D01*
X011863Y011882D01*
X011863Y012021D01*
X011765Y012119D01*
X011626Y012119D01*
X011528Y012021D01*
X011528Y011882D01*
X011626Y011784D01*
X011547Y011864D02*
X008806Y011864D01*
X008864Y011921D02*
X011528Y011921D01*
X011528Y011979D02*
X008921Y011979D01*
X008979Y012036D02*
X011544Y012036D01*
X011601Y012094D02*
X009005Y012094D01*
X009005Y012152D02*
X012434Y012152D01*
X012434Y012209D02*
X009005Y012209D01*
X009005Y012267D02*
X012434Y012267D01*
X012434Y012324D02*
X011813Y012324D01*
X011765Y012276D02*
X011863Y012374D01*
X011863Y012513D01*
X011765Y012611D01*
X011626Y012611D01*
X011528Y012513D01*
X011528Y012374D01*
X011626Y012276D01*
X011765Y012276D01*
X011863Y012382D02*
X012434Y012382D01*
X012434Y012439D02*
X011863Y012439D01*
X011863Y012497D02*
X012434Y012497D01*
X012434Y012554D02*
X011822Y012554D01*
X011765Y012769D02*
X011863Y012867D01*
X011863Y013005D01*
X011765Y013103D01*
X011626Y013103D01*
X011528Y013005D01*
X011528Y012867D01*
X011626Y012769D01*
X011765Y012769D01*
X011781Y012785D02*
X012434Y012785D01*
X012434Y012842D02*
X011839Y012842D01*
X011863Y012900D02*
X012434Y012900D01*
X012434Y012957D02*
X011863Y012957D01*
X011853Y013015D02*
X012434Y013015D01*
X012434Y013072D02*
X011796Y013072D01*
X011765Y013261D02*
X011863Y013359D01*
X011863Y013497D01*
X011765Y013595D01*
X011626Y013595D01*
X011528Y013497D01*
X011528Y013359D01*
X011626Y013261D01*
X011765Y013261D01*
X011807Y013303D02*
X012434Y013303D01*
X012434Y013360D02*
X011863Y013360D01*
X011863Y013418D02*
X012434Y013418D01*
X012434Y013475D02*
X011863Y013475D01*
X011828Y013533D02*
X012434Y013533D01*
X012434Y013590D02*
X011770Y013590D01*
X011621Y013590D02*
X008909Y013590D01*
X008966Y013533D02*
X011564Y013533D01*
X011528Y013475D02*
X009005Y013475D01*
X009005Y013418D02*
X011528Y013418D01*
X011528Y013360D02*
X009005Y013360D01*
X009005Y013303D02*
X011585Y013303D01*
X011596Y013072D02*
X009005Y013072D01*
X009005Y013130D02*
X012434Y013130D01*
X012434Y013188D02*
X009005Y013188D01*
X009005Y013245D02*
X012434Y013245D01*
X012434Y013648D02*
X008851Y013648D01*
X008794Y013706D02*
X012434Y013706D01*
X012434Y013763D02*
X008736Y013763D01*
X008763Y013821D02*
X012434Y013821D01*
X012434Y013878D02*
X008821Y013878D01*
X008878Y013936D02*
X012434Y013936D01*
X012434Y013993D02*
X008936Y013993D01*
X008993Y014051D02*
X012434Y014051D01*
X012434Y014108D02*
X009005Y014108D01*
X009005Y014166D02*
X012434Y014166D01*
X012434Y014224D02*
X009005Y014224D01*
X009005Y014281D02*
X012434Y014281D01*
X012434Y014339D02*
X009005Y014339D01*
X009005Y014396D02*
X012434Y014396D01*
X012434Y014454D02*
X009005Y014454D01*
X008988Y014511D02*
X012434Y014511D01*
X012434Y014569D02*
X008930Y014569D01*
X008873Y014626D02*
X012434Y014626D01*
X012434Y014684D02*
X008815Y014684D01*
X008758Y014742D02*
X012434Y014742D01*
X012434Y014799D02*
X008813Y014799D01*
X008871Y014857D02*
X012434Y014857D01*
X012434Y014914D02*
X008928Y014914D01*
X008986Y014972D02*
X012434Y014972D01*
X012434Y015029D02*
X009044Y015029D01*
X009056Y015087D02*
X012434Y015087D01*
X012434Y015144D02*
X009056Y015144D01*
X009056Y015202D02*
X012434Y015202D01*
X012434Y015260D02*
X008513Y015260D01*
X008513Y015308D02*
X008454Y015308D01*
X008454Y015851D01*
X008454Y016249D01*
X008513Y016249D01*
X008513Y015308D01*
X008513Y015317D02*
X008454Y015317D01*
X008454Y015375D02*
X008513Y015375D01*
X008513Y015432D02*
X008454Y015432D01*
X008454Y015490D02*
X008513Y015490D01*
X008513Y015547D02*
X008454Y015547D01*
X008454Y015605D02*
X008513Y015605D01*
X008513Y015662D02*
X008454Y015662D01*
X008454Y015720D02*
X008513Y015720D01*
X008513Y015778D02*
X008454Y015778D01*
X008454Y015835D02*
X008513Y015835D01*
X008513Y015893D02*
X008454Y015893D01*
X008454Y015950D02*
X008513Y015950D01*
X008513Y016008D02*
X008454Y016008D01*
X008454Y016065D02*
X008513Y016065D01*
X008513Y016123D02*
X008454Y016123D01*
X008454Y016180D02*
X008513Y016180D01*
X008513Y016238D02*
X008454Y016238D01*
X008513Y016296D02*
X011558Y016296D01*
X011558Y016353D02*
X009056Y016353D01*
X009056Y016411D02*
X011558Y016411D01*
X011558Y016433D02*
X011604Y016479D01*
X012339Y016479D01*
X012385Y016433D01*
X012385Y015699D01*
X012339Y015652D01*
X011604Y015652D01*
X011558Y015699D01*
X011558Y016433D01*
X011593Y016468D02*
X009056Y016468D01*
X009056Y016238D02*
X011558Y016238D01*
X011558Y016180D02*
X009056Y016180D01*
X009056Y016123D02*
X011558Y016123D01*
X011558Y016065D02*
X009056Y016065D01*
X009022Y016008D02*
X011558Y016008D01*
X011558Y015950D02*
X008964Y015950D01*
X008907Y015893D02*
X011558Y015893D01*
X011558Y015835D02*
X008849Y015835D01*
X008794Y015778D02*
X011558Y015778D01*
X011558Y015720D02*
X008851Y015720D01*
X008909Y015662D02*
X011594Y015662D01*
X012349Y015662D02*
X012434Y015662D01*
X012434Y015605D02*
X008966Y015605D01*
X009024Y015547D02*
X012434Y015547D01*
X012434Y015490D02*
X009056Y015490D01*
X009056Y015432D02*
X012434Y015432D01*
X012434Y015375D02*
X009056Y015375D01*
X009056Y015317D02*
X012434Y015317D01*
X012434Y015720D02*
X012385Y015720D01*
X012385Y015778D02*
X012434Y015778D01*
X012434Y015835D02*
X012385Y015835D01*
X012385Y015893D02*
X012434Y015893D01*
X012434Y015950D02*
X012385Y015950D01*
X012385Y016008D02*
X012434Y016008D01*
X012434Y016065D02*
X012385Y016065D01*
X012385Y016123D02*
X012434Y016123D01*
X012434Y016180D02*
X012385Y016180D01*
X012385Y016238D02*
X012434Y016238D01*
X012434Y016296D02*
X012385Y016296D01*
X012385Y016353D02*
X012434Y016353D01*
X012434Y016411D02*
X012385Y016411D01*
X012350Y016468D02*
X012434Y016468D01*
X012434Y019519D02*
X012346Y019519D01*
X012385Y019576D02*
X012434Y019576D01*
X012434Y019634D02*
X012385Y019634D01*
X012385Y019691D02*
X012434Y019691D01*
X012434Y019749D02*
X012385Y019749D01*
X012385Y019806D02*
X012434Y019806D01*
X012434Y019864D02*
X012385Y019864D01*
X012385Y019921D02*
X012434Y019921D01*
X012434Y019979D02*
X012385Y019979D01*
X012385Y020037D02*
X012434Y020037D01*
X012434Y020094D02*
X012385Y020094D01*
X012385Y020152D02*
X012434Y020152D01*
X012434Y020209D02*
X012385Y020209D01*
X012385Y020267D02*
X012434Y020267D01*
X012434Y020324D02*
X012352Y020324D01*
X012434Y021188D02*
X010755Y021188D01*
X010800Y021233D02*
X010702Y021135D01*
X010563Y021135D01*
X010465Y021233D01*
X010465Y021371D01*
X010563Y021469D01*
X010702Y021469D01*
X010800Y021371D01*
X010800Y021233D01*
X010800Y021245D02*
X012434Y021245D01*
X012434Y021303D02*
X010800Y021303D01*
X010800Y021360D02*
X012434Y021360D01*
X012434Y021418D02*
X010754Y021418D01*
X010512Y021418D02*
X000328Y021418D01*
X000328Y021475D02*
X012434Y021475D01*
X012434Y021533D02*
X000328Y021533D01*
X000328Y021360D02*
X010465Y021360D01*
X010465Y021303D02*
X000328Y021303D01*
X000328Y021245D02*
X010465Y021245D01*
X010510Y021188D02*
X000328Y021188D01*
X000328Y020209D02*
X000577Y020209D01*
X000593Y020152D02*
X000328Y020152D01*
X000328Y020094D02*
X000619Y020094D01*
X000659Y020037D02*
X000328Y020037D01*
X000328Y019979D02*
X000723Y019979D01*
X000840Y019921D02*
X000328Y019921D01*
X000328Y019864D02*
X002088Y019864D01*
X002031Y019921D02*
X001520Y019921D01*
X001528Y019923D02*
X001595Y019951D01*
X001656Y019991D01*
X001707Y020043D01*
X001747Y020103D01*
X001775Y020171D01*
X001790Y020242D01*
X001790Y020249D01*
X001210Y020249D01*
X001210Y019909D01*
X001456Y019909D01*
X001528Y019923D01*
X001637Y019979D02*
X001973Y019979D01*
X001915Y020037D02*
X001701Y020037D01*
X001741Y020094D02*
X001911Y020094D01*
X001911Y020152D02*
X001767Y020152D01*
X001783Y020209D02*
X001911Y020209D01*
X001911Y020324D02*
X001788Y020324D01*
X001776Y020382D02*
X001911Y020382D01*
X001911Y020439D02*
X001753Y020439D01*
X001718Y020497D02*
X001911Y020497D01*
X001950Y020555D02*
X001666Y020555D01*
X001580Y020612D02*
X002007Y020612D01*
X002454Y020612D02*
X002513Y020612D01*
X002513Y020555D02*
X002454Y020555D01*
X002454Y020497D02*
X002513Y020497D01*
X002513Y020439D02*
X002454Y020439D01*
X002454Y020382D02*
X002513Y020382D01*
X002513Y020324D02*
X002454Y020324D01*
X002454Y020670D02*
X002513Y020670D01*
X002513Y020727D02*
X002454Y020727D01*
X002454Y020785D02*
X002513Y020785D01*
X002513Y020842D02*
X002454Y020842D01*
X002146Y019806D02*
X000328Y019806D01*
X000328Y019749D02*
X002203Y019749D01*
X002158Y019691D02*
X000328Y019691D01*
X000328Y019634D02*
X002101Y019634D01*
X002043Y019576D02*
X001534Y019576D01*
X001631Y019519D02*
X001986Y019519D01*
X001210Y019921D02*
X001150Y019921D01*
X001150Y019979D02*
X001210Y019979D01*
X001210Y020037D02*
X001150Y020037D01*
X001150Y020094D02*
X001210Y020094D01*
X001210Y020152D02*
X001150Y020152D01*
X001150Y020209D02*
X001210Y020209D01*
X001210Y020382D02*
X001150Y020382D01*
X001150Y020439D02*
X001210Y020439D01*
X001210Y020497D02*
X001150Y020497D01*
X001150Y020555D02*
X001210Y020555D01*
X001210Y020612D02*
X001150Y020612D01*
X000826Y019576D02*
X000328Y019576D01*
X000328Y019519D02*
X000729Y019519D01*
X000672Y019461D02*
X000328Y019461D01*
X000328Y019403D02*
X000647Y019403D01*
X000623Y019346D02*
X000328Y019346D01*
X000328Y019288D02*
X000621Y019288D01*
X000621Y019231D02*
X000328Y019231D01*
X000328Y019173D02*
X000639Y019173D01*
X000662Y019116D02*
X000328Y019116D01*
X000328Y019058D02*
X000709Y019058D01*
X000778Y019001D02*
X000328Y019001D01*
X002792Y015778D02*
X003092Y015778D01*
X003092Y015835D02*
X002849Y015835D01*
X002907Y015893D02*
X003092Y015893D01*
X003092Y015950D02*
X002964Y015950D01*
X003022Y016008D02*
X003092Y016008D01*
X003092Y016065D02*
X003056Y016065D01*
X003056Y016123D02*
X003092Y016123D01*
X003092Y016180D02*
X003056Y016180D01*
X003056Y016238D02*
X003092Y016238D01*
X003092Y015720D02*
X002779Y015720D01*
X002837Y015662D02*
X003092Y015662D01*
X003092Y015605D02*
X002894Y015605D01*
X002952Y015547D02*
X003092Y015547D01*
X003092Y015490D02*
X003005Y015490D01*
X003005Y015432D02*
X003092Y015432D01*
X003092Y015375D02*
X003005Y015375D01*
X003005Y015317D02*
X003092Y015317D01*
X003092Y015260D02*
X003005Y015260D01*
X003005Y015202D02*
X003092Y015202D01*
X003092Y015144D02*
X003005Y015144D01*
X003005Y015087D02*
X003092Y015087D01*
X003092Y015029D02*
X002972Y015029D01*
X002914Y014972D02*
X003092Y014972D01*
X003092Y014914D02*
X002857Y014914D01*
X002799Y014857D02*
X003092Y014857D01*
X003092Y014799D02*
X002742Y014799D01*
X002758Y014742D02*
X003092Y014742D01*
X003092Y014684D02*
X002815Y014684D01*
X002873Y014626D02*
X003092Y014626D01*
X003092Y014569D02*
X002930Y014569D01*
X002988Y014511D02*
X003092Y014511D01*
X003092Y014454D02*
X003005Y014454D01*
X003005Y014396D02*
X003092Y014396D01*
X003092Y014339D02*
X003005Y014339D01*
X003005Y014281D02*
X003092Y014281D01*
X003092Y014224D02*
X003005Y014224D01*
X003005Y014166D02*
X003092Y014166D01*
X003092Y014108D02*
X003005Y014108D01*
X002993Y014051D02*
X003092Y014051D01*
X003092Y013993D02*
X002936Y013993D01*
X002878Y013936D02*
X003092Y013936D01*
X003092Y013878D02*
X002821Y013878D01*
X002763Y013821D02*
X003092Y013821D01*
X003092Y013763D02*
X002736Y013763D01*
X002794Y013706D02*
X003092Y013706D01*
X003092Y013648D02*
X002851Y013648D01*
X002909Y013590D02*
X003092Y013590D01*
X003092Y013533D02*
X002966Y013533D01*
X003005Y013475D02*
X003092Y013475D01*
X003092Y013418D02*
X003005Y013418D01*
X003005Y013360D02*
X003092Y013360D01*
X003092Y013303D02*
X003005Y013303D01*
X003005Y013245D02*
X003092Y013245D01*
X003092Y013188D02*
X003005Y013188D01*
X003005Y013130D02*
X003092Y013130D01*
X003092Y013072D02*
X003005Y013072D01*
X002957Y013015D02*
X003092Y013015D01*
X003092Y012957D02*
X002900Y012957D01*
X002842Y012900D02*
X003092Y012900D01*
X003092Y012842D02*
X002785Y012842D01*
X002727Y012785D02*
X003092Y012785D01*
X003092Y012727D02*
X002772Y012727D01*
X002830Y012670D02*
X003092Y012670D01*
X003092Y012612D02*
X002887Y012612D01*
X002945Y012554D02*
X003092Y012554D01*
X003092Y012497D02*
X003002Y012497D01*
X003005Y012439D02*
X003092Y012439D01*
X003092Y012382D02*
X003005Y012382D01*
X003005Y012324D02*
X003092Y012324D01*
X003092Y012267D02*
X003005Y012267D01*
X003005Y012209D02*
X003092Y012209D01*
X003092Y012152D02*
X003005Y012152D01*
X003005Y012094D02*
X003092Y012094D01*
X003092Y012036D02*
X002979Y012036D01*
X002921Y011979D02*
X003078Y011979D01*
X003034Y011921D02*
X002864Y011921D01*
X002806Y011864D02*
X003034Y011864D01*
X003034Y011806D02*
X002749Y011806D01*
X002751Y011749D02*
X003057Y011749D01*
X003115Y011691D02*
X002808Y011691D01*
X003330Y011231D02*
X003479Y011231D01*
X003426Y011173D02*
X003383Y011173D01*
X004410Y008583D02*
X004481Y008583D01*
X004176Y008526D02*
X004176Y007463D01*
X004284Y007777D02*
X004608Y007777D01*
X004608Y007720D02*
X004589Y007720D01*
X004608Y007835D02*
X004548Y007835D01*
X004605Y007892D02*
X004608Y007892D01*
X004886Y007950D02*
X005048Y007950D01*
X004950Y008008D02*
X004886Y008008D01*
X004055Y006108D02*
X006300Y006108D01*
X006278Y006051D02*
X006357Y006051D01*
X006360Y005993D02*
X006336Y005993D01*
X006242Y006166D02*
X003685Y006166D01*
X003685Y006223D02*
X006185Y006223D01*
X006127Y006281D02*
X003685Y006281D01*
X003685Y006108D02*
X003824Y006108D01*
X003773Y006051D02*
X003685Y006051D01*
X003685Y005993D02*
X003773Y005993D01*
X003773Y005936D02*
X003685Y005936D01*
X003685Y005878D02*
X003812Y005878D01*
X003870Y005820D02*
X003685Y005820D01*
X003685Y005763D02*
X004105Y005763D01*
X004068Y005820D02*
X004010Y005820D01*
X004162Y005705D02*
X003685Y005705D01*
X004107Y005993D02*
X004123Y005993D01*
X004107Y006051D02*
X006129Y006051D01*
X006071Y005993D02*
X004348Y005993D01*
X004402Y005936D02*
X005778Y005936D01*
X006000Y005936D02*
X006036Y005936D01*
X006056Y005763D02*
X006065Y005763D01*
X006065Y005705D02*
X006021Y005705D01*
X006065Y005648D02*
X005963Y005648D01*
X006342Y005648D02*
X006360Y005648D01*
X006360Y005705D02*
X006342Y005705D01*
X006342Y005763D02*
X006360Y005763D01*
X006342Y005590D02*
X006360Y005590D01*
X006360Y005533D02*
X006342Y005533D01*
X006342Y005475D02*
X006360Y005475D01*
X006360Y005418D02*
X006342Y005418D01*
X006342Y005360D02*
X006360Y005360D01*
X006360Y005302D02*
X006342Y005302D01*
X006342Y005245D02*
X006360Y005245D01*
X006360Y005187D02*
X006342Y005187D01*
X006342Y005130D02*
X006360Y005130D01*
X006360Y005072D02*
X006342Y005072D01*
X006342Y005015D02*
X006360Y005015D01*
X006360Y004957D02*
X006342Y004957D01*
X006342Y004900D02*
X006360Y004900D01*
X006360Y004842D02*
X006342Y004842D01*
X006342Y004784D02*
X006360Y004784D01*
X006360Y004727D02*
X006342Y004727D01*
X006342Y004669D02*
X006360Y004669D01*
X006360Y004612D02*
X006342Y004612D01*
X006342Y004554D02*
X006360Y004554D01*
X006360Y004497D02*
X006342Y004497D01*
X006342Y004439D02*
X006360Y004439D01*
X006360Y004382D02*
X006342Y004382D01*
X006342Y004324D02*
X006391Y004324D01*
X006342Y004266D02*
X006449Y004266D01*
X006506Y004209D02*
X006342Y004209D01*
X006342Y004151D02*
X006564Y004151D01*
X006674Y004094D02*
X006342Y004094D01*
X006342Y004036D02*
X006731Y004036D01*
X006831Y003979D02*
X006342Y003979D01*
X006342Y003921D02*
X008103Y003921D01*
X008160Y003864D02*
X006342Y003864D01*
X006342Y003806D02*
X008218Y003806D01*
X008215Y003748D02*
X006342Y003748D01*
X006342Y003691D02*
X008158Y003691D01*
X008045Y003979D02*
X007529Y003979D01*
X007629Y004036D02*
X007988Y004036D01*
X007961Y004094D02*
X007686Y004094D01*
X007712Y004151D02*
X007961Y004151D01*
X007961Y004209D02*
X007736Y004209D01*
X007739Y004266D02*
X007961Y004266D01*
X007961Y004324D02*
X007739Y004324D01*
X007722Y004382D02*
X007961Y004382D01*
X007961Y004439D02*
X007698Y004439D01*
X007653Y004497D02*
X007964Y004497D01*
X008021Y004554D02*
X007587Y004554D01*
X007607Y005015D02*
X008009Y005015D01*
X007961Y005072D02*
X007665Y005072D01*
X007703Y005130D02*
X007961Y005130D01*
X007961Y005187D02*
X007727Y005187D01*
X007739Y005245D02*
X007961Y005245D01*
X007961Y005302D02*
X007739Y005302D01*
X007731Y005360D02*
X007961Y005360D01*
X007961Y005418D02*
X007707Y005418D01*
X007674Y005475D02*
X007961Y005475D01*
X008000Y005533D02*
X007617Y005533D01*
X007500Y005590D02*
X008057Y005590D01*
X008115Y005648D02*
X006638Y005648D01*
X006638Y005705D02*
X008172Y005705D01*
X008230Y005763D02*
X006638Y005763D01*
X006638Y005820D02*
X008203Y005820D01*
X008146Y005878D02*
X006638Y005878D01*
X006638Y005590D02*
X006860Y005590D01*
X006743Y005533D02*
X006638Y005533D01*
X006638Y005475D02*
X006686Y005475D01*
X006653Y005418D02*
X006638Y005418D01*
X006638Y005130D02*
X006657Y005130D01*
X006638Y005072D02*
X006695Y005072D01*
X006638Y005015D02*
X006753Y005015D01*
X006638Y004957D02*
X008067Y004957D01*
X008124Y004900D02*
X006638Y004900D01*
X006638Y004842D02*
X008182Y004842D01*
X008239Y004784D02*
X006638Y004784D01*
X006638Y004727D02*
X008194Y004727D01*
X008136Y004669D02*
X006638Y004669D01*
X006638Y004612D02*
X008079Y004612D01*
X008727Y004784D02*
X009284Y004784D01*
X009284Y004727D02*
X008772Y004727D01*
X008830Y004669D02*
X009284Y004669D01*
X009284Y004612D02*
X008888Y004612D01*
X008945Y004554D02*
X009284Y004554D01*
X009284Y004497D02*
X009003Y004497D01*
X009005Y004439D02*
X009284Y004439D01*
X009284Y004382D02*
X009005Y004382D01*
X009005Y004324D02*
X009284Y004324D01*
X009284Y004266D02*
X009005Y004266D01*
X009005Y004209D02*
X009284Y004209D01*
X009284Y004151D02*
X009005Y004151D01*
X009005Y004094D02*
X009284Y004094D01*
X009284Y004036D02*
X008979Y004036D01*
X008921Y003979D02*
X009284Y003979D01*
X009284Y003921D02*
X008864Y003921D01*
X008806Y003864D02*
X009284Y003864D01*
X009284Y003806D02*
X008748Y003806D01*
X008751Y003748D02*
X009284Y003748D01*
X009284Y003691D02*
X008808Y003691D01*
X008866Y003633D02*
X009284Y003633D01*
X009284Y003576D02*
X008924Y003576D01*
X008981Y003518D02*
X009284Y003518D01*
X009284Y003461D02*
X009005Y003461D01*
X009005Y003403D02*
X009284Y003403D01*
X009284Y003346D02*
X009005Y003346D01*
X009005Y003288D02*
X009284Y003288D01*
X009284Y003230D02*
X009005Y003230D01*
X009005Y003173D02*
X009284Y003173D01*
X009284Y003115D02*
X009005Y003115D01*
X009000Y003058D02*
X009284Y003058D01*
X009284Y003000D02*
X008943Y003000D01*
X008885Y002943D02*
X009284Y002943D01*
X009284Y002885D02*
X008828Y002885D01*
X008770Y002828D02*
X009284Y002828D01*
X009284Y002770D02*
X008729Y002770D01*
X008787Y002712D02*
X009284Y002712D01*
X009284Y002655D02*
X008844Y002655D01*
X008902Y002597D02*
X009284Y002597D01*
X009284Y002540D02*
X008960Y002540D01*
X009005Y002482D02*
X009284Y002482D01*
X009284Y002425D02*
X009005Y002425D01*
X009005Y002367D02*
X009284Y002367D01*
X009284Y002310D02*
X009005Y002310D01*
X009005Y002252D02*
X009284Y002252D01*
X009284Y002194D02*
X009005Y002194D01*
X009005Y002137D02*
X009284Y002137D01*
X009284Y002079D02*
X009005Y002079D01*
X008964Y002022D02*
X009284Y002022D01*
X009284Y001964D02*
X008907Y001964D01*
X008849Y001907D02*
X009284Y001907D01*
X009284Y001849D02*
X008792Y001849D01*
X008780Y001792D02*
X009284Y001792D01*
X009284Y001734D02*
X008837Y001734D01*
X008895Y001676D02*
X009284Y001676D01*
X009284Y001619D02*
X008952Y001619D01*
X009010Y001561D02*
X009284Y001561D01*
X009284Y001504D02*
X009056Y001504D01*
X009056Y001446D02*
X009284Y001446D01*
X009284Y001389D02*
X009056Y001389D01*
X008513Y001158D02*
X008454Y001158D01*
X008454Y001101D02*
X008513Y001101D01*
X008513Y001043D02*
X008454Y001043D01*
X008454Y000986D02*
X008513Y000986D01*
X008513Y000928D02*
X008454Y000928D01*
X008454Y000871D02*
X008513Y000871D01*
X008513Y000813D02*
X008454Y000813D01*
X008454Y000756D02*
X008513Y000756D01*
X008196Y000756D02*
X006342Y000756D01*
X006342Y000813D02*
X008139Y000813D01*
X008081Y000871D02*
X006342Y000871D01*
X006342Y000928D02*
X006820Y000928D01*
X006713Y000986D02*
X006342Y000986D01*
X006342Y001043D02*
X006653Y001043D01*
X006614Y001101D02*
X006342Y001101D01*
X006342Y001158D02*
X006590Y001158D01*
X006576Y001216D02*
X006342Y001216D01*
X006603Y001561D02*
X006700Y001561D01*
X006661Y001619D02*
X006796Y001619D01*
X006715Y001676D02*
X008072Y001676D01*
X008014Y001619D02*
X007564Y001619D01*
X007660Y001561D02*
X007957Y001561D01*
X007911Y001504D02*
X007714Y001504D01*
X007750Y001446D02*
X007911Y001446D01*
X007911Y001389D02*
X007774Y001389D01*
X007786Y001331D02*
X007911Y001331D01*
X007911Y001216D02*
X007784Y001216D01*
X007770Y001158D02*
X007911Y001158D01*
X007911Y001101D02*
X007746Y001101D01*
X007707Y001043D02*
X007911Y001043D01*
X007966Y000986D02*
X007647Y000986D01*
X007540Y000928D02*
X008024Y000928D01*
X008129Y001734D02*
X006715Y001734D01*
X006715Y001792D02*
X008187Y001792D01*
X008175Y001849D02*
X006703Y001849D01*
X006645Y001907D02*
X008117Y001907D01*
X008060Y001964D02*
X007494Y001964D01*
X007614Y002022D02*
X008002Y002022D01*
X007210Y001619D02*
X007150Y001619D01*
X007150Y001561D02*
X007210Y001561D01*
X007210Y001504D02*
X007150Y001504D01*
X007150Y001446D02*
X007210Y001446D01*
X007210Y001389D02*
X007150Y001389D01*
X007150Y001331D02*
X007210Y001331D01*
X007210Y001158D02*
X007150Y001158D01*
X007150Y001101D02*
X007210Y001101D01*
X007210Y001043D02*
X007150Y001043D01*
X007150Y000986D02*
X007210Y000986D01*
X007210Y000928D02*
X007150Y000928D01*
X006065Y002079D02*
X005566Y002079D01*
X005624Y002137D02*
X006065Y002137D01*
X006065Y002194D02*
X005652Y002194D01*
X005675Y002252D02*
X006065Y002252D01*
X006065Y002310D02*
X005742Y002310D01*
X005811Y002367D02*
X006065Y002367D01*
X006065Y002425D02*
X005869Y002425D01*
X005870Y002482D02*
X006065Y002482D01*
X006065Y002540D02*
X005870Y002540D01*
X005870Y002597D02*
X006065Y002597D01*
X006065Y002655D02*
X005870Y002655D01*
X005870Y002712D02*
X006065Y002712D01*
X006065Y002770D02*
X005870Y002770D01*
X005870Y002828D02*
X006065Y002828D01*
X006065Y002885D02*
X005870Y002885D01*
X005870Y002943D02*
X006065Y002943D01*
X006065Y003000D02*
X005870Y003000D01*
X005592Y002885D02*
X005371Y002885D01*
X005377Y002828D02*
X005592Y002828D01*
X005592Y002770D02*
X005377Y002770D01*
X005373Y002712D02*
X005592Y002712D01*
X005592Y002655D02*
X005315Y002655D01*
X006638Y004497D02*
X006707Y004497D01*
X006773Y004554D02*
X006638Y004554D01*
X008784Y004842D02*
X009284Y004842D01*
X009284Y004900D02*
X008842Y004900D01*
X008900Y004957D02*
X009284Y004957D01*
X009284Y005015D02*
X008957Y005015D01*
X009005Y005072D02*
X009284Y005072D01*
X009284Y005130D02*
X009005Y005130D01*
X009005Y005187D02*
X009284Y005187D01*
X009284Y005245D02*
X009005Y005245D01*
X009005Y005302D02*
X009284Y005302D01*
X009284Y005360D02*
X009005Y005360D01*
X009005Y005418D02*
X009284Y005418D01*
X009284Y005475D02*
X009005Y005475D01*
X008967Y005533D02*
X009284Y005533D01*
X009284Y005590D02*
X008909Y005590D01*
X008852Y005648D02*
X009284Y005648D01*
X009284Y005705D02*
X008794Y005705D01*
X008736Y005763D02*
X009284Y005763D01*
X009284Y005820D02*
X008763Y005820D01*
X008820Y005878D02*
X009284Y005878D01*
X009284Y005936D02*
X008878Y005936D01*
X008936Y005993D02*
X009284Y005993D01*
X009284Y006051D02*
X008993Y006051D01*
X009005Y006108D02*
X009284Y006108D01*
X009284Y006166D02*
X009005Y006166D01*
X009005Y006223D02*
X009284Y006223D01*
X009284Y006281D02*
X009005Y006281D01*
X009005Y006338D02*
X009284Y006338D01*
X009284Y006396D02*
X009005Y006396D01*
X009005Y006454D02*
X009284Y006454D01*
X009284Y006511D02*
X008988Y006511D01*
X008931Y006569D02*
X009284Y006569D01*
X009284Y006626D02*
X008873Y006626D01*
X008816Y006684D02*
X009284Y006684D01*
X009284Y006741D02*
X008758Y006741D01*
X011787Y011806D02*
X012434Y011806D01*
X012434Y011864D02*
X011844Y011864D01*
X011863Y011921D02*
X012434Y011921D01*
X012434Y011979D02*
X011863Y011979D01*
X011848Y012036D02*
X012434Y012036D01*
X012434Y012094D02*
X011790Y012094D01*
X011579Y012324D02*
X009005Y012324D01*
X009005Y012382D02*
X011528Y012382D01*
X011528Y012439D02*
X009005Y012439D01*
X009002Y012497D02*
X011528Y012497D01*
X011570Y012554D02*
X008945Y012554D01*
X008887Y012612D02*
X012434Y012612D01*
X012434Y012670D02*
X008830Y012670D01*
X008772Y012727D02*
X012434Y012727D01*
X011610Y012785D02*
X008727Y012785D01*
X008785Y012842D02*
X011553Y012842D01*
X011528Y012900D02*
X008842Y012900D01*
X008900Y012957D02*
X011528Y012957D01*
X011538Y013015D02*
X008957Y013015D01*
X007718Y014396D02*
X007716Y014396D01*
X007718Y014454D02*
X007692Y014454D01*
X007718Y014511D02*
X007638Y014511D01*
X007718Y014569D02*
X007552Y014569D01*
X007626Y014972D02*
X007718Y014972D01*
X007718Y015029D02*
X007693Y015029D01*
X003718Y017562D02*
X003370Y017562D01*
X003370Y017619D02*
X003661Y017619D01*
X003615Y017677D02*
X003370Y017677D01*
X003370Y017734D02*
X003615Y017734D01*
X003615Y017792D02*
X003370Y017792D01*
X003370Y017849D02*
X003615Y017849D01*
X003670Y017907D02*
X003370Y017907D01*
X003370Y017965D02*
X003727Y017965D01*
X000751Y010540D02*
X000653Y010540D01*
X000653Y010482D02*
X000693Y010482D01*
X000656Y010425D02*
X000653Y010425D01*
X000653Y009562D02*
X000791Y009562D01*
X000715Y009504D02*
X000653Y009504D01*
X000653Y009446D02*
X000665Y009446D01*
D18*
X000751Y009786D03*
X000751Y010790D03*
X000751Y011794D03*
X002975Y010771D03*
X003964Y010652D03*
X004274Y010652D03*
X004279Y010972D03*
X003960Y010967D03*
X003969Y010023D03*
X003969Y009712D03*
X003960Y009393D03*
X004284Y009407D03*
X004594Y009398D03*
X004294Y009727D03*
X004274Y010027D03*
X004589Y010027D03*
X005219Y010023D03*
X005219Y009708D03*
X005224Y009393D03*
X005534Y010027D03*
X005219Y010652D03*
X005224Y010967D03*
X005574Y011361D03*
X005967Y011538D03*
X006007Y011263D03*
X006046Y010298D03*
X006361Y009156D03*
X005889Y008290D03*
X005987Y006952D03*
X006204Y005889D03*
X005889Y005810D03*
X005544Y005716D03*
X004708Y005397D03*
X004570Y004983D03*
X005023Y004314D03*
X004235Y005869D03*
X003940Y005987D03*
X003812Y006966D03*
X004245Y007006D03*
X003822Y007778D03*
X004471Y007995D03*
X004471Y008349D03*
X004727Y012089D03*
X005042Y012188D03*
X005495Y012286D03*
X003802Y012714D03*
X000751Y007778D03*
X000771Y006774D03*
X000771Y005790D03*
X000771Y004767D03*
X000771Y003763D03*
X000751Y002778D03*
X000771Y001794D03*
X007582Y010810D03*
X011696Y011952D03*
X011696Y012444D03*
X011696Y012936D03*
X011696Y013428D03*
X010633Y021302D03*
D19*
X003841Y017759D03*
D20*
X002483Y017278D02*
X001180Y017278D01*
X001180Y018278D02*
X002483Y018278D01*
X002483Y019278D02*
X001180Y019278D01*
X001180Y015278D02*
X002483Y015278D01*
X002483Y014278D02*
X001180Y014278D01*
X001180Y012278D02*
X002483Y012278D01*
X002483Y011278D02*
X001180Y011278D01*
X001180Y010278D02*
X002483Y010278D01*
X002483Y009278D02*
X001180Y009278D01*
X001180Y008278D02*
X002483Y008278D01*
X002483Y007278D02*
X001180Y007278D01*
X001180Y006278D02*
X002483Y006278D01*
X002483Y005278D02*
X001180Y005278D01*
X001180Y004278D02*
X002483Y004278D01*
X002483Y003278D02*
X001180Y003278D01*
X001180Y002278D02*
X002483Y002278D01*
X002483Y001278D02*
X001180Y001278D01*
X007180Y002278D02*
X008483Y002278D01*
X008483Y003278D02*
X007180Y003278D01*
X007180Y018278D02*
X008483Y018278D01*
X008483Y019278D02*
X007180Y019278D01*
X007180Y020278D02*
X008483Y020278D01*
D21*
X007837Y019845D03*
X007542Y011794D03*
X006007Y009762D03*
X006007Y009432D03*
X005889Y009038D03*
X004496Y007562D03*
X004028Y007326D03*
X004117Y008822D03*
X003576Y008969D03*
X004767Y011440D03*
D22*
X004786Y009570D02*
X004786Y009019D01*
X004786Y008802D01*
D23*
X004826Y008763D01*
D24*
X004963Y008645D01*
D25*
X004963Y008152D01*
D26*
X005121Y008074D01*
M02*
