G75*
G70*
%OFA0B0*%
%FSLAX24Y24*%
%IPPOS*%
%LPD*%
%AMOC8*
5,1,8,0,0,1.08239X$1,22.5*
%
%ADD10C,0.0000*%
%ADD11OC8,0.0886*%
%ADD12C,0.0480*%
%ADD13R,0.0669X0.0669*%
%ADD14R,0.1004X0.0394*%
%ADD15C,0.0236*%
%ADD16C,0.0295*%
D10*
X000180Y000180D02*
X000180Y021735D01*
X012582Y021735D01*
X012582Y010121D01*
X009432Y010121D01*
X009432Y000180D01*
X000180Y000180D01*
D11*
X002483Y001278D03*
X002483Y002278D03*
X002483Y003278D03*
X002483Y004278D03*
X002483Y005278D03*
X002483Y006278D03*
X002483Y007278D03*
X002483Y008278D03*
X002483Y009278D03*
X002483Y010278D03*
X002483Y011278D03*
X002483Y012278D03*
X002483Y013278D03*
X002483Y014278D03*
X002483Y015278D03*
X002483Y016278D03*
X002483Y017278D03*
X002483Y018278D03*
X002483Y019278D03*
X002483Y020278D03*
X008483Y020278D03*
X008483Y019278D03*
X008483Y018278D03*
X008483Y017278D03*
X008483Y016278D03*
X008483Y015278D03*
X008483Y014278D03*
X008483Y013278D03*
X008483Y012278D03*
X008483Y011278D03*
X008483Y010278D03*
X008483Y009278D03*
X008483Y008278D03*
X008483Y007278D03*
X008483Y006278D03*
X008483Y005278D03*
X008483Y004278D03*
X008483Y003278D03*
X008483Y002278D03*
X008483Y001278D03*
D12*
X007420Y001278D02*
X006940Y001278D01*
X006940Y002278D02*
X007420Y002278D01*
X007420Y003278D02*
X006940Y003278D01*
X006940Y004278D02*
X007420Y004278D01*
X007420Y005278D02*
X006940Y005278D01*
X006940Y006278D02*
X007420Y006278D01*
X007420Y007278D02*
X006940Y007278D01*
X006940Y008278D02*
X007420Y008278D01*
X007420Y009278D02*
X006940Y009278D01*
X006940Y010278D02*
X007420Y010278D01*
X007420Y011278D02*
X006940Y011278D01*
X006940Y012278D02*
X007420Y012278D01*
X007420Y013278D02*
X006940Y013278D01*
X006940Y014278D02*
X007420Y014278D01*
X007420Y015278D02*
X006940Y015278D01*
X006940Y016278D02*
X007420Y016278D01*
X007420Y017278D02*
X006940Y017278D01*
X006940Y018278D02*
X007420Y018278D01*
X007420Y019278D02*
X006940Y019278D01*
X006940Y020278D02*
X007420Y020278D01*
X001420Y020278D02*
X000940Y020278D01*
X000940Y019278D02*
X001420Y019278D01*
X001420Y018278D02*
X000940Y018278D01*
X000940Y017278D02*
X001420Y017278D01*
X001420Y016278D02*
X000940Y016278D01*
X000940Y015278D02*
X001420Y015278D01*
X001420Y014278D02*
X000940Y014278D01*
X000940Y013278D02*
X001420Y013278D01*
X001420Y012278D02*
X000940Y012278D01*
X000940Y011278D02*
X001420Y011278D01*
X001420Y010278D02*
X000940Y010278D01*
X000940Y009278D02*
X001420Y009278D01*
X001420Y008278D02*
X000940Y008278D01*
X000940Y007278D02*
X001420Y007278D01*
X001420Y006278D02*
X000940Y006278D01*
X000940Y005278D02*
X001420Y005278D01*
X001420Y004278D02*
X000940Y004278D01*
X000940Y003278D02*
X001420Y003278D01*
X001420Y002278D02*
X000940Y002278D01*
X000940Y001278D02*
X001420Y001278D01*
D13*
X011971Y016066D03*
X011971Y019924D03*
D14*
X010603Y018782D03*
X010603Y017995D03*
X010603Y017208D03*
D15*
X010200Y016755D03*
X009786Y020771D03*
X005987Y020574D03*
X005397Y017542D03*
X004668Y016086D03*
X003231Y011853D03*
X004747Y010515D03*
X003723Y008310D03*
X005908Y004294D03*
X005357Y003310D03*
X005180Y002798D03*
X005456Y002247D03*
X005003Y002089D03*
X006519Y001755D03*
X003192Y001834D03*
X006243Y008172D03*
X003526Y020574D03*
D16*
X003841Y017759D03*
M02*
