%
M48
M72
T01C0.0098
T02C0.0157
T03C0.0197
T04C0.0320
T05C0.0591
%
T01
X771Y1794
X751Y2778
X771Y3763
X771Y4767
X771Y5790
X771Y6774
X751Y7778
X751Y9786
X751Y10790
X751Y11794
X2975Y10771
X3964Y10652
X4274Y10652
X4279Y10972
X3960Y10967
X3969Y10023
X3969Y9712
X3960Y9393
X4284Y9407
X4594Y9398
X4294Y9727
X4274Y10027
X4589Y10027
X5219Y10023
X5219Y9708
X5224Y9393
X5534Y10027
X5219Y10652
X5224Y10967
X5574Y11361
X5967Y11538
X6007Y11263
X6046Y10298
X6007Y9762
X6007Y9432
X5889Y9038
X6361Y9156
X5889Y8290
X5987Y6952
X6204Y5889
X5889Y5810
X5544Y5716
X4708Y5397
X4570Y4983
X5023Y4314
X4235Y5869
X3940Y5987
X3812Y6966
X4028Y7326
X4245Y7006
X4496Y7562
X4471Y7995
X4471Y8349
X4117Y8822
X3576Y8969
X3822Y7778
X4767Y11440
X4727Y12089
X5042Y12188
X5495Y12286
X3802Y12714
X7542Y11794
X7582Y10810
X11696Y11952
X11696Y12444
X11696Y12936
X11696Y13428
X7837Y19845
X10633Y21302
T02
X9786Y20771
X10200Y16755
X5987Y20574
X5397Y17542
X4668Y16086
X3231Y11853
X4747Y10515
X3723Y8310
X5908Y4294
X5357Y3310
X5180Y2798
X5456Y2247
X5003Y2089
X6519Y1755
X3192Y1834
X6243Y8172
X3526Y20574
T03
X3841Y17759
T04
X1180Y1278
X1180Y2278
X1180Y3278
X1180Y4278
X1180Y5278
X1180Y6278
X1180Y7278
X1180Y8278
X1180Y9278
X1180Y10278
X1180Y11278
X1180Y12278
X1180Y13278
X1180Y14278
X1180Y15278
X1180Y16278
X1180Y17278
X1180Y18278
X1180Y19278
X1180Y20278
X7180Y20278
X7180Y19278
X7180Y18278
X7180Y17278
X7180Y16278
X7180Y15278
X7180Y14278
X7180Y13278
X7180Y12278
X7180Y11278
X7180Y10278
X7180Y9278
X7180Y8278
X7180Y7278
X7180Y6278
X7180Y5278
X7180Y4278
X7180Y3278
X7180Y2278
X7180Y1278
T05
X8483Y1278
X8483Y2278
X8483Y3278
X8483Y4278
X8483Y5278
X8483Y6278
X8483Y7278
X8483Y8278
X8483Y9278
X8483Y10278
X8483Y11278
X8483Y12278
X8483Y13278
X8483Y14278
X8483Y15278
X8483Y16278
X8483Y17278
X8483Y18278
X8483Y19278
X8483Y20278
X2483Y20278
X2483Y19278
X2483Y18278
X2483Y17278
X2483Y16278
X2483Y15278
X2483Y14278
X2483Y13278
X2483Y12278
X2483Y11278
X2483Y10278
X2483Y9278
X2483Y8278
X2483Y7278
X2483Y6278
X2483Y5278
X2483Y4278
X2483Y3278
X2483Y2278
X2483Y1278
M30
